<svg width="25" height="24" viewBox="0 0 25 24" fill="none" xmlns="http://www.w3.org/2000/svg">
<path d="M20.1652 6.82018L14.4052 2.79018C12.8352 1.69018 10.4252 1.75018 8.91523 2.92018L3.90523 6.83018C2.90523 7.61018 2.11523 9.21018 2.11523 10.4702V17.3702C2.11523 19.9202 4.18523 22.0002 6.73523 22.0002H17.5152C20.0652 22.0002 22.1352 19.9302 22.1352 17.3802V10.6002C22.1352 9.25018 21.2652 7.59018 20.1652 6.82018ZM12.8752 18.0002C12.8752 18.4102 12.5352 18.7502 12.1252 18.7502C11.7152 18.7502 11.3752 18.4102 11.3752 18.0002V15.0002C11.3752 14.5902 11.7152 14.2502 12.1252 14.2502C12.5352 14.2502 12.8752 14.5902 12.8752 15.0002V18.0002Z" fill="#484C52"/>
</svg>
