<svg width="41" height="22" viewBox="0 0 41 22" fill="none" xmlns="http://www.w3.org/2000/svg">
<path d="M20.75 2C21.9435 2 23.0881 2.47411 23.932 3.31802C24.7759 4.16193 25.25 5.30653 25.25 6.5C25.25 7.69347 24.7759 8.83807 23.932 9.68198C23.0881 10.5259 21.9435 11 20.75 11C19.5565 11 18.4119 10.5259 17.568 9.68198C16.7241 8.83807 16.25 7.69347 16.25 6.5C16.25 5.30653 16.7241 4.16193 17.568 3.31802C18.4119 2.47411 19.5565 2 20.75 2V2ZM20.75 13.25C25.7225 13.25 29.75 15.2637 29.75 17.75V20H11.75V17.75C11.75 15.2637 15.7775 13.25 20.75 13.25Z" fill="#2F4972"/>
</svg>
