<svg width="22" height="22" viewBox="0 0 22 22" fill="none" xmlns="http://www.w3.org/2000/svg">
<path d="M14.377 10.175L13.387 11.187C12.595 11.979 12.1 12.65 12.1 14.3H9.9V13.75C9.9 12.529 10.395 11.429 11.187 10.637L12.551 9.251C12.958 8.855 13.2 8.305 13.2 7.7C13.2 6.479 12.21 5.5 11 5.5C10.4165 5.5 9.85695 5.73179 9.44437 6.14437C9.03179 6.55695 8.8 7.11652 8.8 7.7H6.6C6.6 6.53305 7.06357 5.41389 7.88873 4.58873C8.71389 3.76357 9.83305 3.3 11 3.3C12.167 3.3 13.2861 3.76357 14.1113 4.58873C14.9364 5.41389 15.4 6.53305 15.4 7.7C15.4 8.668 15.004 9.537 14.377 10.175ZM12.1 18.7H9.9V16.5H12.1V18.7ZM11 0C9.55546 0 8.12506 0.284523 6.79048 0.837325C5.4559 1.39013 4.24327 2.20038 3.22183 3.22183C1.15893 5.28473 0 8.08262 0 11C0 13.9174 1.15893 16.7153 3.22183 18.7782C4.24327 19.7996 5.4559 20.6099 6.79048 21.1627C8.12506 21.7155 9.55546 22 11 22C13.9174 22 16.7153 20.8411 18.7782 18.7782C20.8411 16.7153 22 13.9174 22 11C22 4.917 17.05 0 11 0Z" fill="#2F4972"/>
</svg>
