<svg width="1584" height="1818" viewBox="0 0 1584 1818" fill="none" xmlns="http://www.w3.org/2000/svg">
<path d="M1372.94 774.668C1332.17 783.161 1325.29 790.046 1316.79 830.817C1308.3 790.05 1301.42 783.161 1260.64 774.668C1301.42 766.176 1308.3 759.291 1316.79 718.52C1325.29 759.287 1332.17 766.172 1372.94 774.668Z" fill="#020001"/>
<path d="M1445.51 1539.65C1444.48 1539.65 1443.59 1538.93 1443.38 1537.92C1435.05 1497.9 1428.94 1491.79 1388.92 1483.46C1387.91 1483.25 1387.19 1482.36 1387.19 1481.32C1387.19 1480.29 1387.91 1479.4 1388.92 1479.19C1428.94 1470.86 1435.05 1464.75 1443.38 1424.74C1443.59 1423.72 1444.48 1423 1445.51 1423C1446.55 1423 1447.43 1423.72 1447.64 1424.74C1455.98 1464.75 1462.09 1470.86 1502.1 1479.19C1503.11 1479.4 1503.84 1480.29 1503.84 1481.32C1503.84 1482.36 1503.11 1483.25 1502.1 1483.46C1462.09 1491.79 1455.98 1497.9 1447.64 1537.92C1447.43 1538.92 1446.55 1539.65 1445.51 1539.65Z" fill="#FFCFE7"/>
<path d="M1445.51 1425.18C1454 1465.95 1460.89 1472.83 1501.66 1481.32C1460.89 1489.82 1454 1496.7 1445.51 1537.47C1437.02 1496.7 1430.13 1489.82 1389.36 1481.32C1430.13 1472.83 1437.02 1465.94 1445.51 1425.18ZM1445.51 1420.82C1443.44 1420.82 1441.67 1422.27 1441.24 1424.29C1433.08 1463.47 1427.66 1468.9 1388.47 1477.06C1386.45 1477.48 1385 1479.26 1385 1481.32C1385 1483.39 1386.45 1485.17 1388.47 1485.59C1427.65 1493.75 1433.08 1499.18 1441.24 1538.36C1441.67 1540.38 1443.44 1541.83 1445.51 1541.83C1447.57 1541.83 1449.35 1540.38 1449.77 1538.36C1457.94 1499.18 1463.36 1493.75 1502.55 1485.59C1504.57 1485.17 1506.01 1483.39 1506.01 1481.32C1506.01 1479.26 1504.57 1477.48 1502.55 1477.06C1463.36 1468.9 1457.94 1463.47 1449.77 1424.29C1449.35 1422.27 1447.57 1420.82 1445.51 1420.82Z" fill="#020001"/>
<path d="M60.5062 1007.57C59.4735 1007.57 58.5846 1006.85 58.3755 1005.84C50.0355 965.822 43.9309 959.713 3.91292 951.378C2.90201 951.169 2.17871 950.28 2.17871 949.247C2.17871 948.214 2.90201 947.325 3.91292 947.116C43.9309 938.781 50.0355 932.672 58.3755 892.658C58.5846 891.647 59.4735 890.924 60.5062 890.924C61.5389 890.924 62.4278 891.647 62.637 892.658C70.977 932.672 77.0816 938.781 117.095 947.116C118.106 947.325 118.829 948.214 118.829 949.247C118.829 950.28 118.106 951.169 117.095 951.378C77.0772 959.713 70.9726 965.822 62.637 1005.84C62.4322 1006.85 61.5389 1007.57 60.5062 1007.57Z" fill="#FFCFE7"/>
<path d="M60.5062 893.098C68.9987 933.865 75.8833 940.754 116.655 949.246C75.8833 957.739 68.9987 964.624 60.5062 1005.4C52.0137 964.624 45.1291 957.739 4.35735 949.246C45.1291 940.75 52.0137 933.865 60.5062 893.098ZM60.5062 888.74C58.4408 888.74 56.663 890.187 56.2404 892.209C48.079 931.39 42.6541 936.815 3.46844 944.981C1.44663 945.399 0 947.181 0 949.246C0 951.312 1.44663 953.09 3.46844 953.512C42.6498 961.674 48.0747 967.098 56.2404 1006.28C56.663 1008.31 58.4408 1009.75 60.5062 1009.75C62.5716 1009.75 64.3494 1008.31 64.7721 1006.28C72.9334 967.103 78.3583 961.678 117.544 953.512C119.566 953.09 121.012 951.312 121.012 949.246C121.012 947.181 119.566 945.403 117.544 944.981C78.3626 936.819 72.9334 931.394 64.7721 892.209C64.3538 890.187 62.5716 888.74 60.5062 888.74Z" fill="#020001"/>
<path d="M365.668 795.76C345.285 800.008 341.842 803.451 337.594 823.834C333.346 803.451 329.903 800.008 309.52 795.76C329.903 791.512 333.346 788.069 337.594 767.686C341.838 788.069 345.28 791.512 365.668 795.76Z" fill="#8F1318" stroke="#020001" stroke-miterlimit="10" stroke-linecap="round" stroke-linejoin="round"/>
<path d="M1218.17 118.723C1197.78 122.971 1194.34 126.414 1190.09 146.797C1185.85 126.414 1182.4 122.971 1162.02 118.723C1182.4 114.474 1185.85 111.032 1190.09 90.6484C1194.34 111.036 1197.78 114.479 1218.17 118.723Z" fill="#8F1318" stroke="#020001" stroke-miterlimit="10" stroke-linecap="round" stroke-linejoin="round"/>
<path d="M119.675 1299.03C98.1932 1303.51 94.5678 1307.13 90.0928 1328.61C85.6178 1307.13 81.9925 1303.51 60.5107 1299.03C81.9925 1294.56 85.6178 1290.93 90.0928 1269.45C94.5678 1290.93 98.1932 1294.56 119.675 1299.03Z" fill="#020001"/>
<path d="M190.144 567.475C173.656 570.908 170.871 573.693 167.438 590.181C164.004 573.693 161.22 570.908 144.731 567.475C161.22 564.041 164.004 561.257 167.438 544.769C170.871 561.257 173.66 564.041 190.144 567.475Z" fill="#020001"/>
<path d="M1067.47 1303.6C1050.98 1307.03 1048.19 1309.82 1044.76 1326.3C1041.33 1309.82 1038.54 1307.03 1022.05 1303.6C1038.54 1300.16 1041.33 1297.38 1044.76 1280.89C1048.19 1297.38 1050.98 1300.16 1067.47 1303.6Z" fill="#020001"/>
<path d="M405.485 182.336C388.996 185.77 386.212 188.554 382.778 205.042C379.345 188.554 376.56 185.77 360.072 182.336C376.56 178.902 379.345 176.118 382.778 159.63C386.212 176.118 388.996 178.902 405.485 182.336Z" fill="#020001"/>
<path d="M1584 981.074C1567.52 984.508 1564.73 987.292 1561.3 1003.78C1557.86 987.292 1555.08 984.508 1538.59 981.074C1555.08 977.641 1557.86 974.856 1561.3 958.368C1564.73 974.856 1567.52 977.641 1584 981.074Z" fill="#020001"/>
<path d="M1191.62 558.961C1184.28 558.961 1177 557.946 1169.99 555.95C1113.97 539.972 1086.23 464.358 1108.19 387.394C1126.96 321.564 1177.34 273.785 1227.97 273.785C1235.32 273.785 1242.6 274.796 1249.6 276.796C1276.88 284.574 1298.31 306.483 1309.94 338.483C1321.49 370.24 1322.01 408.192 1311.42 445.352C1292.64 511.183 1242.27 558.961 1191.64 558.961C1191.63 558.961 1191.62 558.961 1191.62 558.961ZM1215.57 373.956C1200.74 373.956 1185.9 388.257 1180.28 407.957C1177.08 419.181 1177.22 430.611 1180.69 440.132C1184.06 449.408 1190.19 455.735 1197.94 457.944C1199.91 458.506 1201.96 458.79 1204.03 458.79C1218.85 458.79 1233.69 444.489 1239.32 424.789C1245.85 401.865 1237.93 379.442 1221.65 374.802C1219.69 374.24 1217.64 373.956 1215.57 373.956Z" fill="#BF1920"/>
<path d="M1227.98 275.964C1235.04 275.964 1242.09 276.914 1249.01 278.892C1303.97 294.565 1330.98 368.823 1309.32 444.755C1290.4 511.113 1240.58 556.782 1191.63 556.782C1184.57 556.782 1177.52 555.832 1170.6 553.854C1115.63 538.181 1088.63 463.923 1110.28 387.991C1129.21 321.633 1179.03 275.964 1227.98 275.964ZM1204.03 460.973C1219.58 460.973 1235.41 446.467 1241.42 425.391C1248.29 401.273 1239.72 377.686 1222.26 372.71C1220.06 372.083 1217.82 371.782 1215.58 371.782C1200.03 371.782 1184.2 386.288 1178.19 407.364C1171.32 431.482 1179.89 455.068 1197.35 460.045C1199.55 460.668 1201.79 460.973 1204.03 460.973ZM1227.98 271.606C1176.39 271.606 1125.13 320.051 1106.09 386.797C1095.37 424.397 1095.91 462.825 1107.61 495.008C1119.5 527.684 1141.44 550.072 1169.4 558.046C1176.6 560.098 1184.08 561.14 1191.63 561.14C1243.22 561.14 1294.48 512.694 1313.52 445.949C1324.24 408.349 1323.7 369.921 1312 337.738C1300.11 305.062 1278.17 282.674 1250.21 274.7C1243.01 272.648 1235.53 271.606 1227.98 271.606ZM1204.03 456.615C1202.17 456.615 1200.32 456.358 1198.55 455.853C1183.43 451.539 1176.18 430.323 1182.39 408.554C1187.74 389.769 1201.7 376.135 1215.58 376.135C1217.44 376.135 1219.29 376.392 1221.06 376.898C1236.18 381.211 1243.43 402.427 1237.22 424.197C1231.87 442.977 1217.91 456.615 1204.03 456.615Z" fill="#020001"/>
<path d="M1176.39 431.51C1175.32 424.02 1175.81 415.733 1178.2 407.358C1185.08 383.24 1204.81 367.728 1222.26 372.704C1224.68 373.392 1226.91 374.473 1228.97 375.828C1226.97 361.749 1219.4 350.547 1208 347.3C1190.54 342.32 1170.82 357.836 1163.94 381.954C1158.02 402.726 1163.58 423.075 1176.39 431.51Z" fill="#8F1318"/>
<path d="M1291.83 309.166C1304.37 339.907 1306.47 379.393 1295.07 419.355C1273.42 495.282 1211.31 544.132 1156.35 528.454C1139.11 523.539 1124.63 512.864 1113.54 498.184C1124.83 525.853 1144.57 546.433 1170.61 553.858C1225.57 569.531 1287.68 520.685 1309.34 444.758C1324.19 392.635 1316.13 341.301 1291.83 309.166Z" fill="#8F1318"/>
<path d="M1330.39 564.821C1314.65 564.821 1310.69 559.662 1310.13 555.33C1308.76 544.668 1309.03 535.369 1309.36 530.28C1303.98 533.016 1293.6 537.648 1285.1 537.648C1280.73 537.648 1277.3 536.433 1274.9 534.032C1264.75 523.888 1257.15 497.543 1267.62 486.654C1274.42 479.573 1286.37 478.088 1295.19 478.088C1295.68 478.088 1296.16 478.092 1296.6 478.101C1290.8 469.621 1278.01 448.78 1282.43 435.516C1286.24 424.069 1304.3 416.984 1318.84 416.984C1326.29 416.984 1331.63 418.967 1333.88 422.562C1338.92 430.627 1338.56 455.935 1338.1 467.504C1344.3 461.917 1356.55 452.283 1367.4 452.283C1372.1 452.283 1378.58 454.157 1382.76 463.076C1395.66 490.602 1391.96 507.944 1386.61 512.41C1382.84 515.548 1370.51 516.415 1359.78 516.537C1365.34 523.147 1376.19 537.247 1376.52 546.921C1376.58 548.79 1375.75 550.62 1374.07 552.363C1366.97 559.705 1345.35 564.821 1330.39 564.821Z" fill="#600D10"/>
<path d="M1318.84 419.158C1325.01 419.158 1330.09 420.6 1332.04 423.716C1338.08 433.385 1335.66 472.867 1335.66 472.867C1335.66 472.867 1353.21 454.461 1367.41 454.461C1372.69 454.461 1377.51 457.01 1380.78 464C1392.87 489.782 1390.05 506.706 1385.21 510.732C1381.19 514.092 1362.89 514.371 1356.9 514.371C1355.7 514.371 1355 514.358 1355 514.358C1355 514.358 1373.93 534.903 1374.33 546.99C1374.6 554.898 1348.81 562.637 1330.39 562.637C1320.66 562.637 1312.99 560.48 1312.29 555.047C1310.28 539.334 1311.89 526.445 1311.89 526.445C1311.89 526.445 1296.46 535.465 1285.09 535.465C1281.65 535.465 1278.59 534.641 1276.43 532.484C1267.17 523.221 1259.51 498.218 1269.18 488.157C1275.71 481.359 1287.94 480.257 1295.19 480.257C1298.68 480.257 1301.01 480.51 1301.01 480.51C1301.01 480.51 1279.25 451.904 1284.49 436.191C1288.05 425.555 1305.86 419.158 1318.84 419.158ZM1318.84 414.801C1306.02 414.801 1284.92 421.167 1280.36 434.827C1276.13 447.538 1285.99 465.817 1292.54 475.956C1283.66 476.261 1272.7 478.222 1266.05 485.146C1254.59 497.072 1262.39 524.602 1273.36 535.574C1276.18 538.397 1280.13 539.831 1285.1 539.831C1292.47 539.831 1301.09 536.567 1307 533.844C1306.81 539.269 1306.87 547.012 1307.97 555.613C1308.64 560.811 1313.07 567.003 1330.39 567.003C1345.79 567.003 1368.16 561.613 1375.63 553.883C1378.26 551.164 1378.74 548.563 1378.69 546.855C1378.39 537.974 1370.29 526.166 1364.32 518.624C1383.28 518.018 1386.77 515.116 1388 514.088C1395.53 507.813 1396.82 487.961 1384.72 462.157C1380.06 452.2 1372.73 450.108 1367.4 450.108C1357.72 450.108 1347.38 456.919 1340.45 462.584C1340.77 449.429 1340.44 428.953 1335.72 421.411C1333.03 417.088 1327.19 414.801 1318.84 414.801Z" fill="#020001"/>
<path d="M1173.7 483.556C1168.16 481.948 1162.8 479.491 1157.05 479.011C1151.31 478.536 1144.8 480.645 1142.29 485.839C1140.2 490.162 1141.5 495.56 1144.48 499.33C1147.46 503.099 1151.84 505.487 1156.3 507.286C1171.65 513.495 1189.35 513.683 1204.83 507.8C1211.79 505.155 1251 479.216 1233.17 474.074C1224.4 471.551 1215.33 479.887 1207.6 482.488C1196.72 486.149 1184.77 486.767 1173.7 483.556Z" fill="#E39C9F"/>
<path d="M1209.84 329.373C1214.41 331.582 1219.23 334.636 1224.15 333.416C1229.13 332.183 1232.17 326.606 1231.76 321.495C1231.35 316.383 1228.19 311.852 1224.37 308.427C1213.47 298.645 1196.97 296.592 1183.03 301.133C1175.84 303.477 1137.49 328.371 1153.46 333.83C1161.68 336.641 1171.33 327.752 1178.96 325.97C1189.23 323.569 1200.34 324.776 1209.84 329.373Z" fill="#E39C9F"/>
<path d="M1239.89 302.365C1239.28 306.526 1240.94 310.653 1242.67 314.483C1244.01 317.424 1245.44 320.391 1247.67 322.718C1249.91 325.045 1253.11 326.67 1256.31 326.261C1261.13 325.642 1264.35 320.674 1265.02 315.855C1266.94 302.021 1242.65 283.689 1239.89 302.365Z" fill="#E39C9F"/>
<path d="M730.759 1817.46C1054.42 1817.46 1316.79 1792.31 1316.79 1761.29C1316.79 1730.28 1054.42 1705.13 730.759 1705.13C407.102 1705.13 144.726 1730.28 144.726 1761.29C144.726 1792.31 407.102 1817.46 730.759 1817.46Z" fill="#020001" stroke="#020001" stroke-miterlimit="10" stroke-linecap="round" stroke-linejoin="round"/>
<path d="M993.439 1751.2C961.844 1751.2 931.329 1747.11 911.813 1740.27C861.638 1722.69 849.276 1693.43 848.771 1692.19C848.662 1691.93 848.609 1691.65 848.609 1691.37C848.614 1690.45 850.2 1599.72 951.012 1575.38C955.33 1565.76 990.11 1487.6 996.406 1452.94C996.681 1451.74 1003.04 1425.93 1033.75 1417.59C1039.34 1416.07 1046.43 1415.27 1054.28 1415.27C1091.48 1415.27 1140.04 1431.83 1156.75 1462.51C1179.08 1503.53 1162.01 1670.66 1124.11 1713.68C1103.4 1737.18 1054.55 1751.2 993.439 1751.2Z" fill="#A62828"/>
<path d="M1054.28 1417.45C1088.17 1417.45 1137.8 1432.27 1154.84 1463.55C1175.7 1501.88 1160.37 1669.23 1122.47 1712.24C1099.18 1738.67 1044.05 1749.02 993.452 1749.02C961.709 1749.02 931.743 1744.94 912.536 1738.22C862.714 1720.76 850.788 1691.38 850.788 1691.38C850.788 1691.38 851.215 1601.1 952.563 1577.25C952.563 1577.25 991.74 1490.81 998.555 1453.33C998.555 1453.33 1004.52 1427.78 1034.32 1419.69C1039.8 1418.2 1046.64 1417.45 1054.28 1417.45ZM1054.29 1413.09H1054.28C1046.12 1413.09 1039.03 1413.9 1033.17 1415.48C1001.22 1424.16 994.568 1451.19 994.302 1452.34C988.18 1485.98 955.251 1560.55 949.456 1573.51C848.047 1598.62 846.426 1690.42 846.422 1691.35C846.418 1691.92 846.527 1692.48 846.74 1693.01C847.259 1694.28 859.991 1724.42 911.085 1742.33C930.828 1749.25 961.613 1753.38 993.439 1753.38C1055.17 1753.38 1104.62 1739.08 1125.73 1715.12C1164 1671.68 1181.21 1502.89 1158.65 1461.46C1141.55 1430.05 1092.12 1413.09 1054.29 1413.09Z" fill="#020001"/>
<path d="M1053.56 1547.37C1053.4 1547.37 1053.25 1547.35 1053.09 1547.31L1000.71 1535.82C1000.56 1535.79 1000.41 1535.74 1000.27 1535.67L975.013 1524C973.963 1523.51 973.475 1522.29 973.902 1521.21C986.247 1490.14 993.811 1467.18 996.399 1452.94C996.674 1451.74 1003.03 1425.92 1033.74 1417.59C1039.39 1416.05 1046.28 1415.28 1054.21 1415.28C1061.9 1415.28 1070.1 1416.01 1078.56 1417.45C1078.78 1417.49 1079.01 1417.56 1079.21 1417.67C1080.4 1418.3 1108.23 1433.65 1098.71 1483.6C1089.24 1533.32 1055.76 1546.68 1054.33 1547.22C1054.09 1547.32 1053.82 1547.37 1053.56 1547.37Z" fill="#8F1318"/>
<path d="M1054.22 1417.46C1061.62 1417.46 1069.78 1418.17 1078.19 1419.6C1078.34 1419.67 1105.9 1434.23 1096.58 1483.19C1087.23 1532.29 1053.56 1545.18 1053.56 1545.18L1001.19 1533.7L975.931 1522.02C985.679 1497.48 995.452 1470.36 998.55 1453.33C998.55 1453.33 1004.51 1427.78 1034.32 1419.7C1039.78 1418.21 1046.6 1417.46 1054.22 1417.46ZM1054.22 1413.1C1046.08 1413.1 1039 1413.9 1033.17 1415.49C1001.22 1424.16 994.568 1451.19 994.302 1452.34C991.696 1466.64 984.167 1489.47 971.879 1520.41C971.025 1522.56 972.001 1525 974.101 1525.98L999.356 1537.65C999.644 1537.78 999.945 1537.88 1000.25 1537.95L1052.62 1549.44C1052.93 1549.51 1053.24 1549.54 1053.55 1549.54C1054.08 1549.54 1054.61 1549.44 1055.11 1549.25C1056.58 1548.69 1091.16 1534.9 1100.86 1484.01C1110.69 1432.39 1081.47 1416.39 1080.22 1415.73C1079.81 1415.52 1079.38 1415.37 1078.93 1415.3C1070.34 1413.84 1062.03 1413.1 1054.22 1413.1Z" fill="#020001"/>
<path d="M1089.49 1735.83C1089.14 1735.83 1088.78 1735.75 1088.47 1735.58C1087.9 1735.29 1087.5 1734.75 1087.36 1734.13C1086.13 1728.57 1086.19 1724.89 1086.19 1724.74C1086.2 1724.37 1086.3 1724.01 1086.48 1723.7C1086.72 1723.27 1110.61 1681.22 1103.34 1641.96C1095.87 1601.68 1088.15 1560.02 1101.54 1541.61C1104.56 1537.45 1107.82 1535.43 1111.5 1535.43C1115.09 1535.43 1118.36 1537.43 1121.25 1539.19C1123.67 1540.66 1125.94 1542.05 1127.88 1542.05C1128.78 1542.05 1131.5 1542.05 1134.91 1534.29C1145.29 1510.66 1147.3 1456.05 1147.31 1455.5C1147.35 1454.59 1147.94 1453.8 1148.81 1453.51C1149.04 1453.43 1149.27 1453.4 1149.49 1453.4C1150.14 1453.4 1150.78 1453.7 1151.2 1454.23C1153.43 1457.05 1155.25 1459.76 1156.74 1462.52C1179.07 1503.53 1162.01 1670.67 1124.1 1713.69C1116.45 1722.36 1105.08 1729.77 1090.29 1735.68C1090.04 1735.78 1089.76 1735.83 1089.49 1735.83Z" fill="#8F1318"/>
<path d="M1149.49 1455.58C1151.5 1458.11 1153.31 1460.76 1154.83 1463.55C1175.7 1501.88 1160.37 1669.23 1122.47 1712.24C1114.63 1721.13 1103.15 1728.18 1089.48 1733.65C1088.29 1728.28 1088.37 1724.78 1088.37 1724.78C1088.37 1724.78 1113 1682.1 1105.48 1641.57C1097.97 1601.03 1090.5 1560.49 1103.31 1542.88C1106.16 1538.96 1108.88 1537.61 1111.51 1537.61C1117.31 1537.61 1122.65 1544.23 1127.89 1544.23C1130.91 1544.23 1133.89 1542.05 1136.91 1535.16C1147.58 1510.88 1149.49 1455.58 1149.49 1455.58ZM1149.49 1451.22C1149.04 1451.22 1148.58 1451.29 1148.13 1451.44C1146.4 1452.01 1145.21 1453.6 1145.14 1455.43C1145.12 1455.97 1143.13 1510.17 1132.92 1533.41C1131.14 1537.46 1129.26 1539.88 1127.89 1539.88C1126.57 1539.88 1124.44 1538.58 1122.39 1537.33C1119.26 1535.41 1115.71 1533.25 1111.51 1533.25H1111.5C1107.14 1533.25 1103.19 1535.63 1099.78 1540.32C1085.84 1559.49 1093.3 1599.74 1101.2 1642.36C1108.33 1680.8 1084.83 1722.19 1084.6 1722.61C1084.23 1723.24 1084.03 1723.96 1084.02 1724.68C1084.01 1724.85 1083.94 1728.78 1085.24 1734.6C1085.51 1735.84 1086.33 1736.91 1087.45 1737.5C1088.09 1737.84 1088.79 1738.01 1089.49 1738.01C1090.04 1738.01 1090.59 1737.9 1091.11 1737.69C1106.22 1731.65 1117.87 1724.05 1125.74 1715.12C1164.01 1671.68 1181.22 1502.89 1158.66 1461.46C1157.09 1458.58 1155.21 1455.76 1152.91 1452.86C1152.07 1451.81 1150.8 1451.22 1149.49 1451.22Z" fill="#020001"/>
<path d="M850.782 1685.59C850.782 1685.59 845.205 1692.23 845.205 1700.43C845.205 1708.63 845.427 1725.81 850.782 1732.06C856.138 1738.3 899.572 1775.01 988.95 1772.67C1078.33 1770.32 1113.47 1746.61 1125.97 1729.18C1138.46 1711.75 1217.73 1536.81 1210.31 1505.96C1202.89 1475.11 1147.78 1430.26 1122.42 1434.14C1122.42 1434.14 1159.55 1466.91 1157.2 1536.81C1154.86 1606.7 1130.26 1674.65 1107.22 1702.77C1084.18 1730.88 1024.05 1727.76 1019.75 1723.07C1015.46 1718.38 1004.52 1687.54 997.882 1682.85C991.246 1678.16 932.278 1673.09 924.862 1675.82C917.441 1678.55 895.184 1708.62 888.156 1709.01C881.127 1709.4 854.02 1692.62 850.782 1685.59Z" fill="#FFFEFB" stroke="#020001" stroke-miterlimit="10" stroke-linecap="round" stroke-linejoin="round"/>
<path d="M1169.1 1476.32C1167.91 1476.08 1182.57 1525.42 1174 1578.3C1173.41 1581.98 1178.49 1583.6 1180.09 1580.23C1188.38 1562.79 1198.19 1535.56 1197.32 1505.68C1197.31 1505.33 1197.25 1505 1197.13 1504.67C1195.75 1500.76 1186.16 1479.76 1169.1 1476.32Z" fill="#8F1318" stroke="#020001" stroke-miterlimit="10" stroke-linecap="round" stroke-linejoin="round"/>
<path d="M1009.28 1547.37C969.53 1547.37 914.061 1523.64 879.743 1470.63C834.583 1400.89 836.91 1329.77 852.622 1290.06C866.684 1254.53 951.682 1246.92 955.295 1246.61C955.356 1246.61 955.417 1246.6 955.478 1246.6C956.096 1246.6 956.698 1246.87 957.112 1247.34C957.569 1247.86 957.752 1248.56 957.608 1249.24C957.364 1250.36 933.839 1361.9 962.079 1407.6C978.798 1434.66 1000.4 1447.82 1028.1 1447.82C1031.95 1447.82 1035.4 1447.58 1038.17 1447.39L1040.88 1447.22L1041.64 1447.2C1051.44 1447.2 1062.45 1457.38 1068.42 1471.95C1077.06 1493.04 1072.51 1515.18 1056.25 1531.19C1045.65 1541.62 1028.96 1547.37 1009.28 1547.37Z" fill="#600D10"/>
<path d="M955.483 1248.78C955.483 1248.78 931.199 1361.75 960.232 1408.74C982.681 1445.07 1010.22 1449.99 1028.12 1449.99C1033.37 1449.99 1037.78 1449.57 1041 1449.39C1041.22 1449.38 1041.44 1449.37 1041.65 1449.37C1061.07 1449.37 1088.15 1496.74 1054.73 1529.63C1044.19 1540 1028 1545.19 1009.28 1545.19C967.958 1545.19 914.271 1519.95 881.573 1469.45C834.061 1396.07 840.924 1325.55 854.649 1290.86C868.375 1256.17 955.483 1248.78 955.483 1248.78ZM955.483 1244.42C955.361 1244.42 955.239 1244.43 955.112 1244.44C951.448 1244.75 865.15 1252.48 850.597 1289.26C834.692 1329.45 832.305 1401.38 877.913 1471.82C912.68 1525.52 968.943 1549.55 1009.27 1549.55C1029.84 1549.55 1046.61 1543.74 1057.78 1532.74C1074.69 1516.1 1079.42 1493.06 1070.44 1471.12C1064.14 1455.75 1052.3 1445.02 1041.64 1445.02C1041.35 1445.02 1041.05 1445.03 1040.76 1445.04C1039.92 1445.09 1039.01 1445.15 1038.02 1445.22C1035.29 1445.41 1031.88 1445.64 1028.11 1445.64C1001.22 1445.64 980.228 1432.82 963.932 1406.45C936.153 1361.5 959.496 1250.81 959.735 1249.7C960.027 1248.35 959.657 1246.94 958.746 1245.9C957.918 1244.95 956.724 1244.42 955.483 1244.42Z" fill="#020001"/>
<path d="M616.522 1461.66C596.334 1461.66 568.722 1456.88 551.85 1434.11C518.272 1388.8 513.165 1286.79 608.857 1211.76C631.446 1194.05 651.328 1185.07 667.947 1185.07C714.571 1185.07 720.022 1254.9 720.07 1255.61C720.131 1256.45 719.699 1257.25 718.967 1257.67C718.357 1258.01 657.646 1292.96 644.478 1358.26C631.306 1423.56 649.106 1454.52 649.285 1454.82C649.633 1455.41 649.69 1456.13 649.428 1456.75C649.167 1457.39 648.631 1457.87 647.969 1458.04C647.411 1458.18 634.038 1461.66 616.522 1461.66Z" fill="#600D10"/>
<path d="M667.949 1187.25C713.083 1187.24 717.897 1255.77 717.897 1255.77C717.897 1255.77 655.875 1290.73 642.341 1357.83C628.807 1424.92 647.417 1455.94 647.417 1455.94C647.417 1455.94 633.962 1459.48 616.524 1459.48C595.891 1459.48 569.682 1454.52 553.603 1432.82C523.934 1392.78 510.967 1291.29 610.205 1213.48C634.48 1194.44 653.334 1187.25 667.949 1187.25ZM667.958 1182.89C667.953 1182.89 667.949 1182.89 667.949 1182.89C650.825 1182.89 630.493 1192.03 607.517 1210.05C510.688 1285.97 516.017 1389.41 550.104 1435.4C567.516 1458.9 595.835 1463.83 616.524 1463.83C634.319 1463.83 647.958 1460.29 648.528 1460.14C649.853 1459.79 650.938 1458.84 651.452 1457.57C651.966 1456.3 651.857 1454.86 651.151 1453.69C650.986 1453.4 633.648 1422.96 646.611 1358.68C659.574 1294.4 719.436 1259.9 720.037 1259.55C721.501 1258.73 722.359 1257.13 722.242 1255.45C722.037 1252.5 716.577 1182.89 667.958 1182.89Z" fill="#020001"/>
<path d="M610.208 1213.48C595.606 1224.92 583.497 1236.89 573.449 1249.09C601.31 1271.11 633.014 1288.71 668.2 1301.23C690.54 1271.21 717.9 1255.77 717.9 1255.77C717.9 1255.77 709.442 1135.67 610.208 1213.48Z" fill="#020001" stroke="#020001" stroke-miterlimit="10" stroke-linecap="round" stroke-linejoin="round"/>
<path d="M955.482 1248.78C955.482 1248.78 868.379 1256.17 854.649 1290.86C848.322 1306.84 843.472 1330.45 844.709 1358.43C882.087 1349.73 916.127 1335.44 946.606 1316.8C948.733 1280.21 955.482 1248.78 955.482 1248.78Z" fill="#020001" stroke="#020001" stroke-miterlimit="10" stroke-linecap="round" stroke-linejoin="round"/>
<path d="M372.812 1315.65C328.018 1315.65 272.645 1300.25 251.573 1257.03C220.997 1194.32 264.941 1132.82 265.39 1132.21C265.808 1131.64 266.471 1131.32 267.151 1131.32C267.429 1131.32 267.708 1131.37 267.978 1131.48C290.615 1140.8 364.036 1172.4 358.306 1187.95C356.036 1194.11 356.773 1201.25 360.184 1206.15C363.33 1210.66 368.594 1213.04 375.4 1213.04C381.971 1213.04 389.884 1210.88 398.917 1206.63C438.307 1188.09 477.646 1103.55 477.985 1102.72C478.251 1102.08 478.8 1101.6 479.467 1101.43C479.65 1101.38 479.833 1101.36 480.016 1101.36C480.508 1101.36 480.992 1101.52 481.38 1101.84C489.467 1108.39 560.156 1166.56 551.324 1191.05C541.703 1217.73 503.886 1268.64 449.924 1298.27C429.523 1309.48 402.133 1315.65 372.812 1315.65Z" fill="#600D10"/>
<path d="M480.01 1103.53C480.01 1103.53 557.837 1166.57 549.279 1190.31C540.717 1214.04 504.529 1265.8 448.881 1296.36C428.537 1307.53 401.029 1313.47 372.811 1313.47C323.847 1313.47 272.787 1295.57 253.528 1256.07C223.175 1193.81 267.149 1133.49 267.149 1133.49C267.149 1133.49 361.712 1172.41 356.261 1187.19C352.183 1198.26 356.388 1215.21 375.403 1215.21C381.795 1215.21 389.861 1213.29 399.848 1208.59C439.539 1189.92 479.235 1105.48 480.01 1103.53ZM480.01 1099.17C479.644 1099.17 479.274 1099.22 478.912 1099.31C477.583 1099.66 476.498 1100.61 475.98 1101.88C475.457 1103.07 436.197 1186.68 397.992 1204.65C389.246 1208.77 381.647 1210.86 375.403 1210.86C369.251 1210.86 364.732 1208.85 361.974 1204.89C358.545 1199.97 358.688 1193.22 360.353 1188.7C362.819 1182.01 359.12 1172.8 315.712 1150.91C292.866 1139.39 269.045 1129.56 268.809 1129.47C268.269 1129.25 267.707 1129.14 267.153 1129.14C265.794 1129.14 264.469 1129.78 263.633 1130.93C261.772 1133.48 218.473 1194.11 249.619 1257.99C271.132 1302.12 327.363 1317.84 372.815 1317.84C402.497 1317.84 430.258 1311.57 450.981 1300.19C505.431 1270.29 543.641 1218.8 553.384 1191.8C562.534 1166.43 496.159 1111.01 482.76 1100.15C481.971 1099.51 480.999 1099.17 480.01 1099.17Z" fill="#020001"/>
<path d="M976.961 1617.84C972.251 1617.84 967.724 1617.48 963.506 1616.78C943.828 1613.51 933.597 1604.46 930.582 1597.09C928.983 1593.18 929.196 1589.37 931.174 1586.66C935.584 1580.6 947.445 1576.56 950.983 1575.46C953.018 1570.93 962.36 1549.98 972.051 1525.88C972.382 1525.06 973.188 1524.52 974.072 1524.52C974.129 1524.52 974.186 1524.52 974.242 1524.53C996.84 1526.29 1036.21 1531.25 1046.03 1544.55C1048.15 1547.43 1048.85 1550.58 1048.11 1553.88C1048.07 1554.05 1048.02 1554.22 1047.94 1554.38L1032.54 1585.4C1033.28 1589.68 1035.11 1603.54 1028.45 1606.61C1028.2 1606.72 1003.79 1617.85 976.966 1617.85L976.961 1617.84Z" fill="#8F1318"/>
<path d="M974.066 1526.69C993.901 1528.24 1050.26 1534.35 1045.98 1553.4L1030.26 1585.07C1030.26 1585.07 1033.45 1601.9 1027.54 1604.63C1022.56 1606.93 1000.19 1615.67 976.96 1615.67C972.589 1615.67 968.184 1615.36 963.862 1614.64C936.571 1610.09 928.223 1594.42 932.933 1587.94C937.643 1581.47 952.559 1577.26 952.559 1577.26C952.559 1577.26 963.021 1554.17 974.066 1526.69ZM974.066 1522.34C972.302 1522.34 970.694 1523.41 970.027 1525.07C960.886 1547.8 952.053 1567.74 949.4 1573.67C944.776 1575.16 933.9 1579.21 929.417 1585.37C926.985 1588.72 926.676 1593.29 928.567 1597.91C932.759 1608.17 945.687 1616.02 963.151 1618.93C967.487 1619.66 972.136 1620.02 976.964 1620.02C1004.27 1620.02 1029.12 1608.7 1029.37 1608.59C1036.99 1605.06 1035.76 1591.64 1034.81 1585.73L1049.89 1555.34C1050.05 1555.02 1050.16 1554.7 1050.24 1554.36C1051.12 1550.46 1050.26 1546.62 1047.78 1543.26C1037.45 1529.26 997.378 1524.15 974.411 1522.35C974.293 1522.34 974.18 1522.34 974.066 1522.34Z" fill="#020001"/>
<path d="M962.386 1549.12C962.173 1549.11 961.959 1549.05 961.763 1548.98C960.944 1548.67 941.702 1541.04 942.486 1527.46C943.214 1514.89 1000.57 1514.75 1003.02 1514.75C1014.45 1514.75 1052.43 1515.57 1060.94 1526.23C1064.55 1530.76 1065.76 1535.32 1064.52 1539.78C1061.73 1549.79 1047.35 1555.21 1046.74 1555.44C1046.5 1555.53 1046.24 1555.57 1045.98 1555.57C1045.93 1555.58 962.386 1549.12 962.386 1549.12Z" fill="#8F1318"/>
<path d="M1003.01 1516.93C1028.18 1516.93 1053.24 1520.08 1059.24 1527.59C1072.13 1543.73 1045.99 1553.4 1045.99 1553.4L962.552 1546.96C962.552 1546.96 943.959 1539.74 944.66 1527.59C945.039 1521.09 974.094 1516.93 1003.01 1516.93ZM1003.02 1512.57H1003.01C988.504 1512.57 941.105 1513.64 940.316 1527.34C939.44 1542.48 960.098 1550.67 960.979 1551.02C961.375 1551.17 961.793 1551.26 962.22 1551.3L1045.66 1557.74C1045.77 1557.75 1045.88 1557.76 1045.99 1557.76C1046.5 1557.76 1047.02 1557.67 1047.5 1557.49C1049.14 1556.88 1063.59 1551.25 1066.62 1540.37C1067.61 1536.81 1067.73 1531.23 1062.64 1524.87C1053.77 1513.77 1017.99 1512.57 1003.02 1512.57Z" fill="#020001"/>
<path d="M480.007 1103.53C479.636 1104.45 470.46 1124.03 456.682 1146.32C475.444 1178.07 498.595 1206.1 525.759 1229.68C537.742 1214.15 545.811 1199.92 549.275 1190.31C557.838 1166.57 480.007 1103.53 480.007 1103.53Z" fill="#020001" stroke="#020001" stroke-miterlimit="10" stroke-linecap="round" stroke-linejoin="round"/>
<path d="M797.978 1298.54C779.106 1298.54 759.638 1297.21 740.104 1294.59C631.423 1280.01 541.84 1222.01 487.856 1131.26C414.4 1007.77 410.954 835.469 478.405 658.521C600.01 339.511 822.906 157.047 825.142 155.243C842.985 139.508 857.482 136.192 866.489 136.192C872.999 136.192 878.811 137.905 883.299 141.147C893.87 148.781 901.892 163.269 881.225 212.864C867.312 246.25 869.29 264.168 873.399 273.323C876.027 279.175 880.419 283.305 886.106 285.262C887.069 285.593 888.04 285.754 889.086 285.754C893.905 285.754 899.299 282.186 905.003 278.408C911.84 273.885 919.592 268.752 928.211 268.752C933.736 268.752 938.921 270.778 944.076 274.952C962.956 290.234 954.477 316.909 945.496 345.149C942.564 354.365 939.535 363.895 937.348 373.315C929.108 408.727 935.409 437.364 992.708 495.591C1043.75 547.453 1174.69 725.973 1167.78 926.551C1164.58 1019.48 1127.54 1112.02 1066.16 1180.42C1017.81 1234.3 932.032 1298.54 797.978 1298.54Z" fill="#BF1920"/>
<path d="M866.488 138.371C872.928 138.371 878.218 140.162 882.022 142.911C892.136 150.214 898.881 164.825 879.212 212.023C859.547 259.222 869.098 281.697 885.395 287.318C886.619 287.741 887.848 287.933 889.085 287.933C900.776 287.933 913.216 270.93 928.214 270.93C932.79 270.93 937.605 272.512 942.707 276.643C966.306 295.746 944.101 334.644 935.221 372.823C926.341 411.002 936.11 441.185 991.156 497.121C1046.2 553.056 1172.32 731.612 1165.6 926.477C1159.39 1106.59 1024.85 1296.37 797.978 1296.37C779.402 1296.37 760.186 1295.09 740.391 1292.44C478.845 1257.35 357.641 981.454 480.44 659.301C603.239 337.154 826.509 156.942 826.509 156.942C841.982 143.29 855.813 138.371 866.488 138.371ZM866.488 134.014C857.102 134.014 842.048 137.425 823.625 153.67C823.211 154.001 766.801 199.849 696.177 284.521C631.03 362.622 540.013 490.772 476.366 657.746C408.678 835.317 412.182 1008.31 485.982 1132.38C512.797 1177.46 547.896 1214.45 590.31 1242.32C633.906 1270.98 684.203 1289.29 739.811 1296.75C759.441 1299.38 779.01 1300.72 797.978 1300.72C932.838 1300.72 1019.14 1236.09 1067.78 1181.87C1129.49 1113.09 1166.73 1020.06 1169.95 926.621C1176.89 725.276 1045.48 546.106 994.263 494.057C937.674 436.553 931.413 408.444 939.469 373.803C941.639 364.465 944.659 354.979 947.574 345.803C956.786 316.831 965.487 289.471 945.452 273.249C939.975 268.813 934.175 266.564 928.219 266.564C918.938 266.564 910.898 271.885 903.805 276.582C898.38 280.172 893.255 283.567 889.085 283.567C888.288 283.567 887.547 283.445 886.815 283.192C881.639 281.406 877.795 277.785 875.39 272.421C871.456 263.662 869.625 246.359 883.238 213.692C900.14 173.125 900.541 150.898 884.576 139.369C879.713 135.866 873.46 134.014 866.488 134.014Z" fill="#020001"/>
<path d="M991.157 497.119C983.645 489.489 977.009 482.351 971.118 475.589C1028.82 558.941 1095.94 693.565 1090.99 837.105C1084.27 1031.97 927.326 1238.15 665.781 1203.07C595.675 1193.66 535.674 1166.94 487.73 1126.68C539.905 1216.65 626.93 1277.21 740.392 1292.43C1001.94 1327.52 1158.88 1121.34 1165.6 926.47C1172.32 731.61 1046.2 553.054 991.157 497.119Z" fill="#8F1318"/>
<path d="M965.931 1094.23C965.931 1094.23 968.175 1127.42 931.116 1150.4C894.056 1173.39 861.686 1151.57 861.686 1151.57C861.686 1151.57 923.386 1140.45 965.931 1094.23Z" fill="#020001" stroke="#020001" stroke-miterlimit="10" stroke-linecap="round" stroke-linejoin="round"/>
<path d="M1063.89 1040.02C1063.89 1040.02 1064.48 1119.1 1079.12 1135.5C1093.77 1151.9 1118.66 1103.57 1131.4 1074.72C1144.14 1045.88 1063.89 1040.02 1063.89 1040.02Z" fill="#020001" stroke="#020001" stroke-miterlimit="10" stroke-linecap="round" stroke-linejoin="round"/>
<path d="M985.359 204.413C976.273 204.413 967.167 200.387 960.382 193.368C954.038 186.814 946.626 174.5 947.332 153.075C949.071 100.347 993.276 78.2245 993.72 78.0066C1003.91 73.0523 1013.63 70.5381 1022.63 70.5381C1046.35 70.5381 1060.78 88.0416 1064.55 105.384C1067.73 120.016 1063.22 132.887 1053.32 137.406C1028.49 148.74 1016.09 170.505 1006.39 192.335C1003.08 199.79 995.019 204.413 985.359 204.413Z" fill="#BF1920"/>
<path d="M1022.63 72.7265C1062.94 72.7265 1074.29 125.442 1052.42 135.429C1026.12 147.433 1013.54 170.876 1004.39 191.456C1001.3 198.414 993.832 202.236 985.361 202.236C968.781 202.236 948.376 187.586 949.509 153.15C951.225 101.123 994.672 79.9684 994.672 79.9684C1005.16 74.879 1014.48 72.7265 1022.63 72.7265ZM1022.63 68.3691C1013.3 68.3691 1003.26 70.953 992.773 76.0555C990.899 76.9662 946.938 98.9795 945.156 153.011C944.424 175.198 952.18 188.031 958.816 194.889C966.014 202.327 975.688 206.597 985.361 206.597C995.893 206.597 1004.71 201.478 1008.38 193.229C1017.91 171.791 1030.05 150.431 1054.23 139.394C1065.08 134.44 1070.09 120.588 1066.68 104.927C1062.73 86.731 1047.57 68.3691 1022.63 68.3691Z" fill="#020001"/>
<path d="M1052.57 86.0928C1053.04 96.2193 1049.5 105.252 1041.68 108.821C1015.38 120.825 1002.8 144.268 993.659 164.848C987.519 178.665 964.124 180.085 949.924 163.802C954.556 206.003 995.924 210.534 1004.4 191.458C1013.55 170.874 1026.13 147.436 1052.43 135.431C1067.21 128.677 1066.81 102.411 1052.57 86.0928Z" fill="#8F1318"/>
<path d="M1027.92 44.6804C1016.2 44.6804 1006.67 35.1465 1006.67 23.4295C1006.67 11.7126 1016.2 2.17871 1027.92 2.17871C1039.64 2.17871 1049.17 11.7126 1049.17 23.4295C1049.17 35.1465 1039.64 44.6804 1027.92 44.6804Z" fill="#BF1920"/>
<path d="M1027.92 4.35735C1038.45 4.35735 1046.99 12.8978 1046.99 23.4295C1046.99 33.9612 1038.45 42.5016 1027.92 42.5016C1017.39 42.5016 1008.85 33.9612 1008.85 23.4295C1008.85 12.8978 1017.39 4.35735 1027.92 4.35735ZM1027.92 0C1015 0 1004.49 10.5099 1004.49 23.4295C1004.49 36.3491 1015 46.859 1027.92 46.859C1040.84 46.859 1051.35 36.3491 1051.35 23.4295C1051.35 10.5099 1040.84 0 1027.92 0Z" fill="#020001"/>
<path d="M963.851 264.001C956.239 264.001 950.047 257.809 950.047 250.201C950.047 242.589 956.239 236.401 963.851 236.401C971.459 236.401 977.651 242.593 977.651 250.201C977.651 257.809 971.459 264.001 963.851 264.001Z" fill="#BF1920"/>
<path d="M963.857 238.58C970.276 238.58 975.478 243.783 975.478 250.201C975.478 256.619 970.276 261.822 963.857 261.822C957.439 261.822 952.236 256.619 952.236 250.201C952.232 243.783 957.435 238.58 963.857 238.58ZM963.857 234.223C955.047 234.223 947.879 241.391 947.879 250.201C947.879 259.012 955.047 266.179 963.857 266.179C972.668 266.179 979.836 259.012 979.836 250.201C979.836 241.391 972.668 234.223 963.857 234.223Z" fill="#020001"/>
<path d="M921.197 108.946C925.285 99.079 920.601 87.7673 910.736 83.6809C900.871 79.5946 889.56 84.2811 885.473 94.1484C881.386 104.016 886.069 115.327 895.935 119.414C905.8 123.5 917.11 118.814 921.197 108.946Z" fill="#BF1920"/>
<path d="M903.304 84.4101C912.781 84.4101 920.463 92.0921 920.463 101.569C920.463 111.047 912.781 118.729 903.304 118.729C893.826 118.729 886.144 111.047 886.144 101.569C886.144 92.0921 893.826 84.4101 903.304 84.4101ZM903.304 80.0527C891.439 80.0527 881.787 89.7043 881.787 101.569C881.787 113.43 891.439 123.086 903.304 123.086C915.169 123.086 924.82 113.434 924.82 101.569C924.816 89.7043 915.169 80.0527 903.304 80.0527Z" fill="#020001"/>
<path d="M496.602 974.211C497.935 973.213 521.905 967.217 536.223 982.202C550.541 997.187 537.887 1030.15 536.223 1043.47C534.558 1056.78 529.434 1085.09 499.93 1087.75C470.427 1090.4 471.629 1073.43 471.965 1064.11C472.296 1054.78 496.602 974.211 496.602 974.211Z" fill="#FFFEFB" stroke="#020001" stroke-miterlimit="10" stroke-linecap="round" stroke-linejoin="round"/>
<path d="M355.014 1198.12C355.014 1198.12 362.099 1237.36 417.476 1226.67" stroke="#020001" stroke-miterlimit="10" stroke-linecap="round" stroke-linejoin="round"/>
<path d="M293.822 1070.21C293.822 1070.21 265.042 1063.54 256.702 1098.99C248.362 1134.44 265.042 1173.64 306.332 1186.58C347.623 1199.51 381.484 1187.83 386.242 1154.46C391 1121.1 368.477 1111.92 361.388 1106.91C354.298 1101.91 293.822 1070.21 293.822 1070.21Z" fill="#FFFEFB" stroke="#020001" stroke-miterlimit="10" stroke-linecap="round" stroke-linejoin="round"/>
<path d="M371.635 1141.63C371.635 1141.63 376.916 1159.33 393.069 1161.51C409.221 1163.68 418.851 1156.54 425.688 1141.63C432.52 1126.71 459.858 1119.88 461.1 1100C461.1 1100 491.545 1074.84 490.612 1037.87C490.612 1037.87 510.186 1001.83 502.726 970.769C495.27 939.706 481.292 909.57 434.695 913.3C388.097 917.026 338.393 982.887 338.393 982.887C338.393 982.887 297.399 1025.83 293.821 1070.22C290.244 1114.6 310.127 1173 371.635 1141.63Z" fill="#FFFEFB" stroke="#020001" stroke-miterlimit="10" stroke-linecap="round" stroke-linejoin="round"/>
<path d="M369.875 1142.51C369.875 1142.51 418.926 1112.42 427.257 1087.74" stroke="#020001" stroke-miterlimit="10" stroke-linecap="round" stroke-linejoin="round"/>
<path d="M369.875 1027.89C369.875 1027.89 405.453 1004.19 434.412 1021.15C471.371 1042.8 461.105 1100 461.105 1100" stroke="#020001" stroke-miterlimit="10" stroke-linecap="round" stroke-linejoin="round"/>
<path d="M392.457 960.889C392.457 960.889 428.083 944.907 458.048 965.552C488.014 986.197 492.145 1021.89 490.615 1037.87" stroke="#020001" stroke-miterlimit="10" stroke-linecap="round" stroke-linejoin="round"/>
<path d="M1128.48 1272.44C1128.48 1272.44 1104.18 1278.68 1093.68 1301.34C1083.17 1324 1089.41 1358.8 1116 1370.29C1142.6 1381.79 1150.81 1394.26 1168.87 1395.91C1186.93 1397.55 1201.05 1380.15 1199.41 1366.68C1197.77 1353.22 1128.48 1272.44 1128.48 1272.44Z" fill="#FFFEFB" stroke="#020001" stroke-miterlimit="10" stroke-linecap="round" stroke-linejoin="round"/>
<path d="M1350.66 1301.21C1338.6 1301.21 1264.2 1233.19 1249.4 1219.55C1248.84 1219.03 1248.59 1218.26 1248.75 1217.51C1248.86 1216.94 1259.71 1159.26 1200.32 1107.16C1161.61 1073.2 1137.88 1071.99 1116.94 1070.92C1105.34 1070.33 1094.37 1069.77 1082.72 1063.38C1071.35 1057.15 1064.51 1046.14 1062.4 1030.67C1058.74 1003.88 1070.43 976.416 1092.18 960.69C1104.68 951.653 1118.81 947.069 1134.17 947.069C1136.47 947.069 1138.83 947.174 1141.19 947.383C1193.67 952.015 1318.46 1025.98 1356.74 1128.06C1384.16 1201.17 1376.48 1260.76 1361.57 1289.57C1359.58 1293.43 1355.65 1300.04 1351.7 1301.08C1351.38 1301.17 1351.03 1301.21 1350.66 1301.21Z" fill="#600D10"/>
<path d="M1134.17 949.248C1136.38 949.248 1138.65 949.348 1140.99 949.553C1192.65 954.111 1316.72 1027.54 1354.7 1128.82C1392.68 1230.11 1360.78 1296.45 1351.15 1298.98C1351.01 1299.02 1350.85 1299.03 1350.67 1299.03C1338.85 1299.03 1250.89 1217.95 1250.89 1217.95C1250.89 1217.95 1262.89 1159.15 1201.76 1105.53C1140.64 1051.9 1115.17 1078.69 1083.77 1061.47C1071.35 1054.66 1066.22 1042.53 1064.56 1030.37C1060.99 1004.29 1072.13 977.876 1093.46 962.455C1103.69 955.061 1117.15 949.248 1134.17 949.248ZM1134.17 944.891C1118.34 944.891 1103.79 949.614 1090.91 958.926C1068.51 975.113 1056.47 1003.39 1060.24 1030.96C1062.45 1047.15 1069.66 1058.7 1081.67 1065.29C1093.77 1071.92 1104.97 1072.49 1116.83 1073.1C1137.42 1074.15 1160.74 1075.34 1198.88 1108.8C1257.22 1159.98 1246.72 1216.52 1246.61 1217.09C1246.31 1218.58 1246.81 1220.12 1247.93 1221.15C1274.75 1245.87 1338.46 1303.39 1350.66 1303.39C1351.22 1303.39 1351.75 1303.32 1352.26 1303.19C1355.89 1302.23 1359.68 1297.99 1363.51 1290.57C1378.62 1261.36 1386.44 1201.07 1358.78 1127.29C1320.2 1024.43 1194.33 949.884 1141.38 945.209C1138.96 944.995 1136.54 944.891 1134.17 944.891Z" fill="#020001"/>
<path d="M1229.65 1223.59C1229.65 1223.59 1237.53 1200.82 1278.39 1212.79C1319.25 1224.75 1358.07 1265.62 1363.32 1288.38C1368.58 1311.15 1356.02 1324.28 1337.06 1325.74C1318.09 1327.2 1229.65 1223.59 1229.65 1223.59Z" fill="#FFFEFB" stroke="#020001" stroke-miterlimit="10" stroke-linecap="round" stroke-linejoin="round"/>
<path d="M1251 1234.98C1251 1234.98 1243.05 1212.53 1225.28 1207.86C1207.51 1203.18 1169.63 1205.99 1138.3 1240.59C1106.97 1275.19 1126.61 1333.18 1163.55 1326.63C1163.55 1326.63 1160.75 1350.48 1178.05 1366.85C1195.35 1383.21 1218.37 1377.6 1218.37 1377.6C1218.37 1377.6 1210.78 1401.45 1236.97 1412.67C1263.16 1423.9 1302.9 1402.38 1327.68 1377.13C1352.47 1351.88 1352.94 1319.99 1344.05 1310.92C1335.17 1301.85 1318.33 1296.36 1318.33 1296.36C1318.33 1296.36 1309.92 1259.76 1296.83 1249.95C1283.73 1240.12 1251 1234.98 1251 1234.98Z" fill="#FFFEFB" stroke="#020001" stroke-miterlimit="10" stroke-linecap="round" stroke-linejoin="round"/>
<path d="M1216.72 1377.92C1216.72 1377.92 1253.1 1367.65 1270.71 1346.85" stroke="#020001" stroke-miterlimit="10" stroke-linecap="round" stroke-linejoin="round"/>
<path d="M1163.46 1327.77C1163.46 1327.77 1175.73 1295.15 1216.72 1268" stroke="#020001" stroke-miterlimit="10" stroke-linecap="round" stroke-linejoin="round"/>
<path d="M605.195 1603.17C575.866 1603.17 558.118 1602.54 552.449 1601.28C539.242 1598.34 461.128 1563.9 421.058 1527.99C381.192 1492.26 252.184 1395.47 228.432 1394.08C221.988 1393.7 218.075 1390.28 217.421 1384.46C215.578 1368.05 241.962 1333.41 276.716 1323.31C281.548 1321.91 286.938 1321.2 292.738 1321.2C329.967 1321.2 377.637 1349.97 400.548 1363.79C404.53 1366.19 407.715 1368.11 409.89 1369.3L413.136 1371.09C426.313 1378.39 450.84 1391.96 470.339 1391.96C477.485 1391.96 483.311 1390.07 487.686 1386.35C485.564 1382.71 481.102 1373.52 483.664 1364.24C485.516 1357.52 490.618 1352.24 498.828 1348.54C506.767 1344.97 517.033 1343.07 528.519 1343.07C550.763 1343.07 578.933 1350.87 587.317 1365.32C598.306 1384.27 584.659 1412.71 575.003 1420.05C575.896 1424.2 583.308 1439.66 600.785 1444.48C604.982 1445.65 609.474 1446.23 614.132 1446.23C628.986 1446.23 641.021 1440.26 641.139 1440.2C641.448 1440.04 641.784 1439.96 642.119 1439.96C642.459 1439.96 642.799 1440.05 643.113 1440.2C644.185 1440.75 669.496 1454.19 677.344 1500.16C685.157 1545.9 650.786 1599.56 649.318 1601.82C648.925 1602.43 648.254 1602.8 647.531 1602.82C647.331 1602.81 626.943 1603.17 605.195 1603.17Z" fill="#A62828"/>
<path d="M292.735 1323.37C335.916 1323.37 394.396 1363.33 408.841 1371.21C420.828 1377.75 448.493 1394.13 470.336 1394.13C478.114 1394.13 485.151 1392.06 490.485 1386.72C490.485 1386.72 473.491 1362.34 499.722 1350.52C507.779 1346.89 517.962 1345.24 528.516 1345.24C552.32 1345.24 578.007 1353.61 585.427 1366.41C596.142 1384.88 581.732 1413.32 572.865 1418.86C571.61 1419.65 578.773 1440.66 600.203 1446.57C604.961 1447.88 609.676 1448.4 614.129 1448.4C629.724 1448.4 642.116 1442.14 642.116 1442.14C642.116 1442.14 667.437 1455.1 675.197 1500.53C682.958 1545.95 647.489 1600.63 647.489 1600.63C647.489 1600.63 627.171 1601 605.188 1601C583.205 1601 559.562 1600.63 552.913 1599.15C539.614 1596.2 461.665 1561.47 422.506 1526.37C383.346 1491.28 253.676 1393.38 228.556 1391.9C203.435 1390.42 234.098 1337.97 277.319 1325.4C282.142 1324 287.319 1323.37 292.735 1323.37ZM292.735 1319.01C286.731 1319.01 281.136 1319.75 276.107 1321.21C240.399 1331.59 213.331 1367.58 215.253 1384.69C216.019 1391.49 220.895 1395.81 228.303 1396.24C250.473 1397.55 374.963 1489.61 419.599 1529.61C459.935 1565.76 538.655 1600.44 551.971 1603.4C554.141 1603.89 560.751 1605.35 605.192 1605.35C626.961 1605.35 647.367 1604.99 647.572 1604.98C649.018 1604.96 650.36 1604.21 651.149 1603C652.635 1600.7 687.45 1546.36 679.498 1499.79C671.463 1452.75 645.219 1438.82 644.108 1438.25C643.485 1437.94 642.805 1437.77 642.121 1437.77C641.45 1437.77 640.774 1437.93 640.156 1438.24C640.047 1438.29 628.421 1444.04 614.133 1444.04C609.672 1444.04 605.375 1443.47 601.366 1442.37C586.129 1438.16 579.27 1425.45 577.536 1420.75C587.798 1411.58 600.504 1383.7 589.201 1364.21C580.316 1348.89 551.95 1340.88 528.52 1340.88C516.729 1340.88 506.149 1342.84 497.936 1346.54C489.108 1350.52 483.6 1356.27 481.565 1363.65C479.134 1372.46 482.498 1381.12 484.894 1385.76C481.095 1388.45 476.302 1389.77 470.345 1389.77C451.408 1389.77 427.203 1376.37 414.201 1369.17C413.015 1368.51 411.922 1367.91 410.937 1367.37C408.824 1366.22 405.669 1364.31 401.669 1361.9C378.584 1347.99 330.566 1319.01 292.735 1319.01Z" fill="#020001"/>
<path d="M311.266 1430.44C311.266 1430.44 413.045 1424.83 447.904 1433.6C482.763 1442.36 465.581 1485.5 509.421 1519.87C553.26 1554.24 649.697 1576.55 646.9 1588.61C644.102 1600.68 573.252 1601.24 530.462 1588.61C487.673 1575.99 396.138 1512.15 376.848 1496.02C357.558 1479.89 309.51 1430.09 309.51 1430.09" fill="#8F1318"/>
<path d="M311.266 1430.44C311.266 1430.44 413.045 1424.83 447.904 1433.6C482.763 1442.36 465.581 1485.5 509.421 1519.87C553.26 1554.24 649.697 1576.55 646.9 1588.61C644.102 1600.68 573.252 1601.24 530.462 1588.61C487.673 1575.99 396.138 1512.15 376.848 1496.02C357.558 1479.89 309.51 1430.09 309.51 1430.09" stroke="#020001" stroke-miterlimit="10" stroke-linecap="round" stroke-linejoin="round"/>
<path d="M601.441 1675.43C542.181 1675.43 211.07 1427.75 197.004 1417.21C196.455 1416.79 196.133 1416.15 196.133 1415.46C196.133 1414.79 196.272 1398.78 208.272 1379.86C209.628 1375.42 223.632 1331.96 252.643 1330.75C253.916 1330.7 255.136 1330.67 256.317 1330.67C275.424 1330.67 282.164 1337.32 284.483 1341.29C286.361 1344.5 286.613 1348.12 285.136 1350.75L284.583 1351.71C271.219 1374.73 270.469 1391.4 282.408 1399.93C284.905 1401.72 287.694 1403.75 290.74 1405.97C312.574 1421.9 349.119 1448.57 382.179 1457.37C420.162 1467.49 432.201 1503.13 437.339 1518.35L437.805 1519.72C442.733 1534.22 464.027 1546.91 489.574 1550.56C500.795 1552.16 529.401 1558.74 559.689 1565.71C599.057 1574.76 643.681 1585.03 653.476 1585.03C654.226 1585.03 654.47 1584.96 654.479 1584.96C654.858 1584.8 655.298 1584.7 655.729 1584.7C656.343 1584.7 658.396 1584.94 659.062 1587.94C661.594 1599.35 643.515 1657.45 607.402 1674.3C605.807 1675.05 603.798 1675.43 601.441 1675.43Z" fill="#FFFEFB"/>
<path d="M256.318 1332.85C281.821 1332.85 285.812 1345.1 283.237 1349.68C280.544 1354.46 260.213 1386.76 281.146 1401.71C302.078 1416.66 343.643 1449.37 381.622 1459.48C419.601 1469.59 430.664 1505.48 435.749 1520.43C440.834 1535.38 462.063 1548.84 489.275 1552.73C515.262 1556.44 635.922 1587.21 653.486 1587.21C654.314 1587.21 654.911 1587.14 655.259 1587C655.429 1586.93 655.591 1586.9 655.739 1586.9C662.284 1586.89 645.965 1653.92 606.492 1672.34C605.159 1672.97 603.468 1673.27 601.446 1673.27C542.234 1673.27 198.317 1415.47 198.317 1415.47C198.317 1414.58 198.617 1399.03 210.278 1380.79C210.278 1380.79 224.034 1334.14 252.74 1332.94C253.973 1332.88 255.167 1332.85 256.318 1332.85ZM256.318 1328.5C255.111 1328.5 253.856 1328.52 252.553 1328.58C222.613 1329.82 208.121 1373.02 206.278 1378.94C194.095 1398.28 193.955 1414.76 193.955 1415.46C193.955 1416.83 194.6 1418.12 195.698 1418.95C209.79 1429.51 541.467 1677.61 601.442 1677.61C604.122 1677.61 606.44 1677.16 608.331 1676.27C646.105 1658.65 663.887 1599.61 661.194 1587.46C660.388 1583.82 657.848 1582.53 655.734 1582.52C655.124 1582.52 654.523 1582.63 653.93 1582.83C653.8 1582.84 653.647 1582.84 653.473 1582.84C643.922 1582.84 599.416 1572.6 560.147 1563.58C529.824 1556.6 501.183 1550.02 489.876 1548.4C465.105 1544.87 444.538 1532.78 439.858 1519.02L439.392 1517.64C434.137 1502.09 421.836 1465.68 382.729 1455.26C350.057 1446.56 313.721 1420.05 292.009 1404.21C288.963 1401.98 286.17 1399.94 283.669 1398.16C269.917 1388.34 277.594 1368.07 286.457 1352.8L287.028 1351.81C288.88 1348.51 288.623 1344.06 286.357 1340.18C283.808 1335.82 276.51 1328.5 256.318 1328.5Z" fill="#020001"/>
<path d="M198.309 1415.47C198.309 1415.47 229.316 1400.44 260.606 1420.34C291.896 1440.23 411.693 1548.59 465.894 1575.34C520.091 1602.08 616.523 1660.52 603.151 1673.18C589.778 1685.84 484.195 1664.02 350.463 1580.97C216.723 1497.91 184.823 1430.86 198.309 1415.47Z" fill="#020001" stroke="#020001" stroke-miterlimit="10" stroke-linecap="round" stroke-linejoin="round"/>
<path d="M633.083 1508.28C621.057 1508.28 597.954 1505.76 578.324 1488.91C545.666 1460.88 547.134 1425.94 547.749 1419.3C546.494 1417.87 544.215 1414.75 544.084 1410.71C543.975 1407.34 545.352 1404.14 548.176 1401.22C549.757 1399.59 553.753 1397.42 570.15 1397.42C574.686 1397.42 579.897 1397.59 585.649 1397.92C586.346 1397.96 586.978 1398.33 587.357 1398.91C587.736 1399.5 587.81 1400.22 587.562 1400.87C584.35 1409.21 579.418 1416.68 575.008 1420.03C575.902 1424.19 583.313 1439.64 600.791 1444.46C604.991 1445.63 609.479 1446.21 614.137 1446.21C629.035 1446.21 641.022 1440.24 641.144 1440.18C641.454 1440.02 641.789 1439.94 642.129 1439.94C642.473 1439.94 642.813 1440.03 643.127 1440.19C644.042 1440.66 665.606 1452.16 675.175 1489.99C675.271 1490.38 675.262 1490.77 675.153 1491.15C672.26 1500.92 654.177 1508.28 633.096 1508.28C633.087 1508.28 633.083 1508.28 633.083 1508.28Z" fill="#8F1318"/>
<path d="M570.16 1399.6C574.796 1399.6 579.995 1399.78 585.529 1400.1C582.086 1409.03 576.914 1416.34 572.875 1418.86C571.62 1419.64 578.783 1440.65 600.213 1446.57C604.971 1447.88 609.686 1448.39 614.139 1448.39C629.73 1448.39 642.126 1442.13 642.126 1442.13C642.126 1442.13 663.621 1453.22 673.059 1490.54C670.558 1498.97 653.63 1506.11 633.085 1506.11C615.712 1506.11 595.751 1501 579.742 1487.26C544.761 1457.23 550.02 1418.54 550.02 1418.54C550.02 1418.54 541.737 1411.02 549.737 1402.75C551.903 1400.52 559.576 1399.6 570.16 1399.6ZM570.16 1395.25C553.219 1395.25 548.752 1397.5 546.613 1399.71C542.565 1403.9 541.82 1408.04 541.911 1410.79C542.047 1414.91 544.025 1418.15 545.511 1420.02C544.892 1428.81 544.805 1463 576.91 1490.56C597.076 1507.88 620.762 1510.46 633.089 1510.46C655.46 1510.46 674.031 1502.6 677.238 1491.77C677.46 1491.02 677.477 1490.22 677.286 1489.47C667.477 1450.69 645.072 1438.75 644.126 1438.25C643.499 1437.93 642.815 1437.77 642.131 1437.77C641.46 1437.77 640.784 1437.93 640.165 1438.24C640.056 1438.29 628.431 1444.03 614.143 1444.03C609.681 1444.03 605.385 1443.47 601.376 1442.36C586.147 1438.16 579.289 1425.46 577.55 1420.76C581.96 1416.84 586.496 1409.72 589.603 1401.66C590.104 1400.36 589.951 1398.9 589.197 1397.73C588.444 1396.56 587.176 1395.82 585.786 1395.74C579.99 1395.42 574.735 1395.25 570.16 1395.25Z" fill="#020001"/>
<path d="M514.846 1575.03C514.846 1575.03 620.233 1595.31 626.839 1600.99C633.445 1606.68 611.144 1631.72 604.407 1631.44C597.671 1631.16 497.234 1576.13 514.846 1575.03Z" fill="#8F1318" stroke="#020001" stroke-miterlimit="10" stroke-linecap="round" stroke-linejoin="round"/>
<path d="M524.932 1436.48C515.555 1436.48 505.529 1435.26 495.133 1432.87C441.376 1420.48 359.479 1347.05 356.02 1343.93C355.214 1343.21 355.061 1341.99 355.667 1341.1C356.085 1340.47 356.769 1340.13 357.475 1340.13C357.793 1340.13 358.116 1340.2 358.421 1340.35C375.366 1348.6 390.512 1357.73 400.539 1363.78C404.53 1366.19 407.711 1368.1 409.89 1369.29L413.14 1371.08C426.313 1378.38 450.836 1391.95 470.335 1391.95H470.339C477.485 1391.95 483.311 1390.06 487.686 1386.35C485.564 1382.7 481.102 1373.51 483.664 1364.23C485.516 1357.51 490.618 1352.23 498.828 1348.53C506.767 1344.96 517.033 1343.07 528.519 1343.07C550.763 1343.07 578.933 1350.86 587.317 1365.31C598.594 1384.76 583.922 1414.21 574.249 1420.57C572.293 1422.51 557.094 1436.48 524.928 1436.48L524.932 1436.48Z" fill="#8F1318"/>
<path d="M357.468 1342.3C381.084 1353.79 401.176 1367.02 408.845 1371.2C420.832 1377.74 448.497 1394.12 470.345 1394.12C478.118 1394.12 485.16 1392.05 490.489 1386.72C490.489 1386.72 473.495 1362.33 499.726 1350.51C507.783 1346.88 517.966 1345.24 528.524 1345.24C552.324 1345.24 578.015 1353.6 585.436 1366.4C596.15 1384.87 581.741 1413.31 572.873 1418.86C572.873 1418.86 558.22 1434.3 524.925 1434.3C516.402 1434.3 506.65 1433.28 495.617 1430.74C441.534 1418.28 357.611 1342.43 357.468 1342.3ZM357.472 1337.95C356.06 1337.95 354.692 1338.63 353.86 1339.87C352.644 1341.67 352.94 1344.08 354.552 1345.54C358.021 1348.67 440.14 1422.43 494.641 1434.99C505.199 1437.42 515.391 1438.66 524.929 1438.66C557.074 1438.66 572.913 1424.88 575.632 1422.26C586.102 1415.14 601.227 1384.94 589.205 1364.22C580.32 1348.9 551.954 1340.88 528.524 1340.88C516.733 1340.88 506.154 1342.84 497.936 1346.54C489.108 1350.52 483.6 1356.28 481.565 1363.65C479.134 1372.46 482.497 1381.13 484.894 1385.76C481.094 1388.45 476.301 1389.77 470.345 1389.77C451.408 1389.77 427.203 1376.37 414.2 1369.17C413.015 1368.52 411.921 1367.92 410.937 1367.37C408.823 1366.22 405.669 1364.32 401.673 1361.91C391.616 1355.84 376.413 1346.67 359.376 1338.39C358.766 1338.09 358.112 1337.95 357.472 1337.95Z" fill="#020001"/>
<path d="M659.062 938.842C660.36 939.836 639.184 967.736 662.247 977.514C685.315 987.287 712.392 950.886 717.808 942.041C723.233 933.195 659.062 938.842 659.062 938.842Z" fill="#020001" stroke="#020001" stroke-miterlimit="10" stroke-linecap="round" stroke-linejoin="round"/>
<path d="M413.483 1401.31C410.494 1401.31 407.875 1399.19 407.256 1396.27C402.398 1373.47 385.391 1362.14 385.217 1362.04C382.271 1360.13 381.417 1356.18 383.308 1353.23C384.494 1351.4 386.498 1350.31 388.677 1350.31C389.901 1350.31 391.095 1350.66 392.128 1351.33C392.999 1351.89 413.723 1365.5 419.718 1393.61C420.076 1395.27 419.758 1396.98 418.834 1398.4C417.906 1399.83 416.476 1400.82 414.816 1401.17C414.389 1401.26 413.936 1401.31 413.483 1401.31Z" fill="#FFFEFB"/>
<path d="M388.678 1352.48C389.453 1352.48 390.238 1352.7 390.944 1353.15C391.789 1353.7 411.78 1366.82 417.593 1394.06C418.077 1396.33 416.63 1398.56 414.364 1399.04C414.068 1399.1 413.776 1399.13 413.484 1399.13C411.549 1399.13 409.807 1397.79 409.388 1395.82C404.299 1371.95 386.582 1360.32 386.403 1360.2C384.455 1358.95 383.893 1356.36 385.144 1354.41C385.95 1353.16 387.296 1352.48 388.678 1352.48ZM388.678 1348.12C385.758 1348.12 383.07 1349.59 381.484 1352.05C378.935 1356.02 380.089 1361.32 384.05 1363.87C384.19 1363.96 400.477 1374.9 405.131 1396.72C405.968 1400.64 409.48 1403.49 413.489 1403.49C414.107 1403.49 414.722 1403.42 415.31 1403.29C417.502 1402.83 419.419 1401.51 420.661 1399.6C421.907 1397.68 422.33 1395.39 421.855 1393.15C415.667 1364.14 394.212 1350.07 393.301 1349.48C391.924 1348.6 390.32 1348.12 388.678 1348.12Z" fill="#020001"/>
<path d="M467.256 1433.37C464.023 1433.37 461.304 1430.95 460.933 1427.73C458.179 1403.92 440.083 1389.43 439.9 1389.28C437.133 1387.11 436.645 1383.1 438.802 1380.34C440.018 1378.78 441.848 1377.89 443.822 1377.89C445.247 1377.89 446.597 1378.35 447.726 1379.23C448.637 1379.94 470.188 1396.89 473.583 1426.27C473.779 1427.97 473.304 1429.63 472.249 1430.97C471.19 1432.3 469.678 1433.14 467.983 1433.34C467.761 1433.36 467.508 1433.37 467.256 1433.37Z" fill="#FFFEFB"/>
<path d="M443.825 1380.07C444.722 1380.07 445.629 1380.35 446.395 1380.95C447.284 1381.63 468.147 1398.17 471.424 1426.52C471.69 1428.82 470.043 1430.89 467.742 1431.16C467.576 1431.19 467.415 1431.2 467.254 1431.2C465.154 1431.2 463.341 1429.62 463.097 1427.49C460.234 1402.72 441.432 1387.71 441.241 1387.56C439.419 1386.13 439.097 1383.5 440.522 1381.68C441.345 1380.62 442.578 1380.07 443.825 1380.07ZM443.825 1375.71C441.175 1375.71 438.718 1376.91 437.088 1378.99C434.191 1382.7 434.844 1388.08 438.548 1390.99C438.713 1391.13 456.138 1405.25 458.766 1427.99C459.263 1432.3 462.91 1435.56 467.254 1435.56C467.594 1435.56 467.934 1435.54 468.282 1435.5C472.927 1434.96 476.296 1430.71 475.755 1426.02C472.265 1395.82 450.016 1378.24 449.071 1377.51C447.568 1376.35 445.707 1375.71 443.825 1375.71Z" fill="#020001"/>
<path d="M440.718 1416.39C437.651 1416.39 435.014 1414.2 434.457 1411.18C430.043 1387.29 418.435 1380.09 417.942 1379.8C414.94 1378.12 413.829 1374.25 415.511 1371.2C416.631 1369.15 418.766 1367.88 421.088 1367.88C422.134 1367.88 423.171 1368.15 424.095 1368.65C424.788 1369.02 441.333 1378.25 446.988 1408.87C447.625 1412.32 445.333 1415.65 441.882 1416.29C441.481 1416.36 441.097 1416.39 440.718 1416.39Z" fill="#FFFEFB"/>
<path d="M421.089 1370.06C421.755 1370.06 422.431 1370.22 423.058 1370.56C423.721 1370.92 439.372 1379.62 444.849 1409.27C445.268 1411.54 443.764 1413.73 441.486 1414.15C441.228 1414.2 440.971 1414.22 440.719 1414.22C438.736 1414.22 436.971 1412.81 436.601 1410.79C431.921 1385.44 419.185 1378.01 419.058 1377.93C417.054 1376.81 416.313 1374.26 417.424 1372.25C418.182 1370.86 419.612 1370.06 421.089 1370.06ZM421.089 1365.7C417.973 1365.7 415.102 1367.4 413.598 1370.15C411.35 1374.24 412.84 1379.43 416.923 1381.73C416.954 1381.75 428.1 1388.74 432.318 1411.58C433.067 1415.63 436.601 1418.57 440.723 1418.57C441.263 1418.57 441.795 1418.53 442.305 1418.43C446.915 1417.57 449.991 1413.1 449.137 1408.47C443.385 1377.34 426.976 1367.71 425.124 1366.72C423.895 1366.06 422.496 1365.7 421.089 1365.7Z" fill="#020001"/>
<path d="M543.793 1445.78C541.579 1445.78 539.557 1444.66 538.381 1442.78C515.209 1405.64 477.513 1398.41 477.134 1398.34C473.679 1397.73 471.365 1394.42 471.966 1390.97C472.502 1387.91 475.147 1385.7 478.254 1385.7C478.607 1385.7 478.96 1385.73 479.313 1385.79C481.099 1386.1 522.869 1393.85 549.187 1436.04C551.043 1439.02 550.133 1442.95 547.157 1444.82C546.141 1445.44 544.982 1445.78 543.793 1445.78Z" fill="#FFFEFB"/>
<path d="M478.253 1387.87C478.484 1387.87 478.72 1387.89 478.959 1387.93C480.685 1388.23 521.487 1395.74 547.344 1437.18C548.568 1439.15 547.971 1441.73 546.006 1442.96C545.317 1443.39 544.546 1443.6 543.792 1443.6C542.394 1443.6 541.025 1442.9 540.228 1441.62C516.424 1403.47 477.905 1396.26 477.517 1396.2C475.242 1395.79 473.717 1393.62 474.114 1391.34C474.471 1389.3 476.249 1387.87 478.253 1387.87ZM478.253 1383.52C474.088 1383.52 470.541 1386.49 469.822 1390.59C469.011 1395.23 472.118 1399.67 476.754 1400.49C477.12 1400.55 513.923 1407.7 536.529 1443.93C538.106 1446.46 540.816 1447.96 543.788 1447.96C545.387 1447.96 546.947 1447.51 548.307 1446.66C552.307 1444.16 553.531 1438.88 551.039 1434.89C524.154 1391.8 481.504 1383.96 479.7 1383.64C479.199 1383.56 478.724 1383.52 478.253 1383.52Z" fill="#020001"/>
<path d="M507.592 1445.78C505.017 1445.78 502.708 1444.24 501.714 1441.87C491.021 1416.38 471.723 1400.89 466.79 1398.48C464.938 1398.3 463.296 1397.43 462.228 1396.05C461.187 1394.7 460.729 1393.04 460.938 1391.35C461.152 1389.66 462.01 1388.15 463.352 1387.11C464.542 1386.18 465.993 1385.7 467.544 1385.7C468.224 1385.7 468.93 1385.79 469.64 1385.98C476.821 1387.87 500.403 1405.79 513.466 1436.94C514.821 1440.19 513.292 1443.93 510.05 1445.28C509.283 1445.61 508.451 1445.78 507.592 1445.78Z" fill="#FFFEFB"/>
<path d="M467.545 1387.87C468.016 1387.87 468.53 1387.94 469.092 1388.08C475.754 1389.83 498.87 1407.76 511.458 1437.78C512.352 1439.92 511.349 1442.38 509.214 1443.27C508.683 1443.5 508.134 1443.6 507.593 1443.6C505.955 1443.6 504.395 1442.63 503.724 1441.03C492.277 1413.74 471.785 1398.23 467.336 1396.34C466.111 1396.3 464.791 1395.8 463.954 1394.72C462.534 1392.89 462.865 1390.25 464.695 1388.83C465.301 1388.35 466.246 1387.87 467.545 1387.87ZM469.828 1395.46C469.833 1395.46 469.833 1395.46 469.833 1395.46L469.828 1395.46ZM467.545 1383.52C465.506 1383.52 463.593 1384.16 462.02 1385.39C460.216 1386.79 459.066 1388.81 458.782 1391.07C458.499 1393.34 459.113 1395.58 460.512 1397.38C461.854 1399.12 463.863 1400.26 466.12 1400.59C470.063 1402.81 488.865 1416.85 499.711 1442.71C501.049 1445.89 504.142 1447.95 507.598 1447.95C508.748 1447.95 509.868 1447.72 510.918 1447.27C513.005 1446.4 514.644 1444.75 515.506 1442.64C516.373 1440.52 516.36 1438.2 515.48 1436.09C502.996 1406.32 479.366 1386.27 470.199 1383.86C469.305 1383.64 468.412 1383.52 467.545 1383.52Z" fill="#020001"/>
<path d="M871.605 935.422C933.505 935.422 983.685 872.894 983.685 795.761C983.685 718.627 933.505 656.099 871.605 656.099C809.705 656.099 759.525 718.627 759.525 795.761C759.525 872.894 809.705 935.422 871.605 935.422Z" fill="#FFFEFB" stroke="#020001" stroke-miterlimit="10" stroke-linecap="round" stroke-linejoin="round"/>
<path d="M983.144 782.05C979.527 735.801 957.797 696.188 926.912 674.306C922.498 673.081 917.941 672.428 913.283 672.428C874.659 672.428 842.881 716.559 842.881 770.194C842.881 782.695 844.606 795.087 847.97 806.687L899.457 790.891L875.565 852.744C886.842 862.683 899.932 867.964 913.287 867.964C949.017 867.96 978.874 830.173 983.144 782.05Z" fill="#020001" stroke="#020001" stroke-miterlimit="10" stroke-linecap="round" stroke-linejoin="round"/>
<path d="M711.265 807.71C715.284 730.685 673.848 665.912 618.715 663.035C563.583 660.159 515.631 720.268 511.612 797.293C507.594 874.319 549.03 939.092 604.162 941.968C659.295 944.844 707.247 884.735 711.265 807.71Z" fill="#FFFEFB" stroke="#020001" stroke-miterlimit="10" stroke-linecap="round" stroke-linejoin="round"/>
<path d="M711.544 793.951C710.733 747.593 693.439 707.03 667.073 683.74C663.203 682.315 659.182 681.448 655.033 681.231C620.632 679.435 590.026 722.033 587.233 775.593C586.579 788.081 587.473 800.53 589.865 812.274L636.545 798.892L612.039 859.551C621.569 870 632.946 875.882 644.846 876.501C676.672 878.161 705.234 841.812 711.544 793.951Z" fill="#020001" stroke="#020001" stroke-miterlimit="10" stroke-linecap="round" stroke-linejoin="round"/>
<path d="M719.975 937.385C719.975 937.385 703.46 957.045 673.577 946.823C643.695 936.6 620.906 892.112 642.117 869.92C663.333 847.728 682.24 859.366 702.532 881.044C722.824 902.718 739.888 891.65 739.888 891.65" fill="#BF1920"/>
<path d="M719.975 937.385C719.975 937.385 703.46 957.045 673.577 946.823C643.695 936.6 620.906 892.112 642.117 869.92C663.333 847.728 682.24 859.366 702.532 881.044C722.824 902.718 739.888 891.65 739.888 891.65" stroke="#020001" stroke-miterlimit="10" stroke-linecap="round" stroke-linejoin="round"/>
<path d="M851.873 957.467C851.873 957.467 904.519 845.657 1010.36 879.853L851.873 957.467Z" fill="#BF1920"/>
<path d="M851.873 957.467C851.873 957.467 904.519 845.657 1010.36 879.853" stroke="#020001" stroke-miterlimit="10" stroke-linecap="round" stroke-linejoin="round"/>
<path d="M700.737 1084.01C700.737 1084.01 671.351 1052.77 694.785 1027.84C718.219 1002.92 779.601 1048.3 830.564 1005.52C881.528 962.747 904.221 905.826 958.161 933.727C1012.1 961.627 985.316 1062.44 893.432 1099.64C801.549 1136.84 723.426 1104.84 700.737 1084.01Z" fill="#FFFEFB" stroke="#020001" stroke-miterlimit="10" stroke-linecap="round" stroke-linejoin="round"/>
<path d="M724.463 1020.1C724.463 1020.1 715.827 1075.07 724.463 1099.07" stroke="#020001" stroke-miterlimit="10" stroke-linecap="round" stroke-linejoin="round"/>
<path d="M778.507 1024.75C778.507 1024.75 778.11 1086.24 792.25 1116.75" stroke="#020001" stroke-miterlimit="10" stroke-linecap="round" stroke-linejoin="round"/>
<path d="M825.936 1009.15C826.472 1008.75 847.243 1080.79 875.731 1106.02" stroke="#020001" stroke-miterlimit="10" stroke-linecap="round" stroke-linejoin="round"/>
<path d="M864.549 972.193C864.549 972.193 927.077 1036.8 935.922 1074.73" stroke="#020001" stroke-miterlimit="10" stroke-linecap="round" stroke-linejoin="round"/>
<path d="M894.541 942.039C895.003 941.66 961.278 970.871 980.542 1012.98" stroke="#020001" stroke-miterlimit="10" stroke-linecap="round" stroke-linejoin="round"/>
<path d="M980.543 904.474C980.543 904.474 989.868 889.302 1018.34 892.422C1046.81 895.537 1063.44 914.718 1051.59 926.326C1039.75 937.934 956.778 930.902 980.543 904.474Z" fill="#F2686E"/>
<path d="M554.213 989.936C554.213 989.936 547.786 974.45 572.666 963.247C597.546 952.044 614.183 961.024 611.547 972.184C608.91 983.347 592.435 983.182 584.034 987.134C575.633 991.086 555.698 1000.97 554.213 989.936Z" fill="#F2686E"/>
<path d="M823.902 579.849C823.902 579.849 812.185 569.305 825.074 552.32C837.963 535.33 882.774 514.245 917.921 541.775C953.067 569.305 950.723 602.695 934.614 605.039C918.505 607.384 905.851 578.093 882.448 572.821C859.044 567.549 834.447 593.906 823.902 579.849Z" fill="#020001" stroke="#020001" stroke-miterlimit="10" stroke-linecap="round" stroke-linejoin="round"/>
<path d="M520.466 607.506C520.466 607.506 504.74 606.417 504.431 585.096C504.117 563.775 526.431 519.561 571.077 519.601C615.722 519.64 634.441 547.388 623.195 559.152C611.949 570.922 583.94 555.645 562.257 565.902C540.575 576.168 537.429 612.085 520.466 607.506Z" fill="#020001" stroke="#020001" stroke-miterlimit="10" stroke-linecap="round" stroke-linejoin="round"/>
<path d="M947.529 1575.82C947.529 1575.82 1033.06 1569.64 1075.82 1609.76" stroke="#020001" stroke-miterlimit="10" stroke-linecap="round" stroke-linejoin="round"/>
<path d="M667.494 372.639C663.869 381.284 660.662 390.831 663.115 399.881C667.446 415.855 688.47 422.413 703.908 416.439C719.346 410.465 729.721 395.916 737.264 381.179C744.802 366.443 750.589 350.543 761.138 337.784C768.014 329.47 776.65 322.83 784.572 315.509C792.498 308.189 799.944 299.827 803.404 289.609C809.217 272.433 799.561 253.644 780.946 250.798C765.186 248.393 750.419 264.437 739.63 273.722C708.41 300.581 683.416 334.643 667.494 372.639Z" fill="#E39C9F"/>
<path d="M650.603 473.469C652.703 479.438 658.424 484.336 664.751 484.222C673.17 484.066 679.131 475.874 682.059 467.978C686.054 457.194 684.839 433.573 667.627 437.024C654.869 439.581 646.808 462.671 650.603 473.469Z" fill="#E39C9F"/>
<path d="M838.344 1154.65C838.344 1154.65 940.833 1150.85 983.126 1068.19L838.344 1154.65Z" fill="#BF1920"/>
<path d="M838.344 1154.65C838.344 1154.65 940.833 1150.85 983.125 1068.19" stroke="#020001" stroke-miterlimit="10" stroke-linecap="round" stroke-linejoin="round"/>
<path d="M634.537 601.402C632.267 610.988 634.406 622.304 642.284 628.217C648.018 632.522 655.565 633.254 662.537 634.94C674.455 637.825 685.57 643.964 694.354 652.522C699.649 657.681 704.982 664.126 712.363 664.509C722.324 665.023 729.017 654.069 730.542 644.208C732.891 629.023 728.582 613.437 721.544 599.776C714.481 586.068 703.967 573.292 689.553 567.815C664.786 558.416 640.193 577.528 634.537 601.402Z" fill="#E39C9F"/>
<path d="M1040.56 1607.36C1039.73 1607.36 1038.92 1607.2 1038.15 1606.89C996.062 1589.7 945.835 1588.36 931.438 1588.36C928.022 1588.36 926.048 1588.43 925.882 1588.44H925.869C922.161 1588.44 919.386 1585.76 919.242 1582.33C919.172 1580.62 919.773 1579 920.932 1577.75C922.087 1576.5 923.66 1575.77 925.359 1575.7C925.826 1575.68 928.353 1575.59 932.488 1575.59C951.355 1575.59 999.892 1577.49 1042.98 1595.09C1044.55 1595.73 1045.78 1596.96 1046.44 1598.52C1047.1 1600.09 1047.11 1601.83 1046.47 1603.4C1045.48 1605.8 1043.16 1607.36 1040.56 1607.36Z" fill="#FFFEFB"/>
<path d="M932.482 1577.76C950.438 1577.76 999.201 1579.56 1042.15 1597.1C1044.29 1597.98 1045.32 1600.43 1044.44 1602.57C1043.78 1604.2 1042.21 1605.18 1040.56 1605.18C1040.03 1605.18 1039.5 1605.08 1038.98 1604.87C997.04 1587.74 947.85 1586.18 931.427 1586.18C927.898 1586.18 925.88 1586.25 925.776 1586.26C925.71 1586.26 925.645 1586.26 925.579 1586.26C923.331 1586.26 921.51 1584.48 921.418 1582.24C921.322 1579.92 923.126 1577.97 925.44 1577.88C925.919 1577.86 928.412 1577.76 932.482 1577.76ZM932.486 1573.41C927.88 1573.41 925.349 1573.52 925.244 1573.52C922.991 1573.61 920.882 1574.59 919.331 1576.27C917.78 1577.94 916.978 1580.13 917.07 1582.41C917.257 1587.02 920.996 1590.62 925.584 1590.62C925.649 1590.62 925.915 1590.61 925.98 1590.61C926.168 1590.6 928.107 1590.54 931.431 1590.54C945.728 1590.54 995.611 1591.86 1037.33 1608.9C1038.36 1609.32 1039.45 1609.54 1040.57 1609.54C1044.06 1609.54 1047.16 1607.45 1048.48 1604.22C1049.35 1602.11 1049.34 1599.78 1048.45 1597.68C1047.56 1595.57 1045.91 1593.93 1043.79 1593.07C1000.35 1575.32 951.48 1573.41 932.486 1573.41Z" fill="#020001"/>
<path d="M1043.08 1586.58C1042.44 1586.58 1041.81 1586.49 1041.21 1586.3C1009.96 1576.71 962.194 1576.22 952.935 1576.22L951.872 1576.23C948.338 1576.23 945.475 1573.4 945.436 1569.92C945.418 1568.22 946.068 1566.61 947.262 1565.4C948.451 1564.18 950.046 1563.5 951.745 1563.49L953.201 1563.48C962.735 1563.48 1011.96 1564 1044.95 1574.13C1046.58 1574.62 1047.91 1575.72 1048.71 1577.23C1049.51 1578.74 1049.67 1580.46 1049.17 1582.09C1048.35 1584.77 1045.9 1586.58 1043.08 1586.58Z" fill="#FFFEFB"/>
<path d="M953.198 1565.65C962.349 1565.65 1011.31 1566.06 1044.32 1576.2C1046.53 1576.88 1047.77 1579.23 1047.09 1581.44C1046.54 1583.24 1044.88 1584.4 1043.08 1584.4C1042.68 1584.4 1042.26 1584.35 1041.85 1584.22C1010.11 1574.47 961.151 1574.04 953.011 1574.04C952.297 1574.04 951.9 1574.05 951.852 1574.05C951.839 1574.05 951.822 1574.05 951.813 1574.05C949.517 1574.05 947.643 1572.19 947.621 1569.89C947.595 1567.58 949.456 1565.68 951.774 1565.66C951.948 1565.66 952.436 1565.65 953.198 1565.65ZM953.203 1561.3L951.961 1561.3C951.952 1561.3 951.739 1561.3 951.73 1561.3C947.015 1561.35 943.216 1565.23 943.268 1569.94C943.316 1574.6 947.155 1578.4 951.817 1578.4L953.002 1578.39C958.649 1578.39 1008.97 1578.67 1040.58 1588.38C1041.39 1588.63 1042.24 1588.76 1043.09 1588.76C1046.87 1588.76 1050.16 1586.33 1051.27 1582.72C1052.65 1578.21 1050.11 1573.42 1045.6 1572.03C1013.15 1562.07 966.676 1561.3 953.203 1561.3Z" fill="#020001"/>
<path d="M1048.14 1573.69C1047.64 1573.69 1047.13 1573.63 1046.62 1573.51C1014.66 1565.59 984.996 1564.41 970.163 1564.41C963.754 1564.41 959.54 1564.62 958.024 1564.71C957.819 1564.73 957.636 1564.73 957.458 1564.73C954.155 1564.73 951.383 1562.13 951.152 1558.81C951.035 1557.12 951.579 1555.47 952.691 1554.19C953.802 1552.9 955.349 1552.12 957.048 1552C957.58 1551.96 962.495 1551.62 970.73 1551.62C985.88 1551.62 1016.28 1552.86 1049.67 1561.14C1051.32 1561.54 1052.71 1562.57 1053.59 1564.03C1054.47 1565.49 1054.73 1567.2 1054.32 1568.85C1053.62 1571.7 1051.08 1573.69 1048.14 1573.69Z" fill="#FFFEFB"/>
<path d="M970.73 1553.81C987.135 1553.81 1016.61 1555.19 1049.14 1563.25C1051.39 1563.81 1052.76 1566.08 1052.2 1568.33C1051.73 1570.24 1050.02 1571.51 1048.14 1571.51C1047.8 1571.51 1047.46 1571.48 1047.13 1571.39C1015.37 1563.53 986.041 1562.23 970.163 1562.23C962.477 1562.23 957.941 1562.54 957.806 1562.54C957.688 1562.55 957.57 1562.56 957.457 1562.56C955.344 1562.56 953.483 1560.86 953.326 1558.67C953.156 1556.36 954.899 1554.35 957.209 1554.19C957.78 1554.14 962.686 1553.81 970.73 1553.81ZM970.734 1549.45C962.442 1549.45 957.435 1549.8 956.891 1549.84C954.616 1550 952.538 1551.04 951.043 1552.77C949.548 1554.49 948.816 1556.7 948.982 1558.98C949.296 1563.43 953.021 1566.92 957.457 1566.92C957.701 1566.92 957.945 1566.91 958.194 1566.88C959.278 1566.82 963.54 1566.59 970.163 1566.59C984.9 1566.59 1014.36 1567.76 1046.08 1575.62C1046.77 1575.79 1047.46 1575.87 1048.14 1575.87C1052.07 1575.87 1055.48 1573.21 1056.44 1569.38C1057.57 1564.8 1054.77 1560.16 1050.19 1559.02C1016.58 1550.69 985.98 1549.45 970.734 1549.45Z" fill="#020001"/>
<path d="M965.763 130.538C965.641 133.497 965.872 136.578 967.292 139.17C968.717 141.767 971.575 143.75 974.512 143.384C978.674 142.865 980.922 138.36 982.443 134.451C985.589 126.36 988.735 118.272 991.885 110.181C992.613 108.307 993.358 106.316 993.005 104.337C992.295 100.342 987.375 98.0498 983.637 98.7906C980.338 99.4442 977.767 103.2 975.658 105.662C969.75 112.56 966.142 121.449 965.763 130.538Z" fill="#E39C9F"/>
<path d="M998.649 86.7147C997.145 88.1614 995.816 90.3095 996.622 92.2311C997.372 94.0307 999.585 94.6625 1001.52 94.8368C1006.67 95.2944 1011.95 94.0351 1016.33 91.303C1017.85 90.3575 1019.38 89.0285 1019.52 87.2463C1019.63 85.8476 1018.81 84.5056 1017.72 83.6254C1012.13 79.1199 1003.27 82.2659 998.649 86.7147Z" fill="#E39C9F"/>
<path d="M671.942 869.542C678.561 871.821 683.611 877.219 687.711 882.893C688.949 884.605 690.151 886.409 690.661 888.461C691.171 890.514 690.87 892.88 689.402 894.4C687.502 896.374 684.278 896.353 681.707 895.411C679.136 894.47 676.892 892.788 674.351 891.764C670.643 890.274 666.534 890.27 662.56 889.834C658.587 889.398 654.39 888.357 651.711 885.389C641.907 874.535 664.19 866.875 671.942 869.542Z" fill="#E39C9F"/>
</svg>
