<svg width="367" height="613" viewBox="0 0 367 613" fill="none" xmlns="http://www.w3.org/2000/svg">
<path d="M134.798 548.354C143.623 548.354 157.361 542.785 159.319 537.09C162.231 528.619 160.16 506.127 159.337 502.837C158.809 500.722 153.906 499.776 149.281 499.776C146.167 499.776 135.52 500.312 129.19 507.204C129.057 507.348 128.988 507.539 128.996 507.732C129.007 507.969 130.005 531.441 127.453 542.147C127.072 543.749 127.297 545.089 128.121 546.133C129.284 547.607 131.531 548.354 134.798 548.354Z" fill="#FEE9CE"/>
<path d="M149.282 500.512C142.875 500.512 134.677 502.317 129.731 507.7C129.731 507.7 130.772 531.387 128.169 542.318C127.266 546.112 130.313 547.617 134.798 547.617C143.233 547.617 156.754 542.29 158.623 536.851C161.487 528.522 159.404 506.136 158.623 503.012C158.281 501.637 154.339 500.512 149.282 500.512ZM149.282 499.041C150.93 499.041 159.191 499.216 160.051 502.658C160.884 505.985 162.968 528.741 160.016 537.33C157.785 543.821 143.161 549.089 134.799 549.089C131.297 549.089 128.857 548.248 127.547 546.59C126.879 545.745 126.197 544.259 126.739 541.978C129.266 531.368 128.273 508 128.263 507.764C128.245 507.373 128.385 506.992 128.65 506.704C135.183 499.594 146.094 499.041 149.282 499.041Z" fill="#020001"/>
<path d="M69.9215 547.238C71.7203 547.238 73.5191 547.062 75.2708 546.712C84.2088 544.925 88.3506 544.282 88.3903 544.276C88.7359 544.223 88.9977 543.933 89.0124 543.582L90.2023 516.709C90.2214 516.309 89.9169 515.969 89.5169 515.941C89.5169 515.941 57.9228 513.835 57.9066 513.835C57.7154 513.835 57.5316 513.91 57.3933 514.044C57.2433 514.191 57.1639 514.392 57.1712 514.601L58.3802 544.264C58.392 544.529 58.5435 544.767 58.7788 544.888C58.9656 544.983 63.4309 547.238 69.9215 547.238Z" fill="#FEE9CE"/>
<path d="M57.9049 514.57L59.1138 544.233C59.1138 544.233 63.5336 546.504 69.9213 546.504C71.5435 546.504 73.2908 546.359 75.1264 545.991C84.1894 544.177 88.2782 543.548 88.2782 543.548L89.468 516.675L57.9049 514.57ZM57.9049 513.1C57.9372 513.1 57.9696 513.101 58.0034 513.103L89.5651 515.207C90.3623 515.26 90.9727 515.941 90.9359 516.74L89.7461 543.613C89.7152 544.313 89.193 544.894 88.5003 545.001C88.4591 545.007 84.3276 545.648 75.4132 547.432C73.6159 547.791 71.7671 547.974 69.9198 547.974C63.2541 547.974 58.6344 545.639 58.4403 545.541C57.9696 545.298 57.6651 544.822 57.6431 544.292L56.4341 514.629C56.4164 514.212 56.5782 513.807 56.8768 513.516C57.1533 513.248 57.5225 513.1 57.9049 513.1Z" fill="#020001"/>
<path d="M202.377 594.536C222.892 594.536 234.023 593.364 237.406 590.846C242.074 587.372 244.886 582.612 244.745 578.427C244.648 575.517 243.145 573.045 240.399 571.277C237.467 569.389 227.81 564.858 216.628 559.612C202.451 552.961 183.035 543.854 182.007 541.955C181.701 540.815 184.24 536.778 186.279 533.534C189.298 528.737 192.148 524.206 191.36 521.842C190.183 518.312 181.829 515.938 174.765 515.938C172.639 515.938 170.729 516.153 169.084 516.572C162.135 518.346 157.318 521.032 156.402 528.371C156.364 528.517 155.033 533.659 145.28 533.66C144.893 533.66 144.494 533.651 144.082 533.634C140.073 533.47 137.234 532.338 134.955 531.43C133.23 530.742 131.74 530.149 130.223 530.149C127.635 530.149 125.402 531.851 122.516 536.027C114.989 546.918 117.91 573.558 122.484 581.52C126.992 589.366 154.165 594.183 171.661 594.183C174.896 594.183 178.926 594.251 183.591 594.329C189.361 594.427 195.898 594.536 202.377 594.536Z" fill="#020001"/>
<path d="M174.765 516.674C172.802 516.674 170.912 516.864 169.266 517.284C161.762 519.201 157.929 522.075 157.13 528.461C157.13 528.461 155.821 534.394 145.277 534.394C144.882 534.394 144.474 534.385 144.052 534.369C136.944 534.078 133.514 530.883 130.222 530.883C128.109 530.883 126.054 532.2 123.12 536.444C115.616 547.302 118.809 573.648 123.12 581.153C127.431 588.657 154.576 593.448 171.66 593.448C178.982 593.448 190.765 593.799 202.375 593.799C217.859 593.799 233.042 593.174 236.967 590.253C243.832 585.144 247.186 576.522 240.001 571.89C232.816 567.26 182.184 545.385 181.313 542.191C180.443 538.998 191.94 525.903 190.662 522.072C189.666 519.083 181.757 516.674 174.765 516.674ZM174.765 515.203C180.878 515.203 190.601 517.239 192.059 521.608C192.896 524.121 190.67 527.937 186.904 533.923C185.265 536.527 182.825 540.405 182.737 541.677C185.003 543.963 204.169 552.952 216.94 558.943C228.148 564.2 237.825 568.74 240.798 570.655C243.756 572.561 245.375 575.239 245.481 578.4C245.629 582.824 242.704 587.818 237.845 591.434C234.279 594.088 223.34 595.27 202.375 595.27C195.89 595.27 189.348 595.16 183.577 595.064C178.914 594.986 174.887 594.919 171.66 594.919C156.469 594.919 126.829 590.564 121.845 581.886C117.073 573.582 114.094 546.918 121.909 535.609C124.951 531.208 127.36 529.412 130.222 529.412C131.881 529.412 133.432 530.03 135.226 530.746C137.57 531.68 140.227 532.739 144.111 532.9C144.513 532.916 144.899 532.925 145.276 532.925C153.952 532.925 155.514 528.73 155.683 528.177C156.745 520.051 162.662 517.453 168.901 515.861C170.607 515.424 172.58 515.203 174.765 515.203Z" fill="#020001"/>
<path d="M193.056 594.468C193.328 594.468 193.578 594.318 193.705 594.077C195.124 591.404 195.735 589.63 195.76 589.555C195.805 589.422 195.811 589.277 195.777 589.141L195.751 588.999C195.077 585.28 191.678 572.678 176.182 566.729C169.693 564.237 160.447 561.553 151.508 558.959C137.681 554.945 122.007 550.396 119.858 547.207C119.718 547.001 119.489 546.882 119.247 546.882C119.195 546.882 119.14 546.888 119.087 546.899C118.792 546.967 118.567 547.207 118.521 547.507C116.682 559.573 119.14 575.696 122.482 581.515C126.99 589.361 154.163 594.178 171.659 594.178C174.886 594.178 178.903 594.246 183.553 594.324C186.552 594.374 189.754 594.427 193.046 594.468C193.05 594.468 193.053 594.468 193.056 594.468Z" fill="#BF1920"/>
<path d="M119.249 547.617C117.381 559.872 119.945 575.621 123.122 581.148C127.433 588.652 154.578 593.443 171.663 593.443C177.015 593.443 184.748 593.631 193.058 593.732C194.466 591.079 195.067 589.319 195.067 589.319C194.914 588.705 193.076 574.002 175.92 567.416C158.768 560.831 122.937 553.089 119.249 547.617ZM119.251 546.146C119.733 546.146 120.194 546.385 120.47 546.795C122.47 549.763 138.687 554.471 151.719 558.254C160.673 560.853 169.931 563.54 176.448 566.043C192.305 572.131 195.788 585.053 196.479 588.869L196.503 588.994C196.556 589.251 196.545 589.545 196.46 589.794C196.434 589.87 195.804 591.697 194.358 594.422C194.104 594.903 193.602 595.203 193.06 595.203C193.054 595.203 193.048 595.203 193.042 595.203C189.761 595.164 186.569 595.111 183.579 595.061C178.918 594.983 174.892 594.915 171.665 594.915C156.474 594.915 126.834 590.56 121.85 581.882C118.377 575.839 115.908 559.806 117.799 547.397C117.89 546.798 118.339 546.316 118.932 546.183C119.035 546.158 119.143 546.146 119.251 546.146Z" fill="#020001"/>
<path d="M214.406 571.153C216.676 571.021 226.952 567.566 228.991 566.875C229.273 566.779 229.491 566.515 229.508 566.216C229.526 565.917 229.38 565.632 229.111 565.503C225.381 563.719 221.069 561.695 216.595 559.596C202.433 552.951 183.036 543.854 182.008 541.955C181.702 540.815 184.24 536.778 186.28 533.534C189.298 528.737 192.149 524.206 191.36 521.842C190.184 518.312 181.83 515.938 174.765 515.938C172.64 515.938 170.73 516.153 169.085 516.572C161.061 518.621 157.41 521.888 156.485 527.852C156.079 531.601 154.908 543.872 156.676 545.765C158.672 547.9 211.488 571.156 214.343 571.156C214.355 571.155 214.392 571.155 214.406 571.153Z" fill="#BF1920"/>
<path d="M174.767 516.674C172.803 516.674 170.913 516.864 169.267 517.284C161.965 519.149 158.148 521.931 157.211 527.964C157.176 528.289 155.542 543.473 157.213 545.26C158.897 547.062 211.684 570.421 214.341 570.421C214.349 570.421 214.356 570.421 214.363 570.421C216.725 570.283 228.783 566.169 228.793 566.166C211.592 557.935 181.978 544.631 181.315 542.195C180.444 539.002 191.941 525.908 190.663 522.076C189.666 519.083 181.757 516.674 174.767 516.674ZM174.765 515.203C180.878 515.203 190.601 517.239 192.059 521.608C192.896 524.121 190.67 527.937 186.904 533.923C185.265 536.528 182.825 540.407 182.737 541.677C185.003 543.963 204.166 552.951 216.934 558.94C221.444 561.055 225.703 563.054 229.429 564.836C229.968 565.094 230.296 565.653 230.261 566.25C230.226 566.847 229.833 567.363 229.267 567.556C227.215 568.255 216.868 571.745 214.45 571.887C214.421 571.889 214.371 571.89 214.341 571.89C211.46 571.89 158.153 548.419 156.138 546.263C154.376 544.378 154.954 535.184 155.748 527.805C156.735 521.433 160.543 517.992 168.901 515.858C170.607 515.424 172.58 515.203 174.765 515.203Z" fill="#020001"/>
<path d="M229.509 606.667C235.883 606.667 240.091 606.198 242.737 603.805C245.462 601.339 248.901 583.224 245.777 575.113C244.49 571.773 242.409 571.071 240.89 571.071C240.565 571.071 240.228 571.102 239.873 571.167L239.278 571.996C239.291 572.086 240.515 580.946 235.137 586.259C233.224 588.15 227.759 589.234 220.146 589.234C207.438 589.234 192.654 586.339 184.191 582.198C178.108 579.219 172.917 577.771 168.325 577.771C162.857 577.771 158.3 579.755 153.548 584.204C152.995 584.722 152.389 584.973 151.694 584.973C148.94 584.973 145.071 581.171 140.972 577.147C135.552 571.826 129.407 565.791 123.24 565.791C122.625 565.791 122.013 565.853 121.42 565.972C118.237 566.618 116.122 568.984 115.136 573.007C112.646 583.168 118.357 601.605 121.104 603.829C123.368 605.663 152.583 606.145 202.283 606.36C211.214 606.398 218.268 606.429 221.04 606.504C224.114 606.589 227.019 606.667 229.509 606.667Z" fill="#FFFEFB"/>
<path d="M123.239 566.531C122.68 566.531 122.123 566.584 121.567 566.698C109.17 569.208 118.271 600.595 121.567 603.263C124.863 605.931 209.448 605.46 221.06 605.774C224.267 605.86 227.066 605.935 229.507 605.935C235.911 605.935 239.86 605.422 242.246 603.263C245.443 600.37 250.035 571.81 240.891 571.81C240.609 571.81 240.314 571.836 240.006 571.892C240.006 571.892 241.372 581.135 235.655 586.786C233.453 588.961 227.496 589.974 220.147 589.974C208.416 589.974 193.13 587.397 183.868 582.863C177.606 579.796 172.564 578.511 168.325 578.511C162.368 578.511 158 581.048 154.051 584.746C153.336 585.415 152.546 585.713 151.693 585.713C144.845 585.712 133.828 566.531 123.239 566.531ZM123.239 565.061C129.709 565.061 135.966 571.205 141.488 576.627C145.3 580.37 149.242 584.241 151.693 584.241C152.201 584.241 152.63 584.06 153.045 583.67C157.943 579.085 162.655 577.039 168.324 577.039C173.03 577.039 178.326 578.511 184.513 581.541C192.884 585.64 207.538 588.502 220.144 588.502C227.457 588.502 232.868 587.47 234.618 585.738C239.745 580.672 238.561 572.192 238.548 572.107L239.741 570.445C240.131 570.374 240.517 570.339 240.888 570.339C242.638 570.339 245.027 571.123 246.464 574.855C249.563 582.9 246.454 601.438 243.23 604.354C240.409 606.907 236.061 607.406 229.504 607.406C227.005 607.406 224.097 607.327 221.018 607.244C218.251 607.169 211.188 607.138 202.247 607.1C142.67 606.843 122.839 606.188 120.638 604.406C117.347 601.744 111.947 582.919 114.418 572.837C115.737 567.451 118.873 565.742 121.27 565.256C121.914 565.125 122.576 565.061 123.239 565.061Z" fill="#020001"/>
<path d="M229.509 606.671C235.883 606.671 240.091 606.202 242.737 603.809C245.462 601.343 248.901 583.228 245.777 575.117C244.49 571.777 242.409 571.075 240.89 571.075C240.565 571.075 240.228 571.106 239.873 571.171C239.484 571.241 239.22 571.609 239.278 572C239.291 572.09 240.515 580.95 235.137 586.263C233.224 588.153 227.763 589.238 220.155 589.238C212.968 589.238 204.627 588.266 197.27 586.569C197.216 586.555 197.16 586.549 197.106 586.549C196.91 586.549 196.719 586.629 196.579 586.771C196.4 586.955 196.329 587.22 196.392 587.469C198.113 594.137 201.364 600.412 206.054 606.115C206.194 606.284 206.4 606.383 206.619 606.385C214.07 606.418 218.819 606.451 221.04 606.51C224.114 606.593 227.019 606.671 229.509 606.671Z" fill="#E94848"/>
<path d="M240.889 571.811C240.607 571.811 240.313 571.837 240.004 571.893C240.004 571.893 241.37 581.135 235.653 586.786C233.452 588.962 227.501 589.973 220.154 589.973C213.065 589.973 204.678 589.032 197.105 587.286C198.856 594.071 202.194 600.265 206.623 605.649C213.519 605.68 218.744 605.712 221.059 605.774C224.263 605.861 227.064 605.936 229.505 605.936C235.911 605.936 239.858 605.423 242.244 603.264C245.441 600.372 250.033 571.811 240.889 571.811ZM240.889 570.34C242.64 570.34 245.027 571.122 246.465 574.854C249.565 582.899 246.455 601.438 243.232 604.355C240.411 606.908 236.064 607.407 229.507 607.407C227.009 607.407 224.1 607.329 221.02 607.245C218.814 607.185 214.068 607.154 206.617 607.12C206.18 607.118 205.765 606.921 205.487 606.583C200.728 600.794 197.427 594.426 195.682 587.653C195.554 587.155 195.693 586.627 196.052 586.258C196.332 585.971 196.714 585.814 197.105 585.814C197.216 585.814 197.326 585.826 197.436 585.852C204.742 587.536 213.022 588.501 220.156 588.501C227.462 588.501 232.871 587.469 234.621 585.739C239.723 580.696 238.563 572.19 238.551 572.105C238.437 571.321 238.964 570.585 239.744 570.444C240.132 570.375 240.519 570.34 240.889 570.34Z" fill="#020001"/>
<path d="M207.188 605.182C202.634 599.643 199.481 593.561 197.814 587.102L197.267 586.569C192.125 585.384 187.601 583.875 184.186 582.203C178.103 579.224 172.912 577.775 168.32 577.775C162.852 577.775 158.295 579.76 153.543 584.209C152.99 584.726 152.384 584.978 151.689 584.978C148.935 584.978 145.066 581.176 140.967 577.152C135.547 571.831 129.402 565.796 123.235 565.796C122.62 565.796 122.008 565.858 121.415 565.977C118.233 566.622 116.118 568.989 115.131 573.012C112.641 583.173 118.352 601.61 121.099 603.834C123.364 605.668 152.593 606.15 202.315 606.365L206.615 606.384L207.188 605.182Z" fill="#FFFEFB"/>
<path d="M123.235 566.531C122.676 566.531 122.119 566.584 121.563 566.698C109.166 569.208 118.267 600.595 121.563 603.263C124.202 605.398 178.934 605.522 206.62 605.648C202.193 600.264 198.853 594.07 197.103 587.286C192.143 586.143 187.531 584.657 183.864 582.863C177.602 579.796 172.56 578.512 168.321 578.511C162.364 578.511 157.996 581.048 154.047 584.746C153.332 585.415 152.542 585.713 151.689 585.713C144.841 585.712 133.824 566.531 123.235 566.531ZM123.235 565.061C129.705 565.061 135.962 571.205 141.483 576.627C145.296 580.37 149.237 584.241 151.689 584.241C152.197 584.241 152.626 584.06 153.041 583.67C157.939 579.085 162.65 577.039 168.318 577.039C173.028 577.039 178.324 578.511 184.51 581.541C187.875 583.188 192.343 584.679 197.432 585.852L198.527 586.918C200.165 593.272 203.27 599.259 207.756 604.715L206.613 607.119L202.246 607.1C142.669 606.843 122.838 606.188 120.638 604.406C117.348 601.744 111.947 582.919 114.418 572.837C115.737 567.451 118.873 565.742 121.27 565.256C121.91 565.125 122.572 565.061 123.235 565.061Z" fill="#020001"/>
<path d="M153.486 600.104C162.34 600.104 163.086 599.458 163.33 599.246C163.614 599.001 163.705 598.62 163.568 598.254C162.603 595.667 133.111 582.151 126.554 582.151C125.467 582.151 124.779 582.478 124.51 583.122C124.464 583.235 124.445 583.357 124.459 583.48C124.494 583.834 125.35 592.203 126.182 595.942C127.082 599.988 150.786 600.104 153.486 600.104Z" fill="#BF1920"/>
<path d="M126.554 582.887C125.814 582.887 125.337 583.049 125.189 583.406C125.189 583.406 126.068 592.042 126.899 595.783C127.461 598.314 143.007 599.37 153.485 599.37C158.492 599.37 162.342 599.129 162.847 598.692C164.257 597.47 133.572 582.887 126.554 582.887ZM126.554 581.416C131.088 581.416 142.76 586.43 147.568 588.585C153.478 591.234 163.504 595.98 164.257 597.996C164.5 598.648 164.325 599.355 163.812 599.801C163.393 600.163 162.615 600.838 153.488 600.838C147.583 600.838 141.163 600.519 136.315 599.985C127.82 599.048 125.833 597.754 125.465 596.099C124.626 592.318 123.764 583.909 123.727 583.553C123.702 583.31 123.739 583.065 123.833 582.838C124.102 582.191 124.795 581.416 126.554 581.416Z" fill="#020001"/>
<path d="M201.784 572.456C202.294 572.456 202.783 572.266 203.161 571.922C212.185 563.656 219.706 563.186 220.535 563.159C221.71 563.097 222.58 562.24 222.603 561.163C222.627 560.038 221.731 559.104 220.607 559.079C218.991 559.085 210.588 559.589 200.407 568.913C199.579 569.675 199.522 570.966 200.281 571.796C200.668 572.215 201.216 572.456 201.784 572.456Z" fill="#FFFEFB"/>
<path d="M220.593 559.815C220.221 559.817 211.518 559.737 200.905 569.456C200.374 569.942 200.339 570.768 200.826 571.298C201.083 571.578 201.435 571.722 201.788 571.722C202.102 571.722 202.419 571.609 202.669 571.379C212.452 562.418 220.455 562.434 220.545 562.422C221.261 562.386 221.855 561.865 221.87 561.147C221.885 560.426 221.312 559.831 220.593 559.815ZM220.573 558.344H220.624C222.154 558.376 223.372 559.647 223.339 561.176C223.308 562.646 222.138 563.812 220.618 563.89V563.889L220.559 563.893C219.759 563.92 212.488 564.377 203.66 572.463C203.145 572.934 202.48 573.193 201.785 573.193C201.01 573.193 200.264 572.865 199.74 572.294C198.706 571.165 198.783 569.407 199.911 568.373C210.299 558.86 218.946 558.35 220.573 558.344Z" fill="#020001"/>
<path d="M192.625 566.834C193.132 566.834 193.618 566.647 193.994 566.308C202.37 558.704 209.432 558.318 210.761 558.318C210.891 558.318 211.17 558.332 211.17 558.332C212.225 558.332 213.119 557.509 213.207 556.462C213.254 555.919 213.085 555.39 212.734 554.975C212.382 554.559 211.889 554.304 211.347 554.259C211.304 554.254 211.08 554.235 210.707 554.235C208.481 554.235 200.505 554.887 191.254 563.285C190.851 563.65 190.614 564.15 190.588 564.696C190.561 565.24 190.748 565.762 191.114 566.163C191.501 566.59 192.051 566.834 192.625 566.834Z" fill="#FFFEFB"/>
<path d="M210.707 554.971C208.555 554.971 200.801 555.614 191.751 563.829C191.217 564.313 191.177 565.138 191.661 565.671C191.919 565.955 192.272 566.099 192.626 566.099C192.939 566.099 193.253 565.987 193.503 565.761C201.989 558.058 209.206 557.581 210.764 557.581C210.958 557.581 211.064 557.589 211.074 557.59C211.107 557.593 211.139 557.595 211.171 557.595C211.833 557.595 212.419 557.081 212.476 556.4C212.538 555.683 212.005 555.052 211.286 554.991C211.238 554.986 211.039 554.971 210.707 554.971ZM210.707 553.5C211.127 553.5 211.377 553.522 211.439 553.528C212.148 553.587 212.819 553.932 213.297 554.499C213.775 555.065 214.004 555.784 213.941 556.524C213.822 557.948 212.604 559.064 211.171 559.064C211.102 559.064 211.033 559.061 210.962 559.057L210.954 559.055C210.924 559.054 210.86 559.051 210.764 559.051C209.481 559.051 202.667 559.426 194.491 566.847C193.979 567.312 193.317 567.568 192.626 567.568C191.845 567.568 191.095 567.236 190.571 566.656C190.074 566.111 189.82 565.4 189.855 564.659C189.89 563.918 190.213 563.235 190.763 562.738C200.208 554.166 208.417 553.5 210.707 553.5Z" fill="#020001"/>
<path d="M183.01 561.699C183.503 561.699 183.978 561.523 184.347 561.201C191.886 554.672 197.215 553.698 199.721 553.698C200.718 553.698 201.246 553.854 201.252 553.856C201.448 553.925 201.674 553.963 201.904 553.963C202.76 553.963 203.53 553.422 203.822 552.617C204.204 551.56 203.655 550.389 202.598 550.006C202.416 549.94 201.417 549.612 199.69 549.612C195.954 549.612 189.796 551.087 181.677 558.118C181.266 558.474 181.017 558.969 180.977 559.514C180.939 560.056 181.113 560.583 181.47 560.995C181.855 561.442 182.417 561.699 183.01 561.699Z" fill="#FFFEFB"/>
<path d="M199.689 550.348C196.437 550.348 190.346 551.585 182.158 558.674C181.614 559.145 181.555 559.968 182.026 560.512C182.284 560.811 182.648 560.964 183.012 560.964C183.315 560.964 183.619 560.859 183.865 560.645C191.569 553.976 197.081 552.961 199.721 552.961C200.832 552.961 201.433 553.141 201.474 553.155C201.616 553.205 201.761 553.229 201.902 553.229C202.436 553.229 202.938 552.898 203.129 552.367C203.373 551.691 203.023 550.942 202.345 550.698C202.241 550.661 201.324 550.348 199.689 550.348ZM199.689 548.877C201.546 548.877 202.647 549.243 202.85 549.317C203.544 549.567 204.101 550.076 204.416 550.748C204.731 551.418 204.765 552.172 204.513 552.869C204.116 553.964 203.069 554.701 201.904 554.701C201.594 554.701 201.286 554.65 200.992 554.547C200.993 554.547 200.993 554.547 200.992 554.547C200.982 554.547 200.529 554.435 199.721 554.435C197.319 554.435 192.189 555.387 184.828 561.76C184.328 562.195 183.682 562.436 183.013 562.436C182.206 562.436 181.441 562.086 180.914 561.476C180.43 560.917 180.192 560.202 180.246 559.462C180.299 558.722 180.638 558.049 181.198 557.563C189.484 550.386 195.828 548.878 199.689 548.877Z" fill="#020001"/>
<path d="M170.961 555.675C171.456 555.675 171.934 555.496 172.306 555.169C179.869 548.533 189.607 548.342 190.693 548.342C191.918 548.309 192.817 547.436 192.843 546.352C192.871 545.232 191.98 544.296 190.859 544.263L190.663 544.262C188.641 544.262 178.122 544.641 169.618 552.102C168.772 552.845 168.688 554.137 169.43 554.981C169.816 555.424 170.375 555.675 170.961 555.675Z" fill="#FFFEFB"/>
<path d="M190.655 544.997C189.082 544.997 178.557 545.237 170.104 552.654C169.563 553.129 169.508 553.953 169.983 554.494C170.242 554.788 170.602 554.938 170.964 554.938C171.27 554.938 171.576 554.831 171.823 554.615C179.62 547.774 189.704 547.605 190.696 547.605C190.744 547.605 190.77 547.605 190.776 547.605C191.48 547.584 192.094 547.052 192.11 546.333C192.128 545.613 191.56 545.016 190.841 544.997C190.813 544.999 190.749 544.997 190.655 544.997ZM190.655 543.526L190.835 543.528C192.406 543.569 193.617 544.844 193.579 546.371C193.545 547.843 192.332 549.033 190.817 549.077H190.696C189.639 549.077 180.155 549.264 172.794 555.722C172.287 556.166 171.638 556.411 170.964 556.411C170.167 556.411 169.407 556.066 168.879 555.466C167.868 554.316 167.984 552.56 169.135 551.55C177.836 543.913 188.587 543.526 190.655 543.526Z" fill="#020001"/>
<path d="M293.883 245.97C293.883 245.97 292.902 236.237 270.356 221.346C247.81 206.456 250.203 229.83 253.595 235.37C256.987 240.912 290.834 257.703 293.883 245.97Z" fill="#020001" stroke="#020001" stroke-width="0.9702" stroke-miterlimit="10" stroke-linecap="round" stroke-linejoin="round"/>
<path d="M286.459 204.27C286.274 206.383 282.918 235.042 273.427 247.499C263.936 259.957 251.347 210.778 251.347 210.778L253.256 197.941L286.459 185.516C286.459 185.516 287.676 190.371 286.459 204.27Z" fill="#FEE9CE" stroke="#020001" stroke-miterlimit="10" stroke-linecap="round" stroke-linejoin="round"/>
<path d="M83.1663 529.894C96.5593 529.894 105.962 524.044 106.356 523.797C106.528 523.688 106.647 523.512 106.686 523.31L122.963 435.682L118.698 517.752C118.69 517.892 118.723 518.03 118.792 518.152C118.94 518.417 122.667 524.666 142.449 526.217C144.05 526.343 145.647 526.406 147.193 526.406H147.194C163.694 526.406 171.527 519.401 171.854 519.104C171.976 518.992 172.057 518.841 172.083 518.679C172.102 518.558 174.044 506.024 176.709 446.662C179.372 387.281 172.161 324.083 172.087 323.452C172.046 323.093 171.751 322.818 171.39 322.803C171.39 322.803 76.355 318.57 76.3462 318.57C75.9785 318.57 75.6652 318.844 75.6167 319.212L66.7684 386.912L52.1502 516.558C52.1252 516.774 52.2002 516.993 52.3517 517.149C52.7841 517.598 63.1076 528.132 78.7656 529.682C80.2158 529.82 81.6969 529.894 83.1663 529.894Z" fill="#E94848"/>
<path d="M76.3464 319.3L67.4995 387L52.8828 516.632C52.8828 516.632 63.2681 527.402 78.8379 528.941C80.3204 529.088 81.7662 529.154 83.1708 529.154C96.5035 529.154 105.967 523.171 105.967 523.171L124.279 424.581L119.435 517.785C119.435 517.785 122.891 523.94 142.51 525.478C144.145 525.606 145.707 525.665 147.199 525.665C163.601 525.665 171.36 518.554 171.36 518.554C171.36 518.554 173.283 506.629 175.975 446.622C178.668 386.615 171.36 323.53 171.36 323.53L76.3464 319.3ZM76.3464 317.829C76.3684 317.829 76.3905 317.829 76.4126 317.831L171.424 322.062C172.145 322.094 172.736 322.644 172.82 323.362C172.894 323.995 180.111 387.252 177.444 446.69C174.778 506.099 172.891 518.299 172.811 518.789C172.758 519.116 172.596 519.416 172.352 519.639C172.018 519.945 163.979 527.137 147.197 527.137C145.629 527.137 144.013 527.073 142.394 526.946C122.566 525.392 118.545 519.207 118.152 518.507C118.015 518.264 117.951 517.988 117.965 517.71L121.653 446.773L107.412 523.44C107.337 523.843 107.098 524.196 106.752 524.415C106.351 524.668 96.7727 530.625 83.1694 530.625C81.675 530.625 80.1689 530.551 78.6923 530.404C62.768 528.83 52.2621 518.108 51.8238 517.652C51.5194 517.336 51.3723 516.902 51.4209 516.467L66.0376 386.836L74.8873 319.109C74.9844 318.375 75.611 317.829 76.3464 317.829Z" fill="#020001"/>
<path d="M208.586 195.019C209.105 195.019 209.862 194.782 210.529 193.654C211.827 191.456 214.076 189.718 216.25 188.035C218.056 186.638 219.762 185.319 220.729 183.847C221.799 182.215 222.083 180.381 221.526 178.681C220.931 176.869 219.471 175.45 217.41 174.682C217.035 174.542 216.624 174.472 216.185 174.472C212.013 174.472 205.8 181.28 205.509 181.882C203.867 185.279 204.625 190.677 206.332 193.396C207.174 194.738 208.022 195.019 208.586 195.019Z" fill="#FEE9CE"/>
<path d="M216.185 175.207C212.326 175.207 206.341 181.849 206.171 182.202C204.054 186.584 206.331 194.283 208.586 194.283C209.034 194.283 209.483 193.977 209.896 193.28C212.379 189.078 218.109 186.5 220.115 183.444C222.121 180.387 220.878 176.759 217.154 175.372C216.85 175.26 216.526 175.207 216.185 175.207ZM216.185 173.736C216.71 173.736 217.209 173.823 217.666 173.994C219.94 174.841 221.559 176.423 222.224 178.453C222.852 180.37 222.54 182.429 221.343 184.251C220.309 185.826 218.556 187.182 216.7 188.618C214.581 190.258 212.388 191.954 211.161 194.029C210.318 195.456 209.294 195.754 208.586 195.754C207.837 195.754 206.729 195.413 205.709 193.786C204.106 191.231 202.914 185.561 204.847 181.562C205.176 180.877 211.527 173.736 216.185 173.736Z" fill="#020001"/>
<path d="M195.248 36.006C195.248 36.006 202.598 51.3052 198.712 68.7708C198.712 68.7708 197.21 51.8126 186.126 37.8754C186.126 37.8754 193.845 35.3044 195.248 36.006Z" fill="#020001" stroke="#020001" stroke-width="0.9702" stroke-miterlimit="10" stroke-linecap="round" stroke-linejoin="round"/>
<path d="M253.23 175.197C257.672 175.197 261.651 174.47 264.737 173.095C281.403 165.666 290.314 159.708 291.981 154.879C293.954 149.164 295.521 137.456 295.587 136.96C295.615 136.754 295.555 136.547 295.421 136.39C294.472 135.265 271.993 108.851 254.502 108.851C254.183 108.851 253.868 108.859 253.553 108.877C236.773 109.829 236.549 123.903 236.416 132.311C236.404 133.033 236.394 133.726 236.373 134.378C236.366 134.635 236.494 134.879 236.711 135.019C236.782 135.065 243.815 139.661 245.83 147.293C247.123 152.192 242.216 157.156 238.273 161.143C236.085 163.358 234.193 165.27 233.471 166.97C233.239 167.518 233.103 168.382 233.776 169.399C235.852 172.542 244.762 175.197 253.23 175.197Z" fill="#BF1920"/>
<path d="M254.503 109.586C254.198 109.586 253.897 109.595 253.595 109.611C236.152 110.601 237.365 125.909 237.109 134.4C237.109 134.4 244.425 139.09 246.541 147.104C248.658 155.119 236.122 162.612 234.148 167.257C232.729 170.596 243.036 174.461 253.23 174.461C257.221 174.461 261.192 173.87 264.439 172.423C275.979 167.279 289.315 160.35 291.287 154.639C293.26 148.928 294.86 136.865 294.86 136.865C294.86 136.865 271.852 109.589 254.503 109.586ZM254.5 108.115H254.503C272.33 108.118 295.026 134.781 295.983 135.915C296.251 136.231 296.372 136.646 296.317 137.056C296.251 137.555 294.674 149.333 292.677 155.117C290.94 160.149 281.899 166.248 265.038 173.764C261.86 175.182 257.777 175.93 253.23 175.93C244.4 175.93 235.397 173.182 233.163 169.803C232.498 168.797 232.367 167.688 232.795 166.681C233.573 164.851 235.509 162.892 237.752 160.624C241.563 156.769 246.306 151.971 245.12 147.478C243.182 140.137 236.384 135.679 236.315 135.635C235.882 135.356 235.625 134.869 235.641 134.354C235.66 133.706 235.672 133.017 235.682 132.299C235.821 123.635 236.05 109.133 253.513 108.142C253.841 108.126 254.167 108.115 254.5 108.115Z" fill="#020001"/>
<path d="M291.787 149.951C291.889 149.951 291.99 149.931 292.084 149.888L305.46 143.971C305.673 143.877 305.829 143.687 305.88 143.459C305.92 143.281 309.732 125.501 298.05 109.878C289.177 98.0134 276.64 91.3787 259.721 89.5975C259.165 89.5387 258.603 89.5107 258.04 89.5107C248.05 89.5107 237.696 98.2105 237.261 98.5811C237.036 98.7723 236.947 99.0827 237.037 99.3651C237.052 99.4136 238.546 104.319 235.472 111.234C235.034 112.221 235.046 113.079 235.507 113.789C236.368 115.114 238.677 115.681 243.225 115.681C245.406 115.681 247.847 115.558 250.433 115.429C253.094 115.297 255.846 115.158 258.369 115.158C263.07 115.158 266.04 115.667 267.446 116.715C273.433 121.172 288.059 142.131 289.102 143.633L291.094 149.453C291.161 149.647 291.308 149.806 291.496 149.888C291.587 149.929 291.687 149.951 291.787 149.951Z" fill="#FE7A7F"/>
<path d="M258.038 90.2462C248.203 90.2462 237.735 99.1415 237.735 99.1415C237.735 99.1415 239.383 104.241 236.142 111.533C234.916 114.292 238.254 114.945 243.221 114.945C247.666 114.945 253.415 114.425 258.366 114.423C262.505 114.423 266.083 114.788 267.881 116.125C274.229 120.852 289.76 143.298 289.76 143.298L291.785 149.215L305.161 143.298C305.161 143.298 309.073 125.85 297.458 110.318C285.843 94.7865 269.906 91.4096 259.641 90.33C259.11 90.2727 258.575 90.2462 258.038 90.2462ZM258.037 88.7754C258.632 88.7754 259.225 88.8063 259.796 88.8666C276.929 90.6698 289.634 97.3986 298.636 109.437C310.52 125.329 306.763 142.88 306.596 143.62C306.495 144.074 306.183 144.454 305.756 144.643L292.381 150.56C292.191 150.644 291.988 150.685 291.785 150.685C291.585 150.685 291.384 150.644 291.196 150.562C290.818 150.397 290.526 150.081 290.393 149.691L288.434 143.968C287.004 141.915 272.802 121.626 267 117.304C265.117 115.903 260.097 115.894 258.397 115.894C258.385 115.894 258.375 115.894 258.365 115.894C255.86 115.894 253.117 116.031 250.465 116.163C247.871 116.292 245.419 116.415 243.22 116.415C238.328 116.415 235.914 115.77 234.886 114.188C234.47 113.548 234.117 112.462 234.797 110.934C237.74 104.31 236.347 99.6298 236.332 99.5842C236.157 99.0224 236.334 98.4003 236.782 98.0193C237.226 97.6413 247.779 88.7754 258.037 88.7754Z" fill="#020001"/>
<path d="M304.535 144.673C304.612 144.673 304.688 144.661 304.763 144.636L314.291 141.521C314.566 141.431 314.761 141.189 314.794 140.902C314.829 140.581 317.95 108.655 288.04 90.7833C279.579 85.7267 271.347 83.1631 263.575 83.1631C247.686 83.1631 238.038 93.8543 236.401 99.5786C236.318 99.8669 236.42 100.176 236.657 100.361C236.789 100.464 236.948 100.515 237.108 100.515C237.235 100.515 237.363 100.483 237.477 100.417C237.551 100.374 245.031 96.1105 255.336 96.1105C259.232 96.1105 263.071 96.7179 266.746 97.9151C274.65 100.49 300.679 111.426 303.803 144.008C303.823 144.23 303.945 144.43 304.132 144.554C304.254 144.632 304.394 144.673 304.535 144.673Z" fill="#FEA786"/>
<path d="M263.574 83.8985C248.007 83.8985 238.634 94.4412 237.109 99.7801C237.109 99.7801 244.692 95.3736 255.335 95.3736C258.925 95.3736 262.861 95.8737 266.973 97.2151C283.28 102.529 301.969 117.187 304.534 143.936L314.062 140.821C314.062 140.821 317.513 109.249 287.663 91.4143C278.523 85.9532 270.446 83.8985 263.574 83.8985ZM263.574 82.4277C271.481 82.4277 279.84 85.0266 288.417 90.1509C318.727 108.261 315.561 140.656 315.524 140.98C315.461 141.555 315.068 142.039 314.52 142.218L304.992 145.333C304.842 145.382 304.689 145.406 304.534 145.406C304.252 145.406 303.971 145.325 303.728 145.166C303.355 144.922 303.112 144.52 303.069 144.076C299.988 111.938 274.312 101.152 266.517 98.6123C262.915 97.4386 259.153 96.8444 255.335 96.8444C245.248 96.8444 237.918 101.01 237.846 101.052C237.616 101.185 237.362 101.249 237.109 101.249C236.788 101.249 236.468 101.145 236.204 100.939C235.732 100.57 235.529 99.9522 235.694 99.3757C237.384 93.466 247.294 82.4277 263.574 82.4277Z" fill="#020001"/>
<path d="M285.345 147.888C285.626 147.888 285.919 147.862 286.223 147.806C289.063 147.285 293.845 144.508 296.617 140.928C296.651 140.884 296.681 140.836 296.704 140.784C297.791 138.368 298.688 133.057 294.295 130.253C292.552 129.14 290.227 128.552 287.571 128.552C283.602 128.552 279.324 129.909 278.413 131.457C277.268 133.404 277.593 142.874 279.658 144.5C279.998 144.767 280.336 145.089 280.689 145.422C281.851 146.52 283.298 147.888 285.345 147.888Z" fill="#FFF9E8"/>
<path d="M287.57 129.266C283.567 129.266 279.715 130.652 279.029 131.819C277.959 133.64 278.494 142.675 280.1 143.94C281.556 145.085 283.012 147.175 285.346 147.175C285.586 147.175 285.836 147.153 286.095 147.106C288.879 146.596 293.483 143.813 296.052 140.494C296.052 140.494 298.944 134.069 293.911 130.857C292.105 129.701 289.815 129.266 287.57 129.266ZM287.57 127.839C290.363 127.839 292.822 128.465 294.68 129.652C299.484 132.717 298.531 138.467 297.355 141.077C297.31 141.18 297.251 141.276 297.182 141.366C294.306 145.079 289.322 147.965 286.352 148.509C286.016 148.571 285.676 148.602 285.346 148.602C283.015 148.602 281.453 147.127 280.199 145.941C279.85 145.612 279.522 145.302 279.216 145.062C276.864 143.21 276.479 133.341 277.798 131.097C278.982 129.083 283.792 127.839 287.57 127.839Z" fill="#020001"/>
<path d="M237.307 139.061C237.778 139.061 238.244 139.02 238.681 138.979C239.024 138.948 239.347 138.917 239.636 138.917C239.719 138.917 239.8 138.92 239.878 138.926C240.002 138.937 240.125 138.943 240.249 138.943C242.798 138.943 244.304 136.594 244.726 131.964C245.242 126.322 240.556 122.913 240.356 122.772C240.334 122.751 238.884 121.576 236.928 121.576C235.759 121.576 234.664 121.989 233.676 122.803C230.367 125.528 231.404 130.938 232.676 135.347C233.395 137.846 234.91 139.061 237.307 139.061Z" fill="#FFF9E8"/>
<path d="M236.928 122.29C236.067 122.29 235.098 122.556 234.129 123.353C231.222 125.746 232.077 130.704 233.359 135.149C234.143 137.867 235.76 138.348 237.307 138.348C238.153 138.348 238.978 138.204 239.635 138.204C239.741 138.204 239.844 138.208 239.941 138.216C240.044 138.225 240.146 138.23 240.247 138.23C241.936 138.23 243.558 136.898 244.014 131.9C244.498 126.601 239.94 123.352 239.94 123.352C239.94 123.352 238.65 122.29 236.928 122.29ZM236.928 120.863C238.982 120.863 240.503 121.98 240.809 122.219C241.322 122.597 245.969 126.193 245.436 132.031C244.974 137.092 243.228 139.659 240.249 139.659C240.104 139.659 239.959 139.651 239.815 139.638C239.759 139.634 239.699 139.631 239.637 139.631C239.368 139.631 239.066 139.66 238.747 139.689C238.313 139.729 237.823 139.773 237.309 139.773C234.589 139.773 232.801 138.35 231.99 135.543C230.658 130.925 229.594 125.24 233.223 122.25C234.34 121.33 235.588 120.863 236.928 120.863Z" fill="#020001"/>
<path d="M277.664 137.549C280.098 137.084 283.481 131.754 284.134 130.689L284.118 130.68C285.094 129.527 287.012 125.509 287.57 122.206C288.164 118.681 287.359 115.958 285.246 114.332C283.509 112.997 281.342 112.32 278.802 112.32C273.779 112.32 268.345 115.043 265.783 117.606C262.379 121.01 260.938 122.62 262.466 125.121C263.594 126.965 274.431 137.574 277.387 137.574C277.431 137.574 277.62 137.558 277.664 137.549Z" fill="#FFF9E8"/>
<path d="M278.802 113.035C273.96 113.035 268.723 115.675 266.287 118.112C262.754 121.645 261.897 122.823 263.075 124.751C264.229 126.64 274.849 136.863 277.386 136.863C277.437 136.863 277.484 136.859 277.53 136.85C279.779 136.422 283.526 130.318 283.526 130.318C283.847 130.211 290.379 119.183 284.812 114.9C283.082 113.57 280.982 113.035 278.802 113.035ZM278.802 111.608C281.502 111.608 283.816 112.335 285.679 113.769C287.309 115.022 289.081 117.524 288.272 122.328C287.808 125.085 286.063 129.424 284.722 131.054L284.741 131.066C283.785 132.623 280.457 137.746 277.796 138.252C277.668 138.275 277.531 138.29 277.386 138.29C273.976 138.29 262.947 127.278 261.857 125.496C259.971 122.41 262.082 120.299 265.278 117.105C267.942 114.44 273.587 111.608 278.802 111.608Z" fill="#020001"/>
<path d="M237.356 126.99C239.277 126.99 240.84 126.437 241.759 125.433C244.03 122.952 244.698 117.466 244.726 117.233C244.732 117.183 244.732 117.135 244.727 117.085L244.086 110.125C244.071 109.97 244.007 109.823 243.902 109.709C243.848 109.648 242.537 108.242 240.278 108.242C238.791 108.242 237.257 108.847 235.719 110.037C230.931 113.741 229.678 121.923 231.087 124.374C232.073 126.092 234.988 126.99 237.356 126.99Z" fill="#FFF9E8"/>
<path d="M240.275 108.956C239.156 108.956 237.765 109.353 236.153 110.6C231.702 114.043 230.418 121.784 231.702 124.017C232.477 125.363 235.001 126.275 237.354 126.275C238.904 126.275 240.381 125.879 241.231 124.949C243.373 122.609 244.015 117.148 244.015 117.148L243.373 110.188C243.373 110.188 242.248 108.956 240.275 108.956ZM240.275 107.529C242.802 107.529 244.268 109.053 244.427 109.227C244.638 109.456 244.766 109.749 244.795 110.058L245.438 117.017C245.447 117.116 245.445 117.216 245.433 117.314C245.363 117.92 244.668 123.308 242.284 125.911C241.228 127.066 239.478 127.701 237.354 127.701C234.86 127.701 231.64 126.77 230.465 124.727C228.738 121.725 230.43 113.223 235.279 109.471C236.947 108.184 238.628 107.529 240.275 107.529Z" fill="#020001"/>
<path d="M243.928 121.478C247.031 121.478 250.181 121.092 250.314 121.075C250.487 121.053 250.646 120.969 250.761 120.84L261.361 108.838C261.534 108.641 261.586 108.363 261.495 108.118C261.402 107.866 259.134 101.949 253.452 101.949C252.326 101.949 251.137 102.192 249.918 102.668C241.918 105.8 237.521 116.197 237.521 119.072C237.521 121.23 241.177 121.478 243.928 121.478Z" fill="#FFF9E8"/>
<path d="M253.453 102.664C252.472 102.664 251.383 102.863 250.177 103.335C242.517 106.332 238.234 116.291 238.234 119.075C238.234 120.419 241.033 120.768 243.926 120.768C247.022 120.768 250.226 120.369 250.226 120.369L260.826 108.368C260.826 108.368 258.705 102.664 253.453 102.664ZM253.453 101.237C259.626 101.239 262.064 107.598 262.164 107.869C262.348 108.363 262.245 108.918 261.896 109.312L251.296 121.314C251.066 121.574 250.748 121.742 250.402 121.786C250.268 121.802 247.074 122.195 243.926 122.195C241.979 122.195 236.808 122.195 236.808 119.075C236.808 115.981 241.226 105.307 249.658 102.007C250.961 101.496 252.238 101.237 253.453 101.237Z" fill="#020001"/>
<path d="M263.715 124.725C266.888 124.725 271.64 117.571 272.561 116.137C272.602 116.072 272.634 116 272.652 115.924C272.672 115.841 274.66 107.677 270.585 105.184C269.671 104.624 268.572 104.34 267.32 104.34C263.549 104.34 258.693 106.895 254.329 111.173C248.638 116.75 249.493 120.391 249.533 120.544C249.594 120.783 249.775 120.974 250.013 121.047C250.44 121.177 260.485 124.271 263.396 124.701C263.501 124.716 263.608 124.725 263.715 124.725Z" fill="#FFF9E8"/>
<path d="M267.321 105.055C263.755 105.055 259.01 107.584 254.83 111.683C249.369 117.037 250.226 120.366 250.226 120.366C250.226 120.366 260.613 123.567 263.503 123.997C263.572 124.007 263.644 124.012 263.716 124.012C266.66 124.012 271.962 115.752 271.962 115.752C272.069 115.324 273.716 107.936 270.216 105.794C269.394 105.293 268.413 105.056 267.321 105.055ZM267.32 103.628C268.705 103.628 269.931 103.947 270.959 104.577C275.474 107.339 273.434 115.741 273.344 116.097C273.308 116.247 273.244 116.391 273.16 116.522C271.818 118.614 267.168 125.438 263.715 125.438C263.571 125.438 263.43 125.428 263.293 125.407C260.329 124.968 250.232 121.861 249.804 121.729C249.331 121.583 248.966 121.201 248.842 120.721C248.734 120.299 247.95 116.428 253.83 110.664C258.325 106.259 263.366 103.628 267.32 103.628Z" fill="#020001"/>
<path d="M259.15 198.71C264.09 198.71 268.908 198.052 273.466 196.755C291.772 191.546 299.717 175.088 299.795 174.923C299.877 174.748 299.888 174.549 299.824 174.367C299.801 174.299 297.445 167.466 297.006 161.472C296.536 155.039 293.828 153.742 293.521 153.615C293.429 153.579 293.334 153.56 293.24 153.56C293.069 153.56 292.9 153.62 292.765 153.735C292.562 153.907 272.368 170.949 263.03 173.034C261.884 173.29 260.472 173.42 258.833 173.42C254.206 173.42 248.519 172.424 243.5 171.544C239.672 170.874 236.366 170.294 234.277 170.294C232.406 170.294 231.452 170.833 231.44 171.896C231.422 173.552 229.437 175.951 227.842 177.878C226.43 179.584 225.317 180.932 225.152 182.019C224.789 184.436 227.954 189.985 233.069 192.703C234.227 193.318 244.793 198.71 259.15 198.71Z" fill="#FE7A7F"/>
<path d="M293.239 154.295C293.239 154.295 272.812 171.602 263.188 173.752C261.915 174.036 260.439 174.155 258.831 174.155C250.596 174.155 238.978 171.028 234.273 171.028C232.956 171.028 232.179 171.274 232.172 171.902C232.135 175.21 226.193 180.022 225.877 182.127C225.56 184.232 228.599 189.495 233.411 192.052C236.935 193.924 246.912 197.973 259.147 197.973C263.619 197.973 268.393 197.432 273.263 196.046C291.458 190.869 299.128 174.607 299.128 174.607C299.128 174.607 296.722 167.689 296.27 161.524C295.822 155.361 293.239 154.295 293.239 154.295ZM293.239 152.824C293.429 152.824 293.618 152.861 293.799 152.936C294.149 153.08 297.235 154.547 297.738 161.42C298.17 167.323 300.494 174.059 300.518 174.127C300.644 174.49 300.624 174.889 300.459 175.238C300.134 175.926 292.29 192.165 273.666 197.464C269.041 198.781 264.157 199.447 259.149 199.447C244.613 199.447 233.897 193.977 232.723 193.353C227.584 190.624 223.981 184.861 224.425 181.911C224.619 180.621 225.791 179.203 227.275 177.41C228.715 175.669 230.689 173.283 230.704 171.887C230.714 171.018 231.191 169.559 234.275 169.559C236.428 169.559 239.764 170.143 243.628 170.821C248.617 171.694 254.27 172.686 258.833 172.686C260.418 172.686 261.776 172.562 262.868 172.318C272.03 170.271 292.087 153.346 292.289 153.174C292.559 152.943 292.898 152.824 293.239 152.824Z" fill="#020001"/>
<path d="M288.284 167.892C290.602 167.892 292.289 166.991 293.035 165.359C294.306 162.576 294.678 151.055 293.178 149.826C292.772 149.494 291.864 149.051 288.681 149.051C287.618 149.051 286.587 149.099 285.893 149.139C283.807 149.257 278.667 153.775 278.768 156.431C278.858 158.78 282.881 167.547 286.477 167.718C286.703 167.764 287.409 167.892 288.284 167.892Z" fill="#FFF9E8"/>
<path d="M288.681 149.765C287.634 149.765 286.618 149.813 285.934 149.851C284.151 149.953 279.398 154.198 279.483 156.404C279.568 158.611 283.487 166.965 286.565 167.007C286.565 167.007 287.311 167.179 288.284 167.179C289.693 167.179 291.583 166.82 292.386 165.062C293.744 162.091 293.691 151.169 292.726 150.376C292.13 149.89 290.366 149.765 288.681 149.765ZM288.681 148.338C292.036 148.338 293.066 148.811 293.631 149.275C295.49 150.799 294.966 162.85 293.684 165.656C292.814 167.558 290.896 168.607 288.284 168.607C287.402 168.607 286.686 168.488 286.387 168.429C282.12 168.141 278.143 158.686 278.058 156.461C277.939 153.369 283.445 148.566 285.855 148.429C286.912 148.366 287.836 148.338 288.681 148.338Z" fill="#020001"/>
<path d="M279.829 180.204C282.354 180.204 285.478 178.998 286.667 175.614C288.255 171.093 286.659 158.135 285.695 157.413C284.783 156.729 283.481 156.382 281.828 156.382C277.613 156.382 271.919 158.681 270.582 160.462C268.872 162.742 269.481 167.722 269.507 167.933C269.514 167.988 269.528 168.039 269.545 168.091C269.636 168.336 271.79 174.134 274.23 177.592C275.384 179.229 277.477 180.204 279.829 180.204Z" fill="#FFF9E8"/>
<path d="M281.829 157.096C277.762 157.096 272.317 159.34 271.154 160.89C269.596 162.966 270.216 167.844 270.216 167.844C270.216 167.844 272.4 173.76 274.813 177.182C275.877 178.688 277.827 179.493 279.83 179.493C282.377 179.493 285.007 178.191 285.996 175.379C287.761 170.355 285.532 158.183 285.269 157.985C284.428 157.353 283.208 157.096 281.829 157.096ZM281.829 155.669C283.641 155.669 285.087 156.065 286.125 156.843C286.365 157.024 287.097 157.572 287.812 164.729C288.159 168.203 288.359 172.952 287.341 175.851C286.26 178.93 283.311 180.919 279.83 180.919C277.246 180.919 274.935 179.83 273.647 178.004C271.154 174.47 268.968 168.587 268.876 168.338C268.839 168.237 268.812 168.131 268.799 168.024C268.729 167.466 268.161 162.501 270.011 160.034C271.604 157.912 277.678 155.669 281.829 155.669Z" fill="#020001"/>
<path d="M263.259 184.04C263.811 184.04 264.364 183.926 264.907 183.702C269.303 181.877 270.556 173.94 270.913 169.372C270.937 169.074 271.471 162.062 270.468 161.449C269.581 160.906 267.598 160.793 266.092 160.793C262.665 160.793 252.883 161.627 252.883 165.332C252.883 167.212 253.987 171.878 255.632 175.827C257.189 179.574 259.779 184.04 263.259 184.04Z" fill="#FFF9E8"/>
<path d="M266.092 161.507C261.122 161.507 253.596 162.782 253.596 165.332C253.596 168.594 257.558 183.327 263.26 183.327C263.707 183.327 264.166 183.236 264.634 183.042C271.063 180.374 270.592 162.361 270.094 162.057C269.495 161.691 267.977 161.507 266.092 161.507ZM266.092 160.08C269.596 160.08 270.532 160.652 270.839 160.84C271.219 161.073 272.228 161.689 271.625 169.425C271.175 175.206 269.691 182.489 265.181 184.361C264.552 184.623 263.904 184.756 263.26 184.756C256.028 184.756 252.169 168.494 252.169 165.334C252.169 160.14 265.952 160.08 266.092 160.08Z" fill="#020001"/>
<path d="M236.152 179.3C239.728 179.3 243.568 174.396 243.73 174.186C243.766 174.139 243.797 174.087 243.822 174.031C244.244 173.05 247.842 164.395 244.444 162.174C242.234 160.73 237.112 159.363 233.908 159.363C232.053 159.363 230.963 159.794 230.578 160.681C229.588 162.961 230.028 175.504 233.872 178.51C234.539 179.035 235.306 179.3 236.152 179.3Z" fill="#FFF9E8"/>
<path d="M233.905 160.077C232.528 160.077 231.503 160.336 231.229 160.967C230.334 163.029 230.822 175.222 234.309 177.949C234.883 178.397 235.506 178.584 236.151 178.584C239.417 178.584 243.165 173.748 243.165 173.748C243.165 173.748 247.046 164.726 244.053 162.77C241.973 161.414 237.032 160.077 233.905 160.077ZM233.905 158.65C237.279 158.65 242.487 160.045 244.833 161.577C248.544 164.001 245.498 171.938 244.475 174.313C244.428 174.423 244.366 174.528 244.293 174.623C243.865 175.175 240.006 180.012 236.151 180.012C235.142 180.012 234.227 179.696 233.43 179.074C229.273 175.822 228.858 162.844 229.92 160.399C230.681 158.65 233.108 158.65 233.905 158.65Z" fill="#020001"/>
<path d="M249.244 184.41C250.235 184.41 251.139 183.845 251.928 182.733C256.951 175.659 254.874 163.312 254.783 162.789C254.736 162.523 254.543 162.306 254.285 162.228C253.293 161.93 251.08 161.73 248.778 161.73C245.282 161.73 239.416 162.153 239.416 164.974C239.416 166.469 240.675 171.321 242.359 175.578C244.682 181.439 246.998 184.41 249.244 184.41Z" fill="#FFF9E8"/>
<path d="M248.778 162.444C244.767 162.444 240.13 163.05 240.13 164.974C240.13 167.586 244.81 183.697 249.243 183.697C249.956 183.697 250.664 183.279 251.345 182.321C256.253 175.406 254.079 162.912 254.079 162.912C253.194 162.646 251.09 162.444 248.778 162.444ZM248.778 161.018C251.18 161.018 253.422 161.225 254.491 161.546C255.009 161.702 255.394 162.135 255.487 162.668C255.579 163.202 257.703 175.831 252.511 183.147C251.58 184.459 250.481 185.124 249.246 185.124C243.255 185.124 238.705 167.313 238.705 164.974C238.703 162.349 242.094 161.018 248.778 161.018Z" fill="#020001"/>
<path d="M256.514 207.902C258.089 207.902 259.722 207.84 261.364 207.716C291.666 205.45 306.946 186.981 307.096 186.794C307.221 186.64 307.278 186.442 307.255 186.243L305.9 175.122C305.869 174.859 305.697 174.634 305.451 174.533L298.721 171.742C298.631 171.706 298.536 171.687 298.44 171.687C298.287 171.687 298.136 171.735 298.008 171.828C297.8 171.978 297.687 172.225 297.706 172.481C297.818 173.884 296.587 176.09 294.329 178.536C287.396 186.046 272.859 194.129 257.327 194.129C254.965 194.129 252.612 193.94 250.335 193.565C235.587 191.138 230.648 186.921 229.103 183.813C227.751 181.095 228.847 178.954 228.858 178.933C228.992 178.68 228.966 178.371 228.792 178.143C228.651 177.958 228.435 177.855 228.208 177.855C228.155 177.855 228.101 177.861 228.048 177.873L224.008 178.776C223.718 178.84 223.496 179.073 223.444 179.364L221.629 189.576C221.603 189.72 221.622 189.867 221.681 190.001C221.762 190.177 229.884 207.902 256.514 207.902Z" fill="#FEA786"/>
<path d="M298.442 172.422C298.927 178.51 279.604 194.863 257.33 194.863C254.986 194.863 252.609 194.682 250.219 194.288C222.356 189.702 228.211 178.588 228.211 178.588L224.171 179.491L222.356 189.702C222.356 189.702 230.056 207.166 256.515 207.166C258.049 207.166 259.65 207.108 261.313 206.983C291.647 204.715 306.528 186.331 306.528 186.331L305.173 175.211L298.442 172.422ZM298.442 170.951C298.631 170.951 298.824 170.988 299.005 171.063L305.735 173.855C306.225 174.057 306.568 174.509 306.633 175.036L307.987 186.156C308.036 186.552 307.921 186.95 307.671 187.259C307.047 188.03 292.039 206.162 261.423 208.452C259.761 208.575 258.111 208.639 256.517 208.639C229.41 208.639 221.343 191.045 221.012 190.296C220.894 190.029 220.859 189.733 220.909 189.446L222.724 179.235C222.828 178.651 223.272 178.186 223.852 178.057L227.892 177.153C227.998 177.13 228.107 177.118 228.213 177.118C228.664 177.118 229.1 177.327 229.381 177.696C229.729 178.152 229.781 178.768 229.513 179.276C229.482 179.338 228.591 181.195 229.803 183.559C231.306 186.489 236.11 190.479 250.46 192.841C252.697 193.209 255.011 193.395 257.333 193.395C272.643 193.395 286.965 185.436 293.794 178.039C296.253 175.375 297.052 173.453 296.978 172.541C296.937 172.031 297.165 171.535 297.58 171.235C297.833 171.047 298.136 170.951 298.442 170.951Z" fill="#020001"/>
<path d="M136.542 203.661C136.827 203.661 137.083 203.586 137.301 203.436C141.493 200.572 145.455 171.749 142.737 163.895C140.504 157.447 137.636 155.113 136.426 154.378C138.52 144.191 137.692 143.45 137.376 143.167C137.308 143.107 137.229 143.059 137.144 143.026L104.836 130.897C104.752 130.866 104.666 130.85 104.577 130.85C104.451 130.85 104.326 130.882 104.214 130.945C104.024 131.053 103.892 131.241 103.854 131.456C103.727 132.162 100.771 148.804 101.08 154.654C101.359 159.937 130.974 203.661 136.542 203.661Z" fill="#FEE9CE"/>
<path d="M104.576 131.585C104.576 131.585 101.505 148.782 101.812 154.616C102.111 160.295 131.65 202.924 136.539 202.924C136.673 202.924 136.788 202.892 136.883 202.827C140.479 200.371 144.802 172.12 142.038 164.135C139.275 156.152 135.59 154.769 135.59 154.769C135.59 154.769 137.741 144.482 136.883 143.715L104.576 131.585ZM104.576 130.114C104.751 130.114 104.926 130.145 105.094 130.208L137.401 142.338C137.572 142.403 137.729 142.498 137.866 142.619C138.439 143.134 139.297 143.901 137.245 154.031C138.735 155.077 141.354 157.658 143.43 163.654C146.293 171.927 142.18 200.99 137.714 204.042C137.376 204.273 136.97 204.395 136.541 204.395C133.002 204.395 123.556 192.08 116.255 181.749C110.443 173.523 100.549 158.568 100.346 154.694C100.034 148.758 103.004 132.037 103.13 131.328C103.207 130.898 103.471 130.525 103.851 130.308C104.073 130.179 104.324 130.114 104.576 130.114Z" fill="#020001"/>
<path d="M133.282 335.317C149.008 335.317 162.929 332.019 174.659 325.517C174.901 325.382 175.047 325.124 175.037 324.848C174.998 323.793 171.176 219.123 166.041 193.792C160.852 168.195 142.388 157.364 142.203 157.259L137.44 153.983C137.315 153.896 137.17 153.854 137.024 153.854C136.872 153.854 136.722 153.899 136.595 153.992C136.343 154.173 136.231 154.494 136.317 154.792C136.369 154.979 141.473 173.278 135.28 192.431C130.211 187.08 103.859 158.718 101.706 145.251C101.649 144.892 101.338 144.632 100.979 144.632C100.963 144.632 100.947 144.633 100.929 144.633C100.648 144.652 93.9739 145.123 89.3483 146.389C88.1422 146.72 85.8978 147.334 90.2469 238.395C92.3825 283.119 95.1167 328.267 95.1447 328.719C95.1623 329.013 95.355 329.268 95.6315 329.366C95.7977 329.426 112.534 335.317 133.282 335.317Z" fill="#E94848"/>
<path d="M100.98 145.367C100.98 145.367 94.1508 145.838 89.5414 147.098C84.9319 148.36 95.879 328.674 95.879 328.674C95.879 328.674 112.422 334.582 133.283 334.582C146.265 334.582 160.917 332.295 174.302 324.874C174.302 324.874 170.501 219.504 165.32 193.937C160.138 168.372 141.835 157.897 141.835 157.897L137.023 154.589C137.023 154.589 142.535 173.792 135.589 193.821C135.589 193.821 103.417 160.6 100.98 145.367ZM100.981 143.896C101.697 143.896 102.318 144.417 102.433 145.135C104.452 157.762 128.326 183.946 134.954 191.01C140.493 172.527 135.662 155.175 135.611 154.994C135.44 154.396 135.662 153.757 136.167 153.395C136.423 153.211 136.724 153.118 137.026 153.118C137.317 153.118 137.607 153.205 137.858 153.377L142.624 156.653C143.965 157.437 161.6 168.173 166.762 193.645C171.909 219.036 175.618 320.512 175.772 324.82C175.793 325.373 175.5 325.891 175.016 326.16C163.178 332.724 149.136 336.052 133.284 336.052C112.409 336.052 96.0702 330.303 95.3848 330.059C94.8303 329.86 94.4465 329.352 94.4112 328.763C94.3832 328.313 91.649 283.158 89.512 238.43C88.2574 212.153 87.4514 191.16 87.1161 176.035C86.4601 146.417 87.6485 146.092 89.1531 145.681C93.8493 144.395 100.593 143.92 100.878 143.901C100.914 143.898 100.947 143.896 100.981 143.896Z" fill="#020001"/>
<path d="M228.173 288.285C245.268 288.285 262.433 280.921 279.19 266.398C293.617 253.893 293.944 246.561 293.951 246.256C293.96 245.872 293.663 245.55 293.28 245.528C293.266 245.526 293.252 245.526 293.238 245.526C292.873 245.526 292.564 245.804 292.529 246.172C292.502 246.206 292.195 246.473 291.243 246.473C289.831 246.473 286.928 245.879 281.111 243.046C269.306 237.298 252.12 210.665 251.948 210.396C251.817 210.19 251.589 210.068 251.348 210.068C251.33 210.068 251.313 210.068 251.294 210.07C251.032 210.09 250.802 210.252 250.695 210.492C242.053 229.915 232.313 240.183 222.534 240.183C218.652 240.183 214.702 238.556 210.795 235.348C195.576 222.849 171.697 173.932 171.458 173.44C171.372 173.265 171.221 173.134 171.037 173.073C170.965 173.05 170.89 173.038 170.815 173.038C170.7 173.038 170.585 173.066 170.481 173.12C160.503 178.398 170.891 245.425 172.108 253.051C172.125 253.162 172.169 253.268 172.236 253.359C173.149 254.607 194.864 283.948 219.28 287.617C222.225 288.06 225.218 288.285 228.173 288.285Z" fill="#FFFEFB"/>
<path d="M170.814 173.752C161 178.942 172.813 252.938 172.813 252.938C172.813 252.938 194.984 283.243 219.389 286.912C222.376 287.36 225.306 287.571 228.175 287.571C248.737 287.571 266.127 276.775 278.725 265.857C293.08 253.416 293.24 246.238 293.24 246.238C293.24 246.238 293.15 247.186 291.244 247.186C289.564 247.186 286.476 246.45 280.799 243.687C268.676 237.784 251.347 210.782 251.347 210.782C243.186 229.123 233.321 240.896 222.532 240.896C218.58 240.896 214.504 239.315 210.343 235.9C194.825 223.157 170.814 173.752 170.814 173.752ZM170.814 172.325C170.963 172.325 171.113 172.349 171.257 172.396C171.625 172.516 171.928 172.78 172.097 173.128C172.335 173.619 196.149 222.398 211.248 234.797C215.023 237.897 218.819 239.47 222.53 239.47C232.008 239.47 241.523 229.349 250.041 210.202C250.255 209.723 250.713 209.399 251.237 209.36C251.274 209.357 251.309 209.355 251.346 209.355C251.83 209.355 252.283 209.601 252.546 210.011C252.717 210.278 269.798 236.744 281.421 242.404C287.116 245.176 289.904 245.759 291.241 245.759C291.61 245.759 291.819 245.712 291.925 245.678C292.144 245.163 292.656 244.812 293.237 244.812C293.265 244.812 293.293 244.813 293.321 244.815C294.087 244.86 294.681 245.503 294.664 246.271C294.656 246.59 294.321 254.228 279.657 266.937C262.765 281.576 245.444 288.999 228.174 288.999C225.182 288.999 222.155 288.772 219.175 288.324C194.467 284.61 172.581 255.038 171.66 253.781C171.526 253.598 171.438 253.386 171.403 253.163C171.373 252.978 168.421 234.396 166.711 215.419C163.54 180.245 167.152 174.074 170.146 172.49C170.355 172.38 170.585 172.325 170.814 172.325Z" fill="#020001"/>
<path d="M178.291 455.043C181.353 455.043 184.08 454.811 186.397 454.35C186.709 454.288 186.941 454.028 186.969 453.712C187.14 451.766 203.64 258.004 171.48 173.495C171.436 173.379 171.362 173.277 171.265 173.198C170.426 172.505 150.526 156.222 137.415 153.932C137.374 153.925 137.333 153.922 137.292 153.922C137.024 153.922 136.774 154.073 136.652 154.319C136.512 154.603 136.574 154.944 136.806 155.159C136.933 155.278 149.609 167.215 155.26 190.011C161.207 214.004 168.446 333.073 166.763 363.092C165.078 393.153 156.049 450.932 155.959 451.512C155.9 451.878 156.135 452.228 156.496 452.316C156.612 452.345 167.881 455.043 178.291 455.043Z" fill="#FFFEFB"/>
<path d="M137.294 154.636C137.294 154.636 150.183 166.543 155.957 189.839C161.732 213.135 169.187 332.688 167.479 363.134C165.772 393.579 156.668 451.624 156.668 451.624C156.668 451.624 167.846 454.33 178.291 454.33C181.074 454.33 183.805 454.137 186.258 453.652C186.258 453.652 203.289 259.084 170.814 173.75C170.814 173.75 150.371 156.92 137.294 154.636ZM137.294 153.209C137.375 153.209 137.458 153.216 137.54 153.23C150.834 155.552 170.874 171.951 171.721 172.647C171.912 172.804 172.059 173.009 172.148 173.241C189.001 217.527 192.322 291.471 192.142 345.705C191.946 404.395 187.723 453.289 187.681 453.776C187.625 454.408 187.159 454.927 186.536 455.051C184.174 455.518 181.4 455.757 178.291 455.757C167.796 455.757 156.794 453.121 156.332 453.009C155.61 452.834 155.144 452.136 155.259 451.402C155.35 450.822 164.372 393.079 166.056 363.053C167.737 333.065 160.511 214.138 154.573 190.182C148.981 167.62 136.452 155.799 136.327 155.681C135.863 155.252 135.737 154.567 136.018 154C136.26 153.51 136.759 153.209 137.294 153.209Z" fill="#020001"/>
<path d="M137.027 154.591H137.019ZM137.027 154.591C137.027 154.591 150.183 166.542 155.957 189.838C158.587 200.449 161.565 231.022 163.867 264.05C166.54 259.729 174.975 215.429 174.304 215.126C173.635 214.823 160.217 178.981 160.217 178.981C160.217 178.981 173.193 178.513 165.261 170.724C157.332 162.936 137.027 154.591 137.027 154.591ZM137.028 153.164C137.087 153.164 137.147 153.168 137.208 153.176C137.346 153.193 137.477 153.23 137.6 153.285C138.798 153.779 158.305 161.892 166.263 169.708C168.838 172.236 169.759 174.507 169.003 176.457C168.018 178.996 164.529 179.906 162.211 180.232C167.079 193.206 174.413 212.443 175.41 214.228C175.538 214.381 175.636 214.559 175.692 214.746C176.37 216.966 167.818 260.379 165.082 264.803C164.817 265.231 164.354 265.48 163.869 265.48C163.755 265.48 163.641 265.466 163.526 265.438C162.924 265.29 162.488 264.771 162.445 264.153C159.88 227.379 156.938 199.726 154.573 190.185C149.114 168.162 136.796 156.334 136.097 155.678C135.791 155.416 135.597 155.028 135.597 154.594C135.597 153.808 136.228 153.171 137.012 153.167C137.016 153.164 137.022 153.164 137.028 153.164Z" fill="#020001"/>
<path d="M248.513 143.018C248.513 143.018 258.783 152.835 259.399 154.296C260.016 155.755 257.654 155.755 257.654 155.755C257.654 155.755 257.037 159.349 255.086 159.042C255.086 159.042 253.956 162.132 252.518 161.511C252.518 161.511 251.401 164.05 250.213 164.01C250.213 164.01 248.946 166.437 247.342 166.437C247.342 166.437 246.809 168.774 244.784 168.736C244.784 168.736 242.818 171.296 241.298 170.305C239.78 169.314 230.834 160.082 230.834 160.082L248.513 143.018Z" fill="#FFFEFB" stroke="#020001" stroke-width="0.9702" stroke-miterlimit="10" stroke-linecap="round" stroke-linejoin="round"/>
<path d="M202.26 189.571C205.341 189.569 210.476 182.656 211.475 181.271L247.047 147.635C247.407 147.341 250.901 144.391 250.951 141.764C250.967 140.94 250.643 140.212 250.018 139.655C249.115 138.852 248.085 138.444 246.957 138.444C245.098 138.444 243.653 139.58 243.592 139.63C226.435 154.839 222.541 158.481 221.624 159.477L221.622 159.472C221.108 159.827 209.02 168.196 205.606 171.921C202.57 175.233 199.561 183.758 200.148 187.379C200.302 188.332 200.691 188.99 201.303 189.329C201.586 189.491 201.909 189.571 202.26 189.571Z" fill="#BF1920"/>
<path d="M246.958 139.18C245.334 139.18 244.052 140.203 244.052 140.203C244.052 140.203 222.161 159.612 222.039 160.075C222.039 160.075 209.544 168.709 206.148 172.417C202.752 176.125 199.113 187.269 201.661 188.685C201.842 188.787 202.043 188.832 202.262 188.832C205.123 188.832 210.88 180.838 210.88 180.838L246.542 147.099C246.542 147.099 252.122 142.507 249.531 140.203C248.666 139.437 247.77 139.18 246.958 139.18ZM246.958 137.709C248.254 137.709 249.481 138.191 250.507 139.105C251.299 139.809 251.706 140.733 251.687 141.777C251.632 144.62 248.294 147.556 247.517 148.202L211.99 181.814C210.438 183.954 205.554 190.305 202.261 190.305C201.784 190.305 201.342 190.193 200.945 189.972C200.383 189.659 199.662 188.976 199.422 187.497C198.744 183.318 202.133 174.623 205.063 171.424C208.531 167.638 220.686 159.222 221.202 158.866C222.525 157.456 227.036 153.321 243.075 139.103C243.094 139.087 243.114 139.069 243.133 139.055C243.306 138.918 244.88 137.709 246.958 137.709Z" fill="#020001"/>
<path d="M169.395 235.79C169.395 235.79 169.735 264.54 163.618 266.402C157.501 268.264 150.954 265.243 147.62 258.069C144.284 250.894 151.135 230.713 153.159 228.614C155.18 226.517 169.395 235.79 169.395 235.79Z" fill="#020001" stroke="#020001" stroke-width="0.9702" stroke-miterlimit="10" stroke-linecap="round" stroke-linejoin="round"/>
<path d="M103.492 138.18C104.073 134.421 104.58 131.584 104.58 131.584L136.888 143.714C137.506 144.267 136.563 149.756 135.988 152.782C126.286 150.59 116.581 146.77 107.591 141.174C106.122 140.26 104.779 139.242 103.492 138.18Z" fill="#020001"/>
<path d="M152.481 147.836C174.451 147.835 192.208 139.644 199.975 125.923C207.915 111.896 199.341 99.1664 197.763 97.0264C198.64 93.8775 204.3 71.2655 193.566 48.2109C182.007 23.3795 155.281 19.4466 155.013 19.4098C154.868 19.3951 152.073 19.126 147.637 19.126C137.506 19.126 118.574 20.5659 105.605 30.2187C94.3417 38.6007 82.5665 66.6237 83.6784 93.4348C84.2197 106.459 88.1746 124.046 103.947 133.867C118.419 142.875 135.653 147.836 152.478 147.836H152.481Z" fill="#FEE9CE"/>
<path d="M147.636 19.8614C137.464 19.8614 118.81 21.3072 106.043 30.8085C87.6909 44.4663 68.9354 111.205 104.336 133.243C119.5 142.683 136.705 147.103 152.479 147.103C173.209 147.103 191.461 139.468 199.334 125.561C207.853 110.515 196.955 97.178 196.955 97.178C196.955 97.178 204.423 73.2762 192.9 48.5213C181.376 23.7664 154.913 20.1379 154.913 20.1379C154.913 20.1379 152.087 19.8614 147.636 19.8614ZM147.636 18.3906C152.107 18.3906 154.938 18.6627 155.056 18.6745C156.225 18.8333 182.504 22.7074 194.232 47.9006C204.879 70.7729 199.751 92.5965 198.568 96.8897C200.645 99.8298 208.449 112.446 200.614 126.286C192.713 140.243 174.718 148.573 152.479 148.573C135.518 148.573 118.145 143.573 103.559 134.492C87.5129 124.502 83.4918 106.668 82.9432 93.4657C81.821 66.4267 93.7535 38.1198 105.165 29.6289C118.304 19.8496 137.414 18.3906 147.636 18.3906Z" fill="#020001"/>
<path d="M117.824 35.5492C117.824 35.5492 110.992 46.4522 108.497 58.145C106.934 65.468 103.051 67.0197 100.368 67.155C98.8135 67.2345 97.5516 68.4214 97.4972 69.9775C97.2751 76.246 96.6368 89.8817 95.2307 92.6939C93.3922 96.3723 84.7778 81.2584 84.7778 81.2584C84.7778 81.2584 82.076 74.5663 84.7778 60.3776C87.4797 46.1904 96.5441 24.6668 110.075 19.8617C123.604 15.0566 117.824 35.5492 117.824 35.5492Z" fill="#020001" stroke="#020001" stroke-width="0.9702" stroke-miterlimit="10" stroke-linecap="round" stroke-linejoin="round"/>
<path d="M109.38 26.6061C109.38 26.6061 105.452 12.2953 121.587 4.99875C137.723 -2.29785 161.714 0.649614 177.009 11.7335C192.302 22.8174 199.739 21.7555 204.229 19.1301C208.719 16.5047 212.227 20.0126 210.543 25.9046C208.859 31.798 196.934 42.0406 169.152 41.7597C141.37 41.4788 115.133 42.3201 109.38 26.6061Z" fill="#020001" stroke="#020001" stroke-width="0.9702" stroke-miterlimit="10" stroke-linecap="round" stroke-linejoin="round"/>
<path d="M93.2422 94.1781C92.9922 93.8031 88.8621 76.9081 79.602 73.6547C70.3419 70.4013 60.9553 77.4641 62.332 93.2677C63.7087 109.071 82.4804 124.84 92.3671 112.95" fill="#FEE9CE"/>
<path d="M93.2422 94.1781C92.9922 93.8031 88.8621 76.9081 79.602 73.6547C70.3419 70.4013 60.9553 77.4641 62.332 93.2677C63.7087 109.071 82.4804 124.84 92.3671 112.95" stroke="#020001" stroke-miterlimit="10" stroke-linecap="round" stroke-linejoin="round"/>
<path d="M68.3284 88.9793C68.2417 88.3689 69.1138 82.8696 73.5644 82.6961C78.0151 82.521 83.5408 88.6042 84.591 96.3288C84.591 96.3288 79.7609 94.5654 76.9679 97.4452C74.1749 100.325 79.9933 107.311 85.6367 104.036" stroke="#020001" stroke-width="0.9702" stroke-miterlimit="10" stroke-linecap="round" stroke-linejoin="round"/>
<path d="M144.48 118.628C144.48 118.628 123.128 119.53 113.201 100.583" stroke="#020001" stroke-width="0.9702" stroke-miterlimit="10" stroke-linecap="round" stroke-linejoin="round"/>
<path d="M130.309 124.642C130.309 124.642 120.456 124.767 115.842 115.538" stroke="#020001" stroke-width="0.9702" stroke-miterlimit="10" stroke-linecap="round" stroke-linejoin="round"/>
<path d="M96.5255 465.113C96.5255 465.113 81.2969 471.772 58.0142 471.105L67.4979 387L76.3447 319.3L103.506 320.509C100.066 389.47 96.5255 465.113 96.5255 465.113Z" fill="#020001"/>
<path d="M151.217 256.409C151.724 256.409 152.255 256.252 152.798 255.944C161.275 251.119 176.466 224.338 178.813 220.138C179.744 220.375 180.781 220.494 181.905 220.494C186.95 220.494 192.608 218.142 194.879 217.093C195.024 218.143 195.423 219.024 196.057 219.677C196.867 220.513 198.025 220.954 199.404 220.954C202.384 220.954 206.802 218.752 209.956 213.833C214.786 206.296 212.94 199.028 212.596 197.864C213.018 192.838 211.462 189.297 211.072 188.503C210.923 184.546 208.595 180.159 207.671 178.564C210.484 176.649 222.326 168.391 225.352 163.133C226.915 160.413 227.037 157.12 225.664 154.745C224.705 153.087 223.125 152.136 221.331 152.136C219.919 152.136 218.435 152.698 216.921 153.807C212.054 157.376 197.239 168.239 184.058 173.331C171.312 178.256 156.795 197.545 156.184 198.364C149.113 208.767 144.089 245.994 148.593 254.493C149.434 256.077 150.483 256.409 151.217 256.409Z" fill="#FEE9CE"/>
<path d="M221.333 152.871C220.165 152.871 218.821 153.329 217.36 154.401C210.868 159.162 197.021 169.115 184.326 174.02C171.632 178.925 156.776 198.807 156.776 198.807C148.62 210.812 143.971 255.675 151.217 255.675C151.591 255.675 151.997 255.556 152.435 255.306C161.367 250.221 178.455 219.272 178.455 219.272C179.52 219.616 180.691 219.76 181.905 219.76C188.153 219.76 195.556 215.952 195.556 215.952C195.469 218.836 197.109 220.222 199.405 220.222C202.394 220.222 206.494 217.876 209.339 213.437C214.369 205.59 211.854 197.945 211.854 197.945C212.357 192.412 210.345 188.689 210.345 188.689C210.245 183.961 206.685 178.347 206.685 178.347C206.685 178.347 221.399 168.538 224.717 162.768C227.287 158.295 225.354 152.87 221.333 152.871ZM221.333 151.4C223.396 151.4 225.207 152.484 226.303 154.376C227.806 156.975 227.685 160.556 225.992 163.499C223.066 168.59 212.236 176.316 208.646 178.791C209.717 180.74 211.618 184.674 211.804 188.322C212.302 189.392 213.72 192.924 213.344 197.792C213.785 199.385 215.407 206.696 210.579 214.23C207.718 218.692 203.229 221.691 199.408 221.691C197.825 221.691 196.485 221.172 195.534 220.191C195.11 219.754 194.642 219.092 194.356 218.135C191.669 219.305 186.547 221.229 181.908 221.229C180.941 221.229 180.03 221.144 179.19 220.976C176.118 226.44 161.531 251.822 153.166 256.584C152.512 256.956 151.857 257.146 151.222 257.146C150.288 257.146 148.961 256.746 147.951 254.837C143.253 245.965 148.233 208.769 155.564 197.98C156.22 197.101 170.86 177.647 183.8 172.647C196.894 167.589 211.646 156.77 216.494 153.215C218.131 152.011 219.759 151.4 221.333 151.4Z" fill="#020001"/>
<path d="M207.062 178.983C206.683 178.346 204.158 175.971 200.863 175.516C197.57 175.062 191.209 175.857 191.209 175.857" stroke="#020001" stroke-width="0.9702" stroke-miterlimit="10" stroke-linecap="round" stroke-linejoin="round"/>
<path d="M210.346 188.691C209.838 188.692 207.61 184.375 202.592 184.036C197.572 183.694 191.212 184.945 191.212 184.945" stroke="#020001" stroke-width="0.9702" stroke-miterlimit="10" stroke-linecap="round" stroke-linejoin="round"/>
<path d="M211.854 197.945C211.854 197.945 210.405 195.392 204.272 194.483C198.138 193.574 193.369 194.824 193.369 194.824" stroke="#020001" stroke-width="0.9702" stroke-miterlimit="10" stroke-linecap="round" stroke-linejoin="round"/>
<path d="M195.556 215.951C195.556 215.951 199.929 214.471 202.611 205.612" stroke="#020001" stroke-width="0.9702" stroke-miterlimit="10" stroke-linecap="round" stroke-linejoin="round"/>
<path d="M75.3228 454.363C96.6478 454.363 110.694 448.316 110.832 448.255C111.081 448.146 111.245 447.907 111.259 447.635C111.306 446.634 115.981 346.826 119.764 272.825C123.556 198.635 97.6038 146.077 97.3406 145.555C97.2347 145.344 97.0332 145.2 96.8008 145.168C95.9433 145.049 94.9917 144.988 93.971 144.988C79.5984 144.988 53.7272 156.59 52.6315 157.084C52.43 157.174 52.2843 157.352 52.2314 157.565C52.1505 157.89 50.3267 166.277 54.5376 230.302C58.7367 294.141 37.7426 445.977 37.5294 447.502C37.4823 447.845 37.6838 448.171 38.0118 448.279C50.2517 452.316 62.802 454.363 75.314 454.363C75.3199 454.363 75.3228 454.363 75.3228 454.363Z" fill="#FFFEFB"/>
<path d="M93.9731 145.702C79.5888 145.702 52.9262 157.735 52.9262 157.735C52.9262 157.735 50.9995 165.603 55.253 230.255C59.5066 294.905 38.2389 447.601 38.2389 447.601C51.9938 452.139 64.6088 453.651 75.322 453.651C96.7441 453.651 110.546 447.601 110.546 447.601C110.546 447.601 115.225 347.648 119.052 272.789C122.879 197.93 96.7029 145.874 96.7029 145.874C95.8572 145.756 94.9439 145.702 93.9731 145.702ZM93.9731 144.275C95.0262 144.275 96.0102 144.337 96.9 144.461C97.3648 144.525 97.7692 144.814 97.9796 145.233C98.2428 145.756 124.28 198.486 120.478 272.861C116.695 346.861 112.02 446.667 111.973 447.667C111.948 448.209 111.617 448.69 111.12 448.907C110.545 449.159 96.7971 455.076 75.322 455.076C62.7306 455.076 50.1038 453.017 37.7918 448.954C37.1373 448.738 36.7299 448.085 36.8255 447.403C37.0388 445.877 58.024 294.112 53.8279 230.348C49.6081 166.215 51.4584 157.724 51.5393 157.395C51.6437 156.968 51.9379 156.614 52.3379 156.433C53.441 155.937 79.4491 144.275 93.9731 144.275Z" fill="#020001"/>
<path d="M55.0378 254.019C55.0378 254.019 56.9969 266.456 72.5682 274.826C84.2139 281.087 103.525 276.209 103.525 276.209L55.0378 238.734V254.019Z" fill="#020001"/>
<path d="M119.431 259.61C119.508 259.61 119.584 259.597 119.659 259.572C119.947 259.474 120.143 259.204 120.145 258.898C120.389 192.17 97.5694 146.012 97.3399 145.553C97.2399 145.353 97.0517 145.212 96.8296 145.172C96.7884 145.165 96.7443 145.16 96.7016 145.16C96.5251 145.16 96.3515 145.226 96.2192 145.348C96.0765 145.478 82.0143 158.393 76.5665 162.271C73.3307 164.575 71.6217 167.34 71.8791 169.856C72.0791 171.796 73.4278 173.411 75.6781 174.4C79.939 176.273 94.316 182.898 97.4429 184.341C96.0177 188.154 88.8961 207.575 89.1712 214.001C89.4756 221.063 117.665 257.771 118.863 259.33C119.003 259.511 119.215 259.61 119.431 259.61Z" fill="#FFFEFB"/>
<path d="M96.7021 145.874C96.7021 145.874 82.5266 158.904 76.9803 162.853C71.4339 166.802 71.1398 171.625 75.9669 173.748C80.7941 175.871 98.345 183.972 98.345 183.972C98.345 183.972 89.5864 207.052 89.8835 213.97C90.1806 220.889 119.429 258.897 119.429 258.897C119.677 191.567 96.7021 145.874 96.7021 145.874ZM96.7021 144.447C96.7874 144.447 96.8727 144.455 96.958 144.471C97.3978 144.552 97.7758 144.834 97.9758 145.234C98.2067 145.695 121.101 192.005 120.855 258.901C120.854 259.303 120.683 259.685 120.386 259.954C120.123 260.193 119.78 260.324 119.429 260.324C119.383 260.324 119.338 260.322 119.293 260.318C118.61 260.252 118.61 260.252 113.712 253.705C111.201 250.349 107.409 245.222 103.605 239.853C88.6628 218.777 88.5098 215.206 88.4583 214.032C88.1892 207.774 94.7033 189.687 96.5448 184.715C92.4986 182.85 79.4174 176.827 75.3918 175.056C72.8944 173.959 71.3957 172.138 71.1692 169.932C70.8838 167.153 72.7003 164.15 76.1522 161.692C81.5632 157.84 95.5946 144.955 95.7358 144.825C96.002 144.58 96.3477 144.447 96.7021 144.447Z" fill="#020001"/>
<path d="M52.6538 157.185C52.6538 157.185 32.8319 169.866 39.852 202.923C46.8721 235.981 56.3984 259.477 95.4009 276.378C134.403 293.278 163.619 266.403 163.619 266.403C163.619 266.403 156.776 266.564 155.343 250.393C153.91 234.22 156.776 198.805 156.776 198.805C156.776 198.805 128.731 239.389 110.51 239.977C92.2916 240.567 77.9617 215.387 75.9144 186.112" fill="#FFFEFB"/>
<path d="M52.6538 157.185C52.6538 157.185 32.8319 169.866 39.852 202.923C46.8721 235.981 56.3984 259.477 95.4009 276.378C134.403 293.278 163.619 266.403 163.619 266.403C163.619 266.403 156.776 266.564 155.343 250.393C153.91 234.22 156.776 198.805 156.776 198.805C156.776 198.805 128.731 239.389 110.51 239.977C92.2916 240.567 77.9617 215.387 75.9144 186.112" stroke="#020001" stroke-width="0.9702" stroke-miterlimit="10" stroke-linecap="round" stroke-linejoin="round"/>
<path d="M122.926 435.549L132.96 375.329L152.332 361.333" stroke="#020001" stroke-width="0.9702" stroke-miterlimit="10" stroke-linecap="round" stroke-linejoin="round"/>
<path d="M133.533 98.357C143.68 98.357 151.934 89.469 151.934 78.5425C151.934 67.6175 143.68 58.7295 133.533 58.7295C123.387 58.7295 115.13 67.6175 115.13 78.5425C115.131 89.469 123.387 98.357 133.533 98.357Z" fill="#FFFEFB"/>
<path d="M133.53 59.4433C123.761 59.4433 115.842 67.9944 115.842 78.543C115.842 89.0915 123.761 97.6441 133.53 97.6441C143.299 97.6441 151.218 89.0929 151.218 78.543C151.219 67.9959 143.299 59.4433 133.53 59.4433ZM133.53 58.0166C144.07 58.0166 152.645 67.2252 152.645 78.5444C152.645 89.8637 144.07 99.0723 133.53 99.0723C122.99 99.0723 114.416 89.8637 114.416 78.5444C114.416 67.2252 122.99 58.0166 133.53 58.0166Z" fill="#020001"/>
<path d="M127.361 75.2004C129.826 71.4646 133.822 69.2422 138.07 69.2422C144.566 69.2422 150.012 74.4473 151.033 81.1703C149.955 89.6097 143.782 96.2753 135.966 97.4402C129.739 96.3371 124.919 90.4584 124.919 83.4412L135 84.1193L127.361 75.2004Z" fill="#020001"/>
<path d="M179.16 102.456C186.43 102.456 192.344 93.9577 192.344 83.5107C192.344 73.0651 186.43 64.5654 179.16 64.5654C171.891 64.5654 165.977 73.0637 165.977 83.5107C165.977 93.9577 171.891 102.456 179.16 102.456Z" fill="#FFFEFB"/>
<path d="M179.159 65.2792C172.271 65.2792 166.688 73.4421 166.688 83.5111C166.688 93.5802 172.271 101.743 179.159 101.743C186.047 101.743 191.63 93.5802 191.63 83.5111C191.63 73.4421 186.047 65.2792 179.159 65.2792ZM179.159 63.8525C186.822 63.8525 193.057 72.6714 193.057 83.5111C193.057 94.3509 186.822 103.17 179.159 103.17C171.496 103.17 165.262 94.3509 165.262 83.5111C165.262 72.6714 171.496 63.8525 179.159 63.8525Z" fill="#020001"/>
<path d="M179.158 87.6289L175.95 79.9381C178.402 76.3199 181.843 74.5035 185.003 75.1595C188.618 75.9096 191.096 79.7425 191.592 84.5726C191.239 93.5517 186.456 100.792 180.38 101.657C180.096 101.638 179.811 101.604 179.528 101.545C174.578 100.519 171.741 93.7179 173.242 86.4802L179.158 87.6289Z" fill="#020001"/>
<path d="M164.543 96.2081C164.543 96.2081 171.891 91.6148 176.468 93.7916C181.045 95.9669 173.096 107.051 173.096 107.051" fill="#FEE9CE"/>
<path d="M164.543 96.2081C164.543 96.2081 171.891 91.6148 176.468 93.7916C181.045 95.9669 173.096 107.051 173.096 107.051" stroke="#020001" stroke-miterlimit="10" stroke-linecap="round" stroke-linejoin="round"/>
<path d="M149.606 51.7075C149.634 51.256 149.064 44.8404 146.174 44.2991C143.282 43.7564 131.536 41.5885 120.876 48.9968C120.876 48.9968 120.244 50.9633 120.425 52.3296C120.425 52.3296 127.833 49.9014 137.771 51.1662C147.709 52.4297 149.426 54.5991 149.606 51.7075Z" fill="#020001" stroke="#020001" stroke-width="0.9702" stroke-miterlimit="10" stroke-linecap="round" stroke-linejoin="round"/>
<path d="M173.626 54.2133C173.789 53.7926 173.932 47.0638 176.17 47.4623C178.409 47.8624 190.347 50.5584 194.789 60.6333C194.789 60.6333 194.433 62.6262 193.754 63.819C193.754 63.819 189.565 59.3037 182.111 57.3828C174.658 55.462 172.58 56.9122 173.626 54.2133Z" fill="#020001" stroke="#020001" stroke-width="0.9702" stroke-miterlimit="10" stroke-linecap="round" stroke-linejoin="round"/>
<path d="M126.816 98.7037C126.816 98.7037 120.211 82.5779 108.359 84.237Z" fill="#FEE9CE"/>
<path d="M126.816 98.7037C126.816 98.7037 120.211 82.5779 108.359 84.237" stroke="#020001" stroke-miterlimit="10" stroke-linecap="round" stroke-linejoin="round"/>
<path d="M46.5001 600.827C67.1633 600.827 97.0468 597.727 98.6956 596.765C101.356 595.215 106.661 572.294 102.192 555.727C97.569 538.591 86.9072 536.239 86.4556 536.146C86.4071 536.136 86.3586 536.132 86.3086 536.132C86.1512 536.132 85.9938 536.183 85.8659 536.28C85.6982 536.407 85.5923 536.599 85.5761 536.808C85.3599 539.534 84.1583 541.238 83.0728 542.24C83.7656 540.276 84.4716 537.444 83.7082 535.499C83.3405 534.561 82.6845 533.905 81.7579 533.549C79.3297 532.616 72.8655 531.61 66.6573 531.61C62.0832 531.61 55.9235 532.158 52.5672 534.77C46.5193 539.473 49.9168 546.849 50.7228 548.389C50.2065 550.179 46.9826 560.38 38.755 567.523C29.4669 575.586 23.4896 590.049 26.4591 597.287C27.0827 598.806 29.839 600.827 46.4987 600.827H46.5001Z" fill="#020001"/>
<path d="M66.6572 532.346C61.2932 532.346 55.9159 533.096 53.0185 535.349C46.7058 540.259 51.5109 548.298 51.5109 548.298C51.5109 548.298 48.5296 560.011 39.2372 568.076C29.9447 576.14 24.3337 590.169 27.1399 597.006C28.0783 599.295 36.1279 600.09 46.5014 600.09C67.1219 600.09 96.9261 596.946 98.3248 596.13C100.429 594.902 106.039 572.81 101.481 555.917C96.9231 539.023 86.3084 536.867 86.3084 536.867C85.8642 542.478 81.493 544.158 81.493 544.158C81.493 544.158 85.5804 535.808 81.493 534.237C79.2824 533.387 72.9786 532.346 66.6572 532.346ZM66.6572 530.875C72.9507 530.875 79.5325 531.908 82.0211 532.864C83.1315 533.29 83.9522 534.109 84.3934 535.23C84.6493 535.88 84.7611 536.608 84.7729 537.363C84.8023 537.164 84.8259 536.96 84.842 536.749C84.8759 536.33 85.0876 535.945 85.423 535.69C85.6804 535.496 85.9907 535.395 86.3084 535.395C86.4055 535.395 86.504 535.405 86.6011 535.424C87.0703 535.52 98.16 537.963 102.902 555.533C107.338 571.973 102.34 595.491 99.0675 597.4C97.157 598.515 66.1777 601.561 46.5029 601.561C29.6873 601.561 26.5913 599.54 25.7794 597.564C22.6511 589.939 28.6063 575.355 38.2738 566.964C45.9778 560.278 49.215 550.832 49.9284 548.479C48.1502 545.084 46.6367 538.448 52.1154 534.187C55.635 531.45 61.9668 530.875 66.6572 530.875Z" fill="#020001"/>
<path d="M44.928 567.407C46.2488 567.279 49.3418 567.215 54.1219 567.215C62.2921 567.215 72.6569 567.409 72.7598 567.41C72.7657 567.41 72.7701 567.41 72.7745 567.41C73.1275 567.41 73.4305 567.159 73.4966 566.812C75.3028 557.262 82.0714 544.637 82.1405 544.51C82.6568 543.216 86.8117 532.448 85.0497 528.434C84.7276 527.703 84.232 527.203 83.5745 526.95C81.4198 526.122 74.4777 525.229 67.0178 525.229C61.0199 525.229 53.1247 525.812 49.5698 528.576C43.2616 533.482 49.6316 546.307 50.7244 548.387C50.3302 549.743 48.3667 555.969 43.8558 561.986C43.8117 562.046 43.7749 562.114 43.7499 562.186C42.9278 564.554 42.8174 565.97 43.3925 566.779C43.6014 567.071 43.9955 567.418 44.7074 567.418C44.778 567.418 44.8501 567.415 44.928 567.407Z" fill="#BF1920"/>
<path d="M67.0178 525.965C60.1462 525.965 53.1041 526.758 50.0213 529.157C43.7087 534.066 51.5112 548.302 51.5112 548.302C51.5112 548.302 49.6742 555.453 44.4455 562.427C43.591 564.889 43.4131 566.682 44.7074 566.682C44.7559 566.682 44.8059 566.679 44.8588 566.675C46.3782 566.528 49.9875 566.479 54.1233 566.479C62.3951 566.479 72.7759 566.675 72.7759 566.675C74.6262 556.897 81.4948 544.16 81.4948 544.16C81.4948 544.16 87.3971 529.208 83.3112 527.637C81.2197 526.834 74.2099 525.965 67.0178 525.965ZM67.0178 524.494C73.7525 524.494 81.2992 525.288 83.8377 526.264C84.6732 526.584 85.3247 527.233 85.7233 528.137C87.5677 532.333 83.6642 542.67 82.8626 544.7C82.842 544.754 82.817 544.807 82.7891 544.857C82.7214 544.982 76.0072 557.512 74.2202 566.947C74.0879 567.643 73.4804 568.144 72.7759 568.144C72.7671 568.144 72.7568 568.144 72.748 568.144C72.645 568.143 62.2862 567.949 54.1233 567.949C48.2005 567.949 45.8928 568.052 45 568.137C44.8985 568.147 44.8015 568.152 44.7074 568.152C43.9087 568.152 43.2292 567.815 42.7938 567.204C42.057 566.169 42.1349 564.597 43.0556 561.945C43.1056 561.801 43.1777 561.667 43.2689 561.545C47.4503 555.968 49.4065 550.204 49.9345 548.462C48.4932 545.644 42.5894 533.072 49.1183 527.995C52.8379 525.102 60.9052 524.494 67.0178 524.494Z" fill="#020001"/>
<path d="M91.9448 596.118C94.5643 596.118 97.0014 595.997 99.187 595.76C99.4356 595.732 99.6532 595.582 99.7665 595.359C102.099 590.688 106.385 571.464 102.223 555.847C102.139 555.534 101.861 555.314 101.537 555.302L101.327 555.299C95.7821 555.299 91.2888 563.103 88.9973 576.711C86.7103 590.286 78.3238 593.762 78.24 593.795C77.9311 593.917 77.7414 594.234 77.7796 594.565C77.8179 594.896 78.0738 595.157 78.4047 595.207C78.468 595.215 84.7894 596.118 91.9448 596.118Z" fill="#BF1920"/>
<path d="M101.325 556.034C95.8893 556.034 91.7947 564.522 89.7224 576.833C87.3308 591.035 78.5105 594.479 78.5105 594.479C78.5105 594.479 84.7599 595.384 91.9462 595.384C94.295 595.384 96.7439 595.287 99.1089 595.031C101.512 590.214 105.526 571.098 101.511 556.037C101.449 556.036 101.387 556.034 101.325 556.034ZM101.325 554.563C101.403 554.563 101.483 554.565 101.561 554.568C102.208 554.59 102.764 555.033 102.93 555.659C107.142 571.458 102.789 590.946 100.422 595.688C100.199 596.137 99.7634 596.44 99.2648 596.494C97.0527 596.734 94.5892 596.856 91.9432 596.856C84.7334 596.856 78.5561 595.974 78.2972 595.937C77.6369 595.841 77.1235 595.312 77.0471 594.648C76.9706 593.985 77.3515 593.354 77.9737 593.11C78.2958 592.981 86.0616 589.704 88.2707 576.589C90.6637 562.385 95.2996 554.563 101.325 554.563Z" fill="#020001"/>
<path d="M54.3214 612.126C58.5676 612.126 63.1123 612.038 67.8321 611.864C99.8468 610.683 105.406 607.789 105.756 601.752C105.802 600.961 105.896 599.932 106.002 598.749C106.843 589.354 107.307 580.048 102.996 578.458L102.085 578.815C100.52 581.917 97.5582 587.136 96.2728 587.927C96.1948 587.974 88.482 592.631 75.4581 592.631C73.2652 592.631 71.0266 592.497 68.7925 592.23C68.6895 590.861 68.416 587.406 68.088 584.435C67.7659 581.528 58.8352 581.094 53.5404 581.094C51.5489 581.094 41.5446 581.191 40.1473 583.141C39.2016 584.459 39.1193 586.627 39.0384 588.724C38.9795 590.273 38.906 592.2 38.3692 592.592C37.8882 592.942 36.1674 593.462 34.0053 593.462C31.9506 593.462 28.3193 592.984 27.0985 589.786L25.8454 589.577C25.6292 589.84 20.5461 596.138 23.5819 609.201L24.0892 609.739C24.4172 609.837 32.3698 612.126 54.3214 612.126Z" fill="#FFFEFB"/>
<path d="M102.739 579.148C102.739 579.148 98.5985 587.36 96.6556 588.555C95.0274 589.557 87.316 593.369 75.4526 593.369C73.1538 593.369 70.6991 593.227 68.1016 592.891C68.1016 592.891 67.7766 588.333 67.3545 584.519C67.1456 582.631 60.2608 581.832 53.5379 581.832C47.465 581.832 41.5244 582.484 40.7449 583.572C39.1006 585.865 40.4464 591.996 38.802 593.191C38.1093 593.696 36.1722 594.2 34.0072 594.2C31.0362 594.2 27.6343 593.252 26.4121 590.053C26.4121 590.053 21.3099 596.181 24.3 609.039C24.3 609.039 32.2217 611.394 54.3115 611.394C58.3282 611.394 62.8127 611.316 67.8031 611.132C100.244 609.936 104.717 606.946 105.021 601.713C105.326 596.478 107.628 580.953 102.739 579.148ZM103.249 577.769C108.05 579.542 107.637 588.735 106.732 598.814C106.626 599.988 106.535 601.01 106.489 601.797C106.102 608.424 100.649 611.391 67.856 612.6C63.126 612.775 58.568 612.863 54.31 612.863C32.2599 612.863 24.2117 610.545 23.8793 610.447L22.866 609.37C19.7464 595.955 25.0531 589.383 25.2796 589.11L27.7843 589.526C28.8477 592.312 32.1378 592.728 34.0043 592.728C36.0913 592.728 37.6401 592.215 37.9342 592.001C38.1901 591.65 38.2607 589.803 38.3034 588.698C38.3872 586.493 38.474 584.214 39.5477 582.715C41.0155 580.667 48.9417 580.362 53.5349 580.362C68.3738 580.362 68.7061 583.369 68.815 584.358C69.1032 586.967 69.3489 589.948 69.4753 591.573C71.48 591.79 73.4848 591.898 75.4512 591.898C88.2677 591.898 95.8084 587.349 95.8834 587.304C96.8336 586.72 99.5148 582.274 101.425 578.486L103.249 577.769Z" fill="#020001"/>
<path d="M54.3061 612.126C58.5552 612.126 63.1058 612.038 67.8285 611.865C77.0518 611.525 84.1602 611.034 89.555 610.363C89.9345 610.316 90.214 609.986 90.2007 609.604C89.961 603.619 89.1462 597.663 87.7783 591.903C87.6974 591.565 87.3959 591.337 87.0635 591.337C87.0091 591.337 86.9547 591.343 86.8988 591.356C83.2321 592.202 79.3742 592.631 75.4325 592.631C73.2498 592.631 71.0157 592.497 68.7875 592.233C68.6845 590.863 68.4109 587.408 68.083 584.437C67.7609 581.53 58.8302 581.096 53.5353 581.096C51.5439 581.096 41.5396 581.193 40.1423 583.143C39.1966 584.461 39.1143 586.629 39.0348 588.725C38.976 590.275 38.9024 592.202 38.3641 592.594C37.8832 592.944 36.1624 593.464 34.0003 593.464C31.9456 593.464 28.3142 592.986 27.0934 589.788C27.0008 589.545 26.7846 589.369 26.5272 589.326C26.4875 589.319 26.4463 589.316 26.4066 589.316C26.1904 589.316 25.983 589.412 25.8403 589.581C25.6241 589.844 20.5411 596.142 23.5768 609.204C23.6371 609.461 23.8312 609.667 24.0842 609.742C24.4151 609.839 32.3663 612.126 54.3061 612.126Z" fill="#E94848"/>
<path d="M53.5346 581.831C47.4617 581.831 41.5211 582.483 40.7416 583.571C39.0973 585.864 40.4431 591.994 38.7987 593.19C38.106 593.695 36.1689 594.199 34.0039 594.199C31.0329 594.199 27.631 593.25 26.4088 590.051C26.4088 590.051 21.3066 596.18 24.2967 609.038C24.2967 609.038 32.2184 611.393 54.3082 611.393C58.3249 611.393 62.8094 611.315 67.8013 611.131C77.1673 610.785 84.1903 610.289 89.466 609.635C89.2322 603.781 88.4526 597.929 87.0642 592.075C83.8549 592.815 79.9441 593.37 75.4288 593.37C73.1373 593.37 70.6899 593.227 68.0998 592.893C68.0998 592.893 67.7748 588.335 67.3527 584.521C67.1438 582.63 60.259 581.831 53.5346 581.831ZM53.5346 580.36C68.3704 580.36 68.7043 583.368 68.8131 584.356C69.1014 586.966 69.347 589.947 69.4735 591.572C71.4709 591.787 73.4697 591.896 75.4273 591.896C79.3117 591.896 83.1151 591.474 86.7318 590.64C86.8436 590.613 86.9539 590.601 87.0628 590.601C87.729 590.601 88.332 591.057 88.4923 591.733C89.8705 597.541 90.6912 603.543 90.9324 609.573C90.9633 610.338 90.4029 610.997 89.644 611.091C84.2256 611.763 77.0981 612.256 67.8527 612.597C63.1212 612.771 58.5632 612.86 54.3053 612.86C32.2552 612.86 24.207 610.542 23.8746 610.444C23.3686 610.294 22.9804 609.882 22.8612 609.367C19.7417 595.952 25.0483 589.381 25.2748 589.107C25.5572 588.769 25.9719 588.578 26.4044 588.578C26.4853 588.578 26.5647 588.584 26.6456 588.597C27.1603 588.682 27.5913 589.035 27.7781 589.523C28.8414 592.309 32.1316 592.725 33.998 592.725C36.0851 592.725 37.6338 592.212 37.928 591.997C38.1839 591.646 38.2545 589.798 38.2957 588.694C38.3795 586.489 38.4663 584.209 39.54 582.711C41.0137 580.666 48.9413 580.36 53.5346 580.36Z" fill="#020001"/>
<path d="M100.597 601.798C102.481 601.798 104.756 601.374 106.128 600.766C108.003 599.935 108.414 594.841 108.361 591.961C108.32 589.647 107.968 585.656 106.105 584.91C106.015 584.876 105.924 584.858 105.831 584.858C105.6 584.858 105.375 584.967 105.235 585.164C100.895 591.189 95.9062 598.721 96.7901 600.397C97.2784 601.325 98.5595 601.798 100.597 601.798Z" fill="#BF1920"/>
<path d="M105.829 585.594C105.829 585.594 96.5822 598.429 97.4382 600.055C97.8221 600.783 99.1002 601.064 100.596 601.064C102.437 601.064 104.605 600.637 105.829 600.094C108.049 599.113 108.401 586.62 105.829 585.594ZM105.829 584.123C106.011 584.123 106.197 584.157 106.373 584.227C108.096 584.914 109.01 587.512 109.093 591.946C109.128 593.88 109.041 600.28 106.423 601.44C104.967 602.084 102.571 602.534 100.595 602.534C98.2633 602.534 96.7631 601.93 96.1366 600.74C95.7527 600.012 94.857 598.309 104.635 584.735C104.919 584.342 105.367 584.123 105.829 584.123Z" fill="#020001"/>
<path d="M42.3293 565.349C42.6985 565.349 43.0618 565.249 43.3795 565.056C43.4192 565.033 48.1022 562.366 57.63 562.366C63.4234 562.366 69.7802 563.344 76.5252 565.272C76.712 565.324 76.8988 565.35 77.0871 565.35C77.9916 565.35 78.7976 564.743 79.0462 563.872C79.3551 562.794 78.7285 561.662 77.6489 561.35C70.4656 559.297 63.6985 558.257 57.5285 558.257C47.0491 558.257 41.8293 561.229 41.2674 561.568C40.3099 562.149 40.0026 563.402 40.5791 564.361C40.9483 564.971 41.6175 565.349 42.3293 565.349Z" fill="#FFFEFB"/>
<path d="M57.5269 558.992C47.1049 558.992 41.9645 562.004 41.6497 562.196C41.0364 562.568 40.8408 563.366 41.2114 563.981C41.4556 564.387 41.888 564.614 42.3292 564.614C42.5572 564.614 42.7881 564.553 42.9984 564.427C43.069 564.384 47.855 561.631 57.6314 561.631C62.6629 561.631 69.0168 562.36 76.7266 564.565C76.8458 564.599 76.9678 564.615 77.0855 564.615C77.6532 564.615 78.1753 564.242 78.3386 563.669C78.5372 562.978 78.1357 562.256 77.4429 562.057C69.4153 559.762 62.7968 558.992 57.5269 558.992ZM57.5269 557.521C63.7631 557.521 70.6008 558.572 77.8474 560.643C79.3196 561.065 80.1727 562.603 79.752 564.074C79.4137 565.258 78.3166 566.086 77.0855 566.086C76.8325 566.086 76.5796 566.051 76.3325 565.983C69.6433 564.071 63.3542 563.103 57.6299 563.103C48.3683 563.103 43.7853 565.671 43.7397 565.698C43.325 565.948 42.8308 566.086 42.3278 566.086C41.36 566.086 40.4481 565.57 39.9495 564.74C39.1626 563.434 39.5833 561.729 40.8864 560.94C41.4644 560.588 46.8357 557.521 57.5269 557.521Z" fill="#020001"/>
<path d="M80.8259 559.577C81.7319 559.577 82.5379 558.968 82.7864 558.097C83.0953 557.017 82.4687 555.886 81.3877 555.576C74.2043 553.524 67.4372 552.484 61.2673 552.484C50.7599 552.484 45.5651 555.457 45.0062 555.794C44.0517 556.373 43.7428 557.625 44.3193 558.585C44.687 559.196 45.3577 559.575 46.0696 559.575C46.4387 559.575 46.8006 559.474 47.1183 559.282C47.158 559.259 51.8424 556.592 61.3717 556.592C67.1651 556.592 73.5204 557.569 80.2626 559.497C80.4582 559.55 80.6435 559.577 80.8259 559.577Z" fill="#FFFEFB"/>
<path d="M61.2671 553.22C50.8451 553.22 45.7047 556.231 45.3899 556.422C44.7766 556.794 44.581 557.591 44.9517 558.207C45.1958 558.613 45.6282 558.84 46.0709 558.84C46.2989 558.84 46.5298 558.779 46.7387 558.653C46.8093 558.61 51.5982 555.857 61.373 555.857C66.4046 555.857 72.7569 556.586 80.4668 558.79C80.586 558.824 80.7081 558.84 80.8257 558.84C81.3935 558.84 81.9156 558.466 82.0788 557.894C82.2774 557.201 81.8759 556.481 81.1831 556.282C73.1555 553.991 66.537 553.22 61.2671 553.22ZM61.2671 551.749C67.5048 551.749 74.341 552.798 81.5876 554.867C83.0599 555.289 83.9129 556.828 83.4923 558.297C83.154 559.482 82.0568 560.309 80.8257 560.309C80.5728 560.309 80.3198 560.274 80.0741 560.206C73.385 558.294 67.0974 557.326 61.373 557.326C52.1173 557.326 47.5226 559.896 47.4785 559.922C47.0681 560.171 46.5739 560.309 46.0709 560.309C45.1017 560.309 44.1898 559.794 43.6912 558.965C42.9058 557.657 43.325 555.953 44.6281 555.163C45.2046 554.816 50.5745 551.749 61.2671 551.749Z" fill="#020001"/>
<path d="M84.1091 553.346C85.0151 553.346 85.8211 552.737 86.0697 551.866C86.2212 551.344 86.158 550.794 85.8917 550.316C85.627 549.839 85.1931 549.494 84.671 549.345C77.4891 547.292 70.7205 546.252 64.5505 546.252C54.0697 546.252 48.8513 549.223 48.291 549.561C47.3335 550.142 47.026 551.395 47.6026 552.354C47.9703 552.963 48.641 553.341 49.3514 553.341C49.7191 553.341 50.0824 553.241 50.3986 553.051C50.4412 553.026 55.1242 550.361 64.652 550.361C70.4455 550.361 76.8022 551.339 83.5458 553.266C83.7414 553.321 83.9268 553.346 84.1091 553.346Z" fill="#FFFEFB"/>
<path d="M64.5523 546.987C54.1303 546.987 48.9884 550 48.6736 550.191C48.0603 550.563 47.8647 551.362 48.2353 551.976C48.4795 552.382 48.9119 552.607 49.3531 552.607C49.5811 552.607 49.812 552.547 50.0224 552.422C50.0929 552.379 54.8789 549.627 64.6553 549.627C69.6868 549.627 76.0407 550.357 83.7506 552.56C83.8697 552.593 83.9917 552.61 84.1094 552.61C84.6771 552.61 85.1993 552.237 85.3625 551.664C85.5611 550.973 85.1596 550.251 84.4668 550.052C76.4392 547.758 69.8207 546.987 64.5523 546.987ZM64.5523 545.517C70.7899 545.517 77.6262 546.567 84.8728 548.636C86.345 549.058 87.1981 550.598 86.7774 552.067C86.4391 553.251 85.3419 554.08 84.1109 554.08C83.8594 554.08 83.6064 554.044 83.3593 553.977C76.6687 552.065 70.3796 551.098 64.6567 551.098C55.3951 551.098 50.8121 553.666 50.7665 553.691C50.3503 553.941 49.8576 554.078 49.3546 554.078C48.3868 554.078 47.4764 553.563 46.9763 552.735C46.1894 551.429 46.6086 549.723 47.9118 548.933C48.4883 548.583 53.8582 545.517 64.5523 545.517Z" fill="#020001"/>
<path d="M187.357 250.041C187.357 250.041 201.555 282.073 225.879 287.568C225.879 287.568 212.614 291.282 189.317 271.595L187.357 250.041Z" fill="#020001"/>
<path d="M88.4401 355.701C90.5492 355.701 92.2656 353.984 92.2656 351.875V326.595C92.2656 324.486 90.5492 322.77 88.4401 322.77C86.2177 322.77 84.5013 324.486 84.5013 326.595V351.875C84.5013 353.984 86.2177 355.701 88.3268 355.701H88.4401Z" fill="#E94848"/>
<path d="M88.3258 323.505C86.627 323.505 85.2371 324.895 85.2371 326.594V351.875C85.2371 353.574 86.627 354.964 88.3258 354.964H88.4391C90.1378 354.964 91.5292 353.574 91.5292 351.875V326.594C91.5292 324.895 90.1393 323.505 88.4391 323.505H88.3258ZM88.3258 322.034H88.4391C90.9541 322.034 93 324.08 93 326.594V351.875C93 354.39 90.9541 356.435 88.4391 356.435H88.3258C85.8108 356.435 83.7663 354.389 83.7663 351.875V326.594C83.7663 324.08 85.8108 322.034 88.3258 322.034Z" fill="#020001"/>
<path d="M74.7209 355.702C76.83 355.702 78.5449 353.985 78.5449 351.876V335.643C78.5449 333.534 76.83 331.817 74.7209 331.817C72.4985 331.817 70.7821 333.534 70.7821 335.643V351.876C70.7821 353.985 72.4985 355.702 74.6061 355.702H74.7209Z" fill="#BF1920"/>
<path d="M74.6046 332.553C72.9059 332.553 71.516 333.943 71.516 335.641V351.876C71.516 353.575 72.9059 354.965 74.6046 354.965H74.7179C76.4167 354.965 77.8066 353.575 77.8066 351.876V335.641C77.8066 333.943 76.4167 332.553 74.7179 332.553H74.6046ZM74.6046 331.082H74.7179C77.233 331.082 79.2773 333.128 79.2773 335.641V351.876C79.2773 354.391 77.2315 356.436 74.7179 356.436H74.6046C72.0896 356.436 70.0452 354.39 70.0452 351.876V335.641C70.0452 333.128 72.0911 331.082 74.6046 331.082Z" fill="#020001"/>
<path d="M147.51 364.813L132.959 375.327L121.103 441.661L122.871 451.599C122.871 451.599 136.076 380.055 147.51 364.813Z" fill="#020001"/>
<path d="M86.5958 357.877C89.9845 357.877 93.182 357.671 96.1001 357.265C96.4516 357.217 96.7148 356.915 96.7148 356.559V348.92C96.7148 348.727 96.6369 348.543 96.5001 348.409C96.3663 348.279 96.1883 348.205 96.0015 348.205C95.9956 348.205 95.9897 348.205 95.9853 348.205C95.9794 348.205 95.1337 348.226 93.6409 348.226C87.9195 348.226 73.1587 347.946 59.6627 345.35C59.6171 345.341 59.5729 345.337 59.5259 345.337C59.1949 345.337 58.8978 345.569 58.8287 345.906L57.3168 353.188C57.2388 353.557 57.4638 353.92 57.8256 354.021C57.9668 354.059 72.0188 357.877 86.5958 357.877Z" fill="#FFFEFB"/>
<path d="M59.5265 346.052L58.013 353.334C58.013 353.334 71.9429 357.165 86.5934 357.165C89.7394 357.165 92.9178 356.989 95.9992 356.559V348.92C95.9992 348.92 95.1461 348.939 93.637 348.939C87.9804 348.941 73.1151 348.664 59.5265 346.052ZM59.525 344.624C59.6147 344.624 59.7044 344.633 59.7956 344.651C73.2313 347.235 87.9377 347.513 93.637 347.513C95.1167 347.513 95.9565 347.494 95.9668 347.494C95.9771 347.494 95.9889 347.494 95.9992 347.494C96.3713 347.494 96.7301 347.639 96.9963 347.899C97.2714 348.167 97.4258 348.536 97.4258 348.92V356.559C97.4258 357.271 96.9007 357.874 96.1962 357.973C93.2443 358.383 90.0145 358.592 86.5934 358.592C71.9193 358.592 58.2116 354.868 57.635 354.709C56.9084 354.509 56.4628 353.78 56.6158 353.043L58.1292 345.761C58.2689 345.089 58.8617 344.624 59.525 344.624Z" fill="#020001"/>
<path d="M58.0137 353.341L55.9958 377.835" stroke="#020001" stroke-width="0.9702" stroke-miterlimit="10" stroke-linecap="round" stroke-linejoin="round"/>
<path d="M95.998 356.563L94.6111 379.156" stroke="#020001" stroke-width="0.9702" stroke-miterlimit="10" stroke-linecap="round" stroke-linejoin="round"/>
<path d="M109.512 88.0647C108.173 87.5676 106.737 87.0763 105.344 87.3955C103.952 87.7147 102.734 89.2016 103.243 90.5371C103.535 91.3019 104.277 91.7873 104.992 92.1859C107.103 93.3595 113.789 96.8321 115.873 94.4671C118.57 91.4049 111.369 88.753 109.512 88.0647Z" fill="#FEA786"/>
<path d="M191.89 103.66C193.086 103.496 194.351 103.483 195.444 103.991C196.537 104.502 197.403 105.65 197.265 106.848C197.135 107.965 196.218 108.819 195.284 109.447C192.638 111.226 185.816 113.682 183.514 110.091C181.007 106.176 189.549 103.984 191.89 103.66Z" fill="#FEA786"/>
<path d="M286.459 361.515C286.808 361.515 287.108 361.271 287.179 360.929C290.107 346.878 292.251 344.732 306.303 341.805C306.645 341.734 306.889 341.434 306.889 341.086C306.889 340.737 306.645 340.437 306.303 340.366C292.25 337.439 290.105 335.294 287.179 321.242C287.108 320.9 286.808 320.656 286.459 320.656C286.111 320.656 285.811 320.9 285.74 321.242C282.812 335.294 280.667 337.439 266.614 340.366C266.273 340.437 266.029 340.737 266.029 341.086C266.029 341.434 266.273 341.734 266.614 341.805C280.667 344.732 282.812 346.878 285.74 360.929C285.811 361.271 286.112 361.515 286.459 361.515Z" fill="#BF1920"/>
<path d="M286.461 321.386C283.482 335.686 281.066 338.101 266.765 341.081C281.066 344.061 283.481 346.476 286.461 360.777C289.439 346.476 291.856 344.061 306.156 341.081C291.856 338.103 289.441 335.688 286.461 321.386ZM286.461 319.915C287.158 319.915 287.758 320.403 287.901 321.086C290.77 334.863 292.678 336.77 306.456 339.641C307.139 339.782 307.627 340.384 307.627 341.081C307.627 341.778 307.139 342.378 306.456 342.521C292.679 345.391 290.772 347.298 287.901 361.077C287.758 361.759 287.158 362.247 286.461 362.247C285.764 362.247 285.164 361.759 285.021 361.077C282.151 347.3 280.244 345.392 266.465 342.521C265.783 342.378 265.295 341.778 265.295 341.081C265.295 340.384 265.783 339.784 266.465 339.641C280.242 336.772 282.15 334.864 285.021 321.086C285.164 320.405 285.764 319.915 286.461 319.915Z" fill="#020001"/>
<path d="M346.306 447.598C353.457 449.088 354.665 450.295 356.153 457.445C357.643 450.294 358.85 449.086 366 447.598C358.849 446.108 357.641 444.9 356.153 437.751C354.663 444.9 353.456 446.108 346.306 447.598Z" fill="#BF1920" stroke="#020001" stroke-miterlimit="10" stroke-linecap="round" stroke-linejoin="round"/>
<path d="M1.48581 47.4446C8.6368 48.9345 9.84433 50.142 11.3328 57.2916C12.8227 50.1406 14.0302 48.933 21.1797 47.4446C14.0287 45.9547 12.8212 44.7472 11.3328 37.5977C9.84433 44.7472 8.6368 45.9547 1.48581 47.4446Z" fill="#BF1920" stroke="#020001" stroke-miterlimit="10" stroke-linecap="round" stroke-linejoin="round"/>
<path d="M238.994 508.227C257.65 512.113 260.8 515.264 264.688 533.921C268.573 515.265 271.724 512.115 290.381 508.227C271.725 504.342 268.575 501.191 264.688 482.534C260.802 501.19 257.651 504.34 238.994 508.227Z" fill="#020001"/>
<path d="M340.224 145.874C346.007 147.079 346.983 148.056 348.188 153.839C349.393 148.056 350.369 147.079 356.152 145.874C350.369 144.67 349.393 143.693 348.188 137.91C346.985 143.693 346.008 144.67 340.224 145.874Z" fill="#020001"/>
<path d="M264.689 10.7798C270.472 11.9843 271.448 12.9609 272.653 18.7441C273.857 12.9609 274.834 11.9843 280.617 10.7798C274.834 9.57519 273.857 8.59858 272.653 2.81543C271.448 8.59858 270.472 9.57519 264.689 10.7798Z" fill="#020001"/>
</svg>
