<svg width="251" height="318" viewBox="0 0 251 318" fill="none" xmlns="http://www.w3.org/2000/svg">
<path d="M251.001 127.133C243.952 128.601 242.761 129.791 241.292 136.841C239.824 129.792 238.634 128.602 231.584 127.133C238.633 125.664 239.823 124.474 241.292 117.424C242.761 124.474 243.952 125.664 251.001 127.133Z" fill="#020001"/>
<path d="M232.468 255.061C232.3 255.061 232.156 254.944 232.122 254.78C230.678 247.847 229.62 246.788 222.688 245.345C222.523 245.31 222.406 245.166 222.406 244.999C222.406 244.832 222.523 244.688 222.688 244.653C229.62 243.209 230.678 242.15 232.122 235.219C232.156 235.054 232.3 234.937 232.468 234.937C232.634 234.937 232.779 235.054 232.813 235.219C234.258 242.15 235.316 243.208 242.248 244.653C242.413 244.688 242.53 244.832 242.53 244.999C242.53 245.166 242.413 245.31 242.248 245.345C235.316 246.788 234.258 247.846 232.813 254.78C232.779 254.944 232.634 255.061 232.468 255.061Z" fill="#BF1920"/>
<path d="M232.467 235.292C233.935 242.341 235.126 243.531 242.175 245C235.126 246.468 233.936 247.659 232.467 254.709C230.999 247.66 229.808 246.469 222.759 245C229.808 243.532 230.999 242.341 232.467 235.292ZM232.467 234.586C232.132 234.586 231.844 234.82 231.776 235.148C230.358 241.95 229.417 242.892 222.614 244.309C222.287 244.377 222.053 244.665 222.053 245C222.053 245.335 222.287 245.623 222.614 245.691C229.417 247.109 230.358 248.05 231.776 254.853C231.844 255.18 232.132 255.414 232.467 255.414C232.802 255.414 233.09 255.18 233.158 254.853C234.576 248.05 235.517 247.109 242.319 245.691C242.647 245.623 242.881 245.335 242.881 245C242.881 244.665 242.647 244.377 242.319 244.309C235.517 242.892 234.576 241.95 233.158 235.148C233.091 234.82 232.802 234.586 232.467 234.586Z" fill="#020001"/>
<path d="M93.07 24.6274C92.9478 24.6274 92.8416 24.5415 92.8161 24.4214C91.7567 19.3333 90.9803 18.5562 85.8915 17.4968C85.7714 17.4713 85.6855 17.3658 85.6855 17.2429C85.6855 17.1206 85.7714 17.0144 85.8915 16.9889C90.9796 15.9288 91.7567 15.1525 92.8161 10.0643C92.8416 9.94426 92.9471 9.8584 93.07 9.8584C93.1923 9.8584 93.2985 9.94426 93.324 10.0643C94.3841 15.1525 95.1604 15.9295 100.249 16.9889C100.369 17.0144 100.455 17.1199 100.455 17.2429C100.455 17.3651 100.369 17.4713 100.249 17.4968C95.1604 18.5562 94.3841 19.3326 93.324 24.4214C93.2985 24.5415 93.1923 24.6274 93.07 24.6274Z" fill="#BF1920"/>
<path d="M93.0712 10.1172C94.1488 15.2912 95.0227 16.165 100.197 17.2426C95.0227 18.3202 94.1488 19.1941 93.0712 24.3681C91.9937 19.1941 91.1198 18.3202 85.9458 17.2426C91.1198 16.165 91.9937 15.2912 93.0712 10.1172ZM93.0712 9.59912C92.826 9.59912 92.6143 9.77156 92.5641 10.0117C91.5236 15.0045 90.8324 15.6957 85.8403 16.7355C85.6002 16.7857 85.4277 16.9974 85.4277 17.2426C85.4277 17.4878 85.6002 17.6996 85.8403 17.7498C90.8324 18.7895 91.5236 19.4807 92.5641 24.4736C92.6143 24.7137 92.826 24.8861 93.0712 24.8861C93.3164 24.8861 93.5282 24.7137 93.5784 24.4736C94.6181 19.4807 95.3094 18.7895 100.302 17.7498C100.542 17.6996 100.715 17.4878 100.715 17.2426C100.715 16.9974 100.542 16.7857 100.302 16.7355C95.3101 15.6957 94.6181 15.0045 93.5784 10.0117C93.5282 9.77156 93.3164 9.59912 93.0712 9.59912Z" fill="#020001"/>
<path d="M45.7058 218.316C42.1813 219.05 41.5861 219.646 40.8519 223.17C40.1178 219.646 39.5226 219.05 35.998 218.316C39.5226 217.582 40.1178 216.987 40.8519 213.462C41.5861 216.987 42.1813 217.582 45.7058 218.316Z" fill="#BF1920" stroke="#020001" stroke-width="0.9702" stroke-miterlimit="10" stroke-linecap="round" stroke-linejoin="round"/>
<path d="M219.075 67.869C215.55 68.6032 214.955 69.1983 214.221 72.7229C213.487 69.1983 212.892 68.6032 209.367 67.869C212.892 67.1348 213.487 66.5397 214.221 63.0151C214.955 66.5397 215.55 67.1348 219.075 67.869Z" fill="#BF1920" stroke="#020001" stroke-width="0.9702" stroke-miterlimit="10" stroke-linecap="round" stroke-linejoin="round"/>
<path d="M91.9369 262.178C82.7406 264.094 81.1879 265.647 79.2721 274.843C77.3563 265.647 75.8036 264.094 66.6074 262.178C75.8036 260.263 77.3563 258.71 79.2721 249.514C81.1879 258.71 82.7406 260.263 91.9369 262.178Z" fill="#020001"/>
<path d="M203.343 100.038C200.492 100.632 200.01 101.113 199.416 103.964C198.823 101.113 198.341 100.632 195.49 100.038C198.341 99.4443 198.823 98.9626 199.416 96.1118C200.01 98.9626 200.491 99.4443 203.343 100.038Z" fill="#020001"/>
<path d="M79.2234 205.318C76.3727 205.912 75.891 206.394 75.2973 209.244C74.7035 206.394 74.2219 205.912 71.3711 205.318C74.2219 204.725 74.7035 204.243 75.2973 201.392C75.891 204.243 76.3727 204.725 79.2234 205.318Z" fill="#020001"/>
<path d="M213.296 209.827C210.445 210.42 209.963 210.902 209.37 213.753C208.776 210.902 208.294 210.42 205.443 209.827C208.294 209.233 208.776 208.751 209.37 205.9C209.963 208.751 210.445 209.232 213.296 209.827Z" fill="#020001"/>
<path d="M66.6238 50.4174C63.7731 51.0111 63.2914 51.4928 62.6977 54.3435C62.1039 51.4928 61.6222 51.0111 58.7715 50.4174C61.6222 49.8237 62.1039 49.342 62.6977 46.4912C63.2914 49.342 63.7731 49.8237 66.6238 50.4174Z" fill="#020001"/>
<path d="M239.438 181.829C236.587 182.423 236.106 182.904 235.512 185.755C234.918 182.904 234.437 182.423 231.586 181.829C234.437 181.235 234.918 180.754 235.512 177.903C236.106 180.754 236.587 181.235 239.438 181.829Z" fill="#020001"/>
<path d="M26.2948 120.953C26.2642 120.953 26.2329 120.949 26.2017 120.94L19.0675 118.988C3.60147 114.756 1.62965 108.694 0.887493 106.412C-0.00964555 103.652 0.221004 100.708 1.53797 98.1225C2.85494 95.5366 5.10034 93.6186 7.85942 92.7215C8.95156 92.3664 10.083 92.186 11.221 92.186C13.331 92.186 15.4396 92.8233 17.2092 93.9904C18.3741 90.9287 20.885 88.5247 24.0086 87.5089C25.1008 87.1538 26.2315 86.9741 27.3695 86.9741C32.088 86.9741 36.239 89.9908 37.6993 94.4816C39.1349 98.896 38.4866 103.826 30.83 114.747L26.5836 120.803C26.516 120.899 26.4076 120.953 26.2948 120.953Z" fill="#BF1920"/>
<path d="M27.3698 87.3274C31.7994 87.3274 35.9192 90.1497 37.3634 94.5911C38.7655 98.9021 38.1129 103.744 30.5407 114.545L26.2944 120.601L19.1602 118.649C3.87681 114.467 1.94792 108.536 1.2225 106.303C-0.572509 100.783 2.44779 94.8523 7.96814 93.0573C9.04791 92.7066 10.143 92.5392 11.2205 92.5392C13.4565 92.5392 15.6138 93.2581 17.3877 94.5416C18.4035 91.4769 20.8126 88.9194 24.1181 87.8447C25.1971 87.494 26.2922 87.3274 27.3698 87.3274ZM27.3698 86.6216C26.194 86.6216 25.0261 86.8079 23.8991 87.1738C20.8111 88.1779 18.3023 90.4968 17.0392 93.4662C15.29 92.4082 13.2557 91.8342 11.2198 91.8342C10.0447 91.8342 8.87692 92.0197 7.74913 92.3864C1.86716 94.2986 -1.36196 100.64 0.550918 106.522C1.30908 108.854 3.3231 115.048 18.9739 119.329L26.1081 121.281C26.1699 121.298 26.2325 121.306 26.2944 121.306C26.5207 121.306 26.7382 121.197 26.8721 121.005L31.1184 114.949C38.8594 103.909 39.5033 98.8905 38.0343 94.372C36.5267 89.7365 32.2411 86.6216 27.3698 86.6216Z" fill="#020001"/>
<path d="M139.7 317.971C185.572 317.971 222.758 315.081 222.758 311.516C222.758 307.951 185.572 305.062 139.7 305.062C93.8288 305.062 56.6426 307.951 56.6426 311.516C56.6426 315.081 93.8288 317.971 139.7 317.971Z" fill="#020001"/>
<path d="M51.0191 98.2771C51.0075 98.2749 49.8397 98.0538 47.0231 97.8777C44.8418 97.7409 42.8692 96.8699 42.1147 95.7094C41.7567 95.1593 41.6803 94.5641 41.8935 93.9879C42.5935 92.099 44.4125 91.9091 44.4896 91.9018C44.5005 91.9004 44.5114 91.9004 44.5223 91.9004C44.5631 91.9004 44.6031 91.9069 44.6417 91.9208L51.5357 94.399C51.6885 94.4543 51.7839 94.6056 51.7671 94.7672L51.4375 97.9657C51.4273 98.0639 51.3764 98.1542 51.2971 98.2131C51.2352 98.2589 51.1618 98.2822 51.0861 98.2822C51.0643 98.2837 51.0417 98.2815 51.0191 98.2771Z" fill="#B27709"/>
<path d="M44.5215 92.2539L51.4155 94.7321L51.0859 97.9314C51.0859 97.9314 49.929 97.7058 47.0448 97.5261C44.1606 97.3464 41.5929 95.814 42.2237 94.1114C42.8545 92.4081 44.5215 92.2539 44.5215 92.2539ZM44.5215 91.5474C44.4996 91.5474 44.4778 91.5481 44.456 91.5503C44.3701 91.5583 42.3379 91.7707 41.5616 93.8648C41.3076 94.5495 41.3964 95.2538 41.8177 95.9014C42.6304 97.1507 44.7136 98.0864 47.0004 98.229C49.7843 98.4029 50.9397 98.6211 50.9513 98.6233C50.9957 98.6321 51.0401 98.6357 51.0845 98.6357C51.2351 98.6357 51.3828 98.5877 51.5058 98.4967C51.6644 98.3789 51.767 98.1991 51.7873 98.0027L52.117 94.8034C52.1504 94.4803 51.9591 94.1769 51.6535 94.0671L44.7594 91.5888C44.6837 91.5619 44.603 91.5474 44.5215 91.5474Z" fill="#020001"/>
<path d="M52.6321 96.0912C52.6066 96.0912 52.5804 96.0891 52.5557 96.0832C52.5331 96.0781 51.9605 95.9545 48.7219 95.4131C45.4506 94.866 40.6418 92.713 40.5043 90.2522C40.3937 88.2789 41.774 87.6787 42.5191 87.6365C42.5256 87.6357 42.5321 87.6357 42.5387 87.6357C42.5736 87.6357 42.6093 87.6408 42.6427 87.651L55.1991 91.5255C55.3468 91.5714 55.4479 91.7081 55.4479 91.8624V95.4131C55.4479 95.5907 55.3169 95.7398 55.1416 95.7631L52.6786 96.0869C52.6626 96.0905 52.6473 96.0912 52.6321 96.0912Z" fill="#B27709"/>
<path d="M42.5387 87.989L55.095 91.8642V95.4149L52.632 95.7387C52.632 95.7387 52.0914 95.6187 48.7808 95.0649C45.4702 94.5112 40.9772 92.3743 40.8572 90.2329C40.7364 88.0908 42.5387 87.989 42.5387 87.989ZM42.5387 87.2832C42.5256 87.2832 42.5125 87.2839 42.4986 87.2847C41.8016 87.3239 40.0204 87.9373 40.1514 90.2729C40.302 92.9505 45.1915 95.1814 48.6636 95.762C51.8717 96.2982 52.4567 96.4241 52.4799 96.4292C52.5294 96.4401 52.5811 96.4459 52.632 96.4459C52.6626 96.4459 52.6931 96.4438 52.723 96.4401L55.1859 96.1156C55.5373 96.0698 55.8 95.77 55.8 95.4157V91.8649C55.8 91.555 55.5985 91.2814 55.3023 91.1904L42.746 87.3152C42.6791 87.2941 42.6092 87.2832 42.5387 87.2832Z" fill="#020001"/>
<path d="M55.93 95.7681C55.8361 95.7681 55.7466 95.7309 55.6804 95.6647L52.3574 92.3418C51.4624 92.2435 46.2804 91.6323 43.5395 90.3758C41.5372 89.4575 40.9413 87.6894 41.0395 86.454C41.1093 85.5787 41.5037 84.9376 42.069 84.7812C42.2691 84.7252 42.5318 84.6982 42.8723 84.6982C44.3821 84.6982 46.9411 85.2396 47.0495 85.2629C47.4424 85.3931 55.7604 88.206 56.5557 88.5451C57.391 88.9009 60.2461 93.7584 61.1018 95.2391C61.1651 95.3482 61.1651 95.4828 61.1018 95.592C61.0385 95.7011 60.9221 95.7681 60.7962 95.7681H55.93Z" fill="#B27709"/>
<path d="M42.8713 85.0515C44.3615 85.0515 46.975 85.6088 46.975 85.6088C46.975 85.6088 55.6241 88.5324 56.4165 88.87C57.2081 89.2076 60.7952 95.4155 60.7952 95.4155H55.929L52.518 92.0045C52.518 92.0045 46.6098 91.3955 43.6855 90.0552C40.762 88.715 41.0662 85.4262 42.1627 85.1213C42.3402 85.0726 42.5854 85.0515 42.8713 85.0515ZM42.8713 84.3457C42.4988 84.3457 42.2056 84.377 41.9742 84.441C41.2619 84.6389 40.7686 85.4 40.6871 86.4267C40.5794 87.7756 41.224 89.7031 43.3923 90.697C46.0735 91.9259 51.0125 92.5444 52.1949 92.679L55.4306 95.9147C55.563 96.0471 55.7427 96.1213 55.9297 96.1213H60.7959C61.0484 96.1213 61.2813 95.9867 61.4071 95.7684C61.533 95.5501 61.533 95.2809 61.4071 95.0626C59.7169 92.1376 57.5275 88.576 56.6937 88.2209C55.8861 87.8768 47.5557 85.0602 47.2013 84.9402C47.1751 84.9314 47.1489 84.9242 47.1228 84.9183C47.0129 84.895 44.4182 84.3457 42.8713 84.3457Z" fill="#020001"/>
<path d="M169.166 287.891C165.109 287.891 163.429 286.376 163.359 286.312C163.297 286.254 163.257 286.176 163.249 286.091L161.078 266.275C161.059 266.096 161.179 265.93 161.356 265.892L176.521 262.643C176.545 262.638 176.57 262.635 176.595 262.635C176.67 262.635 176.744 262.659 176.805 262.705C176.886 262.765 176.939 262.857 176.947 262.958L178.896 285.536C178.905 285.639 178.868 285.743 178.793 285.816C178.686 285.924 177.568 286.897 171.77 287.703C170.866 287.828 169.99 287.891 169.166 287.891Z" fill="#B27709"/>
<path d="M176.595 262.989L178.544 285.567C178.544 285.567 177.569 286.541 171.722 287.354C170.779 287.485 169.929 287.539 169.166 287.539C165.201 287.539 163.601 286.054 163.601 286.054L161.43 266.238L176.595 262.989ZM176.595 262.283C176.546 262.283 176.496 262.288 176.447 262.298L161.283 265.547C160.928 265.623 160.69 265.955 160.729 266.314L162.899 286.13C162.917 286.299 162.996 286.455 163.12 286.57C163.194 286.638 164.972 288.244 169.166 288.244C170.007 288.244 170.899 288.179 171.819 288.051C177.608 287.247 178.852 286.256 179.043 286.065C179.19 285.917 179.265 285.713 179.247 285.505L177.298 262.927C177.28 262.726 177.177 262.541 177.014 262.42C176.892 262.33 176.745 262.283 176.595 262.283Z" fill="#020001"/>
<path d="M132.164 292.063C127.892 292.063 125.813 290.794 125.727 290.74C125.63 290.679 125.568 290.575 125.561 290.462C125.04 281.725 124.222 268.517 124.106 267.932C124.086 267.829 124.113 267.721 124.179 267.64C124.246 267.558 124.346 267.51 124.452 267.51H139.394C139.572 267.51 139.722 267.643 139.744 267.819L142.506 289.747C142.526 289.913 142.43 290.069 142.273 290.124C138.629 291.41 135.228 292.063 132.164 292.063Z" fill="#B27709"/>
<path d="M139.394 267.863L142.157 289.79C138.014 291.252 134.695 291.709 132.164 291.709C127.945 291.709 125.914 290.44 125.914 290.44C125.914 290.44 124.615 268.675 124.452 267.863H139.394ZM139.394 267.157H124.452C124.24 267.157 124.04 267.251 123.906 267.415C123.772 267.579 123.718 267.793 123.76 268.001C123.881 268.722 124.693 281.841 125.209 290.482C125.223 290.71 125.346 290.917 125.54 291.038C125.63 291.094 127.792 292.414 132.163 292.414C135.267 292.414 138.708 291.755 142.391 290.455C142.704 290.345 142.898 290.031 142.857 289.702L140.094 267.774C140.05 267.422 139.75 267.157 139.394 267.157Z" fill="#020001"/>
<path d="M104.485 89.2221C104.366 89.2221 104.25 89.161 104.184 89.0533C98.7022 80.09 106.374 74.1156 106.453 74.0559C106.515 74.0094 106.589 73.9839 106.666 73.9839C106.678 73.9839 106.691 73.9846 106.703 73.9853C106.822 73.9977 109.619 74.3091 110.142 75.928C110.465 76.9307 109.84 78.1443 108.283 79.537C103.707 83.6268 104.818 88.7376 104.829 88.7892C104.868 88.958 104.779 89.1297 104.618 89.1952C104.575 89.2134 104.53 89.2221 104.485 89.2221Z" fill="#0C0C0C"/>
<path d="M106.666 74.3366C106.666 74.3366 112.845 74.9857 108.047 79.2742C103.25 83.5627 104.485 88.8691 104.485 88.8691C99.106 80.0738 106.666 74.3366 106.666 74.3366ZM106.666 73.6309C106.512 73.6309 106.362 73.6811 106.239 73.7742C106.158 73.8353 98.2358 80.004 103.883 89.2366C104.014 89.4519 104.246 89.5742 104.485 89.5742C104.575 89.5742 104.666 89.5574 104.752 89.5218C105.073 89.3908 105.251 89.0459 105.172 88.7083C105.127 88.5097 104.108 83.7409 108.517 79.8002C110.211 78.2854 110.853 76.9829 110.477 75.8195C109.894 74.0158 107.06 73.668 106.739 73.6345C106.715 73.6323 106.69 73.6309 106.666 73.6309Z" fill="#020001"/>
<path d="M127.908 277.28C121.99 277.28 118.845 274.811 118.715 274.706C118.651 274.656 118.608 274.584 118.59 274.504C118.533 274.238 112.891 247.491 112.08 220.635C111.269 193.778 115.397 166.248 115.44 165.973C115.457 165.858 115.53 165.759 115.634 165.709C117.032 165.025 149.983 148.981 158.995 148.981C160.113 148.981 160.844 149.224 161.23 149.721C164.594 154.062 175.628 197.481 176.096 199.327L180.814 266.873C180.82 266.961 180.793 267.049 180.738 267.118C180.685 267.184 175.381 273.749 166.579 274.2C166.088 274.226 165.612 274.237 165.149 274.237H165.147C157.332 274.237 153.691 270.885 153.539 270.741C153.485 270.69 153.448 270.623 153.434 270.549L143.276 216.267L144.494 271.374C144.497 271.47 144.459 271.563 144.39 271.63C144.241 271.78 140.627 275.314 132.097 276.884C130.673 277.148 129.263 277.28 127.908 277.28Z" fill="#BF1920"/>
<path d="M158.994 149.334C159.953 149.334 160.628 149.521 160.95 149.937C164.307 154.269 175.753 199.413 175.753 199.413L180.462 266.897C180.462 266.897 175.305 273.399 166.561 273.847C166.075 273.872 165.605 273.883 165.148 273.883C157.383 273.883 153.782 270.484 153.782 270.484L142.828 211.951L144.141 271.381C144.141 271.381 140.554 274.968 132.034 276.538C130.535 276.813 129.159 276.928 127.908 276.928C122.046 276.928 118.935 274.43 118.935 274.43C118.935 274.43 113.253 247.758 112.433 220.623C111.613 193.488 115.788 166.025 115.788 166.025C115.788 166.025 149.96 149.334 158.994 149.334ZM158.994 148.628C149.901 148.628 116.879 164.707 115.478 165.391C115.269 165.493 115.125 165.69 115.09 165.92C115.048 166.195 110.915 193.756 111.727 220.645C112.54 247.533 118.188 274.31 118.245 274.578C118.279 274.737 118.366 274.879 118.494 274.981C118.628 275.09 121.867 277.634 127.908 277.634C129.285 277.634 130.716 277.499 132.162 277.232C140.799 275.642 144.488 272.034 144.641 271.881C144.777 271.745 144.852 271.559 144.847 271.366L143.725 220.582L153.088 270.616C153.116 270.763 153.189 270.896 153.298 270.999C153.454 271.146 157.194 274.591 165.148 274.591C165.624 274.591 166.112 274.579 166.598 274.553C175.558 274.094 180.797 267.613 181.016 267.337C181.125 267.199 181.179 267.025 181.167 266.849L176.459 199.365C176.456 199.323 176.45 199.282 176.439 199.241C175.971 197.392 164.918 153.904 161.51 149.506C161.051 148.915 160.229 148.628 158.994 148.628Z" fill="#020001"/>
<path d="M68.28 140.867C66.8488 140.867 65.5158 140.3 64.3174 139.182C62.331 137.329 61.8392 134.373 62.8571 130.396C64.8944 122.436 72.3284 113.04 74.795 112.411C75.1071 112.332 75.4141 112.292 75.7066 112.292C78.6149 112.292 79.4029 116.062 79.4342 116.223C79.4807 116.687 80.4477 126.8 80.4004 128.761C80.3597 130.474 74.4435 140.867 68.28 140.867Z" fill="#020001"/>
<path d="M75.7066 112.645C78.3588 112.645 79.0885 116.292 79.0885 116.292C79.0885 116.292 80.0956 126.79 80.0483 128.752C80.009 130.369 74.1452 140.514 68.28 140.514C67.0205 140.514 65.7602 140.046 64.5582 138.924C57.7602 132.583 71.5527 113.602 74.8823 112.754C75.1755 112.679 75.4498 112.645 75.7066 112.645ZM75.7066 111.939C75.3843 111.939 75.0482 111.983 74.7076 112.07C71.9093 112.783 64.4629 122.697 62.5151 130.309C61.463 134.42 61.9883 137.493 64.0766 139.44C65.3419 140.621 66.7563 141.219 68.28 141.219C74.624 141.219 80.7111 130.531 80.754 128.77C80.8021 126.787 79.8329 116.655 79.7914 116.224L79.7812 116.153C79.7456 115.982 78.9008 111.939 75.7066 111.939Z" fill="#020001"/>
<path d="M45.1587 105.869C44.9644 105.869 44.7701 105.856 44.5751 105.83L44.2695 105.472L44.6719 87.9801L45.1638 87.6636C45.4417 87.7822 51.9916 90.6067 53.6404 93.2894C54.547 94.7657 53.6076 97.8319 52.2747 100.216C50.2941 103.755 47.634 105.869 45.1587 105.869Z" fill="#020001"/>
<path d="M45.0254 87.9884C45.0254 87.9884 51.7317 90.8566 53.3398 93.4745C54.8939 96.0037 50.2351 105.516 45.1593 105.516C44.981 105.516 44.802 105.504 44.623 105.48L45.0254 87.9884ZM45.3026 87.3394L44.3196 87.9724L43.918 105.464L44.5292 106.18C44.7365 106.208 44.949 106.222 45.16 106.222C47.7656 106.222 50.5406 104.042 52.5838 100.388C53.8658 98.0956 54.9907 94.8126 53.9422 93.1056C52.2345 90.3276 45.5849 87.4601 45.3026 87.3394Z" fill="#020001"/>
<path d="M44.6229 105.833C42.3098 105.833 40.498 101.836 40.498 96.7345C40.498 91.6325 42.3098 87.6357 44.6229 87.6357C46.9359 87.6357 48.7476 91.6325 48.7476 96.7345C48.7476 101.837 46.9359 105.833 44.6229 105.833Z" fill="#ADADAB"/>
<path d="M44.6222 87.989C46.7054 87.989 48.3941 91.9042 48.3941 96.7348C48.3941 101.565 46.7054 105.481 44.6222 105.481C42.5391 105.481 40.8503 101.565 40.8503 96.7348C40.8503 91.905 42.5391 87.989 44.6222 87.989ZM44.6222 87.2832C42.0698 87.2832 40.1445 91.3469 40.1445 96.7348C40.1445 102.123 42.0698 106.186 44.6222 106.186C47.1747 106.186 49.0999 102.123 49.0999 96.7348C49.0999 91.3469 47.1754 87.2832 44.6222 87.2832Z" fill="#020001"/>
<path d="M75.4179 137.876C74.8387 137.876 74.2145 137.739 73.5625 137.469C66.4524 134.525 63.3513 117.66 62.9613 115.37C56.685 113.715 54.0423 103.03 53.6617 101.339C50.258 100.316 49.0364 98.4623 48.6129 97.0741C48.1589 95.5854 48.4739 94.12 49.0014 93.4972C49.1993 93.2629 49.6184 93.0235 51.2235 93.0235C53.1248 93.0235 55.8497 93.3604 57.4235 93.5794L55.0435 91.5966C54.1332 91.3645 46.5931 89.3942 44.996 87.3278C43.9962 86.0341 44.0195 84.4952 44.4866 83.5442C44.8366 82.8312 45.4405 82.4048 46.1012 82.4048C46.3086 82.4048 46.5196 82.4455 46.7269 82.5263C47.5768 82.8566 50.6247 83.331 53.5723 83.7894C56.4216 84.2325 59.113 84.6516 60.1375 84.9776C61.7222 85.4818 65.0284 89.2727 68.2786 93.113C68.9386 93.893 69.4603 94.5085 69.7477 94.8163C71.2174 96.3908 72.9571 101.366 73.4235 103C73.9671 104.902 76.8047 114.281 77.0056 114.943L79.363 119.188C80.6982 122.649 81.23 132.118 78.5001 136.091C77.6866 137.275 76.649 137.875 75.4172 137.875C75.4186 137.876 75.4179 137.876 75.4179 137.876Z" fill="#B27709"/>
<path d="M46.1028 82.757C46.2622 82.757 46.4295 82.7883 46.6005 82.8553C48.3031 83.5174 57.9512 84.6525 60.0329 85.3146C62.1138 85.9767 68.1675 93.6384 69.4918 95.0572C70.816 96.4761 72.5186 101.111 73.0861 103.098C73.6537 105.084 76.6805 115.082 76.6805 115.082L79.0554 119.361C80.6874 123.601 81.0207 137.524 75.4174 137.524C74.8972 137.524 74.3238 137.403 73.6966 137.143C66.3238 134.09 63.2707 115.082 63.2707 115.082C56.568 113.576 53.9617 101.059 53.9617 101.059C47.7807 99.3072 48.4508 94.6934 49.2701 93.7257C49.4862 93.4711 50.2357 93.3772 51.223 93.3772C53.9865 93.3772 58.6133 94.1121 58.6133 94.1121L55.2081 91.2744C55.2081 91.2744 46.8843 89.1935 45.2763 87.1125C43.8305 85.2404 44.6789 82.757 46.1028 82.757ZM46.1028 82.0513C45.3047 82.0513 44.5829 82.5511 44.1718 83.3879C43.6566 84.4371 43.6253 86.1295 44.7182 87.5432C46.3502 89.6555 53.4822 91.5618 54.88 91.9191L56.261 93.0701C54.7046 92.8751 52.7161 92.6707 51.2237 92.6707C49.8136 92.6707 49.0919 92.8439 48.7317 93.2695C48.1445 93.9636 47.7851 95.5695 48.2755 97.1775C48.7157 98.6211 49.9599 100.537 53.3636 101.616C53.8824 103.822 56.5498 113.82 62.6515 115.649C63.1812 118.657 66.3434 134.861 73.4274 137.795C74.123 138.083 74.7924 138.228 75.4181 138.228C76.7555 138.228 77.9225 137.558 78.7935 136.289C81.5831 132.227 81.052 122.58 79.7146 119.105C79.703 119.075 79.6892 119.045 79.6732 119.017L77.3346 114.804C77.0596 113.896 74.2991 104.773 73.765 102.903C73.2921 101.248 71.5232 96.1981 70.0076 94.5748C69.7261 94.2729 69.2065 93.6588 68.5481 92.8817C65.2651 89.0035 61.9196 85.1727 60.2461 84.6408C59.1954 84.3068 56.4916 83.8856 53.6299 83.4403C50.8359 83.0052 47.6701 82.5126 46.8559 82.1961C46.6071 82.1 46.3539 82.0513 46.1028 82.0513Z" fill="#020001"/>
<path d="M91.1907 150.29C90.7446 150.29 90.2943 150.282 89.8395 150.265C74.0788 149.694 64.3929 139.268 64.2969 139.162L64.577 138.572C64.7851 138.584 64.9881 138.589 65.1875 138.589C68.9034 138.589 71.1589 136.572 75.2408 129.597C79.4711 122.368 78.7457 116.397 78.7384 116.337L79.4289 116.198C79.4653 116.33 83.2008 129.422 94.0349 129.422C94.0356 129.422 94.1877 129.421 94.1877 129.421C103.068 129.323 105.926 122.154 108.447 115.828C109.081 114.238 109.68 112.737 110.351 111.393C113.713 104.671 118.651 100.193 118.701 100.149L119.289 100.401C119.326 101.593 120.174 129.655 118.33 135.288C116.617 140.519 106.898 150.29 91.1907 150.29Z" fill="#FFFEFB"/>
<path d="M118.936 100.412C118.936 100.412 119.84 129.54 117.994 135.179C116.2 140.657 106.239 149.937 91.1907 149.937C90.749 149.937 90.3023 149.929 89.8526 149.912C74.0577 149.34 64.5581 138.924 64.5581 138.924C64.7727 138.936 64.9823 138.942 65.1882 138.942C69.0409 138.942 71.4172 136.83 75.5457 129.775C79.8953 122.342 79.0884 116.291 79.0884 116.291C79.0884 116.291 82.7977 129.775 94.0356 129.775C94.0865 129.775 94.1397 129.775 94.1906 129.774C105.549 129.649 107.296 118.291 110.666 111.551C114.036 104.811 118.936 100.412 118.936 100.412ZM118.464 99.8867C118.26 100.07 113.426 104.454 110.035 111.236C109.357 112.593 108.756 114.101 108.119 115.698C105.639 121.921 102.827 128.974 94.1833 129.069L94.0363 129.07C83.4759 129.07 79.8051 116.234 79.7694 116.104L78.3892 116.385C78.3964 116.443 79.0978 122.309 74.9367 129.419C70.9341 136.258 68.7476 138.236 65.1882 138.236C64.9946 138.236 64.7982 138.23 64.5966 138.219L64.0371 139.399C64.4329 139.834 73.9195 150.041 89.8279 150.617C90.2819 150.634 90.7403 150.642 91.1914 150.642C107.08 150.642 116.925 140.713 118.665 135.398C120.528 129.706 119.679 101.584 119.642 100.39L118.464 99.8867Z" fill="#020001"/>
<path d="M56.6426 93.4043C56.6426 93.4043 63.565 94.8159 64.9962 95.1018C66.4267 95.3878 68.9449 96.6472 70.7763 99.7941" stroke="#020001" stroke-width="0.9702" stroke-miterlimit="10" stroke-linecap="round" stroke-linejoin="round"/>
<path d="M53.3594 101.211L61.3347 102.713C61.3347 102.713 62.0215 113.243 67.6299 113.7" stroke="#020001" stroke-width="0.9702" stroke-miterlimit="10" stroke-linecap="round" stroke-linejoin="round"/>
<path d="M166.807 81.3761C160.248 81.3761 155.696 76.8926 154.928 69.6762C153.361 54.9575 143.596 26.6587 142.88 24.5959C142.141 24.1106 138.463 21.238 140.425 13.3304C141.976 7.08024 148.194 0.353516 158.183 0.353516C160.789 0.353516 163.505 0.825006 166.255 1.75416C180.479 6.56218 182.338 17.5476 183.185 30.3455C183.741 38.7479 179.541 45.5408 176.168 50.9986C173.969 54.5544 172.072 57.6249 172.389 59.9263C172.586 61.3531 173.319 62.1069 174.51 62.1069C176.018 62.1069 177.957 60.9297 179.225 59.2438C179.877 58.378 180.887 56.6397 180.335 54.7268C180.103 53.9221 180.128 53.3233 180.411 52.9478C180.59 52.7106 180.866 52.5797 181.189 52.5797C182.177 52.5797 183.493 53.7118 184.464 55.397C185.615 57.3928 187.792 62.8928 183.186 70.8426C179.478 77.2404 173.049 81.3761 166.807 81.3761Z" fill="#0C0C0C"/>
<path d="M158.183 0.705779C160.65 0.705779 163.314 1.13216 166.141 2.08823C179.62 6.6445 181.906 16.3886 182.831 30.3688C183.757 44.3491 171.215 54.0117 172.038 59.9744C172.282 61.7396 173.273 62.4599 174.508 62.4599C177.445 62.4599 181.758 58.3919 180.672 54.6294C180.339 53.4733 180.621 52.9327 181.188 52.9327C183.242 52.9327 189.041 60.0312 182.88 70.6659C178.963 77.4261 172.504 81.0248 166.806 81.0248C161.069 81.0248 156.103 77.3781 155.279 69.64C153.638 54.2183 143.172 24.3639 143.172 24.3639C143.172 24.3639 138.679 21.8326 140.767 13.4163C142.416 6.76456 148.889 0.706507 158.183 0.705779ZM158.184 0H158.183C148.004 0.000727607 141.665 6.86642 140.082 13.2454C138.148 21.0395 141.604 24.1238 142.584 24.8208C143.547 27.6003 153.038 55.2508 154.578 69.7142C155.367 77.1256 160.053 81.7299 166.807 81.7299C173.173 81.7299 179.722 77.5258 183.492 71.0195C188.19 62.9103 185.951 57.2699 184.77 55.221C183.737 53.4296 182.298 52.2269 181.188 52.2269C180.751 52.2269 180.375 52.4073 180.127 52.7355C179.775 53.2048 179.73 53.9076 179.994 54.8252C180.504 56.5911 179.553 58.2187 178.941 59.0322C177.755 60.6096 175.89 61.7549 174.508 61.7549C173.49 61.7549 172.911 61.1415 172.737 59.8791C172.437 57.7036 174.304 54.6833 176.467 51.1857C179.868 45.685 184.099 38.8389 183.536 30.3237C182.681 17.3963 180.798 6.29889 166.368 1.42102C163.581 0.477311 160.828 0 158.184 0Z" fill="#020001"/>
<path d="M180.675 54.6282C182.216 59.9739 172.862 65.9359 172.04 59.9739C171.783 58.1069 172.835 55.8768 174.375 53.2654C170.725 54.0061 166.699 52.927 166.222 49.5859C164.104 35.4681 158.457 24.1735 154.221 12.1738C152.361 8.45354 153.566 3.50872 156.621 0.768555C148.169 1.40448 142.325 7.14457 140.768 13.4158C138.68 21.832 143.173 24.3634 143.173 24.3634C143.173 24.3634 153.639 54.2185 155.28 69.6394C156.922 85.0611 175.02 84.2345 182.882 70.6654C190.743 57.0962 179.133 49.2832 180.675 54.6282Z" fill="#020001"/>
<path d="M152.125 36.0415C152.088 36.0415 152.05 36.0357 152.016 36.024C151.429 35.8312 137.682 31.24 139.058 25.919C139.069 25.8768 139.087 25.8368 139.113 25.8012C139.15 25.7495 140.061 24.5148 143.316 22.663C143.362 22.6375 143.414 22.6215 143.467 22.6179C143.467 22.6179 143.516 22.6143 143.612 22.6143C144.27 22.6143 147.745 22.8114 151.528 26.7107C155.723 31.0341 155.294 33.444 155.274 33.5444C155.258 33.6259 155.212 33.6993 155.146 33.7517L152.344 35.9666C152.281 36.016 152.203 36.0415 152.125 36.0415Z" fill="#BF1920"/>
<path d="M143.611 22.967C144.277 22.967 147.598 23.1686 151.273 26.9565C155.386 31.1962 154.926 33.4744 154.926 33.4744L152.123 35.6892C152.123 35.6892 138.088 31.0696 139.397 26.0077C139.397 26.0077 140.262 24.8057 143.489 22.9706C143.489 22.9706 143.532 22.967 143.611 22.967ZM143.611 22.2612C143.5 22.2612 143.441 22.2656 143.441 22.2656C143.337 22.2736 143.23 22.3049 143.14 22.3565C139.873 24.2141 138.921 25.4591 138.823 25.5951C138.772 25.6664 138.734 25.7465 138.713 25.8309C137.28 31.3738 150.401 35.866 151.902 36.3593C151.974 36.3833 152.049 36.395 152.122 36.395C152.279 36.395 152.434 36.3426 152.56 36.2429L155.363 34.0281C155.494 33.9248 155.584 33.7778 155.617 33.6141C155.672 33.3434 156.027 30.8455 151.778 26.4653C147.898 22.4642 144.294 22.2612 143.611 22.2612Z" fill="#020001"/>
<path d="M101.71 71.7635C100.014 71.7635 98.3615 71.2353 96.7993 70.1948C95.0167 69.0066 93.6524 66.1864 93.0558 62.4567C91.9819 55.7423 93.3483 44.5649 100.734 35.1576C107.339 26.7458 117.988 21.3105 127.864 21.3105C134.481 21.3105 140.085 23.7349 144.075 28.3239C145.267 28.7169 156.515 32.7318 159.964 45.195C162.685 55.0373 161.022 62.7667 158.557 66.7183C157.31 68.717 155.779 69.938 154.129 70.2479C152.605 70.5346 147.667 70.6801 139.453 70.6801C126.086 70.6801 108.197 70.293 106.557 70.2566C106.105 70.5775 104.261 71.7635 101.71 71.7635Z" fill="#0C0C0C"/>
<path d="M127.863 21.6633C133.954 21.6626 139.696 23.7814 143.872 28.6294C143.872 28.6294 156.009 32.2252 159.622 45.2887C163.235 58.3514 159.158 68.9432 154.063 69.9007C152.365 70.2201 146.507 70.3264 139.453 70.3264C125.343 70.3264 106.443 69.9007 106.443 69.9007C106.443 69.9007 104.508 71.4105 101.708 71.4105C100.308 71.4105 98.6921 71.0336 96.9939 69.9007C91.8985 66.5042 90.3901 48.9013 101.011 35.375C107.539 27.06 118.144 21.664 127.863 21.6633ZM127.865 20.9575H127.863C117.883 20.9582 107.124 26.4466 100.455 34.9399C93.0066 44.4257 91.5681 55.4024 92.7054 62.5126C93.3268 66.3951 94.7099 69.2284 96.6017 70.4886C98.2221 71.5691 99.94 72.117 101.708 72.117C104.199 72.117 106.05 71.0263 106.662 70.6123C108.882 70.6611 126.34 71.0329 139.453 71.0329C147.804 71.0329 152.626 70.8895 154.193 70.5948C155.943 70.266 157.555 68.9897 158.856 66.9044C161.359 62.8888 163.055 55.0524 160.302 45.1002C156.888 32.7557 145.917 28.5792 144.277 28.0197C140.221 23.3979 134.551 20.9575 127.865 20.9575Z" fill="#020001"/>
<path d="M134.185 105.728C133.041 105.728 131.858 105.546 130.67 105.186C127.757 104.304 125.889 102.849 125.119 100.862C123.943 97.8315 125.764 94.7181 125.842 94.5871C125.866 94.5471 125.896 94.5129 125.933 94.4852L129.759 91.6163V85.1821C129.759 85.0271 129.86 84.8903 130.008 84.8452L143.477 80.6862C143.511 80.6753 143.547 80.6709 143.582 80.6709C143.649 80.6709 143.716 80.6898 143.774 80.7277C143.861 80.7844 143.919 80.8768 143.932 80.9809L144.998 89.6117C145.281 90.1043 146.874 93.0584 146.157 96.0088C145.548 98.4987 141.425 105.728 134.185 105.728Z" fill="#B27709"/>
<path d="M143.582 81.0232L144.656 89.7268C144.656 89.7268 146.556 92.8672 145.813 95.9246C145.169 98.573 141.115 105.376 134.186 105.376C133.117 105.376 131.978 105.214 130.774 104.849C121.767 102.122 126.146 94.7684 126.146 94.7684L130.113 91.7939V85.1829L143.582 81.0232ZM143.582 80.3174C143.512 80.3174 143.442 80.3276 143.374 80.3487L129.905 84.5077C129.609 84.5993 129.407 84.8729 129.407 85.1822V91.4396L125.724 94.2023C125.65 94.2576 125.588 94.3267 125.54 94.406C125.459 94.5428 123.555 97.8003 124.792 100.989C125.604 103.083 127.548 104.609 130.569 105.524C131.791 105.893 133.008 106.081 134.186 106.081C141.727 106.081 145.85 98.7586 146.499 96.0912C147.22 93.1254 145.715 90.1706 145.339 89.4983L144.283 80.9366C144.257 80.7292 144.141 80.5437 143.965 80.4302C143.85 80.3552 143.717 80.3174 143.582 80.3174Z" fill="#020001"/>
<path d="M139.399 50.2921C126.386 47.5526 113.375 38.8315 114.547 24.7749C109.359 27.1716 104.576 30.8359 101.011 35.3769C90.3897 48.9031 91.898 66.5061 96.9935 69.9025C102.089 73.299 106.443 69.9025 106.443 69.9025C106.443 69.9025 148.967 70.8601 154.063 69.9025C159.127 68.9508 163.181 58.482 159.683 45.5292C154.26 49.8148 146.955 51.5508 139.399 50.2921Z" fill="#020001"/>
<path d="M130.116 91.6048C130.754 91.5218 131.393 91.428 132.031 91.3166C136.611 90.5184 140.793 89.1709 144.345 87.1809L143.585 81.0225L130.115 85.1815V91.6048H130.116Z" fill="#020001"/>
<path d="M130.054 171.109C124.506 171.109 119.631 169.491 115.567 166.302C115.472 166.227 115.422 166.11 115.433 165.99C116.79 151.937 121.268 106.017 121.897 105.165C122.331 104.579 125.008 97.6139 126.702 93.0751C126.753 92.9383 126.883 92.8467 127.029 92.8459C127.03 92.8459 127.031 92.8459 127.033 92.8459C127.177 92.8459 127.307 92.934 127.361 93.0679L132.35 105.576L146.558 91.7269C146.626 91.6614 146.714 91.6265 146.805 91.6265C146.848 91.6265 146.891 91.6345 146.933 91.6505C147.063 91.7007 147.15 91.8222 147.157 91.9612L150.91 164.528C150.917 164.655 150.855 164.775 150.748 164.843C150.652 164.907 140.841 171.109 130.054 171.109Z" fill="#BF1920"/>
<path d="M146.807 91.9802L150.56 164.547C150.56 164.547 140.863 170.756 130.055 170.756C125.268 170.756 120.263 169.539 115.786 166.024C115.786 166.024 121.562 106.214 122.183 105.375C122.803 104.537 127.035 93.1989 127.035 93.1989L132.22 106.198L146.807 91.9802ZM146.807 91.2744C146.626 91.2744 146.448 91.3443 146.314 91.4752L132.484 104.956L127.691 92.9385C127.584 92.67 127.324 92.4939 127.035 92.4939C127.032 92.4939 127.03 92.4939 127.027 92.4939C126.735 92.4968 126.476 92.6794 126.374 92.953C124.769 97.251 122.058 104.311 121.612 104.96C121.403 105.244 121.112 105.637 118.049 135.944C116.545 150.831 115.098 165.808 115.083 165.957C115.06 166.197 115.161 166.432 115.35 166.58C119.478 169.82 124.426 171.462 130.055 171.462C140.945 171.462 150.537 165.4 150.941 165.142C151.154 165.006 151.278 164.765 151.265 164.512L147.512 91.9445C147.498 91.6681 147.323 91.425 147.065 91.3239C146.981 91.2904 146.894 91.2744 146.807 91.2744Z" fill="#020001"/>
<path d="M125.509 87.0568C114.895 87.0568 107.113 83.1248 105.681 77.0406C103.94 69.6437 108.211 64.2129 109.039 63.2481C106.855 55.2495 109.063 45.6647 109.086 45.5687C110.789 38.5931 119.277 28.2764 132.085 28.2764C134.082 28.2764 136.131 28.5325 138.175 29.0374C154.24 33.0051 159.062 53.0667 157.263 65.3763C155.614 76.66 147.272 83.9259 133.138 86.3889C130.592 86.832 128.026 87.0575 125.509 87.0575L125.509 87.0568Z" fill="#B27709"/>
<path d="M132.085 28.6291C133.995 28.6291 136.002 28.8641 138.09 29.38C153.793 33.2582 158.711 53.0279 156.914 65.3252C155.117 77.6225 145.564 83.8654 133.077 86.0409C130.53 86.4848 127.977 86.7038 125.507 86.7038C115.87 86.7038 107.529 83.3597 106.024 76.9597C104.132 68.9189 109.429 63.3381 109.429 63.3381C107.159 55.2981 109.429 45.6493 109.429 45.6493C111.151 38.5966 119.627 28.6291 132.085 28.6291ZM132.085 27.9233C119.087 27.9233 110.473 38.4009 108.743 45.4819C108.648 45.8829 106.522 55.1191 108.648 63.157C107.545 64.4659 103.609 69.7796 105.336 77.1212C106.807 83.3706 114.725 87.4095 125.507 87.4095C128.045 87.4095 130.633 87.1833 133.198 86.7358C147.497 84.2445 155.939 76.876 157.612 65.4271C159.43 52.9901 154.536 32.7146 138.259 28.6946C136.188 28.1824 134.11 27.9233 132.085 27.9233Z" fill="#020001"/>
<path d="M148.858 78.7923C148.834 78.7923 148.81 78.7901 148.785 78.785C148.737 78.7748 143.962 77.6972 143.584 70.9683C143.207 64.2489 149.606 61.7997 149.672 61.7757C149.711 61.7612 149.752 61.7539 149.794 61.7539C149.81 61.7539 149.825 61.7546 149.84 61.7568L152.306 62.0872C152.411 62.1017 152.503 62.1621 152.559 62.2523C152.615 62.3425 152.627 62.4531 152.592 62.5535L152.212 63.6493C152.173 63.7621 152.08 63.8472 151.964 63.8763C151.948 63.8807 150.008 64.4533 147.927 68.7528C145.838 73.0696 149.121 78.1971 149.154 78.248C149.232 78.3681 149.23 78.5223 149.15 78.6402C149.082 78.7362 148.973 78.7923 148.858 78.7923Z" fill="#0C0C0C"/>
<path d="M149.794 62.1069L152.259 62.4372L151.878 63.533C151.878 63.533 149.813 64.0445 147.609 68.5979C145.406 73.152 148.858 78.4402 148.858 78.4402C148.858 78.4402 144.305 77.4856 143.937 70.9488C143.57 64.4112 149.794 62.1069 149.794 62.1069ZM149.794 61.4004C149.71 61.4004 149.627 61.4149 149.549 61.444C149.482 61.4688 142.84 64.0103 143.231 70.9873C143.624 77.984 148.504 79.087 148.713 79.13C148.761 79.1402 148.809 79.1453 148.857 79.1453C149.087 79.1453 149.307 79.0325 149.44 78.8375C149.601 78.6017 149.605 78.2925 149.448 78.0531C149.416 78.0044 146.244 73.037 148.244 68.9042C150.228 64.8027 152.046 64.2184 152.063 64.2126C152.281 64.1478 152.47 63.9776 152.544 63.7629L152.925 62.6672C152.995 62.4671 152.97 62.2459 152.859 62.0654C152.748 61.885 152.562 61.7642 152.351 61.7358L149.887 61.4055C149.856 61.4026 149.825 61.4004 149.794 61.4004Z" fill="#020001"/>
<path d="M152.125 62.7796C152.125 62.7796 148.596 62.5205 142.203 57.4171C135.811 52.3137 135.162 37.5986 135.162 37.5986C132.846 42.9719 127.102 46.1217 114.409 48.5308C101.717 50.9399 100.698 57.8879 101.069 61.5012C101.439 65.1144 105.145 65.022 105.145 65.022C105.145 65.022 102.978 67.8211 99.9308 65.7969C96.8828 63.7727 97.1215 49.4367 101.01 43.4536C104.898 37.4705 118.047 23.0217 133.711 25.7313C149.374 28.4402 155.664 39.1345 158.239 48.7593C160.814 58.3841 152.125 62.7796 152.125 62.7796Z" fill="#0C0C0C"/>
<path d="M139.401 50.2914C138.76 50.1561 138.12 50.0026 137.48 49.8389C138.526 52.8388 140.034 55.6837 142.206 57.4176C148.599 62.521 152.128 62.7801 152.128 62.7801C152.128 62.7801 160.816 58.3846 158.241 48.7598C158.078 48.1508 157.901 47.5382 157.706 46.9233C152.548 50.1757 146.073 51.4032 139.401 50.2914Z" fill="#020001"/>
<path d="M114.411 48.5311C119.402 47.5838 123.313 46.5215 126.37 45.2555C120.533 41.7164 116.028 36.6362 114.808 30.106C108.141 34.2584 103.16 40.1477 101.011 43.4539C97.1232 49.437 96.8852 63.773 99.9324 65.7972C102.98 67.8222 105.146 65.0223 105.146 65.0223C105.146 65.0223 101.441 65.1147 101.07 61.5015C100.699 57.8882 101.719 50.9402 114.411 48.5311Z" fill="#020001"/>
<path d="M105.145 65.0226C105.145 65.0226 101.439 65.115 101.069 61.5017C100.699 57.8884 101.717 50.9405 114.41 48.5314C127.102 46.1223 132.846 42.9725 135.162 37.5991C135.162 37.5991 135.811 52.3142 142.203 57.4177C148.596 62.5211 152.125 62.7801 152.125 62.7801" stroke="#020001" stroke-width="0.9702" stroke-miterlimit="10" stroke-linecap="round" stroke-linejoin="round"/>
<path d="M151.574 64.7201C151.574 64.7201 152.653 58.8214 156.55 57.6659C160.447 56.5105 163.1 59.4129 163.183 65.4659C163.266 71.5188 157.876 76.826 153.316 73.0948" fill="#B27709"/>
<path d="M151.574 64.7201C151.574 64.7201 152.653 58.8214 156.55 57.6659C160.447 56.5105 163.1 59.4129 163.183 65.4659C163.266 71.5188 157.876 76.826 153.316 73.0948" stroke="#020001" stroke-width="0.9702" stroke-miterlimit="10" stroke-linecap="round" stroke-linejoin="round"/>
<path d="M160.949 63.6158C160.949 63.6158 160.89 61.0183 158.293 60.8997C155.695 60.7818 154.928 66.8042 154.928 66.8042C154.928 66.8042 156.522 65.9187 157.939 66.8042C159.355 67.6897 157.466 70.8191 155.281 69.6382" stroke="#020001" stroke-width="0.9702" stroke-miterlimit="10" stroke-linecap="round" stroke-linejoin="round"/>
<path d="M122.485 222.356C122.001 222.334 110.63 221.803 107.995 218.905C105.264 215.9 113.276 142.627 114.719 137.723C115.302 135.741 114.391 132.108 113.427 128.263C112.327 123.876 111.08 118.904 111.628 114.933C112.702 107.149 118.022 100.273 121.123 97.7682C124.394 95.1263 129.788 88.7066 129.843 88.6426L130.454 88.9613C130.364 89.2938 121.428 122.516 120.414 147.846C119.4 173.198 122.817 221.493 122.852 221.978L122.485 222.356Z" fill="#FFFEFB"/>
<path d="M130.113 88.8691C130.113 88.8691 121.088 122.168 120.062 147.833C119.035 173.498 122.5 222.004 122.5 222.004C122.5 222.004 110.823 221.491 108.256 218.668C105.69 215.844 113.775 142.187 115.057 137.824C116.341 133.461 110.951 122.425 111.977 114.982C113.004 107.539 118.009 100.738 121.345 98.0434C124.681 95.3477 130.113 88.8691 130.113 88.8691ZM129.572 88.415C129.519 88.4791 124.146 94.8725 120.901 97.4934C117.758 100.032 112.366 106.999 111.278 114.885C110.721 118.924 111.977 123.931 113.084 128.348C114.037 132.146 114.936 135.733 114.38 137.623C113.687 139.98 111.32 159.969 109.51 178.754C105.822 217.038 107.26 218.621 107.733 219.141C110.42 222.097 121.243 222.654 122.469 222.708L123.204 221.953C123.169 221.468 119.753 173.191 120.767 147.86C121.778 122.57 130.705 89.3849 130.794 89.0524L129.572 88.415Z" fill="#020001"/>
<path d="M132.357 109.219C132.233 109.219 132.116 109.197 132.009 109.155C129.682 108.224 126.993 99.0908 126.694 98.0525C126.651 97.8845 125.737 94.1838 127.027 92.5278C127.442 91.9952 128.027 91.7245 128.766 91.7245C128.904 91.7245 129.05 91.734 129.205 91.7544C129.349 91.7733 129.466 91.8781 129.501 92.0199C130.732 96.9946 132.325 102.378 132.942 103.091C133.69 102.683 136.828 98.412 139.133 95.2723C141.304 92.3168 143.355 89.525 144.308 88.6147C144.625 88.3128 144.89 88.1724 145.142 88.1724C145.339 88.1724 145.517 88.2619 145.641 88.4241C146.353 89.3525 145.248 93.7444 144.893 95.0679C144.882 95.1064 144.866 95.1436 144.843 95.1763C143.85 96.6133 135.071 109.219 132.357 109.219Z" fill="#BF1920"/>
<path d="M145.142 88.5236C146.284 88.5236 144.551 94.9753 144.551 94.9753C144.551 94.9753 134.964 108.866 132.357 108.866C132.278 108.866 132.206 108.853 132.14 108.827C129.905 107.933 127.033 97.9534 127.033 97.9534C127.033 97.9534 125.549 92.0766 128.766 92.0766C128.889 92.0766 129.02 92.0853 129.159 92.1035C129.159 92.1035 131.876 103.096 132.844 103.459C132.857 103.464 132.872 103.466 132.889 103.466C134.047 103.466 142.376 90.9444 144.552 88.8685C144.801 88.6299 144.995 88.5236 145.142 88.5236ZM145.142 87.8179C144.683 87.8179 144.307 88.1264 144.064 88.3585C143.087 89.2905 141.027 92.0947 138.847 95.0641C136.812 97.8348 134.106 101.519 133.025 102.547C132.328 101.152 130.929 96.3258 129.843 91.9347C129.773 91.6523 129.538 91.4421 129.25 91.4042C129.084 91.3824 128.921 91.3715 128.766 91.3715C127.924 91.3715 127.227 91.6967 126.748 92.3108C125.376 94.0716 126.245 97.7177 126.349 98.1273C126.85 99.8714 129.446 108.51 131.877 109.483C132.025 109.543 132.187 109.573 132.356 109.573C135.119 109.573 142.832 98.7065 145.131 95.377C145.177 95.3108 145.211 95.2373 145.231 95.1594C145.944 92.508 146.641 89.1508 145.919 88.2093C145.728 87.9568 145.451 87.8179 145.142 87.8179Z" fill="#020001"/>
<path d="M130.113 88.8693C130.113 88.8693 117.778 94.7338 114.26 98.9561L122.187 100.803C122.187 100.803 113.996 118.657 114.26 120.152C114.524 121.647 120.264 144.094 120.264 144.094C120.264 144.094 122.836 115.139 130.114 88.4888" fill="#FFFEFB"/>
<path d="M130.113 88.8693C130.113 88.8693 117.778 94.7338 114.26 98.9561L122.187 100.803C122.187 100.803 113.996 118.657 114.26 120.152C114.524 121.647 120.264 144.094 120.264 144.094C120.264 144.094 122.836 115.139 130.114 88.4888" stroke="#020001" stroke-width="0.9702" stroke-miterlimit="10" stroke-linecap="round" stroke-linejoin="bevel"/>
<path d="M165.616 224.845C159.684 224.845 154.573 224 150.428 222.331L150.214 222.073C150.086 221.438 137.491 158.233 137.728 136.181C137.965 114.131 143.878 86.9013 143.937 86.6292L144.417 86.3789C145.248 86.7231 164.799 94.8483 166.873 98.8384C168.005 101.015 168.464 114.44 168.95 128.653C169.34 140.076 169.745 151.889 170.513 155.361C170.892 157.072 171.883 160.761 173.138 165.431C177.394 181.267 185.314 210.743 185.129 222.011L184.87 222.345C184.779 222.369 175.684 224.845 165.616 224.845Z" fill="#FFFEFB"/>
<path d="M144.283 86.7049C144.283 86.7049 164.521 95.0789 166.561 99.0007C168.6 102.923 168.493 147.869 170.17 155.437C171.846 163.005 185.016 207.489 184.777 222.004C184.777 222.004 175.753 224.493 165.616 224.493C160.547 224.493 155.2 223.871 150.561 222.004C150.561 222.004 137.843 158.455 138.082 136.185C138.322 113.915 144.283 86.7049 144.283 86.7049ZM144.553 86.0522L143.593 86.5536C143.533 86.8264 137.614 114.091 137.376 136.178C137.139 158.266 149.741 221.507 149.869 222.143L150.297 222.66C154.485 224.345 159.639 225.2 165.616 225.2C175.732 225.2 184.874 222.711 184.965 222.685L185.483 222.016C185.67 210.699 177.74 181.191 173.48 165.339C172.227 160.673 171.236 156.988 170.859 155.285C170.096 151.844 169.693 140.046 169.303 128.638C168.73 111.897 168.274 100.767 167.186 98.6755C165.089 94.6409 146.648 86.9196 144.553 86.0522Z" fill="#020001"/>
<path d="M171.104 159.165C170.677 157.538 170.355 156.266 170.172 155.436C169.462 152.233 169.072 142.337 168.704 131.688L158.649 120.521C158.649 120.521 157.506 150.785 165.588 158.294C167.593 160.156 169.449 160.18 171.104 159.165Z" fill="#020001"/>
<path d="M144.283 86.7041C144.283 86.7041 155.959 93.8135 157.265 95.8734C158.572 97.9339 148.087 97.9339 148.087 97.9339C148.087 97.9339 154.108 113.875 154.108 116.291C154.108 118.708 138.337 143.46 138.337 143.46C138.337 143.46 136.155 126.747 144.283 86.7041ZM144.283 85.9976C144.187 85.9976 144.091 86.0172 144 86.0565C143.789 86.1482 143.637 86.3373 143.591 86.5629C135.533 126.262 137.614 143.382 137.636 143.551C137.675 143.845 137.893 144.084 138.183 144.149C138.233 144.16 138.285 144.165 138.336 144.165C138.574 144.165 138.8 144.045 138.931 143.839C141.583 139.677 154.813 118.787 154.813 116.291C154.813 114.083 150.477 102.308 149.102 98.6303C152.081 98.5801 157.119 98.2723 157.933 96.7923C158.158 96.3834 158.133 95.9228 157.861 95.495C156.506 93.3573 145.859 86.8372 144.65 86.1002C144.537 86.0325 144.41 85.9976 144.283 85.9976Z" fill="#020001"/>
<path d="M175.929 177.286L177.257 182.42L155.105 186.371C155.105 186.371 153.645 182.306 153.958 180.326L175.929 177.286ZM175.93 176.581C175.898 176.581 175.865 176.583 175.833 176.587L153.861 179.626C153.553 179.669 153.309 179.909 153.261 180.216C152.93 182.314 154.285 186.176 154.44 186.61C154.542 186.894 154.811 187.077 155.105 187.077C155.145 187.077 155.188 187.073 155.229 187.066L177.382 183.115C177.575 183.08 177.746 182.967 177.852 182.802C177.958 182.636 177.99 182.434 177.941 182.244L176.613 177.11C176.532 176.794 176.247 176.581 175.93 176.581Z" fill="#020001"/>
<path d="M155.664 186.271L157.378 196.689" stroke="#020001" stroke-width="0.9702" stroke-miterlimit="10" stroke-linecap="round" stroke-linejoin="round"/>
<path d="M176.041 182.637C176.326 182.586 178.141 194.084 178.141 194.084" stroke="#020001" stroke-width="0.9702" stroke-miterlimit="10" stroke-linecap="round" stroke-linejoin="round"/>
<path d="M171.734 101.379C177.128 107.278 180.75 123.743 178.739 132.01C176.728 140.276 172.26 144.298 169.246 145.186C166.232 146.074 161.089 143.963 159.115 131.368C157.141 118.773 158.237 102.708 158.237 102.708C158.237 102.708 161.87 109.109 168.093 115.082C174.315 121.055 177.175 117.934 177.175 117.934C175.388 122.738 173.713 134.244 173.954 134.58" fill="#FFFEFB"/>
<path d="M171.734 101.379C177.128 107.278 180.75 123.743 178.739 132.01C176.728 140.276 172.26 144.298 169.246 145.186C166.232 146.074 161.089 143.963 159.115 131.368C157.141 118.773 158.237 102.708 158.237 102.708C158.237 102.708 161.87 109.109 168.093 115.082C174.315 121.055 177.175 117.934 177.175 117.934C175.388 122.738 173.713 134.244 173.954 134.58" stroke="#020001" stroke-width="0.9702" stroke-miterlimit="10" stroke-linecap="round" stroke-linejoin="bevel"/>
<path d="M174.503 119.01C166.707 119.008 158.532 103.406 158.188 102.742L158.24 102.342C158.371 102.198 161.5 98.8091 165.375 98.8091C168.02 98.8091 170.327 100.38 172.233 103.477C178.047 112.922 177.55 117.774 177.525 117.976L177.35 118.241C176.459 118.751 175.502 119.011 174.505 119.011L174.503 119.01Z" fill="#020001"/>
<path d="M165.375 99.1613C167.5 99.1613 169.833 100.252 171.932 103.662C177.748 113.112 177.174 117.934 177.174 117.934C176.302 118.433 175.407 118.657 174.502 118.657C166.831 118.657 158.5 102.579 158.5 102.579C158.5 102.579 161.611 99.1613 165.375 99.1613ZM165.375 98.4556C161.345 98.4556 158.114 101.955 157.978 102.104L157.873 102.903C158.222 103.576 166.494 119.363 174.502 119.363C175.563 119.363 176.579 119.088 177.525 118.546L177.875 118.017C177.9 117.81 178.41 112.84 172.533 103.291C170.559 100.083 168.15 98.4556 165.375 98.4556Z" fill="#020001"/>
<path d="M131.869 52.6851C131.968 52.72 134.557 52.5788 135.552 50.9512" stroke="#020001" stroke-width="0.9702" stroke-miterlimit="10" stroke-linecap="round" stroke-linejoin="round"/>
<path d="M133.592 53.5948C133.635 53.6276 136.154 54.2133 137.39 53.4238" stroke="#020001" stroke-width="0.9702" stroke-miterlimit="10" stroke-linecap="round" stroke-linejoin="round"/>
<path d="M134.672 54.6191C134.717 54.6766 136.185 56.0154 138.235 55.5628" stroke="#020001" stroke-width="0.9702" stroke-miterlimit="10" stroke-linecap="round" stroke-linejoin="round"/>
<path d="M173.694 118.59C173.661 118.59 173.625 118.585 173.593 118.576C165.983 116.359 158.646 103.462 158.337 102.914C158.306 102.858 158.29 102.795 158.291 102.731C158.294 102.638 158.565 93.4718 158.919 88.5357C159.293 83.3115 161.741 74.057 164.724 71.4464C166.155 70.1942 167.088 68.1307 167.911 66.3095C168.744 64.4665 169.463 62.8744 170.557 62.3775C170.89 62.2262 171.226 62.1497 171.559 62.1497C172.705 62.1497 173.529 63.0374 173.955 63.6377C174.105 63.3292 174.259 62.9588 174.419 62.5754C175.152 60.8168 176.064 58.6281 177.941 58.5787C177.944 58.5787 178.011 58.5779 178.014 58.5779C179.456 58.5779 180.211 59.6672 180.597 60.6283C180.946 59.606 181.654 58.3909 183.065 58.2345C183.177 58.2221 183.285 58.2163 183.388 58.2163C184.908 58.2163 185.643 59.4925 185.897 60.429C186.065 60.3875 186.239 60.3664 186.415 60.3664C187.657 60.3664 188.989 61.3829 189.133 63.3248C189.291 65.4676 187.096 70.2975 186.78 70.98C186.788 71.9826 186.774 80.7117 183.989 83.9809C182.49 85.7417 179.325 88.9606 176.534 91.8005C174.302 94.0713 171.994 96.4186 171.806 96.7584C171.688 97.3288 172.49 103.987 173.076 108.849C174.202 118.202 174.157 118.253 173.965 118.467C173.898 118.543 173.795 118.589 173.694 118.589L173.694 118.59Z" fill="#B27709"/>
<path d="M183.389 58.5686C185.314 58.5686 185.637 60.8984 185.637 60.8984C185.875 60.7783 186.142 60.7186 186.416 60.7186C187.475 60.7186 188.653 61.6092 188.782 63.3504C188.945 65.5434 186.427 70.903 186.427 70.903C186.427 70.903 186.562 80.4164 183.722 83.7518C180.88 87.0871 171.863 95.857 171.493 96.5984C171.123 97.3376 174.034 118.237 173.695 118.237H173.693C166.134 116.036 158.646 102.74 158.646 102.74C158.646 102.74 158.915 93.5468 159.272 88.5598C159.63 83.5728 162.054 74.2521 164.958 71.7113C167.862 69.1705 168.708 63.6058 170.705 62.6985C171.008 62.5609 171.293 62.5027 171.561 62.5027C173.057 62.5027 173.972 64.3319 173.972 64.3319C174.879 63.0012 175.653 58.992 177.952 58.9316C177.973 58.9309 177.994 58.9309 178.015 58.9309C180.258 58.9309 180.626 62.1062 180.626 62.1062C180.626 62.1062 180.928 58.8269 183.106 58.5853C183.203 58.5737 183.298 58.5686 183.389 58.5686ZM183.389 57.8628C183.273 57.8628 183.153 57.8693 183.027 57.8832C181.779 58.0221 181.025 58.8763 180.574 59.7757C180.052 58.9164 179.234 58.2244 178.014 58.2244L177.932 58.2251C175.826 58.2804 174.825 60.6837 174.094 62.4387C174.018 62.6206 173.943 62.7996 173.871 62.9691C173.353 62.3936 172.573 61.7955 171.56 61.7955C171.176 61.7955 170.791 61.8828 170.412 62.0545C169.198 62.6068 168.453 64.2541 167.591 66.1626C166.782 67.9511 165.866 69.9774 164.493 71.1795C161.213 74.0499 158.892 83.9868 158.568 88.5089C158.213 93.4529 157.942 102.627 157.94 102.719C157.936 102.847 157.967 102.974 158.03 103.086C158.341 103.639 165.748 116.658 173.495 118.913C173.559 118.932 173.628 118.942 173.695 118.942C173.897 118.942 174.097 118.852 174.231 118.7C174.553 118.336 174.573 118.315 173.428 108.81C172.871 104.188 172.115 97.9095 172.165 96.8567C172.557 96.3495 174.799 94.0685 176.787 92.0458C179.582 89.2023 182.751 85.979 184.259 84.2087C187.061 80.9192 187.139 72.3895 187.134 71.0558C187.599 70.0487 189.647 65.4707 189.487 63.2973C189.326 61.1407 187.821 60.0121 186.417 60.0114C186.324 60.0114 186.233 60.0165 186.142 60.0267C185.785 59.0313 184.955 57.8628 183.389 57.8628Z" fill="#020001"/>
<path d="M169.34 74.3364C169.34 74.3364 169.389 81.2043 167.846 87.2231" stroke="#020001" stroke-width="0.9702" stroke-miterlimit="10" stroke-linecap="round" stroke-linejoin="round"/>
<path d="M186.707 70.8963C186.707 70.8963 186.92 67.7844 185.64 67.318C184.359 66.8523 182.147 68.1307 181.971 72.9053C181.797 77.6798 179.584 80.2999 179.584 80.2999" stroke="#020001" stroke-width="0.9702" stroke-miterlimit="10" stroke-linecap="round" stroke-linejoin="round"/>
<path d="M185.926 60.332C185.926 60.332 183.926 62.5993 183.007 65.8771C182.008 69.4453 177.512 76.9666 177.512 76.9666" stroke="#020001" stroke-width="0.9702" stroke-miterlimit="10" stroke-linecap="round" stroke-linejoin="round"/>
<path d="M180.629 60.5176C180.629 60.5176 178.753 68.6493 173.979 74.8041" stroke="#020001" stroke-width="0.9702" stroke-miterlimit="10" stroke-linecap="round" stroke-linejoin="round"/>
<path d="M111.533 56.4165C111.469 56.4834 110.067 56.9717 108.863 56.4165" stroke="#020001" stroke-width="0.9702" stroke-miterlimit="10" stroke-linecap="round" stroke-linejoin="round"/>
<path d="M110.59 57.667C110.59 57.667 109.188 58.7235 107.367 58.3982" stroke="#020001" stroke-width="0.9702" stroke-miterlimit="10" stroke-linecap="round" stroke-linejoin="round"/>
<path d="M110.197 58.9517C110.197 58.9517 109.09 60.4156 107.105 60.1879" stroke="#020001" stroke-width="0.9702" stroke-miterlimit="10" stroke-linecap="round" stroke-linejoin="round"/>
<path d="M174.108 63.3335C174.108 63.3335 170.533 72.8018 169.342 74.3371" stroke="#020001" stroke-width="0.9702" stroke-miterlimit="10" stroke-linecap="round" stroke-linejoin="round"/>
<path d="M169.475 74.3363C170.185 74.3363 178.13 74.11 179.818 81.023" stroke="#020001" stroke-width="0.9702" stroke-miterlimit="10" stroke-linecap="round" stroke-linejoin="round"/>
<path d="M129.842 65.2337C126.193 65.2337 123.225 62.2651 123.225 58.6161C123.225 54.9672 126.193 51.9985 129.842 51.9985C133.491 51.9985 136.46 54.9672 136.46 58.6161C136.46 62.2651 133.492 65.2337 129.842 65.2337Z" fill="#FFFEFB"/>
<path d="M129.844 52.3513C133.303 52.3513 136.108 55.1562 136.108 58.616C136.108 62.0757 133.303 64.8807 129.844 64.8807C126.384 64.8807 123.579 62.0757 123.579 58.616C123.578 55.1562 126.383 52.3513 129.844 52.3513ZM129.844 51.6455C126 51.6455 122.873 54.7728 122.873 58.616C122.873 62.4599 126 65.5864 129.844 65.5864C133.687 65.5864 136.814 62.4592 136.814 58.616C136.814 54.7728 133.687 51.6455 129.844 51.6455Z" fill="#020001"/>
<path d="M132.027 58.6155H127.943C127.943 55.9889 129.786 53.8271 132.027 53.8271C134.266 53.8271 136.11 55.9889 136.11 58.6155C136.11 61.2422 134.267 63.4039 132.027 63.4039C130.752 63.4039 129.548 62.7032 128.776 61.5129L132.027 58.6155Z" fill="#020001"/>
<path d="M114.416 68.0208C111.592 68.0208 109.295 65.0522 109.295 61.4032C109.295 57.7543 111.592 54.7856 114.416 54.7856C117.24 54.7856 119.537 57.7543 119.537 61.4032C119.537 65.0522 117.24 68.0208 114.416 68.0208Z" fill="#FFFEFB"/>
<path d="M114.416 55.1384C117.05 55.1384 119.185 57.9433 119.185 61.4031C119.185 64.8629 117.05 67.6678 114.416 67.6678C111.782 67.6678 109.647 64.8629 109.647 61.4031C109.647 57.9433 111.782 55.1384 114.416 55.1384ZM114.416 54.4326C111.397 54.4326 108.941 57.5599 108.941 61.4031C108.941 65.247 111.397 68.3736 114.416 68.3736C117.435 68.3736 119.89 65.2463 119.89 61.4031C119.89 57.5599 117.435 54.4326 114.416 54.4326Z" fill="#020001"/>
<path d="M116.083 61.4026H112.975C112.975 58.776 114.377 56.6143 116.083 56.6143C117.788 56.6143 119.191 58.776 119.191 61.4026C119.191 64.0293 117.788 66.191 116.083 66.191C115.112 66.191 114.196 65.4903 113.608 64.3007L116.083 61.4026Z" fill="#020001"/>
<path d="M128.803 66.6267C128.803 66.6267 131.555 61.6353 137.759 63.2215L128.803 66.6267Z" fill="#B27709"/>
<path d="M128.803 66.6267C128.803 66.6267 131.555 61.6353 137.759 63.2215" stroke="#020001" stroke-width="0.9702" stroke-miterlimit="10" stroke-linecap="round" stroke-linejoin="round"/>
<path d="M121.643 64.3257C121.643 64.3257 117.152 63.8535 116.38 65.0228C115.609 66.192 117.288 68.3698 119.012 69.0959" fill="#B27709"/>
<path d="M121.643 64.3257C121.643 64.3257 117.152 63.8535 116.38 65.0228C115.609 66.192 117.288 68.3698 119.012 69.0959" stroke="#020001" stroke-width="0.9702" stroke-miterlimit="10" stroke-linecap="round" stroke-linejoin="round"/>
<path d="M124.137 80.1568C119.597 80.1568 116.84 78.7227 116.574 76.2227C116.571 76.195 116.196 72.8378 120 72.3336C123.715 71.8417 126.769 70.4098 129.338 67.9571C130.562 66.7871 132.105 66.1162 133.57 66.1162C135.744 66.1162 137.261 67.551 137.525 69.8612C138.028 74.2472 133.519 78.4957 129.16 79.5653C127.603 79.9466 125.82 80.1568 124.137 80.1568Z" fill="#FFFEFB"/>
<path d="M133.569 66.4685C135.367 66.4685 136.907 67.5701 137.174 69.9013C137.638 73.949 133.546 78.1255 129.074 79.222C127.614 79.5799 125.856 79.8033 124.136 79.8033C120.591 79.8033 117.209 78.8545 116.925 76.1842C116.925 76.1842 116.545 73.1472 120.046 72.683C123.548 72.2187 126.754 70.9112 129.58 68.2111C130.779 67.0666 132.245 66.4692 133.569 66.4685ZM133.569 65.7627C132.014 65.7627 130.383 66.4692 129.093 67.701C126.581 70.1007 123.591 71.5013 119.953 71.9837C116.634 72.4239 116.063 74.9815 116.224 76.2722C116.509 78.96 119.394 80.5091 124.135 80.5091C125.846 80.5091 127.659 80.2952 129.242 79.9074C133.84 78.7796 138.406 74.4569 137.875 69.8206C137.589 67.3176 135.939 65.7627 133.569 65.7627Z" fill="#020001"/>
<path d="M120.28 72.6514C120.301 72.6485 119.793 76.8424 122.44 79.7259" stroke="#020001" stroke-width="0.9702" stroke-miterlimit="10" stroke-linecap="round" stroke-linejoin="round"/>
<path d="M123.738 71.8184C123.738 71.8184 124.304 77.1372 127.032 79.6052" stroke="#020001" stroke-width="0.9702" stroke-miterlimit="10" stroke-linecap="round" stroke-linejoin="round"/>
<path d="M127.514 69.9009C127.514 69.9009 131.176 74.5052 131.904 78.0974" stroke="#020001" stroke-width="0.9702" stroke-miterlimit="10" stroke-linecap="round" stroke-linejoin="round"/>
<path d="M130.393 67.5513C130.393 67.5513 135.149 69.8731 136.112 74.155" stroke="#020001" stroke-width="0.9702" stroke-miterlimit="10" stroke-linecap="round" stroke-linejoin="round"/>
<path d="M133.339 50.3628C133.073 50.3628 132.779 50.3176 132.513 50.2361C131.747 50.0004 129.046 49.4489 127.287 49.4489C126.8 49.4489 126.429 49.4903 126.184 49.5718C126.148 49.5842 126.11 49.5893 126.073 49.5893C125.996 49.5893 125.92 49.5638 125.857 49.5151C125.764 49.4431 125.713 49.3296 125.722 49.2117C125.761 48.6507 125.935 46.78 126.548 46.2671C126.626 46.2016 126.864 46.0029 127.795 46.0029C129.24 46.0029 131.946 46.5152 133.481 47.9253C134.326 48.7009 134.644 49.3135 134.456 49.7974C134.313 50.1612 133.916 50.3628 133.339 50.3628Z" fill="#0C0C0C"/>
<path d="M127.793 46.3552C129.25 46.3552 131.824 46.8834 133.24 48.1844C134.714 49.5392 134.142 50.01 133.338 50.01C133.101 50.01 132.845 49.9692 132.615 49.8986C131.819 49.6534 129.095 49.0954 127.286 49.0954C126.795 49.0954 126.371 49.1368 126.071 49.2365C126.071 49.2365 126.227 46.9948 126.773 46.5378C126.914 46.4192 127.286 46.3552 127.793 46.3552ZM127.793 45.6494C126.843 45.6494 126.497 45.8473 126.319 45.9958C125.644 46.5611 125.433 48.2375 125.367 49.187C125.351 49.4221 125.453 49.6498 125.639 49.7939C125.764 49.8906 125.917 49.9416 126.071 49.9416C126.146 49.9416 126.221 49.9299 126.295 49.9052C126.412 49.8659 126.697 49.8004 127.286 49.8004C129.01 49.8004 131.658 50.3417 132.408 50.5724C132.707 50.6641 133.037 50.715 133.338 50.715C134.06 50.715 134.586 50.4269 134.782 49.9241C135.112 49.0779 134.332 48.2288 133.717 47.6642C132.108 46.1864 129.293 45.6494 127.793 45.6494Z" fill="#020001"/>
<path d="M109.153 56.3144C109.102 56.3144 109.05 56.3034 109.002 56.2802C108.846 56.2067 108.358 55.8538 108.63 54.4117C108.898 52.9899 112.14 50.0649 112.941 50.0649C112.964 50.0649 113.014 50.0693 113.037 50.0737C113.153 50.0962 113.249 50.1755 113.294 50.2832C114.187 52.4151 113.968 52.6348 113.822 52.7804C113.751 52.8517 113.638 52.9201 113.29 53.126C112.392 53.6579 110.523 54.7638 109.432 56.1768C109.364 56.2656 109.26 56.3144 109.153 56.3144Z" fill="#0C0C0C"/>
<path d="M112.942 50.4167C112.953 50.4167 112.962 50.4174 112.97 50.4189C112.97 50.4189 113.771 52.3318 113.573 52.5297C113.375 52.7276 110.605 54.0802 109.154 55.9596C109.154 55.9596 108.735 55.7617 108.978 54.4753C109.216 53.2115 112.357 50.4167 112.942 50.4167ZM112.942 49.7109C111.914 49.7109 108.568 52.8375 108.284 54.3458C107.974 55.9902 108.578 56.4689 108.852 56.5992C108.949 56.645 109.051 56.6669 109.153 56.6669C109.366 56.6669 109.575 56.5701 109.712 56.3925C110.762 55.0327 112.592 53.9492 113.471 53.429C113.831 53.2158 113.965 53.1365 114.072 53.0303C114.334 52.7683 114.605 52.4977 113.621 50.1475C113.53 49.9307 113.337 49.7728 113.105 49.7277C113.062 49.7175 112.988 49.7109 112.942 49.7109Z" fill="#020001"/>
<path d="M156.973 64.8803C156.99 64.753 161.856 67.0864 153.906 78.4393C145.957 89.7921 126.951 111.812 114.982 111.812C103.012 111.812 105.58 92.712 111.253 84.8473" stroke="#020001" stroke-width="2.9105" stroke-miterlimit="10" stroke-linecap="round" stroke-linejoin="round"/>
<path d="M107.268 97.9067C107.268 97.9067 115.026 106.522 129.03 105.375" stroke="#020001" stroke-width="2.9105" stroke-miterlimit="10" stroke-linecap="round" stroke-linejoin="round"/>
<path d="M111.651 111.161C111.651 111.161 102.491 150.86 85.1908 155.436C67.8905 160.012 55.0352 141.384 54.7441 102.176" stroke="#020001" stroke-width="2.9105" stroke-miterlimit="10" stroke-linecap="round" stroke-linejoin="round"/>
<path d="M143.268 65.7963C143.268 66.6607 141.826 67.3621 140.046 67.3621C138.267 67.3621 136.824 66.6614 136.824 65.7963C136.824 64.9312 138.266 64.2305 140.046 64.2305C141.825 64.2312 143.268 64.9319 143.268 65.7963Z" fill="#BF1920"/>
<path d="M114.473 69.9013C114.473 70.7657 113.031 71.4671 111.251 71.4671C109.472 71.4671 108.029 70.7664 108.029 69.9013C108.029 69.0369 109.471 68.3354 111.251 68.3354C113.031 68.3362 114.473 69.0369 114.473 69.9013Z" fill="#BF1920"/>
<path d="M108.178 312.033C105.181 312.033 101.424 311.992 100.549 311.798C99.2208 311.503 98.0333 310.213 97.4498 308.432C96.6829 306.092 97.1376 303.652 98.6663 301.905C101.422 298.757 121.168 288.46 124.833 286.563C123.553 285.737 120.423 283.528 120.05 281.454C119.933 280.805 120.083 280.221 120.495 279.714C121.683 278.254 123.898 277.383 126.419 277.383C128.417 277.383 130.285 277.93 131.681 278.923C134.557 280.97 133.382 286.641 132.964 288.297C136.952 288.244 139.354 286.123 140.951 284.714C141.794 283.97 142.352 283.478 142.908 283.478C143.093 283.478 143.365 283.538 143.604 283.825C144.771 285.227 144.941 301.715 143.509 307.855C143.147 309.41 142.713 310.252 142.145 310.505C139.92 311.494 118.541 312.033 108.178 312.033Z" fill="#8F1318"/>
<path d="M126.417 277.738C128.228 277.738 130.077 278.218 131.474 279.212C134.62 281.451 132.502 288.649 132.502 288.649C132.605 288.652 132.707 288.652 132.807 288.652C138.979 288.652 141.573 283.832 142.906 283.832C143.063 283.832 143.204 283.9 143.33 284.052C144.54 285.503 144.722 308.974 142 310.184C139.977 311.083 119.619 311.681 108.174 311.681C104.216 311.681 101.324 311.61 100.624 311.454C97.9016 310.849 95.9662 305.526 98.9297 302.139C101.894 298.751 125.546 286.592 125.546 286.592C125.546 286.592 118.649 282.54 120.767 279.939C121.945 278.491 124.15 277.738 126.417 277.738ZM126.417 277.032C123.791 277.032 121.474 277.951 120.22 279.493C119.747 280.074 119.567 280.775 119.701 281.517C120.057 283.499 122.624 285.503 124.133 286.528C119.386 288.993 101.079 298.61 98.3986 301.673C96.7869 303.514 96.306 306.082 97.1122 308.542C97.7343 310.441 99.0214 311.821 100.47 312.142C101.198 312.304 103.79 312.386 108.173 312.386C118.561 312.386 140.017 311.836 142.286 310.828C142.973 310.522 143.456 309.63 143.851 307.934C145.219 302.062 145.233 285.232 143.872 283.598C143.546 283.207 143.166 283.125 142.905 283.125C142.215 283.125 141.618 283.652 140.715 284.449C139.22 285.769 137 287.728 133.412 287.928C133.891 285.809 134.705 280.644 131.883 278.635C130.429 277.601 128.487 277.032 126.417 277.032Z" fill="#020001"/>
<path d="M108.997 312.032C108.901 312.032 108.809 311.992 108.742 311.924C108.675 311.854 108.641 311.76 108.645 311.664C108.66 311.316 108.729 310.977 108.855 310.624C108.884 310.546 108.939 310.48 109.011 310.437C109.097 310.389 117.618 305.462 121.834 301.198C124.516 298.485 128.367 297.661 132.092 296.864C134.469 296.356 136.713 295.876 138.52 294.934C140.355 293.977 142.186 292.905 143.959 291.749C144.018 291.71 144.084 291.691 144.152 291.691C144.209 291.691 144.265 291.705 144.317 291.733C144.431 291.793 144.503 291.91 144.506 292.038C144.52 292.743 144.824 309.317 142.149 310.507C139.996 311.463 119.424 312.008 108.999 312.034C108.998 312.032 108.997 312.032 108.997 312.032Z" fill="#BF1920"/>
<path d="M144.151 292.044C144.301 299.455 143.752 309.407 142.004 310.184C140.028 311.062 120.567 311.653 108.997 311.68C109.01 311.383 109.069 311.073 109.187 310.744C109.187 310.744 117.786 305.795 122.086 301.445C126.385 297.095 133.984 297.696 138.683 295.246C140.878 294.102 142.761 292.95 144.151 292.044ZM144.151 291.338C144.016 291.338 143.883 291.376 143.765 291.452C141.995 292.605 140.175 293.671 138.356 294.619C136.592 295.539 134.37 296.015 132.018 296.518C128.243 297.325 124.339 298.161 121.584 300.948C117.402 305.178 108.92 310.082 108.835 310.131C108.69 310.215 108.58 310.347 108.523 310.504C108.386 310.883 108.309 311.267 108.292 311.647C108.283 311.84 108.354 312.027 108.487 312.167C108.621 312.306 108.805 312.385 108.998 312.385H108.999C117.812 312.364 139.908 311.886 142.291 310.828C143.028 310.5 143.944 309.391 144.492 303.668C144.807 300.384 144.941 296.142 144.858 292.029C144.853 291.773 144.708 291.539 144.482 291.419C144.377 291.366 144.265 291.338 144.151 291.338Z" fill="#020001"/>
<path d="M116.53 315.642C106.825 315.642 100.099 314.871 96.5384 313.351L96.3383 313.126C96.2764 312.917 94.8329 307.983 95.2403 305.136C95.5779 302.772 97.5774 301.535 98.5546 301.535C99.0646 301.535 99.2669 301.848 99.2844 302.115C99.4342 304.802 99.8541 307.9 100.272 308.227C100.65 308.443 103.935 308.755 108.396 308.755C114.314 308.755 119.518 308.227 122.674 307.308C124.438 306.795 126.041 306.534 127.436 306.534C130.379 306.534 131.648 307.683 132.036 308.139C136.131 307.82 142.722 306.945 143.555 305.884C143.73 305.66 143.924 305.547 144.131 305.547C144.694 305.547 144.882 306.298 144.973 306.862C145.265 308.662 145.066 313.368 143.371 313.934C142.171 314.333 128.992 315.642 116.53 315.642Z" fill="#FFFEFB"/>
<path d="M98.5547 301.886C98.7774 301.886 98.9215 301.97 98.9324 302.137C98.9324 302.137 99.2525 307.875 100.054 308.504C100.437 308.805 103.994 309.106 108.396 309.106C113.19 309.106 118.984 308.749 122.773 307.645C124.68 307.09 126.213 306.885 127.437 306.885C130.876 306.885 131.873 308.504 131.873 308.504C131.873 308.504 142.574 307.703 143.833 306.101C143.941 305.962 144.041 305.899 144.131 305.899C145.087 305.899 144.987 313.022 143.261 313.597C142.116 313.979 128.971 315.287 116.532 315.287C108.46 315.287 100.687 314.737 96.6775 313.025C96.6775 313.025 95.1896 307.989 95.5905 305.185C95.9041 302.987 97.7471 301.887 98.5547 301.886ZM98.5547 301.181C97.44 301.181 95.2623 302.485 94.8912 305.085C94.4736 308.008 95.9375 313.013 96.0001 313.225L96.3996 313.674C100.003 315.213 106.777 315.993 116.531 315.993C129.025 315.993 142.27 314.671 143.484 314.267C145.487 313.599 145.613 308.594 145.322 306.804C145.257 306.406 145.06 305.193 144.131 305.193C143.91 305.193 143.583 305.275 143.277 305.664C142.634 306.483 137.09 307.382 132.176 307.772C131.626 307.206 130.241 306.179 127.436 306.179C126.007 306.179 124.371 306.444 122.574 306.967C119.449 307.878 114.281 308.4 108.395 308.4C104.188 308.4 101.153 308.129 100.487 307.927C100.137 307.323 99.7691 304.485 99.6352 302.097C99.6076 301.652 99.2562 301.181 98.5547 301.181Z" fill="#020001"/>
<path d="M107.6 300.412C107.407 300.412 107.241 300.379 107.092 300.312C106.533 300.059 106.138 299.462 105.719 298.828C105.515 298.519 105.304 298.199 105.062 297.897C104.998 297.817 104.972 297.714 104.99 297.614C105.008 297.513 105.068 297.426 105.156 297.374C112.087 293.207 122.357 287.848 124.837 286.563C123.557 285.738 120.427 283.529 120.053 281.454C119.936 280.805 120.086 280.221 120.499 279.714C121.686 278.254 123.901 277.383 126.423 277.383C128.42 277.383 130.289 277.93 131.684 278.923C134.997 281.28 132.936 288.444 132.847 288.747C132.834 288.925 132.327 291.148 122.106 294.755C117.078 296.53 113.703 298.028 111.47 299.02C109.449 299.919 108.336 300.412 107.6 300.412Z" fill="#BF1920"/>
<path d="M126.421 277.738C128.232 277.738 130.082 278.218 131.478 279.212C134.624 281.451 132.506 288.649 132.506 288.649C132.506 288.649 132.292 290.787 121.986 294.424C112.604 297.735 109.028 300.06 107.599 300.06C107.458 300.06 107.339 300.037 107.236 299.991C106.531 299.673 106.081 298.607 105.336 297.677C113.309 292.884 125.55 286.592 125.55 286.592C125.55 286.592 118.653 282.539 120.771 279.938C121.949 278.491 124.154 277.738 126.421 277.738ZM126.421 277.032C123.795 277.032 121.478 277.951 120.223 279.493C119.751 280.074 119.571 280.775 119.705 281.517C120.062 283.499 122.628 285.503 124.138 286.528C120.955 288.184 111.491 293.154 104.973 297.072C104.798 297.177 104.677 297.352 104.642 297.552C104.606 297.753 104.659 297.959 104.786 298.118C105.018 298.407 105.225 298.721 105.425 299.024C105.872 299.701 106.295 300.341 106.947 300.635C107.14 300.721 107.359 300.766 107.6 300.766C108.411 300.766 109.48 300.29 111.612 299.344C113.84 298.354 117.208 296.859 122.222 295.089C131.726 291.734 133.042 289.531 133.194 288.811C133.378 288.168 135.314 281.075 131.887 278.637C130.433 277.601 128.491 277.032 126.421 277.032Z" fill="#020001"/>
<path d="M111.224 301.753C110.664 301.753 110.157 301.422 109.931 300.909C108.995 298.778 107.94 297.625 107.433 297.072C107.079 296.685 106.799 296.381 106.727 295.874C106.617 295.104 107.154 294.387 107.924 294.276C107.992 294.266 108.061 294.262 108.129 294.262C108.642 294.262 109.122 294.551 109.366 295.002L109.517 295.168C110.125 295.833 111.393 297.217 112.517 299.775C112.668 300.12 112.676 300.504 112.539 300.855C112.403 301.206 112.137 301.482 111.792 301.635C111.612 301.712 111.42 301.753 111.224 301.753Z" fill="#FFFEFB"/>
<path d="M108.13 294.615C108.536 294.615 108.899 294.85 109.074 295.204C109.12 295.258 109.181 295.323 109.255 295.404C109.852 296.055 111.093 297.412 112.193 299.917C112.428 300.452 112.185 301.077 111.65 301.312C111.512 301.373 111.367 301.401 111.225 301.401C110.817 301.401 110.429 301.165 110.255 300.767C109.296 298.584 108.214 297.402 107.695 296.834C107.358 296.466 107.134 296.223 107.078 295.825C106.995 295.246 107.397 294.709 107.975 294.626C108.027 294.618 108.079 294.615 108.13 294.615ZM108.13 293.908C108.045 293.908 107.957 293.915 107.87 293.928C107.408 293.994 106.995 294.239 106.712 294.615C106.429 294.992 106.311 295.457 106.378 295.924C106.465 296.538 106.809 296.913 107.173 297.31C107.668 297.851 108.696 298.975 109.607 301.05C109.889 301.691 110.524 302.106 111.224 302.106C111.471 302.106 111.71 302.056 111.935 301.956C112.364 301.768 112.697 301.421 112.868 300.983C113.04 300.543 113.029 300.064 112.839 299.632C111.692 297.019 110.398 295.606 109.776 294.927L109.706 294.85C109.688 294.832 109.672 294.814 109.657 294.797C109.346 294.255 108.758 293.908 108.13 293.908Z" fill="#020001"/>
<path d="M115.228 299.794C114.703 299.794 114.225 299.506 113.98 299.044C112.468 296.189 110.937 295.195 110.922 295.184C110.265 294.779 110.055 293.912 110.454 293.253C110.713 292.825 111.165 292.569 111.662 292.569C111.912 292.569 112.159 292.637 112.376 292.765C112.599 292.899 114.59 294.162 116.475 297.722C116.839 298.411 116.575 299.267 115.887 299.631C115.686 299.738 115.458 299.794 115.228 299.794Z" fill="#FFFEFB"/>
<path d="M111.663 292.922C111.845 292.922 112.03 292.969 112.198 293.068C112.282 293.118 114.281 294.33 116.164 297.886C116.438 298.403 116.24 299.044 115.724 299.317C115.566 299.401 115.396 299.44 115.23 299.44C114.85 299.44 114.483 299.236 114.293 298.877C112.717 295.902 111.127 294.895 111.111 294.885C110.617 294.58 110.457 293.931 110.757 293.435C110.957 293.105 111.305 292.922 111.663 292.922ZM111.663 292.216C111.05 292.216 110.471 292.543 110.153 293.069C109.654 293.893 109.917 294.977 110.74 295.486C110.748 295.491 112.212 296.456 113.669 299.207C113.976 299.787 114.574 300.146 115.23 300.146C115.517 300.146 115.802 300.075 116.056 299.94C116.47 299.721 116.777 299.351 116.915 298.9C117.054 298.45 117.009 297.972 116.788 297.556C114.856 293.907 112.789 292.599 112.56 292.462C112.285 292.3 111.976 292.216 111.663 292.216Z" fill="#020001"/>
<path d="M119.854 297.752C119.311 297.752 118.809 297.435 118.577 296.945C117.434 294.528 114.987 292.984 114.884 292.919C114.221 292.517 114.008 291.648 114.411 290.982C114.669 290.556 115.121 290.302 115.619 290.302C115.875 290.302 116.127 290.372 116.347 290.505C116.48 290.584 119.595 292.493 121.13 295.738C121.292 296.079 121.31 296.462 121.184 296.817C121.057 297.172 120.799 297.456 120.458 297.617C120.268 297.706 120.065 297.752 119.854 297.752Z" fill="#FFFEFB"/>
<path d="M115.618 290.653C115.804 290.653 115.992 290.703 116.164 290.806C116.292 290.883 119.318 292.733 120.81 295.887C121.06 296.416 120.834 297.048 120.306 297.298C120.16 297.367 120.005 297.399 119.853 297.399C119.457 297.399 119.076 297.176 118.896 296.793C117.683 294.229 115.094 292.634 115.069 292.618C114.57 292.315 114.409 291.664 114.712 291.165C114.911 290.836 115.26 290.653 115.618 290.653ZM115.618 289.947C114.995 289.947 114.431 290.265 114.108 290.799C113.605 291.629 113.871 292.717 114.702 293.221C114.724 293.235 117.147 294.747 118.258 297.095C118.548 297.709 119.175 298.105 119.853 298.105C120.117 298.105 120.371 298.048 120.609 297.935C121.034 297.734 121.356 297.379 121.515 296.934C121.673 296.491 121.65 296.012 121.448 295.585C119.864 292.238 116.664 290.282 116.527 290.2C116.253 290.035 115.938 289.947 115.618 289.947Z" fill="#020001"/>
<path d="M124.148 296.12C123.681 296.12 123.246 295.89 122.983 295.506C121.149 292.834 118.681 290.88 118.656 290.86C118.044 290.378 117.938 289.488 118.418 288.877C118.688 288.534 119.092 288.338 119.529 288.338C119.848 288.338 120.149 288.442 120.4 288.64C120.426 288.66 123.21 290.847 125.31 293.908C125.524 294.219 125.603 294.594 125.534 294.965C125.465 295.335 125.256 295.657 124.945 295.871C124.711 296.034 124.435 296.12 124.148 296.12Z" fill="#FFFEFB"/>
<path d="M119.529 288.692C119.758 288.692 119.988 288.766 120.182 288.918C120.295 289.006 122.971 291.123 125.02 294.109C125.351 294.591 125.229 295.25 124.746 295.581C124.563 295.707 124.355 295.768 124.148 295.768C123.811 295.768 123.48 295.607 123.274 295.308C121.415 292.597 118.899 290.603 118.874 290.583C118.415 290.222 118.335 289.556 118.696 289.096C118.906 288.831 119.216 288.692 119.529 288.692ZM119.53 287.986C118.985 287.986 118.479 288.232 118.142 288.66C117.542 289.425 117.674 290.536 118.437 291.138C118.465 291.16 120.888 293.076 122.693 295.707C123.023 296.187 123.567 296.473 124.149 296.473C124.507 296.473 124.853 296.366 125.147 296.163C125.535 295.897 125.796 295.495 125.883 295.031C125.969 294.568 125.87 294.099 125.603 293.711C123.475 290.61 120.733 288.453 120.617 288.362C120.309 288.12 119.923 287.986 119.53 287.986Z" fill="#020001"/>
<path d="M128.485 293.949C128.053 293.949 127.652 293.756 127.383 293.42C125.964 291.655 122.879 289.056 122.532 288.767C122.233 288.518 122.054 288.178 122.018 287.803C121.983 287.428 122.096 287.061 122.337 286.772C122.605 286.447 123.001 286.261 123.423 286.261C123.751 286.261 124.071 286.376 124.324 286.587C124.47 286.708 127.914 289.576 129.583 291.653C129.819 291.946 129.928 292.314 129.886 292.69C129.846 293.065 129.661 293.401 129.367 293.637C129.119 293.837 128.805 293.949 128.485 293.949Z" fill="#FFFEFB"/>
<path d="M123.424 286.614C123.663 286.614 123.902 286.694 124.1 286.858C124.245 286.978 127.654 289.814 129.309 291.874C129.676 292.329 129.604 292.996 129.147 293.362C128.952 293.519 128.717 293.596 128.485 293.596C128.175 293.596 127.867 293.461 127.659 293.2C126.135 291.305 122.782 288.516 122.748 288.487C122.298 288.114 122.236 287.446 122.609 286.996C122.819 286.744 123.12 286.614 123.424 286.614ZM123.424 285.907C122.896 285.907 122.401 286.14 122.066 286.546C121.445 287.294 121.548 288.409 122.298 289.03C122.648 289.323 125.707 291.898 127.109 293.642C127.445 294.061 127.947 294.301 128.485 294.301C128.886 294.301 129.278 294.163 129.59 293.911C129.957 293.617 130.188 293.196 130.239 292.727C130.29 292.258 130.155 291.798 129.859 291.43C128.197 289.362 124.919 286.62 124.551 286.314C124.235 286.052 123.834 285.907 123.424 285.907Z" fill="#020001"/>
<path d="M176.855 312.852C170.241 312.852 161.238 311.921 159.416 303.872C159.302 303.385 156.687 291.804 162.102 284.658C162.171 284.567 162.275 284.519 162.383 284.519C162.444 284.519 162.505 284.534 162.56 284.566C163.174 284.92 164.719 285.739 165.737 286.024C165.178 284.985 164.222 282.984 164.518 281.927C164.599 281.634 164.774 281.409 165.02 281.278C165.991 280.764 172.405 279.642 176.668 279.642C178.864 279.642 180.185 279.929 180.705 280.517C182.236 282.251 181.182 285.331 180.851 286.174C182.213 287.701 191.653 298.461 192.787 304.414C193.164 306.393 192.791 308.076 191.681 309.419C189.179 312.442 183.82 312.769 181.632 312.769C181.115 312.769 180.502 312.785 179.815 312.802C178.935 312.825 177.932 312.852 176.855 312.852Z" fill="#8F1318"/>
<path d="M176.669 279.994C178.501 279.994 179.955 280.2 180.441 280.75C182.058 282.582 180.441 286.244 180.441 286.244C180.441 286.244 191.249 298.224 192.441 304.48C193.633 310.737 186.739 312.416 181.632 312.416C180.452 312.416 178.771 312.497 176.855 312.497C170.486 312.497 161.526 311.596 159.759 303.794C159.759 303.794 157.006 291.967 162.382 284.871C162.382 284.871 165.16 286.476 166.319 286.476C166.345 286.476 166.371 286.475 166.396 286.473C166.396 286.473 163.887 282.276 165.185 281.59C166.093 281.11 172.404 279.994 176.669 279.994ZM176.669 279.289C172.468 279.289 165.963 280.379 164.855 280.966C164.521 281.143 164.286 281.442 164.177 281.831C163.916 282.764 164.476 284.259 165.016 285.39C164.251 285.076 163.367 284.624 162.735 284.26C162.624 284.196 162.503 284.165 162.382 284.165C162.168 284.165 161.957 284.262 161.819 284.444C156.306 291.72 158.955 303.457 159.071 303.954C161.166 313.203 172.973 313.203 176.854 313.203C177.936 313.203 178.939 313.178 179.824 313.155C180.507 313.138 181.117 313.122 181.631 313.122C183.869 313.122 189.355 312.782 191.952 309.644C193.133 308.217 193.53 306.435 193.133 304.348C192.016 298.482 183.037 288.111 181.256 286.098C181.659 284.992 182.519 282.038 180.969 280.283C180.593 279.856 179.736 279.289 176.669 279.289Z" fill="#020001"/>
<path d="M169.4 312.211C169.376 312.211 169.352 312.208 169.328 312.204C163.74 311.053 160.405 308.25 159.414 303.871C159.4 303.815 158.082 298.026 159.075 292.158C159.102 291.997 159.236 291.877 159.398 291.866C159.407 291.865 159.415 291.864 159.423 291.864C159.576 291.864 159.712 291.963 159.759 292.11C160.024 292.943 162.032 294.199 164.157 295.529C165.807 296.563 167.678 297.735 169.121 298.95C172.573 301.859 172.167 307.645 172.148 307.89C172.118 308.051 171.532 310.797 169.6 312.147C169.542 312.189 169.472 312.211 169.4 312.211Z" fill="#BF1920"/>
<path d="M159.425 292.218C159.954 293.878 165.543 296.397 168.896 299.221C172.25 302.046 171.798 307.864 171.798 307.864C171.798 307.864 171.239 310.573 169.401 311.859C164.952 310.943 160.888 308.778 159.759 303.794C159.759 303.794 158.432 298.083 159.425 292.218ZM159.425 291.512C159.409 291.512 159.392 291.513 159.375 291.514C159.051 291.537 158.784 291.779 158.729 292.1C157.724 298.037 159.016 303.714 159.072 303.954C160.095 308.475 163.523 311.369 169.258 312.55C169.306 312.56 169.353 312.565 169.401 312.565C169.544 312.565 169.686 312.521 169.805 312.437C171.851 311.008 172.465 308.128 172.49 308.006C172.496 307.977 172.5 307.948 172.503 307.918C172.522 307.666 172.941 301.706 169.351 298.681C167.889 297.449 166.007 296.271 164.347 295.231C162.462 294.05 160.324 292.712 160.098 292.003C160.004 291.709 159.73 291.512 159.425 291.512Z" fill="#020001"/>
<path d="M176.438 315.159C170.978 315.159 160.001 314.595 159.356 313.56C158.73 312.557 158.175 306.602 158.32 305.505C158.386 305.001 158.551 304.421 158.811 303.78C158.914 303.525 159.166 303.36 159.454 303.36C159.685 303.36 159.9 303.47 160.031 303.654C161.284 305.418 164.383 306.351 168.993 306.351C171.873 306.351 174.576 305.984 175.676 305.814C174.982 304.983 174.226 303.828 174.382 302.88C174.451 302.467 174.691 302.126 175.078 301.895C176.536 301.025 183.245 300.569 186.431 300.569C188.375 300.569 188.746 300.716 188.868 300.765C189.878 301.167 189.379 302.72 188.94 304.09C188.823 304.455 188.671 304.927 188.626 305.191C188.952 305.14 189.47 304.977 189.975 304.819C190.936 304.517 192.025 304.175 192.82 304.175C192.964 304.175 193.1 304.186 193.22 304.21C193.479 304.26 193.699 304.438 193.873 304.736C194.695 306.137 194.566 310.762 194.225 311.801C193.942 312.664 192.416 313.793 183.06 314.87C181.385 315.061 179.156 315.159 176.438 315.159Z" fill="#FFFEFB"/>
<path d="M186.433 300.921C187.586 300.921 188.444 300.974 188.739 301.092C189.938 301.568 187.745 305.425 188.38 305.552C188.408 305.558 188.441 305.56 188.478 305.56C189.203 305.56 191.527 304.526 192.821 304.526C192.942 304.526 193.054 304.535 193.154 304.554C194.388 304.796 194.244 310.612 193.891 311.688C193.539 312.763 190.01 313.713 183.022 314.517C181.259 314.72 178.936 314.805 176.438 314.805C169.029 314.805 160.081 314.052 159.656 313.372C159.088 312.462 158.531 306.626 158.672 305.55C158.748 304.965 158.961 304.351 159.14 303.912C159.193 303.781 159.323 303.713 159.455 303.713C159.565 303.713 159.676 303.76 159.745 303.857C161.353 306.122 165.332 306.704 168.994 306.704C171.929 306.704 174.66 306.33 175.803 306.151C176.056 306.111 176.169 305.847 176.013 305.665C175.319 304.848 173.953 302.978 175.26 302.197C176.54 301.432 182.884 300.921 186.433 300.921ZM186.433 300.215C183.121 300.215 176.433 300.675 174.898 301.591C174.419 301.877 174.12 302.302 174.034 302.823C173.887 303.715 174.416 304.727 175.023 305.553C173.716 305.736 171.416 305.999 168.993 305.999C164.503 305.999 161.503 305.117 160.32 303.45C160.123 303.173 159.8 303.008 159.455 303.008C159.023 303.008 158.643 303.259 158.485 303.648C158.298 304.105 158.058 304.792 157.971 305.459C157.83 306.536 158.335 312.591 159.057 313.747C159.27 314.088 159.561 314.555 165.368 315.049C168.787 315.339 172.925 315.512 176.437 315.512C179.17 315.512 181.412 315.414 183.102 315.219C192.576 314.129 194.209 312.984 194.562 311.909C194.887 310.918 195.124 306.168 194.179 304.556C193.894 304.071 193.538 303.911 193.289 303.862C193.147 303.835 192.989 303.82 192.82 303.82C191.971 303.82 190.854 304.171 189.869 304.48C189.635 304.554 189.36 304.64 189.113 304.711C189.166 304.538 189.225 304.355 189.276 304.196C189.738 302.753 190.315 300.958 188.998 300.435C188.847 300.375 188.443 300.215 186.433 300.215Z" fill="#020001"/>
<path d="M173.869 297.965C173.63 297.965 173.131 297.965 168.86 289.542L166.14 286.719C166.122 286.699 166.105 286.677 166.092 286.655C165.89 286.316 164.129 283.312 164.517 281.927C164.598 281.634 164.773 281.409 165.019 281.278C165.99 280.764 172.404 279.642 176.666 279.642C178.863 279.642 180.183 279.929 180.704 280.517C182.451 282.496 180.832 286.229 180.762 286.387L179.727 288.1L186.423 296.426C186.512 296.536 186.527 296.688 186.46 296.813C186.398 296.929 186.278 297 186.148 297C186.138 297 186.128 296.999 186.117 296.998C185.881 296.977 185.586 296.968 185.247 296.968C181.862 296.968 174.299 297.879 173.954 297.954C173.93 297.961 173.895 297.965 173.869 297.965Z" fill="#BF1920"/>
<path d="M176.666 279.994C178.499 279.994 179.953 280.2 180.438 280.75C182.056 282.582 180.438 286.244 180.438 286.244L179.297 288.128L186.148 296.647C185.902 296.625 185.596 296.615 185.244 296.615C181.89 296.615 174.311 297.514 173.878 297.61C173.875 297.611 173.872 297.611 173.869 297.611C173.346 297.611 169.15 289.334 169.15 289.334L166.394 286.473C166.394 286.473 163.885 282.276 165.183 281.59C166.091 281.11 172.403 279.994 176.666 279.994ZM176.666 279.289C172.466 279.289 165.962 280.379 164.853 280.966C164.518 281.143 164.285 281.442 164.176 281.831C163.757 283.327 165.445 286.262 165.788 286.835C165.816 286.881 165.848 286.924 165.885 286.963L168.569 289.748C172.916 298.317 173.379 298.318 173.869 298.318C173.92 298.318 173.982 298.311 174.032 298.299C174.531 298.199 181.987 297.321 185.243 297.321C185.585 297.321 185.868 297.33 186.085 297.35C186.106 297.352 186.127 297.353 186.147 297.353C186.405 297.353 186.646 297.211 186.769 296.98C186.902 296.73 186.874 296.425 186.696 296.205L180.155 288.072L181.041 286.61C181.057 286.584 181.071 286.557 181.083 286.53C181.156 286.363 182.861 282.429 180.967 280.283C180.591 279.856 179.735 279.289 176.666 279.289Z" fill="#020001"/>
<path d="M167.892 291.456C167.283 291.456 166.731 291.125 166.486 290.614C166.325 290.276 166.313 289.902 166.45 289.558C166.596 289.191 166.904 288.894 167.295 288.743C167.46 288.679 171.389 287.181 177.333 287.181C178.652 287.181 179.987 287.256 181.3 287.403C181.726 287.45 182.113 287.662 182.362 287.983C182.588 288.273 182.685 288.629 182.637 288.984C182.538 289.687 181.883 290.216 181.112 290.216C181.051 290.216 180.991 290.212 180.93 290.206C179.759 290.074 178.566 290.009 177.384 290.009C172.073 290.009 168.515 291.334 168.48 291.348C168.292 291.419 168.093 291.456 167.892 291.456Z" fill="#FFFEFB"/>
<path d="M177.333 287.533C178.561 287.533 179.876 287.598 181.262 287.753C181.909 287.826 182.368 288.354 182.288 288.935C182.213 289.472 181.693 289.862 181.112 289.862C181.064 289.862 181.017 289.86 180.969 289.854C179.707 289.713 178.506 289.655 177.383 289.655C171.995 289.655 168.398 291.001 168.355 291.018C168.203 291.076 168.046 291.103 167.892 291.103C167.433 291.103 166.997 290.863 166.805 290.461C166.549 289.924 166.824 289.303 167.423 289.072C167.617 288.996 171.488 287.533 177.333 287.533ZM177.333 286.828C171.324 286.828 167.334 288.349 167.167 288.413C166.685 288.599 166.304 288.969 166.122 289.427C165.948 289.863 165.964 290.338 166.167 290.764C166.471 291.398 167.148 291.808 167.892 291.808C168.138 291.808 168.379 291.764 168.606 291.677C168.64 291.665 172.159 290.361 177.383 290.361C178.552 290.361 179.732 290.426 180.891 290.556C180.966 290.564 181.039 290.568 181.112 290.568C182.059 290.568 182.865 289.908 182.987 289.032C183.049 288.582 182.927 288.132 182.643 287.766C182.335 287.37 181.86 287.11 181.34 287.052C180.013 286.903 178.665 286.828 177.333 286.828Z" fill="#020001"/>
<path d="M169.087 293.629C168.479 293.629 167.927 293.299 167.683 292.787C167.521 292.452 167.508 292.078 167.644 291.734C167.789 291.366 168.097 291.068 168.488 290.916C168.667 290.847 172.934 289.215 178.789 289.215C180.314 289.215 181.83 289.327 183.294 289.549C183.718 289.613 184.096 289.839 184.33 290.169C184.543 290.469 184.623 290.829 184.556 291.183C184.428 291.861 183.788 292.352 183.036 292.352C182.958 292.352 182.879 292.347 182.8 292.336C181.512 292.141 180.178 292.043 178.828 292.043C173.587 292.043 169.716 293.505 169.678 293.519C169.488 293.592 169.29 293.629 169.087 293.629Z" fill="#FFFEFB"/>
<path d="M178.791 289.568C180.195 289.568 181.691 289.662 183.244 289.896C183.887 289.994 184.321 290.54 184.213 291.117C184.115 291.636 183.607 291.999 183.04 291.999C182.978 291.999 182.915 291.994 182.853 291.985C181.456 291.774 180.104 291.689 178.832 291.689C173.529 291.689 169.603 293.17 169.555 293.189C169.403 293.248 169.245 293.275 169.09 293.275C168.632 293.275 168.196 293.035 168.004 292.634C167.747 292.097 168.022 291.475 168.62 291.244C168.835 291.16 173.036 289.568 178.791 289.568ZM178.791 288.862C172.885 288.862 168.545 290.516 168.363 290.586C167.88 290.773 167.499 291.144 167.318 291.602C167.144 292.039 167.162 292.514 167.366 292.939C167.67 293.572 168.346 293.981 169.089 293.981C169.336 293.981 169.578 293.935 169.807 293.847C169.845 293.833 173.675 292.394 178.83 292.394C180.163 292.394 181.48 292.491 182.746 292.683C182.848 292.698 182.944 292.704 183.038 292.704C183.96 292.704 184.746 292.092 184.905 291.248C184.99 290.799 184.888 290.343 184.619 289.964C184.33 289.556 183.866 289.277 183.348 289.199C181.867 288.975 180.334 288.862 178.791 288.862Z" fill="#020001"/>
<path d="M169.774 295.736C169.116 295.736 168.532 295.35 168.321 294.776C168.195 294.429 168.217 294.058 168.384 293.728C168.564 293.372 168.9 293.099 169.306 292.98C169.507 292.92 174.353 291.496 180.188 291.496C181.77 291.496 183.294 291.603 184.715 291.814C185.138 291.877 185.517 292.102 185.752 292.433C185.966 292.732 186.048 293.092 185.982 293.446C185.857 294.125 185.221 294.618 184.468 294.618C184.389 294.618 184.307 294.613 184.227 294.602C182.986 294.418 181.647 294.325 180.245 294.325C174.892 294.325 170.288 295.656 170.241 295.67C170.089 295.713 169.932 295.736 169.774 295.736Z" fill="#FFFEFB"/>
<path d="M180.188 291.849C181.641 291.849 183.153 291.939 184.663 292.163C185.306 292.258 185.742 292.803 185.635 293.38C185.54 293.899 185.038 294.265 184.469 294.265C184.405 294.265 184.341 294.261 184.277 294.251C182.928 294.052 181.564 293.971 180.246 293.971C174.856 293.971 170.201 295.313 170.143 295.329C170.021 295.364 169.897 295.382 169.775 295.382C169.278 295.382 168.816 295.099 168.653 294.653C168.45 294.097 168.787 293.5 169.406 293.317C169.656 293.243 174.466 291.849 180.188 291.849ZM180.188 291.142C174.311 291.142 169.409 292.58 169.204 292.641C168.705 292.788 168.29 293.126 168.068 293.569C167.858 293.987 167.829 294.458 167.989 294.895C168.25 295.608 168.967 296.088 169.774 296.088C169.963 296.088 170.153 296.061 170.337 296.008C170.387 295.993 174.958 294.676 180.246 294.676C181.63 294.676 182.952 294.768 184.173 294.948C184.274 294.963 184.371 294.969 184.468 294.969C185.39 294.969 186.173 294.354 186.329 293.506C186.411 293.058 186.309 292.602 186.038 292.224C185.747 291.817 185.283 291.539 184.766 291.462C183.329 291.251 181.788 291.142 180.188 291.142Z" fill="#020001"/>
<path d="M171.2 298.288C170.624 298.288 170.103 297.998 169.839 297.53C169.653 297.202 169.614 296.826 169.729 296.472C169.85 296.098 170.137 295.786 170.516 295.612C170.706 295.525 175.232 293.491 181.058 293.491C183.068 293.491 185.02 293.733 186.863 294.21C187.274 294.317 187.621 294.58 187.815 294.931C187.992 295.254 188.029 295.623 187.917 295.972C187.722 296.576 187.13 296.981 186.445 296.981C186.306 296.981 186.166 296.964 186.032 296.929C184.481 296.526 182.823 296.323 181.104 296.323C176.031 296.323 172.045 298.069 171.877 298.144C171.666 298.239 171.438 298.288 171.2 298.288Z" fill="#FFFEFB"/>
<path d="M181.058 293.845C182.864 293.845 184.798 294.041 186.774 294.553C187.4 294.716 187.761 295.303 187.58 295.865C187.429 296.329 186.956 296.629 186.443 296.629C186.335 296.629 186.225 296.616 186.117 296.588C184.398 296.141 182.698 295.97 181.103 295.97C175.89 295.97 171.786 297.798 171.732 297.822C171.561 297.899 171.379 297.936 171.2 297.936C170.769 297.936 170.354 297.724 170.145 297.356C169.85 296.835 170.081 296.199 170.662 295.934C170.903 295.825 175.324 293.845 181.058 293.845ZM181.058 293.139C175.16 293.139 170.562 295.204 170.369 295.292C169.9 295.507 169.545 295.897 169.393 296.364C169.247 296.813 169.296 297.289 169.53 297.704C169.858 298.283 170.498 298.642 171.199 298.642C171.487 298.642 171.763 298.582 172.022 298.466C172.062 298.449 176.067 296.677 181.102 296.677C182.792 296.677 184.419 296.877 185.939 297.272C186.105 297.314 186.273 297.336 186.442 297.336C187.281 297.336 188.008 296.832 188.25 296.084C188.393 295.641 188.347 295.173 188.122 294.763C187.883 294.327 187.455 294.002 186.95 293.87C185.08 293.385 183.098 293.139 181.058 293.139Z" fill="#020001"/>
<path d="M159.055 309.926C159.055 309.926 177.091 314.584 194.138 308.947L159.055 309.926Z" fill="#FFFEFB"/>
<path d="M159.055 309.926C159.055 309.926 177.091 314.584 194.138 308.947" stroke="#020001" stroke-width="1.9403" stroke-miterlimit="10" stroke-linecap="round" stroke-linejoin="bevel"/>
<path d="M96.1504 310.94C96.1504 310.94 116.834 314.457 138.315 310.608L96.1504 310.94Z" fill="#FFFEFB"/>
<path d="M96.1504 310.94C96.1504 310.94 116.834 314.457 138.315 310.608" stroke="#020001" stroke-width="1.9403" stroke-miterlimit="10" stroke-linecap="round" stroke-linejoin="bevel"/>
<path d="M143.651 219.681L139.399 190.756L132.48 186.371" stroke="#020001" stroke-width="0.9702" stroke-miterlimit="10" stroke-linecap="round" stroke-linejoin="round"/>
<path d="M166.279 90.5294C166.279 90.5294 169.507 85.9636 175.175 84.2319" stroke="#020001" stroke-width="0.9702" stroke-miterlimit="10" stroke-linecap="round" stroke-linejoin="round"/>
<path d="M140.602 42.2679C140.652 43.2335 140.854 44.2739 141.575 44.9171C142.297 45.5604 143.671 45.4876 144.023 44.5875C144.284 43.9232 143.956 43.0101 144.511 42.5604C144.97 42.1879 145.655 42.4687 146.138 42.8115C146.932 43.3746 147.627 44.0826 148.481 44.5482C149.336 45.0139 150.442 45.1958 151.258 44.6639C152.073 44.1321 152.248 42.7183 151.406 42.2279C151.477 41.6706 152.187 41.4137 152.733 41.5483C153.279 41.6829 153.724 42.0649 154.226 42.3167C154.728 42.5684 155.401 42.6623 155.803 42.2687C156.153 41.926 156.145 41.3642 156.061 40.8818C155.824 39.5161 155.165 38.2268 154.195 37.2365C153.669 36.6996 153.01 36.2317 152.261 36.18C151.511 36.1277 150.69 36.6253 150.604 37.3719C150.527 38.0391 151.012 38.6212 151.267 39.2425C151.522 39.8639 151.339 40.8222 150.668 40.844C150.343 40.8542 150.065 40.6235 149.835 40.3929C149.291 39.8472 148.82 39.2258 148.227 38.7347C147.633 38.2435 146.871 37.8834 146.109 37.9925C145.346 38.1017 144.647 38.8103 144.755 39.5729C144.834 40.1259 145.271 40.7523 144.897 41.1656C144.648 41.4399 144.175 41.3737 143.894 41.1329C143.612 40.892 143.469 40.5326 143.315 40.1957C143.007 39.519 142.571 38.8373 141.882 38.5557C139.466 37.5676 140.544 41.178 140.602 42.2679Z" fill="#F7F7F7"/>
<path d="M121.63 24.2741C120.74 24.6518 119.831 25.1967 119.473 26.0946C119.115 26.9925 119.652 28.2592 120.619 28.2825C121.332 28.3 122.078 27.6808 122.69 28.0475C123.197 28.3516 123.167 29.0924 123.01 29.6621C122.752 30.6007 122.324 31.4949 122.179 32.4575C122.033 33.4202 122.24 34.5225 123.018 35.1067C123.797 35.691 125.184 35.3716 125.358 34.4141C125.906 34.2896 126.391 34.8695 126.45 35.4284C126.51 35.9872 126.303 36.5365 126.238 37.0946C126.173 37.6526 126.314 38.3177 126.822 38.56C127.263 38.7717 127.789 38.5723 128.213 38.3286C129.416 37.6395 130.402 36.5787 131.002 35.3294C131.328 34.652 131.542 33.8735 131.335 33.1509C131.128 32.4284 130.38 31.8274 129.649 32.0013C128.996 32.157 128.614 32.8119 128.117 33.2637C127.62 33.7156 126.657 33.8705 126.408 33.247C126.287 32.945 126.409 32.6045 126.546 32.3098C126.874 31.6121 127.297 30.9579 127.555 30.2318C127.814 29.5064 127.892 28.6674 127.529 27.9871C127.166 27.3075 126.261 26.8928 125.581 27.2551C125.088 27.5178 124.649 28.1428 124.132 27.9318C123.789 27.7921 123.69 27.325 123.819 26.9779C123.95 26.6309 124.239 26.3733 124.503 26.1143C125.033 25.5926 125.525 24.9508 125.555 24.2072C125.66 21.6002 122.634 23.847 121.63 24.2741Z" fill="#F7F7F7"/>
</svg>
