<svg width="113" height="93" viewBox="0 0 113 93" fill="none" xmlns="http://www.w3.org/2000/svg">
<rect width="103" height="103" rx="9" fill="url(#paint0_linear_3319_18786)"/>
<path d="M7.299 40.779H9.829V42H5.759V34.322H7.299V40.779ZM13.5138 42.099C12.9272 42.099 12.3992 41.9707 11.9298 41.714C11.4605 41.45 11.0902 41.0797 10.8188 40.603C10.5548 40.1263 10.4228 39.5763 10.4228 38.953C10.4228 38.3297 10.5585 37.7797 10.8298 37.303C11.1085 36.8263 11.4862 36.4597 11.9628 36.203C12.4395 35.939 12.9712 35.807 13.5578 35.807C14.1445 35.807 14.6762 35.939 15.1528 36.203C15.6295 36.4597 16.0035 36.8263 16.2748 37.303C16.5535 37.7797 16.6928 38.3297 16.6928 38.953C16.6928 39.5763 16.5498 40.1263 16.2638 40.603C15.9852 41.0797 15.6038 41.45 15.1198 41.714C14.6432 41.9707 14.1078 42.099 13.5138 42.099ZM13.5138 40.757C13.7925 40.757 14.0528 40.691 14.2948 40.559C14.5442 40.4197 14.7422 40.2143 14.8888 39.943C15.0355 39.6717 15.1088 39.3417 15.1088 38.953C15.1088 38.3737 14.9548 37.93 14.6468 37.622C14.3462 37.3067 13.9758 37.149 13.5358 37.149C13.0958 37.149 12.7255 37.3067 12.4248 37.622C12.1315 37.93 11.9848 38.3737 11.9848 38.953C11.9848 39.5323 12.1278 39.9797 12.4138 40.295C12.7072 40.603 13.0738 40.757 13.5138 40.757ZM18.6035 35.18C18.3248 35.18 18.0938 35.0957 17.9105 34.927C17.7345 34.751 17.6465 34.5347 17.6465 34.278C17.6465 34.0213 17.7345 33.8087 17.9105 33.64C18.0938 33.464 18.3248 33.376 18.6035 33.376C18.8748 33.376 19.0985 33.464 19.2745 33.64C19.4505 33.8087 19.5385 34.0213 19.5385 34.278C19.5385 34.5347 19.4505 34.751 19.2745 34.927C19.0985 35.0957 18.8748 35.18 18.6035 35.18ZM19.3625 43.001C19.3625 43.6757 19.1938 44.1597 18.8565 44.453C18.5265 44.7537 18.0498 44.904 17.4265 44.904H16.7445V43.595H17.1845C17.4191 43.595 17.5841 43.5473 17.6795 43.452C17.7748 43.364 17.8225 43.2173 17.8225 43.012V35.906H19.3625V43.001ZM20.488 38.931C20.488 38.315 20.609 37.7687 20.851 37.292C21.1003 36.8153 21.434 36.4487 21.852 36.192C22.2773 35.9353 22.7503 35.807 23.271 35.807C23.7257 35.807 24.1217 35.8987 24.459 36.082C24.8037 36.2653 25.0787 36.4963 25.284 36.775V35.906H26.835V42H25.284V41.109C25.086 41.395 24.811 41.6333 24.459 41.824C24.1143 42.0073 23.7147 42.099 23.26 42.099C22.7467 42.099 22.2773 41.967 21.852 41.703C21.434 41.439 21.1003 41.0687 20.851 40.592C20.609 40.108 20.488 39.5543 20.488 38.931ZM25.284 38.953C25.284 38.579 25.2107 38.26 25.064 37.996C24.9173 37.7247 24.7193 37.5193 24.47 37.38C24.2207 37.2333 23.953 37.16 23.667 37.16C23.381 37.16 23.117 37.2297 22.875 37.369C22.633 37.5083 22.435 37.7137 22.281 37.985C22.1343 38.249 22.061 38.5643 22.061 38.931C22.061 39.2977 22.1343 39.6203 22.281 39.899C22.435 40.1703 22.633 40.3793 22.875 40.526C23.1243 40.6727 23.3883 40.746 23.667 40.746C23.953 40.746 24.2207 40.6763 24.47 40.537C24.7193 40.3903 24.9173 40.185 25.064 39.921C25.2107 39.6497 25.284 39.327 25.284 38.953ZM30.6711 42.099C30.1724 42.099 29.7251 42.011 29.3291 41.835C28.9331 41.6517 28.6177 41.406 28.3831 41.098C28.1557 40.79 28.0311 40.449 28.0091 40.075H29.5601C29.5894 40.3097 29.7031 40.504 29.9011 40.658C30.1064 40.812 30.3594 40.889 30.6601 40.889C30.9534 40.889 31.1807 40.8303 31.3421 40.713C31.5107 40.5957 31.5951 40.4453 31.5951 40.262C31.5951 40.064 31.4924 39.9173 31.2871 39.822C31.0891 39.7193 30.7701 39.6093 30.3301 39.492C29.8754 39.382 29.5014 39.2683 29.2081 39.151C28.9221 39.0337 28.6727 38.854 28.4601 38.612C28.2547 38.37 28.1521 38.0437 28.1521 37.633C28.1521 37.2957 28.2474 36.9877 28.4381 36.709C28.6361 36.4303 28.9147 36.2103 29.2741 36.049C29.6407 35.8877 30.0697 35.807 30.5611 35.807C31.2871 35.807 31.8664 35.9903 32.2991 36.357C32.7317 36.7163 32.9701 37.204 33.0141 37.82H31.5401C31.5181 37.578 31.4154 37.3873 31.2321 37.248C31.0561 37.1013 30.8177 37.028 30.5171 37.028C30.2384 37.028 30.0221 37.0793 29.8681 37.182C29.7214 37.2847 29.6481 37.4277 29.6481 37.611C29.6481 37.8163 29.7507 37.974 29.9561 38.084C30.1614 38.1867 30.4804 38.293 30.9131 38.403C31.3531 38.513 31.7161 38.6267 32.0021 38.744C32.2881 38.8613 32.5337 39.0447 32.7391 39.294C32.9517 39.536 33.0617 39.8587 33.0691 40.262C33.0691 40.614 32.9701 40.9293 32.7721 41.208C32.5814 41.4867 32.3027 41.7067 31.9361 41.868C31.5767 42.022 31.1551 42.099 30.6711 42.099ZM31.56 49.664V72H27.08V57.472L21.096 72H17.704L11.688 57.472V72H7.208V49.664H12.296L19.4 66.272L26.504 49.664H31.56ZM43.8613 72.288C42.1546 72.288 40.6186 71.9147 39.2533 71.168C37.8879 70.4 36.8106 69.3227 36.0213 67.936C35.2533 66.5493 34.8693 64.9493 34.8693 63.136C34.8693 61.3227 35.2639 59.7227 36.0533 58.336C36.8639 56.9493 37.9626 55.8827 39.3493 55.136C40.7359 54.368 42.2826 53.984 43.9893 53.984C45.6959 53.984 47.2426 54.368 48.6293 55.136C50.0159 55.8827 51.1039 56.9493 51.8933 58.336C52.7039 59.7227 53.1093 61.3227 53.1093 63.136C53.1093 64.9493 52.6933 66.5493 51.8612 67.936C51.0506 69.3227 49.9413 70.4 48.5333 71.168C47.1466 71.9147 45.5893 72.288 43.8613 72.288ZM43.8613 68.384C44.6719 68.384 45.4293 68.192 46.1333 67.808C46.8586 67.4027 47.4346 66.8053 47.8613 66.016C48.2879 65.2267 48.5013 64.2667 48.5013 63.136C48.5013 61.4507 48.0533 60.16 47.1573 59.264C46.2826 58.3467 45.2053 57.888 43.9253 57.888C42.6453 57.888 41.5679 58.3467 40.6933 59.264C39.8399 60.16 39.4133 61.4507 39.4133 63.136C39.4133 64.8213 39.8293 66.1227 40.6613 67.04C41.5146 67.936 42.5813 68.384 43.8613 68.384ZM55.2435 63.072C55.2435 61.28 55.5955 59.6907 56.2995 58.304C57.0248 56.9173 58.0062 55.8507 59.2435 55.104C60.4808 54.3573 61.8568 53.984 63.3715 53.984C64.5235 53.984 65.6222 54.24 66.6675 54.752C67.7128 55.2427 68.5448 55.904 69.1635 56.736V48.32H73.7075V72H69.1635V69.376C68.6088 70.2507 67.8302 70.9547 66.8275 71.488C65.8248 72.0213 64.6622 72.288 63.3395 72.288C61.8462 72.288 60.4808 71.904 59.2435 71.136C58.0062 70.368 57.0248 69.2907 56.2995 67.904C55.5955 66.496 55.2435 64.8853 55.2435 63.072ZM69.1955 63.136C69.1955 62.048 68.9822 61.12 68.5555 60.352C68.1288 59.5627 67.5528 58.9653 66.8275 58.56C66.1022 58.1333 65.3235 57.92 64.4915 57.92C63.6595 57.92 62.8915 58.1227 62.1875 58.528C61.4835 58.9333 60.9075 59.5307 60.4595 60.32C60.0328 61.088 59.8195 62.0053 59.8195 63.072C59.8195 64.1387 60.0328 65.0773 60.4595 65.888C60.9075 66.6773 61.4835 67.2853 62.1875 67.712C62.9128 68.1387 63.6808 68.352 64.4915 68.352C65.3235 68.352 66.1022 68.1493 66.8275 67.744C67.5528 67.3173 68.1288 66.72 68.5555 65.952C68.9822 65.1627 69.1955 64.224 69.1955 63.136ZM76.931 63.072C76.931 61.28 77.283 59.6907 77.987 58.304C78.7123 56.9173 79.683 55.8507 80.899 55.104C82.1363 54.3573 83.5123 53.984 85.027 53.984C86.3497 53.984 87.5017 54.2507 88.483 54.784C89.4857 55.3173 90.2857 55.9893 90.883 56.8V54.272H95.395V72H90.883V69.408C90.307 70.24 89.507 70.9333 88.483 71.488C87.4803 72.0213 86.3177 72.288 84.995 72.288C83.5017 72.288 82.1363 71.904 80.899 71.136C79.683 70.368 78.7123 69.2907 77.987 67.904C77.283 66.496 76.931 64.8853 76.931 63.072ZM90.883 63.136C90.883 62.048 90.6697 61.12 90.243 60.352C89.8163 59.5627 89.2403 58.9653 88.515 58.56C87.7897 58.1333 87.011 57.92 86.179 57.92C85.347 57.92 84.579 58.1227 83.875 58.528C83.171 58.9333 82.595 59.5307 82.147 60.32C81.7203 61.088 81.507 62.0053 81.507 63.072C81.507 64.1387 81.7203 65.0773 82.147 65.888C82.595 66.6773 83.171 67.2853 83.875 67.712C84.6003 68.1387 85.3683 68.352 86.179 68.352C87.011 68.352 87.7897 68.1493 88.515 67.744C89.2403 67.3173 89.8163 66.72 90.243 65.952C90.6697 65.1627 90.883 64.224 90.883 63.136Z" fill="white"/>
<path d="M103.684 99.25C104.621 99.25 105.446 98.7375 105.871 97.9625L110.346 89.85C110.809 89.025 110.209 88 109.259 88H90.7586L89.5836 85.5H85.4961V88H87.9961L92.4961 97.4875L90.8086 100.537C89.8961 102.212 91.0961 104.25 92.9961 104.25H107.996V101.75H92.9961L94.3711 99.25H103.684ZM91.9461 90.5H107.134L103.684 96.75H94.9086L91.9461 90.5ZM92.9961 105.5C91.6211 105.5 90.5086 106.625 90.5086 108C90.5086 109.375 91.6211 110.5 92.9961 110.5C94.3711 110.5 95.4961 109.375 95.4961 108C95.4961 106.625 94.3711 105.5 92.9961 105.5ZM105.496 105.5C104.121 105.5 103.009 106.625 103.009 108C103.009 109.375 104.121 110.5 105.496 110.5C106.871 110.5 107.996 109.375 107.996 108C107.996 106.625 106.871 105.5 105.496 105.5Z" fill="#FE4646"/>
<defs>
<linearGradient id="paint0_linear_3319_18786" x1="137.056" y1="124.597" x2="-67.6976" y2="-5.39918" gradientUnits="userSpaceOnUse">
<stop stop-color="#7D0B0B"/>
<stop offset="1" stop-color="#FE4646"/>
</linearGradient>
</defs>
</svg>
