<svg width="720" height="620" viewBox="0 0 720 620" fill="none" xmlns="http://www.w3.org/2000/svg">
<g id="Illustration">
<g id="Pedro">
<g id="Man / Head / 1">
<g id="Group 30">
<path id="Fill 1" fill-rule="evenodd" clip-rule="evenodd" d="M218.483 93.7915C218.483 102.27 213.087 109.143 206.431 109.143C199.775 109.143 194.379 102.27 194.379 93.7915C194.379 85.3132 199.775 78.4404 206.431 78.4404C213.087 78.4404 218.483 85.3132 218.483 93.7915Z" fill="#19141E"/>
<g id="Face color">
<path id="Face" d="M189.962 154.605L189.457 136.973C189.457 136.973 192.252 137.199 196.028 137.371C208.183 137.927 216.737 129.334 217.221 117.176C217.565 108.542 217.062 98.6815 214.078 91.4545L213.944 90.8321L169.291 85.5435L166.787 111.489C165.283 106.996 152.869 101.902 149.624 108.335C142.592 122.275 167.736 131.661 167.736 131.661L165.183 154.817" fill="#FFCCD7"/>
<path id="Path" d="M154.527 113.782L163.405 120.509" stroke="#0C092A"/>
</g>
<path id="Fill 5" opacity="0.398926" fill-rule="evenodd" clip-rule="evenodd" d="M189.456 136.973L175.188 133.875L189.388 143.588L189.456 136.973Z" fill="#0C092A"/>
<path id="Path_2" d="M201.054 109.414L204.399 121.483L199.594 122.82" stroke="#001833" stroke-linecap="square"/>
<path id="Fill 9" fill-rule="evenodd" clip-rule="evenodd" d="M195.606 111.629C195.9 113.273 194.822 114.846 193.199 115.143C191.575 115.441 190.021 114.349 189.728 112.706C189.434 111.062 190.512 109.489 192.135 109.191C193.759 108.894 195.312 109.985 195.606 111.629Z" fill="#001833"/>
<path id="Fill 11" fill-rule="evenodd" clip-rule="evenodd" d="M212.173 111.629C212.466 113.273 211.388 114.846 209.765 115.143C208.142 115.441 206.588 114.349 206.294 112.706C206.001 111.062 207.078 109.489 208.702 109.191C210.325 108.894 211.879 109.985 212.173 111.629Z" fill="#001833"/>
<path id="Hair" d="M170.105 115.917C165.871 108.58 159.745 106.343 156.995 105.686C155.899 102.477 155.063 98.7551 154.476 94.7965C152.9 84.202 160.508 74.5358 166.653 71.7602C172.873 68.9513 183.599 65.0587 199.298 70.3426C209.853 73.8974 216.599 65.3868 222.81 69.0216C233.423 75.2344 223.551 102.434 196.64 95.5246C177.391 90.5818 176.896 91.8217 176.731 95.4146C176.197 107.028 174.409 113.86 170.105 115.917Z" fill="#001833"/>
<g id="Group 21">
<path id="Stroke 20" d="M192.254 124.993C192.254 124.993 194.36 129.584 198.912 129.475" stroke="#001833"/>
</g>
<path id="Stroke 22" fill-rule="evenodd" clip-rule="evenodd" d="M199.433 111.775C199.433 115.596 196.373 118.693 192.599 118.693C188.825 118.693 185.766 115.596 185.766 111.775C185.766 107.954 188.825 104.856 192.599 104.856C196.373 104.856 199.433 107.954 199.433 111.775Z" stroke="#001833"/>
<path id="Stroke 24" fill-rule="evenodd" clip-rule="evenodd" d="M216.64 111.775C216.64 115.596 213.58 118.693 209.807 118.693C206.032 118.693 202.973 115.596 202.973 111.775C202.973 107.954 206.032 104.856 209.807 104.856C213.58 104.856 216.64 107.954 216.64 111.775Z" stroke="#001833"/>
<path id="Stroke 26" d="M202.416 112.097H199.461" stroke="#001833" stroke-width="4"/>
<path id="Stroke 28" d="M185.764 111.777H168.883" stroke="#001833"/>
</g>
</g>
<g id="Man / Legs / 1">
<g id="Group 23">
<g id="Shoes">
<path id="Shoes_2" fill-rule="evenodd" clip-rule="evenodd" d="M207.532 550.88L207.698 536.42L189.257 527.029L186.58 568.366H250.473C239.601 555.986 207.532 550.88 207.532 550.88ZM125.689 551.444L125.855 535.202L113.833 545.099L104.158 550.545L100.965 568.366H144.695C139.196 553.226 125.689 551.444 125.689 551.444Z" fill="#0D0B6D"/>
</g>
<g id="Leg skin">
<path id="Skin" fill-rule="evenodd" clip-rule="evenodd" d="M125.854 535.202L107.413 529.599L104.156 550.545L125.688 551.443L125.854 535.202ZM207.697 536.42L189.256 530.817L187.769 549.982L207.531 550.879L207.697 536.42Z" fill="#FFCCD7"/>
</g>
<g id="Pants">
<path id="Pants_2" d="M210.341 531.679L209.916 545.099H185.59L186.017 531.639C183.292 530.533 181.345 527.875 181.278 524.735L177.363 323.723L135.054 526.662C134.458 529.516 132.364 531.733 129.704 532.551L128.114 545.099H102.608L104.803 531.245C102.679 529.58 101.449 526.843 101.872 523.919L140.823 254.949L176.023 254.949L176.021 254.847H218.655L216.099 524.359C216.064 527.903 213.625 530.868 210.341 531.679Z" fill="#09074A"/>
</g>
<path id="Fill 15" opacity="0.197824" fill-rule="evenodd" clip-rule="evenodd" d="M177.145 326.908L184.609 293.453L178.993 394.882L177.145 326.908Z" fill="#0C092A"/>
<g id="Pants line">
<path id="Pants line_2" d="M149.93 255.205L154.015 255.879L109.461 529.977L105.363 529.286L149.93 255.205Z" fill="#EFEFEF"/>
</g>
</g>
</g>
<g id="Man / Body / 5">
<g id="Group 18">
<g id="Skin color">
<path id="Skin_2" fill-rule="evenodd" clip-rule="evenodd" d="M277.216 162.753L276.923 157.65C276.923 157.65 276.929 154.098 277.386 150.265C277.5 149.303 277.752 148.298 278.021 147.224L278.021 147.224C278.823 144.017 279.778 140.201 277.69 135.132C274.904 128.371 281.566 133.039 283.041 136.255C283.611 137.498 283.777 139.377 283.941 141.24C284.132 143.396 284.321 145.531 285.131 146.638C286.407 145.938 287.256 145.027 287.256 145.027L301.615 126.319C302.077 125.69 302.932 125.501 303.617 125.872L304.39 126.295C305.203 126.742 305.461 127.789 304.94 128.553C303.944 130.021 302.205 132.498 300.387 135.088L300.387 135.088L300.386 135.089C297.089 139.787 293.532 144.853 293.683 144.933L294.064 145.397L310.928 127.536C311.455 126.942 312.339 126.836 312.989 127.289L314.002 127.994C314.739 128.506 314.897 129.529 314.347 130.234C312.549 132.567 308.097 137.619 304.391 141.824L304.39 141.825C301.184 145.463 298.536 148.468 298.647 148.531L299.151 149.019L314.851 135.091C315.407 134.467 316.355 134.397 316.999 134.92L317.766 135.549C318.439 136.096 318.538 137.09 317.988 137.76L303.16 151.764L303.588 152.44L316.46 143.357C317.052 142.828 317.941 142.828 318.538 143.351L318.896 143.674C319.528 144.239 319.598 145.209 319.048 145.862C318.171 146.903 316.437 148.271 314.37 149.902C311.99 151.779 309.17 154.004 306.708 156.48C305.352 157.844 304.259 159.18 303.151 160.535C301.341 162.748 299.493 165.007 296.399 167.509C294.553 169.008 292.882 169.88 291.291 170.709C291.067 170.827 290.843 170.943 290.621 171.06L277.216 162.753ZM161.48 151.044C161.48 151.044 171.401 151.025 178.56 151.001C185.72 150.976 194.723 154.016 194.723 154.016C194.723 154.016 199.408 164.644 183.134 163.681C166.86 162.717 161.48 151.044 161.48 151.044ZM107.218 194.05C107.218 194.05 91.3374 218.121 91.6974 231.507C92.1224 247.291 142.082 286.073 142.082 286.073L155.03 275.424L123.578 231.146L135.016 206.543L107.218 194.05Z" fill="#FFCCD7"/>
</g>
<g id="Sweater color">
<path id="Sweater" d="M151.269 256.123L159.003 266.603L135.708 287.105C135.708 287.105 92.9588 255.468 91.6388 230.663C90.7981 214.865 104.487 192.312 104.487 192.312C104.487 192.312 121.67 164.585 141.532 155.227C145.608 153.307 155.49 151.705 161.481 151.044C163.317 150.842 162.219 151.564 162.85 152.787C163.508 154.064 165.513 155.957 166.9 157.372C169.786 160.316 175.475 162.546 178.531 163.002C180.86 163.35 185.361 163.89 187.526 163.596C189.69 163.303 192.044 162.316 192.673 161.73C193.302 161.143 194.238 160.41 194.724 159.28C195.209 158.15 195.184 158.474 195.184 157.431C195.184 156.389 195.131 156.543 195.03 156.047C194.929 155.551 194.929 155.253 194.869 154.996C194.606 153.862 194.724 154.016 194.724 154.016C206.449 157.592 212.388 158.915 216.659 164.117L249.302 187.247L271.637 157.82L300.456 177.357C300.456 177.357 274.939 225.357 256.447 230.663C241.551 234.938 226.46 221.644 221.154 216.312L227.458 248.624C228.469 254.203 223.631 256.314 219.32 256.117L151.269 256.123Z" fill="#FE4646"/>
</g>
<path id="Fill 9_2" opacity="0.201242" fill-rule="evenodd" clip-rule="evenodd" d="M221.054 216.331L217.152 200.763L227.687 222.039L221.054 216.331Z" fill="#0C092A"/>
<path id="Stroke 16" opacity="0.200591" d="M148.376 252.372L130.184 226.322L152.158 192.674" stroke="#0C092A" stroke-width="5"/>
</g>
</g>
</g>
<g id="Marcos">
<g id="Man / Head / 1_2">
<g id="Group 21_2">
<g id="Face color_2">
<path id="Face_2" d="M530.311 164.623L530.812 147.258C530.812 147.258 528.168 147.47 524.555 147.638C512.322 148.207 503.723 139.554 503.48 127.31C503.321 119.297 503.921 109.98 506.488 101.816L550.845 96.6069L554 122.212C555.495 117.788 567.157 112.718 570.381 119.054C577.365 132.782 552.389 142.026 552.389 142.026L554.925 164.832" fill="#FFCCD7"/>
<path id="Path_3" d="M565.092 124.993L556.215 129.477" stroke="#0C092A" stroke-linecap="square"/>
</g>
<path id="Path_4" d="M520.141 120.566L518.505 128.604L522.015 129.292" stroke="#001833" stroke-linecap="square"/>
<path id="Fill 4" opacity="0.399344" fill-rule="evenodd" clip-rule="evenodd" d="M530.811 147.258L544.984 144.208L530.879 153.773L530.811 147.258Z" fill="#0C092A"/>
<path id="Fill 8" fill-rule="evenodd" clip-rule="evenodd" d="M526.926 120.055C526.634 121.674 527.705 123.224 529.317 123.516C530.93 123.809 532.473 122.734 532.765 121.116C533.056 119.497 531.985 117.947 530.373 117.654C528.761 117.362 527.217 118.437 526.926 120.055Z" fill="#001833"/>
<path id="Fill 10" fill-rule="evenodd" clip-rule="evenodd" d="M509.301 120.055C509.009 121.674 510.08 123.224 511.692 123.516C513.305 123.809 514.848 122.734 515.14 121.116C515.431 119.497 514.36 117.947 512.748 117.654C511.136 117.362 509.592 118.437 509.301 120.055Z" fill="#001833"/>
<g id="Group 15">
<path id="Stroke 14" d="M527.367 133.961C527.367 133.961 524.389 138.834 518.49 138.421" stroke="#001833"/>
</g>
<path id="Hair_2" d="M562.385 116.74C564.354 109.387 571.482 82.2447 570.643 77.6113C569.67 72.2414 565.947 65.6493 546.813 58.7351C530.602 52.8771 521.458 57.1189 518.688 60.7283C514.473 66.2204 506.49 101.816 506.49 101.816C506.49 101.816 513.095 106.535 536.52 105.721C536.52 105.721 533.277 119.878 546.57 119.065C546.57 119.065 545.145 123.832 551.578 125.331C555.108 119.822 559.792 117.595 562.385 116.74Z" fill="#001833"/>
</g>
</g>
<g id="Man / Legs / 1_2">
<g id="Group 20">
<g id="Shoes_3">
<path id="Shoes_4" fill-rule="evenodd" clip-rule="evenodd" d="M646.965 510.073L629.146 493.56L635.336 476.857L673.473 505.473L642.58 559.968C642.58 559.968 641.587 546.426 643.202 531.424C644.318 521.061 646.965 510.073 646.965 510.073ZM475.26 546.148L479.33 532.891L496.56 533.811L482.22 570.22L427.134 537.97C443.481 532.969 475.26 546.148 475.26 546.148Z" fill="#0D0B6D"/>
</g>
<g id="Skin legs">
<path id="Skin_3" fill-rule="evenodd" clip-rule="evenodd" d="M633.638 497.768L635.597 476.841L657.547 493.628L646.966 510.074L633.638 497.768ZM478.614 535.131L495.649 536.682L489.36 552.092L475.261 546.148L478.614 535.131Z" fill="#FFCCD7"/>
</g>
<g id="Pants_3">
<path id="Pants_4" d="M510.893 324.137L463.371 538.839L476.46 542.214H476.466L491.703 546.148L491.779 546.165L497.054 547.526C497.054 547.526 521.265 470.348 542.579 401.497C547.766 410.03 553.608 418.464 560.182 426.667C606.89 484.947 635.468 509.858 635.468 509.858L639.718 503.386L639.73 503.368L649.944 487.815L657.332 476.567C657.332 476.567 593.373 415.566 564.596 329.754C569.654 313.047 573.16 301.121 574.061 297.304C579.218 275.544 579.324 265.573 579.324 264.778H524.028L501.854 264.778C502.662 278.96 504.892 300.049 510.892 324.136L510.893 324.137Z" fill="#FE4646"/>
</g>
<g id="Overlay">
<path id="Mask" fill-rule="evenodd" clip-rule="evenodd" d="M463.371 538.839L476.461 542.214H476.466L491.704 546.148L491.78 546.165L497.054 547.526C497.054 547.526 521.266 470.347 542.58 401.497C550.899 374.618 558.772 349.012 564.596 329.754C569.654 313.047 573.161 301.121 574.062 297.304C579.219 275.544 579.324 265.573 579.324 264.778H524.029L510.893 324.136L463.371 538.839Z" fill="#FE4646"/>
</g>
</g>
</g>
<g id="Man / Body / 5_2">
<g id="Group 25">
<g id="Hands">
<path id="Mask_2" fill-rule="evenodd" clip-rule="evenodd" d="M483.124 277.158C483.124 277.158 491.008 278.127 492.509 281.573C496.802 291.433 487.907 309.058 487.907 309.058C487.907 309.058 491.675 306.813 492.425 308.777C492.76 309.651 493.516 316.633 479.396 317.103C477.897 317.153 474.29 314.175 474.29 314.175C474.29 314.175 476.92 319.079 472.893 320.043C472.893 320.043 466.404 310.547 466.305 308.434C466.206 306.321 468.289 295.625 469.414 293.465C470.541 291.305 483.124 277.158 483.124 277.158ZM589.755 294.357C591.122 290.411 592.335 288.318 592.335 288.318L612.923 289.295C615.014 295.114 615.24 297.113 615.75 301.619C615.774 301.823 615.797 302.031 615.822 302.245C616.289 306.35 616.321 310.477 614.732 315.97C613.711 319.499 612.621 322.5 612.053 322.373C610.622 322.055 610.568 320.256 610.568 320.256L611.242 316.915L611.548 313.651C611.548 313.651 606.468 328.098 606.038 328.018C604.516 327.737 604.274 325.205 604.274 325.205C604.274 325.205 602.682 330.191 601.881 330.011C599.843 329.551 600.036 327.242 600.036 327.242C600.036 327.242 599.393 327.794 598.898 327.653C597.053 327.132 597.108 323.93 597.14 322.054C597.143 321.903 597.145 321.761 597.147 321.63C597.147 321.63 597.964 315.723 597.797 313.903C596.947 304.629 595.481 302.422 594.677 301.213C594.601 301.098 594.531 300.993 594.468 300.891C593.206 301.731 592.739 303.172 592.243 304.701C591.883 305.812 591.507 306.971 590.799 307.98C588.646 311.052 582.641 313.954 585.999 306.917C587.863 303.01 588.326 300.607 588.756 298.375C589.008 297.066 589.249 295.816 589.755 294.357Z" fill="#FFCCD7"/>
</g>
<path id="Stroke 4" opacity="0.150646" d="M485.023 289.896C485.023 289.896 483.042 297.206 476.242 299.483C473.864 300.28 474.458 309.682 468.63 308.558" stroke="#0C092A" stroke-width="3"/>
<g id="Shirt">
<path id="Shirt_2" fill-rule="evenodd" clip-rule="evenodd" d="M556.908 165.033L554.287 153.962L542.896 154.674L535.063 164.41L529.97 155.473L526.335 155.703L525.206 166.039C508.623 172.427 505.73 178.676 502.101 186.516C501.711 187.359 501.312 188.22 500.887 189.102C496.102 199.028 501.944 267.924 501.944 267.924L573.773 264.598C573.773 264.598 564.04 165.781 557.665 165.11C557.413 165.083 557.161 165.058 556.908 165.033Z" fill="#EFEFEF"/>
</g>
<path id="Stroke 8" d="M503.402 268.041L500.033 213.554" stroke="#12173A" stroke-width="5"/>
<g id="Coat">
<path id="Coat_2" fill-rule="evenodd" clip-rule="evenodd" d="M589.284 310.168L594.398 333.566L555.953 336.732C555.953 336.732 552.651 224.746 552.976 191.822C553.124 176.745 557.484 165.823 557.484 165.823C557.484 165.823 574.57 170.874 578.444 173.458C587.569 179.545 607.405 208.707 610.935 224.123C616.479 248.322 615.905 290.153 615.905 290.153L586.788 288.772L578.399 243.313L577.12 254.95L587.698 303.08C587.334 304.28 587.031 305.186 586.788 305.798C585.573 308.864 584.877 310.649 585.023 311.315C585.16 311.935 585.758 312.307 587.224 311.552C587.613 311.352 588.3 310.89 589.284 310.168ZM499.796 288.07L495.833 296.371L470.357 282.131L491.138 229.511C491.138 229.511 496.544 188.755 499.802 183.313C506.102 172.791 525.079 166.091 525.079 166.091C525.079 166.091 525.073 166.097 525.073 166.103C524.884 166.59 524.732 169.414 524.392 175.743C524.161 180.021 523.845 185.901 523.373 193.745C522.329 211.089 512.423 335.575 512.423 335.575L498.719 333.945L499.796 288.07Z" fill="#09074A"/>
</g>
<g id="Lapel">
<path id="Shape" fill-rule="evenodd" clip-rule="evenodd" d="M570.933 199.365L553.644 236.257C553.644 236.257 553.134 195.675 553.37 185.911C553.535 179.04 557.665 165.115 557.665 165.115L564.528 170.826C568.885 174.452 570.006 180.702 567.183 185.627L567.092 185.786L568.483 187.052C571.906 190.169 572.9 195.166 570.933 199.365ZM525.082 166.091L520.252 235.908L507.647 201.545C505.816 196.552 507.29 190.942 511.336 187.508L511.873 187.052L511.633 185.805C510.728 181.119 512.475 176.313 516.173 173.314L525.082 166.091Z" fill="#0C092A"/>
</g>
<path id="Stroke 23" opacity="0.197498" d="M578.715 243.35L577.022 234.861L568.462 218.986" stroke="#0C092A" stroke-width="5"/>
</g>
</g>
</g>
</g>
</svg>
