<svg width="113" height="113" viewBox="0 0 113 113" fill="none" xmlns="http://www.w3.org/2000/svg">
<rect width="103" height="103" rx="9" fill="url(#paint0_linear_3319_18798)"/>
<path d="M19.299 40.779H21.829V42H17.759V34.322H19.299V40.779ZM25.5138 42.099C24.9272 42.099 24.3992 41.9707 23.9298 41.714C23.4605 41.45 23.0902 41.0797 22.8188 40.603C22.5548 40.1263 22.4228 39.5763 22.4228 38.953C22.4228 38.3297 22.5585 37.7797 22.8298 37.303C23.1085 36.8263 23.4862 36.4597 23.9628 36.203C24.4395 35.939 24.9712 35.807 25.5578 35.807C26.1445 35.807 26.6762 35.939 27.1528 36.203C27.6295 36.4597 28.0035 36.8263 28.2748 37.303C28.5535 37.7797 28.6928 38.3297 28.6928 38.953C28.6928 39.5763 28.5498 40.1263 28.2638 40.603C27.9852 41.0797 27.6038 41.45 27.1198 41.714C26.6432 41.9707 26.1078 42.099 25.5138 42.099ZM25.5138 40.757C25.7925 40.757 26.0528 40.691 26.2948 40.559C26.5442 40.4197 26.7422 40.2143 26.8888 39.943C27.0355 39.6717 27.1088 39.3417 27.1088 38.953C27.1088 38.3737 26.9548 37.93 26.6468 37.622C26.3462 37.3067 25.9758 37.149 25.5358 37.149C25.0958 37.149 24.7255 37.3067 24.4248 37.622C24.1315 37.93 23.9848 38.3737 23.9848 38.953C23.9848 39.5323 24.1278 39.9797 24.4138 40.295C24.7072 40.603 25.0738 40.757 25.5138 40.757ZM30.6035 35.18C30.3248 35.18 30.0938 35.0957 29.9105 34.927C29.7345 34.751 29.6465 34.5347 29.6465 34.278C29.6465 34.0213 29.7345 33.8087 29.9105 33.64C30.0938 33.464 30.3248 33.376 30.6035 33.376C30.8748 33.376 31.0985 33.464 31.2745 33.64C31.4505 33.8087 31.5385 34.0213 31.5385 34.278C31.5385 34.5347 31.4505 34.751 31.2745 34.927C31.0985 35.0957 30.8748 35.18 30.6035 35.18ZM31.3625 43.001C31.3625 43.6757 31.1938 44.1597 30.8565 44.453C30.5265 44.7537 30.0498 44.904 29.4265 44.904H28.7445V43.595H29.1845C29.4191 43.595 29.5841 43.5473 29.6795 43.452C29.7748 43.364 29.8225 43.2173 29.8225 43.012V35.906H31.3625V43.001ZM32.488 38.931C32.488 38.315 32.609 37.7687 32.851 37.292C33.1003 36.8153 33.434 36.4487 33.852 36.192C34.2773 35.9353 34.7503 35.807 35.271 35.807C35.7257 35.807 36.1217 35.8987 36.459 36.082C36.8037 36.2653 37.0787 36.4963 37.284 36.775V35.906H38.835V42H37.284V41.109C37.086 41.395 36.811 41.6333 36.459 41.824C36.1143 42.0073 35.7147 42.099 35.26 42.099C34.7467 42.099 34.2773 41.967 33.852 41.703C33.434 41.439 33.1003 41.0687 32.851 40.592C32.609 40.108 32.488 39.5543 32.488 38.931ZM37.284 38.953C37.284 38.579 37.2107 38.26 37.064 37.996C36.9173 37.7247 36.7193 37.5193 36.47 37.38C36.2207 37.2333 35.953 37.16 35.667 37.16C35.381 37.16 35.117 37.2297 34.875 37.369C34.633 37.5083 34.435 37.7137 34.281 37.985C34.1343 38.249 34.061 38.5643 34.061 38.931C34.061 39.2977 34.1343 39.6203 34.281 39.899C34.435 40.1703 34.633 40.3793 34.875 40.526C35.1243 40.6727 35.3883 40.746 35.667 40.746C35.953 40.746 36.2207 40.6763 36.47 40.537C36.7193 40.3903 36.9173 40.185 37.064 39.921C37.2107 39.6497 37.284 39.327 37.284 38.953ZM42.6711 42.099C42.1724 42.099 41.7251 42.011 41.3291 41.835C40.9331 41.6517 40.6177 41.406 40.3831 41.098C40.1557 40.79 40.0311 40.449 40.0091 40.075H41.5601C41.5894 40.3097 41.7031 40.504 41.9011 40.658C42.1064 40.812 42.3594 40.889 42.6601 40.889C42.9534 40.889 43.1807 40.8303 43.3421 40.713C43.5107 40.5957 43.5951 40.4453 43.5951 40.262C43.5951 40.064 43.4924 39.9173 43.2871 39.822C43.0891 39.7193 42.7701 39.6093 42.3301 39.492C41.8754 39.382 41.5014 39.2683 41.2081 39.151C40.9221 39.0337 40.6727 38.854 40.4601 38.612C40.2547 38.37 40.1521 38.0437 40.1521 37.633C40.1521 37.2957 40.2474 36.9877 40.4381 36.709C40.6361 36.4303 40.9147 36.2103 41.2741 36.049C41.6407 35.8877 42.0697 35.807 42.5611 35.807C43.2871 35.807 43.8664 35.9903 44.2991 36.357C44.7317 36.7163 44.9701 37.204 45.0141 37.82H43.5401C43.5181 37.578 43.4154 37.3873 43.2321 37.248C43.0561 37.1013 42.8177 37.028 42.5171 37.028C42.2384 37.028 42.0221 37.0793 41.8681 37.182C41.7214 37.2847 41.6481 37.4277 41.6481 37.611C41.6481 37.8163 41.7507 37.974 41.9561 38.084C42.1614 38.1867 42.4804 38.293 42.9131 38.403C43.3531 38.513 43.7161 38.6267 44.0021 38.744C44.2881 38.8613 44.5337 39.0447 44.7391 39.294C44.9517 39.536 45.0617 39.8587 45.0691 40.262C45.0691 40.614 44.9701 40.9293 44.7721 41.208C44.5814 41.4867 44.3027 41.7067 43.9361 41.868C43.5767 42.022 43.1551 42.099 42.6711 42.099ZM31.88 60.544C33.1387 60.7787 34.1733 61.408 34.984 62.432C35.7947 63.456 36.2 64.6293 36.2 65.952C36.2 67.1467 35.9013 68.2027 35.304 69.12C34.728 70.016 33.8853 70.72 32.776 71.232C31.6667 71.744 30.3547 72 28.84 72H19.208V49.664H28.424C29.9387 49.664 31.24 49.9093 32.328 50.4C33.4373 50.8907 34.2693 51.5733 34.824 52.448C35.4 53.3227 35.688 54.3147 35.688 55.424C35.688 56.7253 35.336 57.8133 34.632 58.688C33.9493 59.5627 33.032 60.1813 31.88 60.544ZM23.688 58.88H27.784C28.8507 58.88 29.672 58.6453 30.248 58.176C30.824 57.6853 31.112 56.992 31.112 56.096C31.112 55.2 30.824 54.5067 30.248 54.016C29.672 53.5253 28.8507 53.28 27.784 53.28H23.688V58.88ZM28.2 68.352C29.288 68.352 30.1307 68.096 30.728 67.584C31.3467 67.072 31.656 66.3467 31.656 65.408C31.656 64.448 31.336 63.7013 30.696 63.168C30.056 62.6133 29.192 62.336 28.104 62.336H23.688V68.352H28.2ZM42.0425 52.16C41.2532 52.16 40.5918 51.9147 40.0585 51.424C39.5465 50.912 39.2905 50.2827 39.2905 49.536C39.2905 48.7893 39.5465 48.1707 40.0585 47.68C40.5918 47.168 41.2532 46.912 42.0425 46.912C42.8318 46.912 43.4825 47.168 43.9945 47.68C44.5278 48.1707 44.7945 48.7893 44.7945 49.536C44.7945 50.2827 44.5278 50.912 43.9945 51.424C43.4825 51.9147 42.8318 52.16 42.0425 52.16ZM44.2505 54.272V72H39.7705V54.272H44.2505ZM59.1728 72L53.1568 64.448V72H48.6768V48.32H53.1568V61.792L59.1088 54.272H64.9328L57.1248 63.168L64.9968 72H59.1728ZM83.8443 62.752C83.8443 63.392 83.8016 63.968 83.7163 64.48H70.7563C70.8629 65.76 71.3109 66.7627 72.1003 67.488C72.8896 68.2133 73.8603 68.576 75.0123 68.576C76.6763 68.576 77.8603 67.8613 78.5643 66.432H83.3963C82.8843 68.1387 81.9029 69.5467 80.4523 70.656C79.0016 71.744 77.2203 72.288 75.1083 72.288C73.4016 72.288 71.8656 71.9147 70.5003 71.168C69.1563 70.4 68.1003 69.3227 67.3323 67.936C66.5856 66.5493 66.2122 64.9493 66.2122 63.136C66.2122 61.3013 66.5856 59.6907 67.3323 58.304C68.0789 56.9173 69.1243 55.8507 70.4683 55.104C71.8123 54.3573 73.3589 53.984 75.1083 53.984C76.7936 53.984 78.2976 54.3467 79.6203 55.072C80.9643 55.7973 81.9989 56.832 82.7243 58.176C83.4709 59.4987 83.8443 61.024 83.8443 62.752ZM79.2043 61.472C79.1829 60.32 78.7669 59.4027 77.9563 58.72C77.1456 58.016 76.1536 57.664 74.9803 57.664C73.8709 57.664 72.9323 58.0053 72.1643 58.688C71.4176 59.3493 70.9589 60.2773 70.7883 61.472H79.2043Z" fill="white"/>
<path d="M103.684 99.25C104.621 99.25 105.446 98.7375 105.871 97.9625L110.346 89.85C110.809 89.025 110.209 88 109.259 88H90.7586L89.5836 85.5H85.4961V88H87.9961L92.4961 97.4875L90.8086 100.537C89.8961 102.212 91.0961 104.25 92.9961 104.25H107.996V101.75H92.9961L94.3711 99.25H103.684ZM91.9461 90.5H107.134L103.684 96.75H94.9086L91.9461 90.5ZM92.9961 105.5C91.6211 105.5 90.5086 106.625 90.5086 108C90.5086 109.375 91.6211 110.5 92.9961 110.5C94.3711 110.5 95.4961 109.375 95.4961 108C95.4961 106.625 94.3711 105.5 92.9961 105.5ZM105.496 105.5C104.121 105.5 103.009 106.625 103.009 108C103.009 109.375 104.121 110.5 105.496 110.5C106.871 110.5 107.996 109.375 107.996 108C107.996 106.625 106.871 105.5 105.496 105.5Z" fill="#FE4646"/>
<defs>
<linearGradient id="paint0_linear_3319_18798" x1="137.056" y1="124.597" x2="-67.6976" y2="-5.39918" gradientUnits="userSpaceOnUse">
<stop stop-color="#7D0B0B"/>
<stop offset="1" stop-color="#FE4646"/>
</linearGradient>
</defs>
</svg>
