<svg width="113" height="113" viewBox="0 0 113 113" fill="none" xmlns="http://www.w3.org/2000/svg">
<rect width="103" height="103" rx="9" fill="url(#paint0_linear_3319_18810)"/>
<path d="M21.022 34.322L18.877 42H17.062L15.621 36.533L14.114 42L12.31 42.011L10.242 34.322H11.892L13.245 40.284L14.807 34.322H16.523L17.997 40.251L19.361 34.322H21.022ZM24.7336 42.099C24.1469 42.099 23.6189 41.9707 23.1496 41.714C22.6802 41.45 22.3099 41.0797 22.0386 40.603C21.7746 40.1263 21.6426 39.5763 21.6426 38.953C21.6426 38.3297 21.7782 37.7797 22.0496 37.303C22.3282 36.8263 22.7059 36.4597 23.1826 36.203C23.6592 35.939 24.1909 35.807 24.7776 35.807C25.3642 35.807 25.8959 35.939 26.3726 36.203C26.8492 36.4597 27.2232 36.8263 27.4946 37.303C27.7732 37.7797 27.9126 38.3297 27.9126 38.953C27.9126 39.5763 27.7696 40.1263 27.4836 40.603C27.2049 41.0797 26.8236 41.45 26.3396 41.714C25.8629 41.9707 25.3276 42.099 24.7336 42.099ZM24.7336 40.757C25.0122 40.757 25.2726 40.691 25.5146 40.559C25.7639 40.4197 25.9619 40.2143 26.1086 39.943C26.2552 39.6717 26.3286 39.3417 26.3286 38.953C26.3286 38.3737 26.1746 37.93 25.8666 37.622C25.5659 37.3067 25.1956 37.149 24.7556 37.149C24.3156 37.149 23.9452 37.3067 23.6446 37.622C23.3512 37.93 23.2046 38.3737 23.2046 38.953C23.2046 39.5323 23.3476 39.9797 23.6336 40.295C23.9269 40.603 24.2936 40.757 24.7336 40.757ZM36.6102 35.818C37.3582 35.818 37.9595 36.049 38.4142 36.511C38.8762 36.9657 39.1072 37.6037 39.1072 38.425V42H37.5672V38.634C37.5672 38.1573 37.4462 37.7943 37.2042 37.545C36.9622 37.2883 36.6322 37.16 36.2142 37.16C35.7962 37.16 35.4625 37.2883 35.2132 37.545C34.9712 37.7943 34.8502 38.1573 34.8502 38.634V42H33.3102V38.634C33.3102 38.1573 33.1892 37.7943 32.9472 37.545C32.7052 37.2883 32.3752 37.16 31.9572 37.16C31.5319 37.16 31.1945 37.2883 30.9452 37.545C30.7032 37.7943 30.5822 38.1573 30.5822 38.634V42H29.0422V35.906H30.5822V36.643C30.7802 36.3863 31.0332 36.1847 31.3412 36.038C31.6565 35.8913 32.0012 35.818 32.3752 35.818C32.8519 35.818 33.2772 35.9207 33.6512 36.126C34.0252 36.324 34.3149 36.61 34.5202 36.984C34.7182 36.632 35.0042 36.3497 35.3782 36.137C35.7595 35.9243 36.1702 35.818 36.6102 35.818ZM40.1726 38.931C40.1726 38.315 40.2936 37.7687 40.5356 37.292C40.7849 36.8153 41.1186 36.4487 41.5366 36.192C41.9619 35.9353 42.4349 35.807 42.9556 35.807C43.4102 35.807 43.8062 35.8987 44.1436 36.082C44.4882 36.2653 44.7632 36.4963 44.9686 36.775V35.906H46.5196V42H44.9686V41.109C44.7706 41.395 44.4956 41.6333 44.1436 41.824C43.7989 42.0073 43.3992 42.099 42.9446 42.099C42.4312 42.099 41.9619 41.967 41.5366 41.703C41.1186 41.439 40.7849 41.0687 40.5356 40.592C40.2936 40.108 40.1726 39.5543 40.1726 38.931ZM44.9686 38.953C44.9686 38.579 44.8952 38.26 44.7486 37.996C44.6019 37.7247 44.4039 37.5193 44.1546 37.38C43.9052 37.2333 43.6376 37.16 43.3516 37.16C43.0656 37.16 42.8016 37.2297 42.5596 37.369C42.3176 37.5083 42.1196 37.7137 41.9656 37.985C41.8189 38.249 41.7456 38.5643 41.7456 38.931C41.7456 39.2977 41.8189 39.6203 41.9656 39.899C42.1196 40.1703 42.3176 40.3793 42.5596 40.526C42.8089 40.6727 43.0729 40.746 43.3516 40.746C43.6376 40.746 43.9052 40.6763 44.1546 40.537C44.4039 40.3903 44.6019 40.185 44.7486 39.921C44.8952 39.6497 44.9686 39.327 44.9686 38.953ZM51.4006 35.818C52.1266 35.818 52.7133 36.049 53.1606 36.511C53.608 36.9657 53.8316 37.6037 53.8316 38.425V42H52.2916V38.634C52.2916 38.15 52.1706 37.7797 51.9286 37.523C51.6866 37.259 51.3566 37.127 50.9386 37.127C50.5133 37.127 50.176 37.259 49.9266 37.523C49.6846 37.7797 49.5636 38.15 49.5636 38.634V42H48.0236V35.906H49.5636V36.665C49.769 36.401 50.0293 36.1957 50.3446 36.049C50.6673 35.895 51.0193 35.818 51.4006 35.818ZM24.88 60.544C26.1387 60.7787 27.1733 61.408 27.984 62.432C28.7947 63.456 29.2 64.6293 29.2 65.952C29.2 67.1467 28.9013 68.2027 28.304 69.12C27.728 70.016 26.8853 70.72 25.776 71.232C24.6667 71.744 23.3547 72 21.84 72H12.208V49.664H21.424C22.9387 49.664 24.24 49.9093 25.328 50.4C26.4373 50.8907 27.2693 51.5733 27.824 52.448C28.4 53.3227 28.688 54.3147 28.688 55.424C28.688 56.7253 28.336 57.8133 27.632 58.688C26.9493 59.5627 26.032 60.1813 24.88 60.544ZM16.688 58.88H20.784C21.8507 58.88 22.672 58.6453 23.248 58.176C23.824 57.6853 24.112 56.992 24.112 56.096C24.112 55.2 23.824 54.5067 23.248 54.016C22.672 53.5253 21.8507 53.28 20.784 53.28H16.688V58.88ZM21.2 68.352C22.288 68.352 23.1307 68.096 23.728 67.584C24.3467 67.072 24.656 66.3467 24.656 65.408C24.656 64.448 24.336 63.7013 23.696 63.168C23.056 62.6133 22.192 62.336 21.104 62.336H16.688V68.352H21.2ZM31.6185 63.072C31.6185 61.28 31.9705 59.6907 32.6745 58.304C33.3998 56.9173 34.3705 55.8507 35.5865 55.104C36.8238 54.3573 38.1998 53.984 39.7145 53.984C41.0372 53.984 42.1892 54.2507 43.1705 54.784C44.1732 55.3173 44.9732 55.9893 45.5705 56.8V54.272H50.0825V72H45.5705V69.408C44.9945 70.24 44.1945 70.9333 43.1705 71.488C42.1678 72.0213 41.0052 72.288 39.6825 72.288C38.1892 72.288 36.8238 71.904 35.5865 71.136C34.3705 70.368 33.3998 69.2907 32.6745 67.904C31.9705 66.496 31.6185 64.8853 31.6185 63.072ZM45.5705 63.136C45.5705 62.048 45.3572 61.12 44.9305 60.352C44.5038 59.5627 43.9278 58.9653 43.2025 58.56C42.4772 58.1333 41.6985 57.92 40.8665 57.92C40.0345 57.92 39.2665 58.1227 38.5625 58.528C37.8585 58.9333 37.2825 59.5307 36.8345 60.32C36.4078 61.088 36.1945 62.0053 36.1945 63.072C36.1945 64.1387 36.4078 65.0773 36.8345 65.888C37.2825 66.6773 37.8585 67.2853 38.5625 67.712C39.2878 68.1387 40.0558 68.352 40.8665 68.352C41.6985 68.352 42.4772 68.1493 43.2025 67.744C43.9278 67.3173 44.5038 66.72 44.9305 65.952C45.3572 65.1627 45.5705 64.224 45.5705 63.136ZM64.282 54.016C66.394 54.016 68.1007 54.688 69.402 56.032C70.7033 57.3547 71.354 59.2107 71.354 61.6V72H66.874V62.208C66.874 60.8 66.522 59.7227 65.818 58.976C65.114 58.208 64.154 57.824 62.938 57.824C61.7007 57.824 60.7193 58.208 59.994 58.976C59.29 59.7227 58.938 60.8 58.938 62.208V72H54.458V54.272H58.938V56.48C59.5353 55.712 60.2927 55.1147 61.21 54.688C62.1487 54.24 63.1727 54.016 64.282 54.016ZM86.1103 72L80.0943 64.448V72H75.6143V48.32H80.0943V61.792L86.0463 54.272H91.8703L84.0623 63.168L91.9343 72H86.1103Z" fill="white"/>
<path d="M103.684 99.25C104.621 99.25 105.446 98.7375 105.871 97.9625L110.346 89.85C110.809 89.025 110.209 88 109.259 88H90.7586L89.5836 85.5H85.4961V88H87.9961L92.4961 97.4875L90.8086 100.537C89.8961 102.212 91.0961 104.25 92.9961 104.25H107.996V101.75H92.9961L94.3711 99.25H103.684ZM91.9461 90.5H107.134L103.684 96.75H94.9086L91.9461 90.5ZM92.9961 105.5C91.6211 105.5 90.5086 106.625 90.5086 108C90.5086 109.375 91.6211 110.5 92.9961 110.5C94.3711 110.5 95.4961 109.375 95.4961 108C95.4961 106.625 94.3711 105.5 92.9961 105.5ZM105.496 105.5C104.121 105.5 103.009 106.625 103.009 108C103.009 109.375 104.121 110.5 105.496 110.5C106.871 110.5 107.996 109.375 107.996 108C107.996 106.625 106.871 105.5 105.496 105.5Z" fill="#FE4646"/>
<defs>
<linearGradient id="paint0_linear_3319_18810" x1="137.056" y1="124.597" x2="-67.6976" y2="-5.39918" gradientUnits="userSpaceOnUse">
<stop stop-color="#7D0B0B"/>
<stop offset="1" stop-color="#FE4646"/>
</linearGradient>
</defs>
</svg>
