<svg width="242" height="427" viewBox="0 0 242 427" fill="none" xmlns="http://www.w3.org/2000/svg">
<g opacity="0.88">
<path d="M168.043 191.4C172.946 192.422 173.774 193.249 174.796 198.152C175.818 193.249 176.646 192.422 181.549 191.4C176.646 190.378 175.818 189.55 174.796 184.647C173.775 189.55 172.947 190.378 168.043 191.4Z" fill="#8F1318" stroke="#020001" stroke-miterlimit="10" stroke-linecap="round" stroke-linejoin="round"/>
<path d="M227.217 312.453C232.384 313.53 233.256 314.402 234.332 319.569C235.408 314.402 236.28 313.53 241.447 312.453C236.28 311.377 235.408 310.505 234.332 305.338C233.256 310.504 232.384 311.377 227.217 312.453Z" fill="#020001"/>
<path d="M210.265 136.492C214.23 137.318 214.9 137.988 215.726 141.954C216.552 137.988 217.222 137.318 221.188 136.492C217.222 135.666 216.552 134.997 215.726 131.031C214.9 134.997 214.229 135.666 210.265 136.492Z" fill="#020001"/>
<path d="M-0.760827 313.551C3.20505 314.377 3.87477 315.047 4.70064 319.013C5.52652 315.047 6.19623 314.377 10.1621 313.551C6.19623 312.725 5.52652 312.056 4.70064 308.09C3.87477 312.056 3.20505 312.725 -0.760827 313.551Z" fill="#020001"/>
<path d="M158.464 43.858C162.43 44.6838 163.099 45.3535 163.925 49.3194C164.751 45.3535 165.421 44.6838 169.387 43.858C165.421 43.0321 164.751 42.3624 163.925 38.3965C163.099 42.3624 162.43 43.0321 158.464 43.858Z" fill="#020001"/>
<path d="M17.055 421.211C24.6545 421.211 31.9941 420.229 36.6884 418.583C48.7569 414.353 51.7303 407.315 51.8518 407.019C51.878 406.955 51.8906 406.887 51.8906 406.82C51.8896 406.599 51.5081 384.777 27.26 378.922C26.2214 376.608 17.8557 357.809 16.3413 349.472C16.2753 349.183 14.7461 342.974 7.35935 340.969C6.01574 340.604 4.30844 340.411 2.42192 340.411C-6.52751 340.411 -18.2072 344.394 -22.2254 351.774C-27.5957 361.639 -23.4915 401.84 -14.3744 412.187C-9.39397 417.838 2.3559 421.211 17.055 421.211Z" fill="#A62828"/>
<path d="M2.41816 340.937C-5.73264 340.937 -17.6712 344.502 -21.768 352.025C-26.7872 361.244 -23.1001 401.497 -13.9841 411.841C-8.38214 418.198 4.87799 420.688 17.0492 420.688C24.6843 420.688 31.8919 419.708 36.5117 418.09C48.4953 413.89 51.3639 406.823 51.3639 406.823C51.3639 406.823 51.2612 385.11 26.8842 379.373C26.8842 379.373 17.461 358.581 15.8219 349.568C15.8219 349.568 14.3881 343.422 7.21832 341.476C5.9009 341.118 4.25542 340.937 2.41816 340.937ZM2.41714 339.889H2.41922C4.38015 339.889 6.08747 340.083 7.49502 340.464C15.1805 342.55 16.7809 349.053 16.8448 349.329C18.3173 357.42 26.2376 375.355 27.6315 378.474C52.0231 384.514 52.413 406.594 52.414 406.817C52.4151 406.953 52.3889 407.09 52.3375 407.216C52.2128 407.522 49.1504 414.772 36.8607 419.078C32.112 420.743 24.7074 421.736 17.0523 421.736C2.20437 421.736 -9.69012 418.297 -14.768 412.534C-23.9732 402.087 -28.112 361.487 -22.6861 351.523C-18.5725 343.967 -6.68217 339.889 2.41714 339.889Z" fill="#020001"/>
<path d="M2.60203 372.181C2.63976 372.181 2.67645 372.177 2.71522 372.169L15.313 369.405C15.3496 369.397 15.3853 369.384 15.4199 369.369L21.4945 366.56C21.747 366.444 21.8644 366.15 21.7617 365.891C18.7926 358.418 16.9731 352.894 16.3506 349.469C16.2845 349.18 14.7554 342.971 7.36864 340.966C6.01034 340.597 4.35335 340.41 2.44483 340.41C0.594992 340.41 -1.37538 340.586 -3.41072 340.932C-3.46522 340.942 -3.51866 340.959 -3.56687 340.986C-3.85404 341.138 -10.547 344.83 -8.25908 356.845C-5.98059 368.803 2.0738 372.016 2.41546 372.147C2.4752 372.17 2.53915 372.181 2.60203 372.181Z" fill="#8F1318"/>
<path d="M2.44381 340.937C0.662096 340.937 -1.30092 341.108 -3.32369 341.451C-3.35827 341.469 -9.98833 344.97 -7.74547 356.748C-5.49632 368.557 2.60207 371.658 2.60207 371.658L15.1988 368.895L21.2734 366.087C18.9288 360.184 16.578 353.66 15.8328 349.565C15.8328 349.565 14.3991 343.42 7.22928 341.474C5.91501 341.117 4.27583 340.937 2.44381 340.937ZM2.44381 339.889C4.3995 339.889 6.10262 340.082 7.50493 340.462C15.1904 342.548 16.7908 349.051 16.8547 349.327C17.4815 352.765 19.2925 358.257 22.248 365.699C22.4535 366.216 22.2187 366.804 21.7136 367.038L15.6389 369.846C15.5698 369.877 15.4975 369.901 15.4241 369.918L2.8274 372.681C2.75299 372.697 2.67753 372.705 2.60312 372.705C2.47526 372.705 2.34844 372.682 2.22791 372.635C1.87471 372.5 -6.44275 369.185 -8.77469 356.943C-11.1391 344.527 -4.11183 340.68 -3.81103 340.522C-3.71356 340.47 -3.60876 340.435 -3.49976 340.417C-1.43402 340.067 0.564627 339.889 2.44381 339.889Z" fill="#020001"/>
<path d="M51.3694 405.429C51.3694 405.429 52.7109 407.025 52.7109 408.998C52.7109 410.97 52.6575 415.103 51.3694 416.606C50.0813 418.109 39.6342 426.937 18.1363 426.374C-3.36163 425.81 -11.8153 420.106 -14.8201 415.914C-17.8249 411.722 -36.8924 369.643 -35.1075 362.223C-33.3227 354.802 -20.0678 344.015 -13.968 344.947C-13.968 344.947 -22.8976 352.831 -22.3337 369.643C-21.7699 386.455 -15.8525 402.798 -10.3114 409.561C-4.77024 416.323 9.69412 415.572 10.7275 414.445C11.7609 413.317 14.3905 405.898 15.9878 404.77C17.584 403.643 31.7674 402.422 33.5512 403.079C35.3361 403.736 40.6896 410.969 42.3801 411.062C44.0707 411.156 50.5907 407.12 51.3694 405.429Z" fill="#FFFEFB" stroke="#020001" stroke-miterlimit="10" stroke-linecap="round" stroke-linejoin="round"/>
<path d="M13.2444 372.183C22.8048 372.183 36.1467 366.476 44.4013 353.725C55.2634 336.95 54.7038 319.843 50.9244 310.293C47.5423 301.746 27.0977 299.916 26.2289 299.842C26.2142 299.841 26.1995 299.84 26.1849 299.84C26.036 299.84 25.8914 299.904 25.7918 300.018C25.6818 300.142 25.6378 300.311 25.6724 300.475C25.731 300.744 31.3895 327.572 24.597 338.564C20.5756 345.073 15.3804 348.237 8.71677 348.237C7.79132 348.237 6.96125 348.181 6.29468 348.136L5.64383 348.094L5.45938 348.089C3.10332 348.089 0.455891 350.537 -0.981007 354.043C-3.05827 359.115 -1.96409 364.442 1.94624 368.291C4.49618 370.8 8.50922 372.183 13.2444 372.183Z" fill="#600D10"/>
<path d="M26.1856 300.365C26.1856 300.365 32.0265 327.539 25.0433 338.84C19.6436 347.578 13.0209 348.762 8.71543 348.762C7.45251 348.762 6.38979 348.66 5.61527 348.617C5.56392 348.614 5.5115 348.613 5.4591 348.613C0.789963 348.613 -5.72377 360.007 2.31384 367.917C4.84806 370.412 8.74268 371.66 13.2462 371.66C23.185 371.66 36.0982 365.589 43.9629 353.443C55.391 335.793 53.7403 318.83 50.4389 310.487C47.1375 302.143 26.1856 300.365 26.1856 300.365ZM26.1856 299.317C26.215 299.317 26.2443 299.318 26.2747 299.322C27.1561 299.396 47.9131 301.256 51.4136 310.102C55.2391 319.769 55.8134 337.07 44.8433 354.013C36.4808 366.928 22.9482 372.709 13.2473 372.709C8.30145 372.709 4.26746 371.311 1.58022 368.666C-2.48733 364.662 -3.62553 359.121 -1.46441 353.845C0.0500412 350.148 2.89764 347.566 5.4612 347.566C5.53247 347.566 5.60477 347.568 5.67499 347.572C5.87517 347.584 6.09528 347.599 6.33214 347.614C6.99033 347.659 7.81096 347.715 8.71754 347.715C15.1852 347.715 20.2337 344.633 24.1534 338.29C30.8349 327.479 25.2204 300.854 25.1627 300.587C25.0925 300.262 25.1816 299.923 25.4006 299.674C25.5998 299.445 25.8869 299.317 26.1856 299.317Z" fill="#020001"/>
<path d="M107.714 351.563C112.57 351.563 119.211 350.413 123.269 344.937C131.346 334.038 132.574 309.503 109.558 291.457C104.124 287.196 99.3421 285.036 95.3448 285.036C84.1305 285.036 82.8193 301.833 82.8078 302.004C82.7931 302.206 82.8969 302.398 83.073 302.498C83.2197 302.581 97.8224 310.986 100.99 326.693C104.158 342.399 99.8766 349.845 99.8336 349.918C99.7498 350.06 99.7362 350.233 99.799 350.384C99.8619 350.537 99.9908 350.651 100.15 350.693C100.284 350.728 103.501 351.563 107.714 351.563Z" fill="#600D10"/>
<path d="M95.3432 285.562C84.4873 285.56 83.3292 302.043 83.3292 302.043C83.3292 302.043 98.2474 310.451 101.503 326.59C104.758 342.73 100.282 350.189 100.282 350.189C100.282 350.189 103.518 351.042 107.712 351.042C112.675 351.042 118.979 349.847 122.847 344.628C129.983 334.998 133.102 310.586 109.232 291.871C103.393 287.292 98.8584 285.563 95.3432 285.562ZM95.3411 284.514C95.3421 284.514 95.3432 284.514 95.3432 284.514C99.4621 284.515 104.352 286.713 109.879 291.045C133.169 309.307 131.887 334.187 123.688 345.25C119.5 350.901 112.689 352.088 107.712 352.088C103.432 352.088 100.152 351.236 100.014 351.2C99.6958 351.116 99.4348 350.887 99.3111 350.582C99.1875 350.277 99.2137 349.931 99.3835 349.648C99.4233 349.58 103.594 342.257 100.476 326.796C97.3576 311.336 82.9592 303.036 82.8146 302.953C82.4625 302.754 82.256 302.371 82.2843 301.967C82.3336 301.255 83.6468 284.514 95.3411 284.514Z" fill="#020001"/>
<path d="M109.229 291.875C112.741 294.628 115.653 297.507 118.07 300.442C111.369 305.739 103.743 309.972 95.2801 312.982C89.9067 305.761 83.3259 302.047 83.3259 302.047C83.3259 302.047 85.3602 273.16 109.229 291.875Z" fill="#020001" stroke="#020001" stroke-miterlimit="10" stroke-linecap="round" stroke-linejoin="round"/>
<path d="M26.1864 300.365C26.1864 300.365 47.1372 302.143 50.4397 310.486C51.9615 314.331 53.128 320.009 52.8303 326.739C43.84 324.648 35.6525 321.209 28.3213 316.727C27.8099 307.925 26.1864 300.365 26.1864 300.365Z" fill="#020001" stroke="#020001" stroke-miterlimit="10" stroke-linecap="round" stroke-linejoin="round"/>
<path d="M166.338 316.447C177.112 316.447 190.431 312.743 195.499 302.346C202.853 287.263 192.284 272.472 192.176 272.325C192.075 272.186 191.916 272.11 191.752 272.11C191.685 272.11 191.618 272.122 191.553 272.15C186.109 274.39 168.449 281.992 169.827 285.731C170.373 287.213 170.196 288.931 169.375 290.108C168.618 291.193 167.352 291.766 165.715 291.766C164.135 291.766 162.231 291.247 160.059 290.225C150.584 285.766 141.122 265.43 141.041 265.23C140.977 265.078 140.845 264.962 140.684 264.921C140.64 264.91 140.596 264.904 140.552 264.904C140.434 264.904 140.317 264.943 140.224 265.019C138.279 266.595 121.276 280.585 123.401 286.477C125.715 292.894 134.811 305.14 147.79 312.267C152.697 314.963 159.285 316.447 166.338 316.447Z" fill="#600D10"/>
<path d="M140.556 265.426C140.556 265.426 121.837 280.589 123.895 286.298C125.955 292.008 134.659 304.457 148.044 311.807C152.937 314.494 159.553 315.923 166.341 315.923C178.118 315.923 190.399 311.617 195.031 302.117C202.332 287.141 191.755 272.633 191.755 272.633C191.755 272.633 169.01 281.993 170.321 285.549C171.302 288.211 170.291 292.288 165.717 292.288C164.18 292.288 162.24 291.827 159.837 290.697C150.291 286.205 140.743 265.894 140.556 265.426ZM140.556 264.378C140.644 264.378 140.733 264.389 140.82 264.411C141.14 264.494 141.401 264.724 141.526 265.029C141.651 265.315 151.094 285.425 160.284 289.75C162.387 290.739 164.215 291.241 165.717 291.241C167.197 291.241 168.284 290.758 168.947 289.806C169.772 288.623 169.737 286.998 169.337 285.913C168.744 284.303 169.634 282.087 180.075 276.823C185.57 274.052 191.299 271.688 191.356 271.665C191.486 271.612 191.621 271.587 191.754 271.587C192.081 271.587 192.4 271.741 192.601 272.017C193.049 272.63 203.463 287.212 195.972 302.578C190.797 313.192 177.272 316.973 166.34 316.973C159.2 316.973 152.523 315.465 147.538 312.728C134.442 305.535 125.251 293.153 122.908 286.657C120.707 280.555 136.672 267.224 139.895 264.614C140.085 264.459 140.318 264.378 140.556 264.378Z" fill="#020001"/>
<path d="M21.0147 389.135C22.1476 389.135 23.2366 389.049 24.2511 388.88C28.9842 388.092 31.445 385.917 32.1703 384.143C32.5549 383.203 32.5036 382.288 32.0278 381.635C30.9671 380.177 28.1143 379.204 27.2632 378.94C26.7738 377.851 24.5267 372.811 22.1958 367.017C22.1162 366.817 21.9223 366.688 21.7095 366.688C21.6959 366.688 21.6823 366.69 21.6687 366.691C16.2334 367.115 6.76413 368.308 4.40284 371.506C3.89138 372.2 3.72264 372.956 3.90081 373.751C3.91024 373.792 3.92388 373.832 3.94274 373.87L7.6466 381.332C7.46948 382.361 7.02929 385.696 8.63073 386.434C8.68942 386.46 14.5607 389.136 21.0136 389.136L21.0147 389.135Z" fill="#8F1318"/>
<path d="M21.7106 367.214C16.9398 367.587 3.38311 369.056 4.41231 373.638L8.19373 381.256C8.19373 381.256 7.42757 385.304 8.8498 385.96C10.0467 386.512 15.4275 388.615 21.0147 388.615C22.0659 388.615 23.1255 388.54 24.1652 388.367C30.7292 387.273 32.7373 383.503 31.6043 381.947C30.4714 380.389 26.8839 379.376 26.8839 379.376C26.8839 379.376 24.3675 373.822 21.7106 367.214ZM21.7106 366.166C22.1351 366.166 22.5218 366.424 22.6822 366.823C24.881 372.291 27.0054 377.086 27.6437 378.512C28.7557 378.873 31.3717 379.846 32.4501 381.328C33.035 382.132 33.1094 383.232 32.6545 384.345C31.6463 386.811 28.5367 388.7 24.336 389.401C23.2932 389.575 22.1749 389.663 21.0137 389.663C14.4454 389.663 8.46937 386.939 8.40963 386.911C6.57551 386.065 6.87212 382.836 7.1006 381.414L3.47219 374.104C3.43446 374.029 3.4072 373.95 3.38833 373.868C3.17767 372.931 3.38309 372.007 3.98049 371.198C6.46545 367.831 16.1035 366.603 21.6278 366.17C21.6561 366.167 21.6834 366.166 21.7106 366.166Z" fill="#020001"/>
<path d="M24.5243 372.605C24.5756 372.602 24.627 372.589 24.6741 372.572C24.8712 372.496 29.4994 370.661 29.3108 367.395C29.1358 364.371 15.339 364.337 14.7511 364.337C12.0009 364.337 2.86601 364.536 0.820189 367.1C-0.0497055 368.189 -0.341089 369.285 -0.0413437 370.358C0.62837 372.766 4.08805 374.07 4.23478 374.125C4.29347 374.147 4.35424 374.157 4.41713 374.157C4.4297 374.158 24.5243 372.605 24.5243 372.605Z" fill="#8F1318"/>
<path d="M14.7527 364.863C8.70016 364.863 2.67272 365.621 1.22953 367.428C-1.87169 371.31 4.41672 373.636 4.41672 373.636L24.4851 372.086C24.4851 372.086 28.9572 370.35 28.7884 367.428C28.6973 365.865 21.7088 364.863 14.7527 364.863ZM14.7517 363.815H14.7527C18.2428 363.815 29.6436 364.072 29.8333 367.367C30.044 371.009 25.0751 372.98 24.8634 373.063C24.7681 373.099 24.6674 373.122 24.5647 373.131L4.49636 374.681C4.46911 374.683 4.44291 374.684 4.41566 374.684C4.29199 374.684 4.1683 374.662 4.05196 374.619C3.65789 374.473 0.181458 373.119 -0.546947 370.501C-0.784859 369.645 -0.812082 368.304 0.409962 366.774C2.54382 364.104 11.1505 363.815 14.7517 363.815Z" fill="#020001"/>
<path d="M140.548 265.429C140.637 265.651 142.844 270.36 146.158 275.721C141.645 283.359 136.077 290.1 129.543 295.772C126.661 292.037 124.72 288.614 123.887 286.302C121.827 280.592 140.548 265.429 140.548 265.429Z" fill="#020001" stroke="#020001" stroke-miterlimit="10" stroke-linecap="round" stroke-linejoin="round"/>
<path d="M64.0694 312.334C68.6085 312.334 73.2913 312.014 77.9898 311.384C104.131 307.877 125.678 293.925 138.662 272.099C156.331 242.396 157.16 200.952 140.936 158.392C111.686 81.6606 58.0734 37.7729 57.5357 37.339C53.2439 33.5544 49.757 32.7568 47.5906 32.7568C46.0248 32.7568 44.6267 33.1687 43.5472 33.9485C41.0046 35.7847 39.0751 39.2695 44.0461 51.1986C47.3926 59.2289 46.9167 63.5385 45.9284 65.7405C45.2964 67.1481 44.24 68.1416 42.8722 68.6122C42.6406 68.6919 42.4069 68.7306 42.1554 68.7306C40.9962 68.7306 39.6987 67.8723 38.3268 66.9636C36.6824 65.8757 34.8178 64.6411 32.7448 64.6411C31.4158 64.6411 30.1686 65.1284 28.9288 66.1325C24.3875 69.8081 26.4271 76.2243 28.5871 83.0168C29.2925 85.2335 30.0209 87.5256 30.547 89.7915C32.5289 98.3092 31.0134 105.197 17.2313 119.202C4.95531 131.676 -26.5411 174.616 -24.8779 222.86C-24.1075 245.213 -15.199 267.47 -0.435944 283.923C11.1944 296.883 31.8256 312.334 64.0694 312.334Z" fill="#BF1920"/>
<path d="M47.5904 33.282C46.0414 33.282 44.769 33.7127 43.854 34.374C41.4215 36.1306 39.7991 39.6448 44.53 50.9974C49.26 62.35 46.9626 67.756 43.0429 69.108C42.7484 69.2096 42.4528 69.2557 42.1551 69.2557C39.3432 69.2557 36.3509 65.1662 32.7435 65.1662C31.643 65.1662 30.4849 65.5466 29.2576 66.5402C23.5813 71.1349 28.9222 80.491 31.0582 89.6742C33.1942 98.8573 30.8444 106.117 17.6042 119.571C4.36398 133.025 -25.9702 175.973 -24.354 222.843C-22.8606 266.166 9.4995 311.813 64.0691 311.813C68.537 311.813 73.159 311.506 77.9204 310.867C140.829 302.428 169.982 236.067 140.446 158.58C110.909 81.0947 57.2064 37.7488 57.2064 37.7488C53.4847 34.4652 50.1582 33.282 47.5904 33.282ZM47.5904 32.2339C49.8479 32.2339 53.469 33.0545 57.9002 36.9617C57.9998 37.0414 71.568 48.0691 88.5551 68.4351C104.225 87.2206 126.117 118.044 141.426 158.206C157.706 200.917 156.864 242.527 139.113 272.369C132.663 283.211 124.221 292.109 114.019 298.814C103.533 305.706 91.4352 310.111 78.0598 311.905C73.3382 312.538 68.6314 312.86 64.0691 312.86C31.6315 312.86 10.8745 297.314 -0.82605 284.273C-15.6688 267.73 -24.6266 245.353 -25.4011 222.878C-27.0707 174.449 4.53691 131.354 16.8569 118.834C30.4681 105.003 31.9742 98.2421 30.0364 89.91C29.5144 87.664 28.7881 85.3823 28.0869 83.1751C25.8713 76.2065 23.7783 69.6257 28.5974 65.7238C29.9148 64.6568 31.3098 64.116 32.7425 64.116C34.9748 64.116 36.9085 65.3957 38.6148 66.5255C39.9196 67.3891 41.1521 68.2056 42.1551 68.2056C42.3469 68.2056 42.5251 68.1762 42.7012 68.1155C43.9463 67.6857 44.8707 66.8148 45.4492 65.5246C46.3956 63.418 46.8358 59.2562 43.5616 51.3988C39.4962 41.6413 39.3998 36.2951 43.2399 33.522C44.4095 32.6793 45.9135 32.2339 47.5904 32.2339Z" fill="#020001"/>
<path d="M17.611 119.572C19.4179 117.737 21.0141 116.02 22.431 114.394C8.55151 134.442 -7.59184 166.823 -6.40125 201.348C-4.78513 248.218 32.9641 297.811 95.8732 289.372C112.735 287.111 127.167 280.683 138.699 271C126.15 292.64 105.218 307.206 77.9271 310.867C15.0181 319.306 -22.7311 269.714 -24.3473 222.843C-25.9634 175.974 4.37079 133.026 17.611 119.572Z" fill="#8F1318"/>
<path d="M23.6761 263.19C23.6761 263.19 23.1363 271.174 32.0501 276.703C40.9639 282.233 48.75 276.984 48.75 276.984C48.75 276.984 33.9094 274.308 23.6761 263.19Z" fill="#020001" stroke="#020001" stroke-miterlimit="10" stroke-linecap="round" stroke-linejoin="round"/>
<path d="M0.109375 250.154C0.109375 250.154 -0.0321088 269.175 -3.55361 273.119C-7.07616 277.064 -13.0627 265.439 -16.1273 258.501C-19.1929 251.564 0.109375 250.154 0.109375 250.154Z" fill="#020001" stroke="#020001" stroke-miterlimit="10" stroke-linecap="round" stroke-linejoin="round"/>
<path d="M18.9946 49.1685C21.1798 49.1685 23.3703 48.2001 25.0021 46.5117C26.5281 44.9354 28.3109 41.9736 28.1411 36.8202C27.7229 24.1376 17.0903 18.8166 16.9834 18.7642C14.532 17.5725 12.1937 16.9678 10.0305 16.9678C4.32379 16.9678 0.853645 21.1779 -0.0529308 25.3492C-0.818018 28.8686 0.266748 31.9645 2.64691 33.0514C8.61983 35.7774 11.6037 41.0125 13.9367 46.2633C14.7332 48.0565 16.6711 49.1685 18.9946 49.1685Z" fill="#BF1920"/>
<path d="M10.0296 17.4948C0.333942 17.4948 -2.39729 30.1743 2.864 32.5765C9.19012 35.4639 12.2148 41.1025 14.4157 46.0525C15.1599 47.7263 16.9563 48.6454 18.9937 48.6454C22.9816 48.6454 27.8897 45.1218 27.6172 36.839C27.2043 24.3251 16.754 19.2367 16.754 19.2367C14.2324 18.0126 11.9895 17.4948 10.0296 17.4948ZM10.0296 16.4468C12.2725 16.4468 14.6883 17.0683 17.211 18.2956C17.6616 18.5146 28.2355 23.8094 28.6642 36.8055C28.8403 42.1422 26.9747 45.2288 25.3785 46.8784C23.6471 48.6675 21.3204 49.6946 18.9937 49.6946C16.4605 49.6946 14.3393 48.4631 13.4578 46.4791C11.1657 41.3226 8.24371 36.185 2.42904 33.5302C-0.181686 32.3386 -1.38487 29.0068 -0.56633 25.24C0.385315 20.8633 4.03152 16.4468 10.0296 16.4468Z" fill="#020001"/>
<path d="M2.83325 20.709C2.71901 23.1447 3.57108 25.3173 5.45131 26.1757C11.7764 29.0631 14.8022 34.7017 17.0021 39.6517C18.4788 42.9751 24.1058 43.3168 27.5215 39.4002C26.4074 49.5507 16.4571 50.6407 14.4175 46.0523C12.2176 41.1012 9.19188 35.4637 2.8668 32.5762C-0.689281 30.9517 -0.593922 24.634 2.83325 20.709Z" fill="#8F1318"/>
<path d="M8.76552 10.7458C11.5848 10.7458 13.877 8.45262 13.877 5.63437C13.877 2.81612 11.5838 0.522949 8.76552 0.522949C5.94727 0.522949 3.65412 2.81612 3.65412 5.63437C3.65412 8.45262 5.94727 10.7458 8.76552 10.7458Z" fill="#BF1920"/>
<path d="M8.76493 1.04807C6.23175 1.04807 4.17756 3.10228 4.17756 5.63545C4.17756 8.16862 6.23175 10.2228 8.76493 10.2228C11.2981 10.2228 13.3523 8.16862 13.3523 5.63545C13.3523 3.10228 11.2981 1.04807 8.76493 1.04807ZM8.76493 0C11.8724 0 14.4004 2.52794 14.4004 5.63545C14.4004 8.74296 11.8724 11.2709 8.76493 11.2709C5.65741 11.2709 3.1295 8.74296 3.1295 5.63545C3.1295 2.52794 5.65741 0 8.76493 0Z" fill="#020001"/>
<path d="M24.1797 63.4949C26.0107 63.4949 27.5 62.0056 27.5 60.1757C27.5 58.3447 26.0107 56.8564 24.1797 56.8564C22.3498 56.8564 20.8605 58.3457 20.8605 60.1757C20.8605 62.0056 22.3498 63.4949 24.1797 63.4949Z" fill="#BF1920"/>
<path d="M24.1802 57.3821C22.6364 57.3821 21.385 58.6334 21.385 60.1772C21.385 61.721 22.6364 62.9724 24.1802 62.9724C25.724 62.9724 26.9754 61.721 26.9754 60.1772C26.9764 58.6334 25.725 57.3821 24.1802 57.3821ZM24.1802 56.334C26.2994 56.334 28.0234 58.0581 28.0234 60.1772C28.0234 62.2964 26.2994 64.0205 24.1802 64.0205C22.061 64.0205 20.3369 62.2964 20.3369 60.1772C20.3369 58.0581 22.061 56.334 24.1802 56.334Z" fill="#020001"/>
<path d="M34.4377 26.2034C33.4546 23.83 34.5812 21.1092 36.954 20.1264C39.3269 19.1435 42.0474 20.2707 43.0305 22.6441C44.0136 25.0174 42.887 27.7382 40.5142 28.7211C38.1413 29.7039 35.4208 28.5767 34.4377 26.2034Z" fill="#BF1920"/>
<path d="M38.7426 20.3025C36.4631 20.3025 34.6153 22.1502 34.6153 24.4297C34.6153 26.7093 36.4631 28.557 38.7426 28.557C41.0222 28.557 42.8699 26.7093 42.8699 24.4297C42.8699 22.1502 41.0222 20.3025 38.7426 20.3025ZM38.7426 19.2544C41.5965 19.2544 43.918 21.5759 43.918 24.4297C43.918 27.2826 41.5965 29.6051 38.7426 29.6051C35.8888 29.6051 33.5673 27.2836 33.5673 24.4297C33.5683 21.5759 35.8888 19.2544 38.7426 19.2544Z" fill="#020001"/>
<path d="M136.561 234.325C136.24 234.085 130.474 232.643 127.03 236.247C123.587 239.852 126.63 247.779 127.03 250.983C127.431 254.186 128.663 260.994 135.76 261.634C142.856 262.273 142.567 258.191 142.486 255.949C142.407 253.705 136.561 234.325 136.561 234.325Z" fill="#FFFEFB" stroke="#020001" stroke-miterlimit="10" stroke-linecap="round" stroke-linejoin="round"/>
<path d="M170.615 288.182C170.615 288.182 168.911 297.62 155.591 295.05" stroke="#020001" stroke-miterlimit="10" stroke-linecap="round" stroke-linejoin="round"/>
<path d="M185.335 257.416C185.335 257.416 192.258 255.81 194.264 264.337C196.27 272.865 192.258 282.294 182.326 285.405C172.395 288.515 164.25 285.705 163.106 277.68C161.961 269.655 167.379 267.448 169.084 266.244C170.789 265.04 185.335 257.416 185.335 257.416Z" fill="#FFFEFB" stroke="#020001" stroke-miterlimit="10" stroke-linecap="round" stroke-linejoin="round"/>
<path d="M166.619 274.593C166.619 274.593 165.348 278.852 161.463 279.375C157.578 279.898 155.262 278.179 153.617 274.593C151.974 271.006 145.399 269.362 145.1 264.581C145.1 264.581 137.777 258.528 138.001 249.636C138.001 249.636 133.293 240.969 135.088 233.497C136.881 226.025 140.243 218.777 151.451 219.674C162.659 220.57 174.614 236.412 174.614 236.412C174.614 236.412 184.475 246.74 185.335 257.417C186.196 268.093 181.413 282.14 166.619 274.593Z" fill="#FFFEFB" stroke="#020001" stroke-miterlimit="10" stroke-linecap="round" stroke-linejoin="round"/>
<path d="M167.047 274.806C167.047 274.806 155.249 267.569 153.245 261.633" stroke="#020001" stroke-miterlimit="10" stroke-linecap="round" stroke-linejoin="round"/>
<path d="M167.047 247.235C167.047 247.235 158.489 241.535 151.524 245.614C142.634 250.82 145.104 264.579 145.104 264.579" stroke="#020001" stroke-miterlimit="10" stroke-linecap="round" stroke-linejoin="round"/>
<path d="M161.607 231.119C161.607 231.119 153.038 227.275 145.831 232.241C138.623 237.207 137.63 245.791 137.998 249.636" stroke="#020001" stroke-miterlimit="10" stroke-linecap="round" stroke-linejoin="round"/>
<path d="M-68.8685 312.979C-65.9685 312.979 -48.0717 296.618 -44.5135 293.338C-44.3783 293.214 -44.3186 293.028 -44.3553 292.848C-44.3836 292.71 -46.9912 278.835 -32.7081 266.306C-23.3961 258.137 -17.6883 257.846 -12.6523 257.589C-9.86132 257.447 -7.22439 257.312 -4.42186 255.776C-1.68641 254.276 -0.040974 251.629 0.467338 247.906C1.34771 241.464 -1.46529 234.858 -6.69724 231.075C-9.70414 228.901 -13.1019 227.799 -16.7953 227.799C-17.3487 227.799 -17.9178 227.824 -18.4838 227.874C-31.1088 228.988 -61.1233 246.778 -70.3295 271.331C-76.925 288.917 -75.0782 303.25 -71.4928 310.181C-71.0139 311.107 -70.0685 312.698 -69.119 312.949C-69.0404 312.969 -68.9565 312.979 -68.8685 312.979Z" fill="#600D10"/>
<path d="M-16.7955 228.323C-17.329 228.323 -17.875 228.348 -18.4378 228.397C-30.8616 229.493 -60.7042 247.155 -69.8402 271.516C-78.9751 295.878 -71.3022 311.834 -68.987 312.443C-68.9525 312.453 -68.9137 312.457 -68.8707 312.457C-66.0284 312.457 -44.87 292.954 -44.87 292.954C-44.87 292.954 -47.7574 278.812 -33.0552 265.913C-18.3529 253.015 -12.2259 259.457 -4.67462 255.316C-1.68658 253.678 -0.453005 250.761 -0.0526444 247.835C0.804673 241.562 -1.87313 235.209 -7.00446 231.5C-9.46427 229.722 -12.7018 228.323 -16.7955 228.323ZM-16.7965 227.275C-12.9899 227.275 -9.48838 228.412 -6.39029 230.651C-1.00324 234.545 1.89256 241.346 0.985986 247.977C0.453569 251.871 -1.28095 254.65 -4.16942 256.234C-7.07885 257.83 -9.77343 257.967 -12.6263 258.113C-17.5773 258.365 -23.1887 258.651 -32.3624 266.7C-46.3939 279.01 -43.8691 292.61 -43.8419 292.746C-43.7706 293.104 -43.8901 293.476 -44.1584 293.724C-50.6103 299.671 -65.934 313.504 -68.8697 313.504C-69.0028 313.504 -69.1317 313.488 -69.2533 313.456C-70.1263 313.226 -71.0371 312.205 -71.9594 310.422C-75.593 303.395 -77.4753 288.894 -70.8212 271.147C-61.5426 246.406 -31.2672 228.476 -18.53 227.352C-17.9484 227.301 -17.3656 227.275 -16.7965 227.275Z" fill="#020001"/>
<path d="M110.446 385.609C117.5 385.609 121.769 385.456 123.133 385.153C126.309 384.446 145.098 376.163 154.736 367.526C164.325 358.932 195.355 335.65 201.068 335.315C202.618 335.224 203.559 334.402 203.716 333.001C204.16 329.055 197.814 320.723 189.454 318.294C188.292 317.957 186.996 317.786 185.601 317.786C176.646 317.786 165.18 324.705 159.669 328.03C158.711 328.608 157.945 329.071 157.422 329.357L156.641 329.786C153.472 331.541 147.573 334.806 142.882 334.806C141.164 334.806 139.762 334.352 138.71 333.458C139.221 332.581 140.294 330.37 139.677 328.139C139.232 326.523 138.005 325.253 136.03 324.363C134.121 323.503 131.651 323.047 128.889 323.047C123.538 323.047 116.763 324.922 114.746 328.398C112.103 332.956 115.385 339.798 117.708 341.562C117.493 342.561 115.71 346.279 111.507 347.439C110.497 347.719 109.417 347.859 108.296 347.859C104.723 347.859 101.829 346.424 101.8 346.409C101.726 346.371 101.645 346.352 101.565 346.352C101.483 346.352 101.401 346.372 101.326 346.41C101.068 346.542 94.9796 349.774 93.092 360.832C91.2129 371.834 99.48 384.74 99.8332 385.284C99.9275 385.429 100.089 385.519 100.263 385.523C100.311 385.521 105.215 385.609 110.446 385.609Z" fill="#A62828"/>
<path d="M185.602 318.307C175.216 318.307 161.149 327.919 157.675 329.814C154.792 331.387 148.138 335.327 142.884 335.327C141.013 335.327 139.32 334.829 138.037 333.546C138.037 333.546 142.125 327.681 135.816 324.837C133.878 323.964 131.428 323.568 128.89 323.568C123.164 323.568 116.986 325.58 115.201 328.659C112.624 333.101 116.09 339.943 118.223 341.276C118.525 341.465 116.802 346.519 111.647 347.941C110.503 348.256 109.369 348.38 108.298 348.38C104.547 348.38 101.566 346.874 101.566 346.874C101.566 346.874 95.4756 349.991 93.609 360.918C91.7424 371.844 100.274 384.995 100.274 384.995C100.274 384.995 105.161 385.084 110.448 385.084C115.736 385.084 121.423 384.995 123.022 384.64C126.221 383.929 144.969 375.576 154.388 367.135C163.807 358.694 194.997 335.146 201.039 334.791C207.081 334.436 199.706 321.818 189.31 318.796C188.15 318.458 186.905 318.307 185.602 318.307ZM185.602 317.259C187.046 317.259 188.392 317.437 189.601 317.788C198.19 320.285 204.701 328.942 204.239 333.056C204.054 334.691 202.881 335.731 201.1 335.836C195.767 336.149 165.824 358.292 155.087 367.915C145.385 376.61 126.451 384.951 123.248 385.663C122.726 385.779 121.136 386.132 110.447 386.132C105.211 386.132 100.303 386.044 100.254 386.043C99.9057 386.037 99.5829 385.858 99.3932 385.565C99.0359 385.014 90.6618 371.943 92.5745 360.741C94.5072 349.427 100.82 346.077 101.087 345.94C101.237 345.864 101.4 345.825 101.565 345.825C101.726 345.825 101.889 345.863 102.038 345.937C102.064 345.95 104.86 347.331 108.297 347.331C109.37 347.331 110.403 347.196 111.367 346.93C115.032 345.918 116.682 342.861 117.099 341.731C114.631 339.525 111.575 332.819 114.294 328.131C116.431 324.446 123.254 322.519 128.889 322.519C131.725 322.519 134.27 322.99 136.245 323.88C138.369 324.837 139.693 326.222 140.183 327.995C140.768 330.114 139.959 332.199 139.382 333.314C140.296 333.961 141.449 334.277 142.882 334.277C147.437 334.277 153.259 331.054 156.386 329.324C156.671 329.166 156.934 329.021 157.171 328.891C157.679 328.615 158.438 328.156 159.4 327.576C164.953 324.228 176.503 317.259 185.602 317.259Z" fill="#020001"/>
<path d="M181.134 344.061C181.134 344.061 156.654 342.711 148.269 344.82C139.885 346.929 144.017 357.305 133.472 365.572C122.928 373.839 99.7321 379.204 100.405 382.106C101.078 385.008 118.119 385.142 128.411 382.106C138.703 379.069 160.72 363.716 165.36 359.836C170 355.955 181.557 343.976 181.557 343.976" fill="#8F1318"/>
<path d="M181.134 344.061C181.134 344.061 156.654 342.711 148.269 344.82C139.885 346.929 144.017 357.305 133.472 365.572C122.928 373.839 99.7321 379.204 100.405 382.106C101.078 385.008 118.119 385.142 128.411 382.106C138.703 379.069 160.72 363.716 165.36 359.836C170 355.955 181.557 343.976 181.557 343.976" stroke="#020001" stroke-miterlimit="10" stroke-linecap="round" stroke-linejoin="round"/>
<path d="M111.344 402.985C125.598 402.985 205.239 343.41 208.622 340.874C208.754 340.775 208.832 340.619 208.832 340.455C208.832 340.292 208.798 336.441 205.912 331.891C205.586 330.823 202.218 320.37 195.24 320.078C194.934 320.066 194.64 320.06 194.356 320.06C189.76 320.06 188.139 321.659 187.581 322.613C187.13 323.385 187.069 324.256 187.424 324.888L187.557 325.12C190.772 330.657 190.952 334.667 188.08 336.719C187.48 337.148 186.809 337.638 186.076 338.171C180.825 342.003 172.034 348.417 164.083 350.534C154.947 352.968 152.051 361.54 150.815 365.201L150.703 365.531C149.518 369.02 144.396 372.071 138.251 372.949C135.552 373.335 128.672 374.917 121.387 376.592C111.917 378.77 101.184 381.239 98.8281 381.239C98.6478 381.239 98.5892 381.223 98.5871 381.223C98.4959 381.184 98.39 381.162 98.2863 381.162C98.1385 381.162 97.6449 381.218 97.4845 381.939C96.8756 384.685 101.224 398.659 109.91 402.712C110.294 402.893 110.777 402.985 111.344 402.985Z" fill="#FFFEFB"/>
<path d="M194.356 320.587C188.221 320.587 187.261 323.532 187.881 324.634C188.528 325.784 193.419 333.553 188.384 337.149C183.349 340.745 173.351 348.611 164.216 351.044C155.081 353.476 152.42 362.107 151.197 365.704C149.974 369.3 144.868 372.538 138.323 373.472C132.072 374.365 103.05 381.767 98.8254 381.767C98.6263 381.767 98.4827 381.75 98.3989 381.717C98.358 381.7 98.3192 381.691 98.2836 381.691C96.7094 381.69 100.634 397.813 110.129 402.244C110.45 402.394 110.856 402.466 111.342 402.466C125.585 402.466 208.306 340.459 208.306 340.459C208.306 340.244 208.234 336.503 205.429 332.116C205.429 332.116 202.121 320.895 195.216 320.608C194.919 320.593 194.632 320.587 194.356 320.587ZM194.356 319.539C194.646 319.539 194.948 319.545 195.261 319.558C202.462 319.858 205.948 330.247 206.392 331.671C209.322 336.323 209.355 340.289 209.355 340.456C209.355 340.786 209.2 341.097 208.936 341.295C205.547 343.835 125.769 403.51 111.344 403.51C110.699 403.51 110.141 403.402 109.687 403.189C100.601 398.949 96.3237 384.75 96.9714 381.828C97.1653 380.953 97.7763 380.64 98.2846 380.639C98.4314 380.639 98.576 380.664 98.7185 380.713C98.75 380.715 98.7867 380.716 98.8286 380.716C101.126 380.716 111.831 378.254 121.276 376.082C128.57 374.405 135.458 372.821 138.178 372.433C144.136 371.582 149.083 368.676 150.209 365.365L150.321 365.032C151.585 361.292 154.544 352.534 163.95 350.029C171.809 347.936 180.548 341.56 185.771 337.749C186.503 337.215 187.175 336.724 187.777 336.294C191.085 333.932 189.238 329.058 187.106 325.385L186.969 325.146C186.523 324.354 186.585 323.283 187.13 322.35C187.743 321.301 189.499 319.539 194.356 319.539Z" fill="#020001"/>
<path d="M208.301 340.461C208.301 340.461 200.843 336.847 193.317 341.631C185.79 346.416 156.976 372.479 143.939 378.913C130.903 385.346 107.709 399.403 110.925 402.447C114.142 405.493 139.537 400.244 171.703 380.267C203.872 360.289 211.545 344.163 208.301 340.461Z" fill="#020001" stroke="#020001" stroke-miterlimit="10" stroke-linecap="round" stroke-linejoin="round"/>
<path d="M103.729 362.782C106.621 362.782 112.178 362.176 116.9 358.123C124.755 351.38 124.402 342.978 124.254 341.381C124.556 341.037 125.104 340.284 125.135 339.314C125.161 338.503 124.83 337.734 124.151 337.032C123.771 336.639 122.81 336.117 118.866 336.117C117.775 336.117 116.521 336.158 115.138 336.237C114.97 336.246 114.818 336.335 114.727 336.475C114.636 336.616 114.618 336.791 114.678 336.947C115.45 338.952 116.637 340.751 117.697 341.555C117.482 342.555 115.7 346.273 111.496 347.432C110.485 347.712 109.406 347.852 108.286 347.852C104.702 347.851 101.819 346.417 101.79 346.402C101.715 346.364 101.634 346.345 101.553 346.345C101.47 346.345 101.388 346.365 101.313 346.404C101.093 346.517 95.9058 349.283 93.6042 358.383C93.5812 358.476 93.5833 358.571 93.6095 358.661C94.3054 361.011 98.6548 362.782 103.725 362.782C103.727 362.782 103.729 362.782 103.729 362.782Z" fill="#8F1318"/>
<path d="M118.864 336.644C117.749 336.644 116.498 336.686 115.167 336.762C115.995 338.911 117.239 340.668 118.211 341.275C118.513 341.464 116.79 346.518 111.635 347.94C110.491 348.255 109.357 348.379 108.286 348.379C104.536 348.379 101.554 346.873 101.554 346.873C101.554 346.873 96.3839 349.539 94.1138 358.516C94.7153 360.544 98.7871 362.261 103.729 362.261C107.907 362.261 112.709 361.033 116.559 357.728C124.973 350.504 123.708 341.198 123.708 341.198C123.708 341.198 125.7 339.389 123.776 337.399C123.255 336.863 121.41 336.644 118.864 336.644ZM118.864 335.596C122.939 335.596 124.013 336.139 124.528 336.67C125.501 337.676 125.68 338.674 125.658 339.333C125.626 340.325 125.15 341.105 124.793 341.555C124.942 343.668 124.963 351.893 117.24 358.522C112.39 362.686 106.693 363.308 103.728 363.308C98.3469 363.308 93.88 361.417 93.1087 358.812C93.0552 358.632 93.051 358.44 93.0971 358.258C95.4563 348.93 100.845 346.059 101.073 345.94C101.224 345.863 101.388 345.824 101.553 345.824C101.714 345.824 101.877 345.862 102.026 345.936C102.052 345.95 104.848 347.33 108.285 347.33C109.358 347.33 110.391 347.195 111.355 346.928C115.018 345.918 116.668 342.863 117.086 341.732C116.026 340.789 114.935 339.076 114.187 337.137C114.067 336.825 114.104 336.474 114.285 336.192C114.466 335.911 114.771 335.733 115.105 335.714C116.499 335.637 117.763 335.596 118.864 335.596Z" fill="#020001"/>
<path d="M132.176 378.837C132.176 378.837 106.828 383.714 105.239 385.081C103.65 386.448 109.014 392.471 110.634 392.405C112.255 392.338 136.412 379.101 132.176 378.837Z" fill="#8F1318" stroke="#020001" stroke-miterlimit="10" stroke-linecap="round" stroke-linejoin="round"/>
<path d="M129.749 345.508C132.004 345.508 134.416 345.215 136.916 344.639C149.846 341.659 169.545 323.998 170.377 323.248C170.571 323.073 170.608 322.782 170.462 322.566C170.361 322.416 170.197 322.333 170.027 322.333C169.95 322.333 169.873 322.351 169.799 322.386C165.724 324.369 162.08 326.566 159.669 328.021C158.709 328.6 157.944 329.062 157.42 329.348L156.638 329.778C153.47 331.533 147.571 334.798 142.881 334.798H142.88C141.161 334.798 139.76 334.344 138.708 333.45C139.218 332.573 140.291 330.362 139.675 328.131C139.229 326.515 138.002 325.245 136.028 324.355C134.118 323.495 131.649 323.039 128.886 323.039C123.536 323.039 116.76 324.914 114.744 328.39C112.031 333.068 115.56 340.151 117.887 341.681C118.357 342.149 122.013 345.509 129.75 345.509L129.749 345.508Z" fill="#8F1318"/>
<path d="M170.027 322.859C164.346 325.622 159.514 328.803 157.669 329.809C154.786 331.383 148.132 335.323 142.877 335.323C141.007 335.323 139.313 334.824 138.032 333.542C138.032 333.542 142.119 327.677 135.81 324.833C133.872 323.959 131.422 323.564 128.883 323.564C123.158 323.564 116.979 325.576 115.194 328.654C112.617 333.097 116.083 339.939 118.216 341.272C118.216 341.272 121.74 344.985 129.749 344.985C131.799 344.985 134.144 344.742 136.798 344.13C149.807 341.133 169.992 322.89 170.027 322.859ZM170.026 321.811C170.365 321.811 170.695 321.975 170.895 322.273C171.187 322.706 171.116 323.287 170.728 323.637C169.894 324.391 150.142 342.13 137.033 345.152C134.493 345.737 132.042 346.034 129.748 346.034C122.016 346.034 118.206 342.722 117.552 342.092C115.034 340.378 111.396 333.114 114.288 328.129C116.425 324.444 123.248 322.517 128.883 322.517C131.719 322.517 134.264 322.988 136.24 323.878C138.364 324.835 139.689 326.22 140.178 327.993C140.763 330.112 139.954 332.197 139.377 333.312C140.291 333.959 141.444 334.275 142.877 334.275C147.432 334.275 153.254 331.053 156.381 329.322C156.666 329.164 156.929 329.019 157.166 328.889C157.674 328.612 158.433 328.154 159.394 327.575C161.813 326.115 165.47 323.91 169.568 321.916C169.715 321.845 169.872 321.811 170.026 321.811Z" fill="#020001"/>
<path d="M97.4856 225.819C97.1732 226.058 102.267 232.768 96.7194 235.12C91.171 237.471 84.6583 228.716 83.3555 226.588C82.0507 224.46 97.4856 225.819 97.4856 225.819Z" fill="#020001" stroke="#020001" stroke-miterlimit="10" stroke-linecap="round" stroke-linejoin="round"/>
<path d="M156.557 337.047C157.276 337.047 157.906 336.538 158.055 335.835C159.223 330.352 163.314 327.627 163.356 327.601C164.064 327.143 164.27 326.193 163.815 325.484C163.53 325.042 163.048 324.779 162.524 324.779C162.229 324.779 161.942 324.864 161.693 325.026C161.484 325.16 156.499 328.434 155.057 335.195C154.971 335.595 155.048 336.005 155.27 336.348C155.493 336.692 155.837 336.928 156.236 337.013C156.339 337.036 156.448 337.047 156.557 337.047Z" fill="#FFFEFB"/>
<path d="M162.524 325.305C162.337 325.305 162.149 325.357 161.979 325.466C161.776 325.597 156.967 328.754 155.569 335.307C155.453 335.852 155.801 336.388 156.345 336.503C156.417 336.519 156.487 336.527 156.557 336.527C157.023 336.527 157.442 336.203 157.542 335.729C158.767 329.988 163.028 327.19 163.071 327.163C163.539 326.861 163.675 326.239 163.374 325.769C163.18 325.469 162.856 325.305 162.524 325.305ZM162.524 324.257C163.226 324.257 163.873 324.61 164.254 325.201C164.867 326.156 164.59 327.43 163.637 328.043C163.603 328.065 159.686 330.697 158.566 335.946C158.365 336.889 157.52 337.574 156.556 337.574C156.407 337.574 156.26 337.558 156.118 337.526C155.591 337.415 155.13 337.099 154.831 336.638C154.531 336.176 154.43 335.626 154.544 335.088C156.032 328.111 161.193 324.725 161.412 324.584C161.743 324.371 162.129 324.257 162.524 324.257Z" fill="#020001"/>
<path d="M143.612 344.761C144.39 344.761 145.044 344.177 145.133 343.404C145.795 337.677 150.148 334.19 150.192 334.156C150.857 333.633 150.975 332.668 150.456 332.004C150.163 331.63 149.723 331.416 149.248 331.416C148.906 331.416 148.581 331.527 148.309 331.738C148.09 331.908 142.907 335.985 142.09 343.053C142.043 343.46 142.157 343.861 142.411 344.181C142.665 344.502 143.029 344.704 143.437 344.752C143.49 344.758 143.551 344.761 143.612 344.761Z" fill="#FFFEFB"/>
<path d="M149.247 331.943C149.031 331.943 148.813 332.012 148.629 332.154C148.415 332.32 143.397 336.297 142.609 343.115C142.545 343.668 142.941 344.168 143.495 344.233C143.534 344.238 143.573 344.241 143.612 344.241C144.117 344.241 144.553 343.861 144.612 343.349C145.3 337.391 149.823 333.781 149.869 333.745C150.307 333.402 150.385 332.768 150.042 332.33C149.844 332.076 149.547 331.943 149.247 331.943ZM149.247 330.895C149.885 330.895 150.476 331.183 150.868 331.685C151.565 332.576 151.407 333.87 150.517 334.57C150.477 334.603 146.286 338 145.654 343.469C145.534 344.507 144.657 345.29 143.612 345.29C143.53 345.29 143.448 345.286 143.365 345.275C142.247 345.146 141.437 344.123 141.567 342.997C142.407 335.732 147.758 331.504 147.985 331.327C148.347 331.048 148.795 330.895 149.247 330.895Z" fill="#020001"/>
<path d="M149.994 340.68C150.732 340.68 151.366 340.153 151.5 339.426C152.562 333.679 155.354 331.948 155.472 331.878C156.194 331.474 156.462 330.543 156.057 329.808C155.788 329.317 155.274 329.011 154.715 329.011C154.464 329.011 154.214 329.075 153.992 329.195C153.826 329.285 149.846 331.504 148.486 338.869C148.333 339.7 148.884 340.501 149.714 340.654C149.811 340.673 149.903 340.68 149.994 340.68Z" fill="#FFFEFB"/>
<path d="M154.716 329.537C154.556 329.537 154.393 329.576 154.242 329.659C154.083 329.745 150.318 331.838 149.001 338.968C148.9 339.515 149.262 340.041 149.81 340.143C149.872 340.154 149.934 340.159 149.994 340.159C150.471 340.159 150.896 339.82 150.985 339.335C152.11 333.238 155.174 331.449 155.204 331.431C155.686 331.161 155.865 330.549 155.597 330.064C155.415 329.729 155.071 329.537 154.716 329.537ZM154.716 328.489C155.465 328.489 156.156 328.899 156.518 329.559C157.058 330.542 156.7 331.792 155.718 332.344C155.711 332.349 153.03 334.03 152.015 339.523C151.835 340.499 150.985 341.206 149.993 341.206C149.863 341.206 149.735 341.195 149.613 341.171C148.504 340.965 147.764 339.891 147.97 338.776C149.353 331.289 153.3 328.973 153.745 328.735C154.041 328.575 154.377 328.489 154.716 328.489Z" fill="#020001"/>
<path d="M125.191 347.748C125.723 347.748 126.21 347.478 126.493 347.026C132.066 338.093 141.133 336.353 141.224 336.337C142.055 336.19 142.612 335.394 142.467 334.564C142.338 333.829 141.702 333.296 140.955 333.296C140.87 333.296 140.785 333.303 140.7 333.318C140.271 333.392 130.224 335.258 123.894 345.404C123.447 346.121 123.666 347.067 124.382 347.516C124.626 347.667 124.905 347.748 125.191 347.748Z" fill="#FFFEFB"/>
<path d="M140.955 333.822C140.899 333.822 140.843 333.826 140.785 333.835C140.37 333.907 130.556 335.713 124.337 345.681C124.042 346.154 124.186 346.776 124.658 347.071C124.824 347.175 125.009 347.224 125.191 347.224C125.527 347.224 125.856 347.055 126.048 346.749C131.774 337.574 141.039 335.839 141.132 335.823C141.679 335.726 142.046 335.204 141.95 334.655C141.864 334.164 141.437 333.822 140.955 333.822ZM140.955 332.773C141.957 332.773 142.81 333.488 142.983 334.474C143.178 335.59 142.43 336.658 141.315 336.856C141.227 336.871 132.375 338.59 126.938 347.305C126.559 347.912 125.907 348.273 125.192 348.273C124.807 348.273 124.432 348.165 124.105 347.962C123.143 347.36 122.848 346.09 123.448 345.129C129.914 334.765 140.173 332.879 140.607 332.804C140.727 332.783 140.842 332.773 140.955 332.773Z" fill="#020001"/>
<path d="M133.909 347.748C134.528 347.748 135.084 347.378 135.323 346.807C137.895 340.675 142.537 336.949 143.723 336.371C144.169 336.328 144.564 336.118 144.82 335.785C145.071 335.462 145.181 335.062 145.131 334.655C145.079 334.249 144.873 333.887 144.55 333.635C144.264 333.412 143.915 333.296 143.542 333.296C143.378 333.296 143.209 333.319 143.038 333.364C141.31 333.818 135.638 338.129 132.496 345.621C132.17 346.402 132.538 347.302 133.318 347.627C133.502 347.706 133.703 347.748 133.909 347.748Z" fill="#FFFEFB"/>
<path d="M143.542 333.822C143.429 333.822 143.305 333.836 143.17 333.872C141.568 334.292 136.008 338.605 132.98 345.826C132.765 346.341 133.006 346.931 133.519 347.146C133.647 347.2 133.779 347.224 133.909 347.224C134.303 347.224 134.679 346.991 134.84 346.606C137.593 340.042 142.522 336.312 143.592 335.857C143.887 335.847 144.205 335.728 144.406 335.467C144.747 335.027 144.668 334.394 144.228 334.052C144.082 333.937 143.854 333.822 143.542 333.822ZM142.993 335.646C142.992 335.646 142.992 335.645 142.992 335.645L142.993 335.646ZM143.542 332.773C144.033 332.773 144.493 332.929 144.871 333.223C145.305 333.561 145.582 334.046 145.65 334.591C145.718 335.136 145.57 335.674 145.234 336.108C144.911 336.527 144.428 336.8 143.885 336.88C142.936 337.413 138.414 340.791 135.805 347.01C135.484 347.777 134.739 348.271 133.908 348.271C133.632 348.271 133.362 348.217 133.11 348.109C132.608 347.899 132.214 347.502 132.006 346.994C131.798 346.485 131.801 345.927 132.012 345.419C135.015 338.259 140.699 333.435 142.904 332.856C143.119 332.802 143.334 332.773 143.542 332.773Z" fill="#020001"/>
<path d="M46.362 224.996C31.4733 224.996 19.4036 209.956 19.4036 191.404C19.4036 172.851 31.4733 157.811 46.362 157.811C61.2506 157.811 73.3203 172.851 73.3203 191.404C73.3203 209.956 61.2506 224.996 46.362 224.996Z" fill="#FFFEFB" stroke="#020001" stroke-miterlimit="10" stroke-linecap="round" stroke-linejoin="round"/>
<path d="M19.5382 188.103C20.4081 176.979 25.6348 167.451 33.0634 162.188C34.1251 161.893 35.2214 161.736 36.3418 161.736C45.6318 161.736 53.2754 172.351 53.2754 185.251C53.2754 188.258 52.8604 191.239 52.0513 194.029L39.6673 190.23L45.4138 205.107C42.7015 207.498 39.553 208.768 36.3407 208.768C27.7466 208.767 20.5653 199.678 19.5382 188.103Z" fill="#020001" stroke="#020001" stroke-miterlimit="10" stroke-linecap="round" stroke-linejoin="round"/>
<path d="M84.9289 194.278C83.9623 175.752 93.9288 160.172 107.19 159.48C120.451 158.788 131.984 173.246 132.951 191.773C133.918 210.299 123.951 225.879 110.69 226.571C97.4292 227.263 85.8955 212.805 84.9289 194.278Z" fill="#FFFEFB" stroke="#020001" stroke-miterlimit="10" stroke-linecap="round" stroke-linejoin="round"/>
<path d="M84.8584 190.967C85.0533 179.817 89.2131 170.061 95.5549 164.459C96.4856 164.116 97.453 163.907 98.4508 163.855C106.725 163.423 114.087 173.669 114.759 186.552C114.916 189.556 114.701 192.55 114.126 195.374L102.898 192.156L108.792 206.746C106.5 209.259 103.763 210.674 100.901 210.823C93.2461 211.222 86.376 202.479 84.8584 190.967Z" fill="#020001" stroke="#020001" stroke-miterlimit="10" stroke-linecap="round" stroke-linejoin="round"/>
<path d="M82.8291 225.468C82.8291 225.468 86.8013 230.197 93.9889 227.738C101.177 225.279 106.658 214.579 101.556 209.241C96.4529 203.903 91.9054 206.702 87.0245 211.917C82.1437 217.13 78.0395 214.468 78.0395 214.468" fill="#BF1920"/>
<path d="M82.8291 225.468C82.8291 225.468 86.8013 230.197 93.9889 227.738C101.177 225.279 106.658 214.579 101.556 209.241C96.4529 203.903 91.9054 206.702 87.0245 211.917C82.1437 217.13 78.0395 214.468 78.0395 214.468" stroke="#020001" stroke-miterlimit="10" stroke-linecap="round" stroke-linejoin="round"/>
<path d="M51.1035 230.298C51.1035 230.298 38.4408 203.405 12.9833 211.63L51.1035 230.298Z" fill="#BF1920"/>
<path d="M51.1035 230.298C51.1035 230.298 38.4408 203.405 12.9833 211.63" stroke="#020001" stroke-miterlimit="10" stroke-linecap="round" stroke-linejoin="round"/>
<path d="M87.4536 260.734C87.4536 260.734 94.5218 253.218 88.8853 247.223C83.2488 241.228 68.4847 252.144 56.2265 241.855C43.9683 231.566 38.51 217.875 25.536 224.586C12.562 231.297 19.0045 255.545 41.105 264.492C63.2056 273.44 81.9964 265.745 87.4536 260.734Z" fill="#FFFEFB" stroke="#020001" stroke-miterlimit="10" stroke-linecap="round" stroke-linejoin="round"/>
<path d="M81.7506 245.362C81.7506 245.362 83.8279 258.585 81.7506 264.357" stroke="#020001" stroke-miterlimit="10" stroke-linecap="round" stroke-linejoin="round"/>
<path d="M68.7556 246.481C68.7556 246.481 68.851 261.272 65.45 268.609" stroke="#020001" stroke-miterlimit="10" stroke-linecap="round" stroke-linejoin="round"/>
<path d="M57.3457 242.729C57.2168 242.631 52.2207 259.96 45.3684 266.03" stroke="#020001" stroke-miterlimit="10" stroke-linecap="round" stroke-linejoin="round"/>
<path d="M48.0547 233.839C48.0547 233.839 33.015 249.38 30.8874 258.502" stroke="#020001" stroke-miterlimit="10" stroke-linecap="round" stroke-linejoin="round"/>
<path d="M40.8438 226.588C40.7327 226.497 24.7916 233.523 20.1581 243.651" stroke="#020001" stroke-miterlimit="10" stroke-linecap="round" stroke-linejoin="round"/>
<path d="M20.1579 217.551C20.1579 217.551 17.915 213.902 11.067 214.652C4.21892 215.401 0.21949 220.015 3.06918 222.807C5.91782 225.599 25.874 223.907 20.1579 217.551Z" fill="#F2686E"/>
<path d="M122.701 238.105C122.701 238.105 124.247 234.38 118.263 231.686C112.278 228.991 108.277 231.151 108.911 233.835C109.545 236.521 113.508 236.481 115.529 237.431C117.549 238.382 122.344 240.76 122.701 238.105Z" fill="#F2686E"/>
<path d="M57.8367 139.471C57.8367 139.471 60.655 136.935 57.5548 132.85C54.4546 128.763 43.6763 123.692 35.2226 130.313C26.7689 136.935 27.3328 144.966 31.2075 145.53C35.0822 146.094 38.1258 139.049 43.7549 137.781C49.3841 136.513 55.3004 142.852 57.8367 139.471Z" fill="#020001" stroke="#020001" stroke-miterlimit="10" stroke-linecap="round" stroke-linejoin="round"/>
<path d="M130.816 146.12C130.816 146.12 134.599 145.858 134.673 140.73C134.749 135.601 129.381 124.967 118.643 124.976C107.904 124.986 103.402 131.66 106.107 134.489C108.812 137.32 115.549 133.646 120.764 136.113C125.979 138.582 126.736 147.221 130.816 146.12Z" fill="#020001" stroke="#020001" stroke-miterlimit="10" stroke-linecap="round" stroke-linejoin="round"/>
<path d="M28.0977 379.03C28.0977 379.03 7.52624 377.544 -2.75947 387.194" stroke="#020001" stroke-miterlimit="10" stroke-linecap="round" stroke-linejoin="round"/>
<path d="M95.4525 89.6271C96.3245 91.7064 97.0959 94.0028 96.5058 96.1796C95.464 100.022 90.4071 101.599 86.6938 100.162C82.9805 98.7253 80.4851 95.2258 78.6709 91.6813C76.8577 88.1367 75.4659 84.3123 72.9285 81.2436C71.2747 79.2439 69.1974 77.6466 67.292 75.8859C65.3856 74.1251 63.5945 72.1139 62.7623 69.6562C61.3642 65.5247 63.6867 61.0055 68.164 60.3211C71.9549 59.7425 75.5068 63.6015 78.1018 65.8349C85.6112 72.2952 91.6229 80.4879 95.4525 89.6271Z" fill="#E39C9F"/>
<path d="M99.5193 113.884C99.0141 115.32 97.638 116.498 96.1162 116.471C94.0914 116.433 92.6576 114.463 91.9533 112.564C90.9923 109.97 91.2847 104.288 95.4245 105.118C98.4933 105.733 100.432 111.287 99.5193 113.884Z" fill="#E39C9F"/>
<path d="M54.3652 277.725C54.3652 277.725 29.7137 276.811 19.5412 256.931L54.3652 277.725Z" fill="#BF1920"/>
<path d="M54.3652 277.725C54.3652 277.725 29.7137 276.811 19.5412 256.931" stroke="#020001" stroke-miterlimit="10" stroke-linecap="round" stroke-linejoin="round"/>
<path d="M103.382 144.654C103.928 146.96 103.414 149.682 101.519 151.104C100.139 152.14 98.3242 152.316 96.6473 152.721C93.7809 153.415 91.1073 154.892 88.9944 156.95C87.721 158.191 86.4381 159.741 84.6627 159.833C82.2668 159.957 80.657 157.322 80.2902 154.951C79.7253 151.298 80.7618 147.549 82.4544 144.263C84.1534 140.966 86.6823 137.893 90.1493 136.576C96.1065 134.315 102.022 138.912 103.382 144.654Z" fill="#E39C9F"/>
<path d="M5.70999 386.612C5.91017 386.612 6.10614 386.574 6.2906 386.499C16.4139 382.364 28.4949 382.043 31.9578 382.043C32.7794 382.043 33.2542 382.059 33.294 382.06H33.2972C34.1891 382.06 34.8567 381.416 34.8913 380.592C34.908 380.181 34.7634 379.79 34.4846 379.489C34.2069 379.189 33.8285 379.015 33.4198 378.998C33.3076 378.993 32.6998 378.971 31.7052 378.971C27.167 378.971 15.4926 379.429 5.12934 383.662C4.75099 383.816 4.45545 384.11 4.29615 384.487C4.13789 384.864 4.13578 385.281 4.28985 385.661C4.52776 386.237 5.08429 386.612 5.70999 386.612Z" fill="#FFFEFB"/>
<path d="M31.7073 379.495C27.3882 379.495 15.6593 379.927 5.32958 384.147C4.81394 384.357 4.56662 384.946 4.77728 385.462C4.93658 385.853 5.31388 386.09 5.71109 386.09C5.83791 386.09 5.9668 386.066 6.09257 386.014C16.1792 381.894 28.0108 381.519 31.9609 381.519C32.8099 381.519 33.2951 381.537 33.3203 381.538C33.336 381.539 33.3517 381.539 33.3674 381.539C33.9082 381.539 34.3463 381.111 34.3683 380.571C34.3914 380.014 33.9575 379.545 33.401 379.523C33.2857 379.517 32.6862 379.495 31.7073 379.495ZM31.7063 378.447C32.8141 378.447 33.423 378.475 33.4481 378.476C33.99 378.497 34.4972 378.731 34.8704 379.135C35.2435 379.538 35.4363 380.063 35.4143 380.614C35.3693 381.72 34.47 382.587 33.3664 382.587C33.3507 382.587 33.2867 382.586 33.271 382.585C33.2259 382.583 32.7595 382.567 31.9599 382.567C28.5212 382.567 16.5229 382.886 6.48771 386.985C6.24036 387.085 5.97834 387.138 5.71004 387.138C4.87054 387.138 4.12328 386.636 3.80572 385.858C3.5982 385.351 3.60029 384.791 3.8141 384.285C4.02686 383.779 4.42407 383.385 4.93343 383.177C15.3826 378.907 27.1378 378.447 31.7063 378.447Z" fill="#020001"/>
<path d="M5.11433 381.617C5.26839 381.617 5.42035 381.594 5.56499 381.55C13.0807 379.242 24.5706 379.125 26.7978 379.125L27.0535 379.126C27.9034 379.126 28.592 378.446 28.6015 377.611C28.6057 377.2 28.4495 376.813 28.1623 376.522C27.8762 376.229 27.4926 376.066 27.0839 376.063L26.7338 376.062C24.4406 376.062 12.5996 376.185 4.66469 378.622C4.27376 378.74 3.95305 379.006 3.76126 379.367C3.56841 379.73 3.52965 380.145 3.65018 380.537C3.84826 381.182 4.43623 381.617 5.11433 381.617Z" fill="#FFFEFB"/>
<path d="M26.7363 376.582C24.5354 376.582 12.7593 376.681 4.82023 379.12C4.28781 379.283 3.98912 379.847 4.15262 380.38C4.28572 380.813 4.68505 381.092 5.11685 381.092C5.21432 381.092 5.31388 381.078 5.41344 381.048C13.0465 378.704 24.8236 378.6 26.7814 378.6C26.9533 378.6 27.0487 378.601 27.0602 378.601C27.0633 378.601 27.0675 378.601 27.0696 378.601C27.6219 378.601 28.0726 378.155 28.0779 377.602C28.0842 377.045 27.6366 376.59 27.0791 376.583C27.0371 376.583 26.9198 376.582 26.7363 376.582ZM26.7353 375.534L27.034 375.535C27.0361 375.535 27.0874 375.535 27.0895 375.535C28.2235 375.548 29.1374 376.48 29.1249 377.612C29.1133 378.735 28.19 379.648 27.0686 379.648L26.7835 379.647C25.4252 379.647 13.3221 379.714 5.71947 382.049C5.52348 382.109 5.32016 382.139 5.11474 382.139C4.20502 382.139 3.41477 381.555 3.14856 380.686C2.81633 379.603 3.42736 378.45 4.51001 378.117C12.316 375.721 23.4947 375.534 26.7353 375.534Z" fill="#020001"/>
<path d="M3.89392 378.52C4.01444 378.52 4.13809 378.505 4.26071 378.476C11.9472 376.572 19.0825 376.288 22.6501 376.288C24.1918 376.288 25.2053 376.338 25.57 376.359C25.6192 376.363 25.6633 376.366 25.7062 376.366C26.5007 376.366 27.1672 375.739 27.2228 374.941C27.2511 374.534 27.1201 374.137 26.8528 373.828C26.5856 373.519 26.2135 373.332 25.8047 373.303C25.6769 373.294 24.4947 373.212 22.5138 373.212C18.8697 373.212 11.5584 373.508 3.52708 375.5C3.12987 375.598 2.79449 375.846 2.58383 376.196C2.37212 376.547 2.31026 376.958 2.40878 377.355C2.57752 378.041 3.18857 378.52 3.89392 378.52Z" fill="#FFFEFB"/>
<path d="M22.5136 373.738C18.5676 373.738 11.4774 374.072 3.65364 376.011C3.11284 376.145 2.78269 376.691 2.91685 377.232C3.03108 377.691 3.44296 377.998 3.89467 377.998C3.97537 377.998 4.05712 377.988 4.13782 377.968C11.7761 376.077 18.8307 375.765 22.6498 375.765C24.4986 375.765 25.5896 375.839 25.6221 375.84C25.6504 375.842 25.6787 375.844 25.706 375.844C26.2143 375.844 26.6618 375.434 26.6995 374.907C26.7404 374.352 26.3212 373.87 25.7657 373.83C25.6284 373.818 24.4483 373.738 22.5136 373.738ZM22.5125 372.69C24.507 372.69 25.7112 372.774 25.8422 372.784C26.3893 372.823 26.8893 373.073 27.2487 373.488C27.6082 373.903 27.7843 374.434 27.7445 374.983C27.669 376.053 26.7729 376.892 25.706 376.892C25.6473 376.892 25.5886 376.89 25.5288 376.884C25.2679 376.868 24.2429 376.814 22.6498 376.814C19.1053 376.814 12.0203 377.095 4.38938 378.986C4.22378 379.026 4.0582 379.046 3.89365 379.046C2.94829 379.046 2.12764 378.404 1.89811 377.484C1.62561 376.383 2.29953 375.266 3.4 374.993C11.4858 372.989 18.8453 372.69 22.5125 372.69Z" fill="#020001"/>
<path d="M23.7178 31.3994C23.7472 32.1111 23.6916 32.852 23.3499 33.4756C23.0072 34.1003 22.3197 34.5772 21.6133 34.4891C20.6124 34.3644 20.0716 33.2807 19.7058 32.3406C18.9491 30.3943 18.1924 28.4491 17.4346 26.5029C17.2596 26.0522 17.0804 25.5732 17.1653 25.0974C17.3361 24.1363 18.5194 23.5851 19.4186 23.7632C20.212 23.9204 20.8304 24.8239 21.3376 25.416C22.7588 27.0751 23.6266 29.2132 23.7178 31.3994Z" fill="#E39C9F"/>
<path d="M15.8095 20.8567C16.1711 21.2046 16.4908 21.7213 16.2969 22.1835C16.1166 22.6164 15.5842 22.7684 15.1178 22.8103C13.8811 22.9203 12.6108 22.6174 11.5565 21.9603C11.1918 21.7329 10.8228 21.4132 10.7893 20.9845C10.7631 20.6481 10.9601 20.3253 11.2221 20.1136C12.5668 19.0299 14.6975 19.7866 15.8095 20.8567Z" fill="#E39C9F"/>
<path d="M94.3827 209.152C92.7907 209.7 91.576 210.998 90.5897 212.363C90.2921 212.775 90.0028 213.209 89.8802 213.702C89.7576 214.196 89.8299 214.765 90.1831 215.131C90.64 215.606 91.4156 215.6 92.034 215.374C92.6523 215.148 93.1921 214.743 93.8031 214.497C94.695 214.138 95.6833 214.137 96.6392 214.032C97.595 213.928 98.6043 213.677 99.2489 212.963C101.607 210.353 96.2472 208.51 94.3827 209.152Z" fill="#E39C9F"/>
</g>
</svg>
