<?xml version='1.0' encoding='utf-8'?>
<!DOCTYPE svg PUBLIC '-//W3C//DTD SVG 1.1//EN' 'http://www.w3.org/Graphics/SVG/1.1/DTD/svg11.dtd'>
<!-- Uploaded to: SVG Repo, www.svgrepo.com, Generator: SVG Repo Mixer Tools -->
<svg fill="#000000" height="800px" width="800px" version="1.1" xmlns="http://www.w3.org/2000/svg" viewBox="0 0 512 512" xmlns:xlink="http://www.w3.org/1999/xlink" enable-background="new 0 0 512 512">
  <g>
    <g>
      <path d="m153.2,239.6c14.6-15.7 14.6-41 14.6-41.4 0-0.8 0-21.9-13.8-40.3-11-14.7-11.5-35.8 0.1-50.2 9.2-11.3 14-26.3 13.6-42-0.6-22.9-11.9-42.9-28.8-51-5-2.4-10.2-3.6-15.3-3.6-7.9,0-15.7,2.8-23,8.3-43,32.6-72.3,131-66.7,224 4.1,67.7 26.1,118 60.1,137.8 14.9,8.7 32,9 46.8,0.9 16.2-8.9 26-25.8 26.9-46.5 0.7-16.8-4.4-32.5-14.5-44.3-12.5-14.8-13.1-37.6-2.84217e-14-51.7z"/>
      <path d="m411.3,19.3c-7.3-5.5-15.2-8.3-23-8.3-5.1,0-10.3,1.2-15.3,3.6-16.9,8.2-28.2,28.2-28.8,51-0.4,15.7 4.4,30.6 13.6,42 11.6,14.4 11.1,35.5 0.1,50.2-13.8,18.4-13.8,39.6-13.8,40.3 0,0.4 0,25.7 14.6,41.4 13.2,14.1 12.5,37-0.1,51.8-10,11.8-15.1,27.5-14.5,44.3 0.9,20.6 10.7,37.6 26.9,46.5 14.8,8.1 31.8,7.8 46.8-0.9 34.1-19.8 56-70 60.1-137.8 5.8-93-23.5-191.4-66.6-224.1z"/>
      <path d="m300.3,186c-4.2,4.4-35.2,55.8-40,64.2-15.8-29.4-36.5-61.1-50-73.4 1.4,7-0.9,51.4-6.6,64.9 14.7,23 31.1,52 34.3,67 0.2,0.9 0.8,170.1 0.8,170.1 0,12.3 10,22.3 22.3,22.3 12.3,0 22.3-10 22.3-22.3v-173.3c5.8-17.5 18-37.5 29-55.4-8.3-15.6-12.5-60.1-12.1-64.1z"/>
    </g>
  </g>
</svg>