<svg width="348" height="635" viewBox="0 0 348 635" fill="none" xmlns="http://www.w3.org/2000/svg">
<g filter="url(#filter0_d_3670_4564)">
<g clip-path="url(#clip0_3670_4564)">
<rect x="4" width="340" height="627" rx="15" fill="#7D0B0B"/>
<path d="M38.5646 57.3858C32.8115 55.8443 26.7031 56.1459 21.0116 58.2525C15.3202 60.3592 10.3015 64.1762 6.59004 69.221C2.87862 74.2658 0.641232 80.3116 0.1608 86.5941C-0.319632 92.8766 0.978473 99.1135 3.89096 104.516C6.80345 109.919 11.1995 114.244 16.5232 116.946C21.8469 119.648 27.8592 120.604 33.7998 119.695C39.7403 118.785 45.3423 116.05 49.8973 111.835C54.4523 107.62 57.7558 102.116 59.39 96.0167L47.9803 92.9594C46.9871 96.6661 44.9794 100.012 42.2111 102.573C39.4427 105.135 36.0381 106.797 32.4277 107.35C28.8174 107.903 25.1634 107.321 21.9279 105.679C18.6924 104.037 16.0207 101.408 14.2506 98.125C12.4806 94.8415 11.6916 91.051 11.9836 87.2329C12.2756 83.4147 13.6354 79.7403 15.891 76.6743C18.1466 73.6084 21.1968 71.2885 24.6557 70.0082C28.1147 68.7279 31.8272 68.5446 35.3236 69.4815L38.5646 57.3858Z" fill="#BC2C23"/>
<path d="M67.9169 132.719C73.636 134.382 79.7495 134.21 85.4844 132.225C91.2193 130.239 96.3179 126.53 100.136 121.565C103.953 116.6 106.319 110.603 106.932 104.332C107.546 98.0613 106.381 91.7983 103.583 86.3351C100.786 80.8718 96.4831 76.4538 91.2179 73.6396C85.9528 70.8254 79.9622 69.7415 74.0037 70.5249C68.0451 71.3084 62.3864 73.9239 57.7429 78.0409C53.0994 82.1579 49.6798 87.5914 47.9164 93.6542L59.2587 96.953C60.3304 93.2683 62.4086 89.9661 65.2307 87.464C68.0528 84.9619 71.492 83.3723 75.1133 82.8962C78.7346 82.42 82.3754 83.0788 85.5753 84.7891C88.7752 86.4994 91.3905 89.1845 93.0904 92.5048C94.7904 95.8251 95.4986 99.6315 95.1257 103.443C94.7527 107.254 93.3152 110.898 90.995 113.916C88.6748 116.933 85.5761 119.188 82.0907 120.394C78.6053 121.601 74.8898 121.705 71.414 120.694L67.9169 132.719Z" fill="#BC2C23"/>
<g opacity="0.22" filter="url(#filter1_d_3670_4564)">
<path opacity="0.1" fill-rule="evenodd" clip-rule="evenodd" d="M123.961 148.25C196.28 148.25 254.906 105.801 254.906 53.4375C254.906 1.074 196.28 -41.375 123.961 -41.375C51.6418 -41.375 -6.98438 1.074 -6.98438 53.4375C-6.98438 105.801 51.6418 148.25 123.961 148.25Z" fill="#BC2C23"/>
<g opacity="0.99" filter="url(#filter2_d_3670_4564)">
<path fill-rule="evenodd" clip-rule="evenodd" d="M127.5 220C252.593 220 354 146.575 354 56C354 -34.5747 252.593 -108 127.5 -108C2.40749 -108 -99 -34.5747 -99 56C-99 146.575 2.40749 220 127.5 220Z" fill="#FE4646"/>
<path fill-rule="evenodd" clip-rule="evenodd" d="M127.5 220C252.593 220 354 146.575 354 56C354 -34.5747 252.593 -108 127.5 -108C2.40749 -108 -99 -34.5747 -99 56C-99 146.575 2.40749 220 127.5 220Z" stroke="#FE4646"/>
</g>
<ellipse opacity="0.66" cx="309.5" cy="113" rx="46.5" ry="44" fill="#7D0B0B" fill-opacity="0.46"/>
<circle opacity="0.33" cx="220" cy="-6" r="50" fill="#7D0B0B"/>
<circle opacity="0.33" cx="33" cy="3" r="50" fill="#7D0B0B"/>
</g>
<path d="M-9.77144 443.331C-1.92455 449.35 7.53076 452.906 17.3988 453.551C27.2668 454.195 37.1044 451.899 45.6675 446.952C54.2305 442.006 61.1345 434.631 65.5063 425.761C69.8781 416.891 71.5214 406.923 70.2283 397.119C68.9353 387.315 64.7641 378.114 58.2421 370.681C51.7201 363.247 43.1402 357.915 33.5875 355.358C24.0349 352.8 13.9384 353.133 4.57484 356.314C-4.78869 359.495 -12.9987 365.381 -19.017 373.228L-8.44397 381.337C-4.02952 375.581 1.99258 371.264 8.86079 368.931C15.729 366.597 23.1348 366.353 30.1418 368.229C37.1487 370.105 43.4421 374.016 48.226 379.469C53.01 384.921 56.0696 391.67 57.0181 398.861C57.9665 406.053 56.7611 413.364 53.5544 419.87C50.3476 426.377 45.2835 431.786 39.0025 435.414C32.7214 439.043 25.5055 440.727 18.2672 440.254C11.029 439.781 4.09345 437.173 -1.6623 432.758L-9.77144 443.331Z" fill="#BC2C23"/>
<path d="M306.818 248.082C298.151 252.845 291.092 260.071 286.532 268.846C281.972 277.621 280.117 287.551 281.201 297.38C282.284 307.21 286.259 316.497 292.621 324.068C298.983 331.639 307.447 337.153 316.943 339.913C326.439 342.674 336.54 342.556 345.97 339.575C355.399 336.595 363.732 330.885 369.916 323.168C376.101 315.451 379.858 306.074 380.712 296.222C381.567 286.37 379.481 276.486 374.718 267.819L363.041 274.237C366.534 280.594 368.064 287.844 367.437 295.07C366.81 302.297 364.055 309.175 359.519 314.836C354.983 320.496 348.87 324.684 341.953 326.87C335.037 329.057 327.628 329.143 320.662 327.118C313.697 325.093 307.488 321.049 302.822 315.496C298.155 309.942 295.24 303.13 294.445 295.92C293.65 288.71 295.011 281.426 298.356 274.99C301.7 268.553 306.878 263.253 313.235 259.759L306.818 248.082Z" fill="#BC2C23"/>
<path d="M250.692 38.6697C258.447 32.6746 264.269 24.5323 267.434 15.2551C270.599 5.97796 270.967 -4.02487 268.493 -13.5096C266.018 -22.9944 260.811 -31.5427 253.517 -38.0916C246.224 -44.6406 237.166 -48.9013 227.471 -50.344C217.776 -51.7867 207.87 -50.3478 198.986 -46.2062C190.102 -42.0646 182.631 -35.4029 177.502 -27.0495C172.373 -18.6961 169.813 -9.01948 170.14 0.777254C170.466 10.574 173.665 20.0586 179.339 28.052L190.204 20.3395C186.043 14.4764 183.696 7.5193 183.457 0.333329C183.217 -6.85264 185.095 -13.9505 188.857 -20.0778C192.619 -26.205 198.099 -31.0914 204.616 -34.1293C211.132 -37.1672 218.398 -38.2227 225.51 -37.1644C232.622 -36.1062 239.265 -32.9809 244.615 -28.1772C249.965 -23.3735 253.785 -17.1033 255.599 -10.1462C257.414 -3.18906 257.144 4.14808 254.823 10.953C252.501 17.7578 248.231 23.7303 242.543 28.1277L250.692 38.6697Z" fill="#BC2C23"/>
</g>
</g>
<defs>
<filter id="filter0_d_3670_4564" x="0" y="0" width="348" height="635" filterUnits="userSpaceOnUse" color-interpolation-filters="sRGB">
<feFlood flood-opacity="0" result="BackgroundImageFix"/>
<feColorMatrix in="SourceAlpha" type="matrix" values="0 0 0 0 0 0 0 0 0 0 0 0 0 0 0 0 0 0 127 0" result="hardAlpha"/>
<feOffset dy="4"/>
<feGaussianBlur stdDeviation="2"/>
<feComposite in2="hardAlpha" operator="out"/>
<feColorMatrix type="matrix" values="0 0 0 0 0 0 0 0 0 0 0 0 0 0 0 0 0 0 0.25 0"/>
<feBlend mode="normal" in2="BackgroundImageFix" result="effect1_dropShadow_3670_4564"/>
<feBlend mode="normal" in="SourceGraphic" in2="effect1_dropShadow_3670_4564" result="shape"/>
</filter>
<filter id="filter1_d_3670_4564" x="-113.3" y="-118.3" width="483.1" height="356.6" filterUnits="userSpaceOnUse" color-interpolation-filters="sRGB">
<feFlood flood-opacity="0" result="BackgroundImageFix"/>
<feColorMatrix in="SourceAlpha" type="matrix" values="0 0 0 0 0 0 0 0 0 0 0 0 0 0 0 0 0 0 127 0" result="hardAlpha"/>
<feOffset dy="4"/>
<feGaussianBlur stdDeviation="6.9"/>
<feComposite in2="hardAlpha" operator="out"/>
<feColorMatrix type="matrix" values="0 0 0 0 0 0 0 0 0 0 0 0 0 0 0 0 0 0 0.25 0"/>
<feBlend mode="normal" in2="BackgroundImageFix" result="effect1_dropShadow_3670_4564"/>
<feBlend mode="normal" in="SourceGraphic" in2="effect1_dropShadow_3670_4564" result="shape"/>
</filter>
<filter id="filter2_d_3670_4564" x="-103.5" y="-108.5" width="462" height="337" filterUnits="userSpaceOnUse" color-interpolation-filters="sRGB">
<feFlood flood-opacity="0" result="BackgroundImageFix"/>
<feColorMatrix in="SourceAlpha" type="matrix" values="0 0 0 0 0 0 0 0 0 0 0 0 0 0 0 0 0 0 127 0" result="hardAlpha"/>
<feOffset dy="4"/>
<feGaussianBlur stdDeviation="2"/>
<feComposite in2="hardAlpha" operator="out"/>
<feColorMatrix type="matrix" values="0 0 0 0 0 0 0 0 0 0 0 0 0 0 0 0 0 0 0.25 0"/>
<feBlend mode="normal" in2="BackgroundImageFix" result="effect1_dropShadow_3670_4564"/>
<feBlend mode="normal" in="SourceGraphic" in2="effect1_dropShadow_3670_4564" result="shape"/>
</filter>
<clipPath id="clip0_3670_4564">
<rect x="4" width="340" height="627" rx="15" fill="white"/>
</clipPath>
</defs>
</svg>
