<svg width="328" height="149" viewBox="0 0 328 149" fill="none" xmlns="http://www.w3.org/2000/svg">
<g clip-path="url(#clip0_3676_4830)">
<rect width="328" height="149" rx="15" fill="white"/>
<path d="M325.277 73.0436C321.853 73.7566 321.275 74.3347 320.562 77.758C319.849 74.3351 319.271 73.7566 315.848 73.0436C319.271 72.3305 319.849 71.7525 320.562 68.3291C321.275 71.7521 321.853 72.3301 325.277 73.0436Z" fill="#020001"/>
<path d="M331.368 137.275C331.281 137.275 331.206 137.215 331.189 137.13C330.489 133.77 329.976 133.257 326.616 132.557C326.531 132.539 326.471 132.465 326.471 132.378C326.471 132.291 326.531 132.217 326.616 132.199C329.976 131.499 330.489 130.986 331.189 127.626C331.206 127.541 331.281 127.48 331.368 127.48C331.454 127.48 331.529 127.541 331.547 127.626C332.247 130.986 332.76 131.499 336.119 132.199C336.204 132.217 336.265 132.291 336.265 132.378C336.265 132.465 336.204 132.539 336.119 132.557C332.759 133.257 332.247 133.77 331.547 137.13C331.529 137.214 331.454 137.275 331.368 137.275Z" fill="#FFCFE7"/>
<path d="M331.369 127.663C332.082 131.086 332.661 131.664 336.084 132.377C332.661 133.09 332.082 133.668 331.369 137.092C330.656 133.668 330.078 133.09 326.655 132.377C330.078 131.664 330.656 131.086 331.369 127.663ZM331.369 127.297C331.196 127.297 331.047 127.418 331.011 127.588C330.326 130.878 329.87 131.334 326.58 132.019C326.411 132.055 326.289 132.204 326.289 132.377C326.289 132.551 326.411 132.7 326.58 132.735C329.87 133.421 330.326 133.876 331.011 137.166C331.047 137.336 331.196 137.458 331.369 137.458C331.543 137.458 331.692 137.336 331.728 137.166C332.413 133.876 332.868 133.421 336.158 132.735C336.328 132.7 336.45 132.551 336.45 132.377C336.45 132.204 336.328 132.055 336.158 132.019C332.869 131.334 332.413 130.878 331.728 127.588C331.692 127.418 331.543 127.297 331.369 127.297Z" fill="#020001"/>
<path d="M215.079 92.5997C214.992 92.5997 214.918 92.539 214.9 92.4541C214.2 89.0944 213.687 88.5815 210.327 87.8816C210.242 87.864 210.182 87.7894 210.182 87.7027C210.182 87.616 210.242 87.5414 210.327 87.5238C213.687 86.8239 214.2 86.311 214.9 82.9513C214.918 82.8664 214.992 82.8057 215.079 82.8057C215.166 82.8057 215.24 82.8664 215.258 82.9513C215.958 86.311 216.471 86.8239 219.83 87.5238C219.915 87.5414 219.976 87.616 219.976 87.7027C219.976 87.7894 219.915 87.864 219.83 87.8816C216.47 88.5815 215.958 89.0944 215.258 92.4541C215.241 92.539 215.166 92.5997 215.079 92.5997Z" fill="#FFCFE7"/>
<path d="M215.08 82.9879C215.793 86.4109 216.371 86.9893 219.795 87.7024C216.371 88.4155 215.793 88.9935 215.08 92.4169C214.367 88.9935 213.789 88.4155 210.366 87.7024C213.789 86.989 214.367 86.4109 215.08 82.9879ZM215.08 82.6221C214.907 82.6221 214.758 82.7435 214.722 82.9133C214.037 86.2031 213.581 86.6586 210.291 87.3442C210.121 87.3793 210 87.529 210 87.7024C210 87.8758 210.121 88.0251 210.291 88.0606C213.581 88.7458 214.037 89.2013 214.722 92.4915C214.758 92.6613 214.907 92.7827 215.08 92.7827C215.254 92.7827 215.403 92.6613 215.439 92.4915C216.124 89.2017 216.579 88.7462 219.869 88.0606C220.039 88.0251 220.161 87.8758 220.161 87.7024C220.161 87.529 220.039 87.3797 219.869 87.3442C216.58 86.659 216.124 86.2035 215.439 82.9133C215.403 82.7435 215.254 82.6221 215.08 82.6221Z" fill="#020001"/>
<path d="M240.699 74.8152C238.987 75.172 238.698 75.461 238.342 77.1725C237.985 75.461 237.696 75.172 235.984 74.8152C237.696 74.4585 237.985 74.1695 238.342 72.458C238.698 74.1695 238.987 74.4585 240.699 74.8152Z" fill="#8F1318" stroke="#020001" stroke-miterlimit="10" stroke-linecap="round" stroke-linejoin="round"/>
<path d="M312.281 17.9686C310.569 18.3253 310.28 18.6143 309.924 20.3258C309.567 18.6143 309.278 18.3253 307.566 17.9686C309.278 17.6118 309.567 17.3228 309.924 15.6113C310.28 17.3232 310.569 17.6122 312.281 17.9686Z" fill="#8F1318" stroke="#020001" stroke-miterlimit="10" stroke-linecap="round" stroke-linejoin="round"/>
<path d="M220.048 117.072C218.244 117.447 217.94 117.752 217.564 119.556C217.188 117.752 216.884 117.447 215.08 117.072C216.884 116.696 217.188 116.392 217.564 114.588C217.94 116.391 218.244 116.696 220.048 117.072Z" fill="#020001"/>
<path d="M225.963 55.6477C224.579 55.936 224.345 56.1698 224.057 57.5542C223.769 56.1698 223.535 55.936 222.15 55.6477C223.535 55.3594 223.769 55.1256 224.057 53.7412C224.345 55.1256 224.579 55.3594 225.963 55.6477Z" fill="#020001"/>
<path d="M299.625 117.455C298.241 117.744 298.007 117.977 297.719 119.362C297.431 117.977 297.197 117.744 295.812 117.455C297.197 117.167 297.431 116.933 297.719 115.549C298.007 116.933 298.241 117.167 299.625 117.455Z" fill="#020001"/>
<path d="M244.043 23.3088C242.659 23.5971 242.425 23.8309 242.137 25.2153C241.849 23.8309 241.615 23.5971 240.23 23.3088C241.615 23.0205 241.849 22.7868 242.137 21.4023C242.425 22.7868 242.659 23.0205 244.043 23.3088Z" fill="#020001"/>
<path d="M310.052 54.9327C309.435 54.9327 308.823 54.8475 308.235 54.6799C303.531 53.3383 301.203 46.9895 303.046 40.5273C304.622 34.9999 308.852 30.9883 313.104 30.9883C313.72 30.9883 314.331 31.0732 314.92 31.2411C317.21 31.8941 319.009 33.7337 319.986 36.4206C320.956 39.087 321 42.2736 320.11 45.3936C318.533 50.9211 314.304 54.9327 310.053 54.9327C310.052 54.9327 310.052 54.9327 310.052 54.9327ZM312.062 39.399C310.817 39.399 309.571 40.5998 309.099 42.2538C308.831 43.1963 308.842 44.1559 309.133 44.9553C309.416 45.7343 309.931 46.2655 310.582 46.451C310.747 46.4982 310.919 46.522 311.093 46.522C312.338 46.522 313.584 45.3212 314.056 43.6671C314.605 41.7424 313.94 39.8596 312.573 39.47C312.408 39.4228 312.236 39.399 312.062 39.399Z" fill="#BF1920"/>
<path d="M313.106 31.1715C313.699 31.1715 314.291 31.2513 314.872 31.4174C319.487 32.7334 321.754 38.9684 319.936 45.3438C318.347 50.9155 314.165 54.7501 310.055 54.7501C309.462 54.7501 308.87 54.6703 308.288 54.5042C303.673 53.1882 301.406 46.9532 303.224 40.5778C304.813 35.0061 308.996 31.1715 313.106 31.1715ZM311.096 46.7056C312.401 46.7056 313.73 45.4876 314.234 43.7179C314.812 41.6929 314.092 39.7125 312.626 39.2947C312.441 39.242 312.253 39.2168 312.065 39.2168C310.76 39.2168 309.431 40.4347 308.926 42.2044C308.349 44.2294 309.069 46.2098 310.535 46.6276C310.72 46.6799 310.907 46.7056 311.096 46.7056ZM313.106 30.8057C308.774 30.8057 304.471 34.8733 302.872 40.4775C301.972 43.6345 302.017 46.861 303 49.5633C303.998 52.3069 305.84 54.1867 308.188 54.8562C308.792 55.0285 309.42 55.1159 310.055 55.1159C314.386 55.1159 318.69 51.0483 320.288 45.4441C321.189 42.2871 321.143 39.0606 320.161 36.3583C319.163 33.6147 317.32 31.7349 314.973 31.0654C314.368 30.8931 313.74 30.8057 313.106 30.8057ZM311.096 46.3397C310.939 46.3397 310.784 46.3181 310.635 46.2757C309.366 45.9135 308.757 44.1321 309.278 42.3043C309.728 40.727 310.9 39.5823 312.065 39.5823C312.221 39.5823 312.377 39.6039 312.526 39.6463C313.795 40.0085 314.404 41.7899 313.882 43.6177C313.433 45.1946 312.261 46.3397 311.096 46.3397Z" fill="#020001"/>
<path d="M308.775 44.2327C308.686 43.6038 308.727 42.9079 308.927 42.2047C309.505 40.1797 311.161 38.8772 312.627 39.2951C312.83 39.3529 313.017 39.4436 313.19 39.5574C313.022 38.3753 312.387 37.4347 311.43 37.1621C309.964 36.7439 308.308 38.0467 307.73 40.0718C307.233 41.8158 307.7 43.5244 308.775 44.2327Z" fill="#8F1318"/>
<path d="M318.468 33.96C319.521 36.5411 319.697 39.8565 318.74 43.2118C316.923 49.5869 311.708 53.6886 307.093 52.3722C305.646 51.9595 304.43 51.0632 303.498 49.8306C304.446 52.1538 306.104 53.8818 308.29 54.5052C312.905 55.8212 318.12 51.7199 319.938 45.3448C321.186 40.9684 320.508 36.6582 318.468 33.96Z" fill="#8F1318"/>
<path d="M321.704 55.4256C320.383 55.4256 320.049 54.9924 320.003 54.6287C319.888 53.7335 319.91 52.9527 319.938 52.5254C319.486 52.7552 318.615 53.1441 317.901 53.1441C317.534 53.1441 317.246 53.042 317.045 52.8404C316.193 51.9887 315.554 49.7767 316.433 48.8624C317.004 48.2679 318.007 48.1431 318.748 48.1431C318.79 48.1431 318.83 48.1435 318.867 48.1442C318.38 47.4323 317.305 45.6824 317.677 44.5687C317.997 43.6076 319.513 43.0127 320.734 43.0127C321.359 43.0127 321.808 43.1792 321.997 43.481C322.42 44.1582 322.39 46.2831 322.351 47.2545C322.872 46.7854 323.9 45.9765 324.812 45.9765C325.206 45.9765 325.75 46.1338 326.101 46.8828C327.184 49.1939 326.874 50.65 326.424 51.025C326.108 51.2884 325.072 51.3612 324.172 51.3715C324.638 51.9265 325.55 53.1104 325.577 53.9226C325.582 54.0796 325.513 54.2332 325.371 54.3796C324.775 54.9961 322.96 55.4256 321.704 55.4256Z" fill="#600D10"/>
<path d="M320.733 43.1959C321.251 43.1959 321.678 43.317 321.841 43.5786C322.349 44.3905 322.145 47.7055 322.145 47.7055C322.145 47.7055 323.619 46.1601 324.811 46.1601C325.255 46.1601 325.659 46.3742 325.934 46.961C326.949 49.1258 326.712 50.5468 326.306 50.8848C325.968 51.1669 324.431 51.1903 323.929 51.1903C323.828 51.1903 323.769 51.1892 323.769 51.1892C323.769 51.1892 325.359 52.9143 325.392 53.9292C325.414 54.5932 323.249 55.243 321.703 55.243C320.886 55.243 320.242 55.0619 320.183 54.6056C320.014 53.2863 320.149 52.2041 320.149 52.2041C320.149 52.2041 318.853 52.9615 317.899 52.9615C317.611 52.9615 317.353 52.8923 317.172 52.7112C316.394 51.9334 315.752 49.8341 316.564 48.9893C317.112 48.4186 318.139 48.326 318.747 48.326C319.04 48.326 319.236 48.3472 319.236 48.3472C319.236 48.3472 317.409 45.9454 317.849 44.6261C318.147 43.733 319.643 43.1959 320.733 43.1959ZM320.733 42.8301C319.656 42.8301 317.885 43.3646 317.502 44.5116C317.147 45.5788 317.975 47.1136 318.525 47.9649C317.779 47.9905 316.859 48.1552 316.3 48.7365C315.338 49.7379 315.993 52.0494 316.914 52.9706C317.151 53.2077 317.483 53.3281 317.9 53.3281C318.519 53.3281 319.242 53.054 319.739 52.8254C319.723 53.2809 319.728 53.931 319.82 54.6532C319.876 55.0897 320.248 55.6096 321.703 55.6096C322.996 55.6096 324.874 55.157 325.502 54.508C325.722 54.2797 325.763 54.0612 325.758 53.9178C325.733 53.1722 325.053 52.1807 324.551 51.5474C326.144 51.4966 326.436 51.2529 326.54 51.1666C327.172 50.6397 327.28 48.9729 326.265 46.8062C325.873 45.9703 325.257 45.7946 324.81 45.7946C323.997 45.7946 323.129 46.3665 322.547 46.8421C322.575 45.7376 322.546 44.0184 322.151 43.3851C321.924 43.0222 321.434 42.8301 320.733 42.8301Z" fill="#020001"/>
<path d="M308.55 48.6012C308.085 48.4662 307.634 48.2598 307.152 48.2196C306.669 48.1797 306.123 48.3568 305.912 48.7929C305.737 49.1558 305.846 49.6091 306.096 49.9256C306.346 50.2421 306.714 50.4426 307.088 50.5937C308.377 51.115 309.863 51.1307 311.163 50.6368C311.748 50.4148 315.04 48.2368 313.543 47.8051C312.807 47.5932 312.045 48.2931 311.396 48.5116C310.483 48.8189 309.479 48.8708 308.55 48.6012Z" fill="#E39C9F"/>
<path d="M311.588 35.6561C311.972 35.8416 312.377 36.0981 312.79 35.9956C313.208 35.8921 313.463 35.4238 313.429 34.9946C313.394 34.5655 313.129 34.185 312.809 33.8974C311.893 33.0761 310.508 32.9037 309.338 33.285C308.734 33.4818 305.514 35.572 306.855 36.0304C307.545 36.2664 308.355 35.52 308.996 35.3704C309.858 35.1688 310.79 35.2701 311.588 35.6561Z" fill="#E39C9F"/>
<path d="M314.105 33.3882C314.053 33.7376 314.193 34.0841 314.338 34.4056C314.45 34.6526 314.57 34.9018 314.758 35.0971C314.945 35.2925 315.214 35.429 315.483 35.3946C315.888 35.3426 316.158 34.9255 316.214 34.5209C316.376 33.3593 314.336 31.8201 314.105 33.3882Z" fill="#E39C9F"/>
<path d="M293.412 155.036C290.76 155.036 288.197 154.693 286.559 154.118C282.346 152.642 281.308 150.185 281.265 150.082C281.256 150.059 281.252 150.035 281.252 150.012C281.252 149.935 281.385 142.317 289.85 140.274C290.213 139.466 293.133 132.903 293.662 129.993C293.685 129.892 294.218 127.725 296.797 127.025C297.266 126.897 297.862 126.83 298.521 126.83C301.645 126.83 305.722 128.22 307.124 130.797C308.999 134.24 307.566 148.274 304.384 151.886C302.645 153.858 298.544 155.036 293.412 155.036Z" fill="#A62828"/>
<path d="M298.523 127.013C301.368 127.013 305.536 128.258 306.966 130.884C308.718 134.102 307.431 148.154 304.249 151.765C302.293 153.984 297.664 154.853 293.416 154.853C290.75 154.853 288.234 154.511 286.622 153.946C282.438 152.48 281.437 150.013 281.437 150.013C281.437 150.013 281.473 142.433 289.982 140.431C289.982 140.431 293.272 133.173 293.844 130.026C293.844 130.026 294.344 127.881 296.847 127.202C297.307 127.077 297.882 127.013 298.523 127.013ZM298.523 126.647H298.523C297.838 126.647 297.242 126.715 296.751 126.848C294.068 127.576 293.509 129.847 293.487 129.943C292.973 132.767 290.208 139.028 289.721 140.117C281.207 142.225 281.071 149.933 281.07 150.011C281.07 150.058 281.079 150.106 281.097 150.15C281.141 150.257 282.21 152.788 286.5 154.291C288.157 154.872 290.742 155.219 293.414 155.219C298.598 155.219 302.75 154.018 304.522 152.007C307.736 148.36 309.18 134.187 307.286 130.709C305.85 128.071 301.7 126.647 298.523 126.647Z" fill="#020001"/>
<path d="M298.467 137.923C298.454 137.923 298.441 137.921 298.427 137.918L294.03 136.954C294.017 136.951 294.004 136.946 293.992 136.941L291.872 135.961C291.784 135.92 291.743 135.817 291.779 135.727C292.815 133.118 293.45 131.19 293.668 129.994C293.691 129.894 294.224 127.726 296.803 127.026C297.277 126.897 297.856 126.832 298.522 126.832C299.167 126.832 299.855 126.894 300.566 127.014C300.585 127.018 300.603 127.024 300.62 127.033C300.721 127.086 303.057 128.375 302.258 132.569C301.463 136.744 298.651 137.865 298.532 137.911C298.511 137.919 298.489 137.923 298.467 137.923Z" fill="#8F1318"/>
<path d="M298.523 127.015C299.145 127.015 299.83 127.075 300.536 127.195C300.549 127.201 302.863 128.423 302.08 132.535C301.295 136.657 298.468 137.739 298.468 137.739L294.071 136.775L291.95 135.795C292.769 133.734 293.589 131.457 293.849 130.027C293.849 130.027 294.35 127.882 296.853 127.203C297.311 127.078 297.884 127.015 298.523 127.015ZM298.523 126.649C297.84 126.649 297.246 126.717 296.756 126.85C294.074 127.578 293.515 129.848 293.493 129.944C293.274 131.144 292.642 133.061 291.61 135.659C291.538 135.84 291.62 136.045 291.796 136.127L293.917 137.107C293.941 137.118 293.966 137.126 293.992 137.132L298.389 138.096C298.415 138.102 298.442 138.105 298.468 138.105C298.512 138.105 298.556 138.097 298.599 138.081C298.722 138.034 301.625 136.876 302.439 132.603C303.265 128.269 300.812 126.926 300.707 126.87C300.673 126.852 300.636 126.84 300.598 126.834C299.877 126.712 299.179 126.649 298.523 126.649Z" fill="#020001"/>
<path d="M301.48 153.747C301.45 153.747 301.421 153.74 301.395 153.726C301.347 153.701 301.313 153.656 301.301 153.604C301.198 153.137 301.203 152.828 301.203 152.815C301.204 152.785 301.212 152.755 301.227 152.728C301.248 152.692 303.254 149.162 302.643 145.865C302.016 142.483 301.368 138.985 302.492 137.439C302.746 137.09 303.019 136.921 303.328 136.921C303.63 136.921 303.904 137.088 304.147 137.236C304.35 137.36 304.541 137.477 304.704 137.477C304.779 137.477 305.007 137.477 305.293 136.824C306.165 134.841 306.334 130.256 306.335 130.21C306.338 130.133 306.388 130.066 306.461 130.042C306.48 130.036 306.499 130.033 306.518 130.033C306.573 130.033 306.626 130.058 306.661 130.103C306.849 130.339 307.001 130.567 307.127 130.799C309.001 134.242 307.569 148.276 304.386 151.887C303.744 152.616 302.789 153.237 301.547 153.734C301.526 153.743 301.502 153.747 301.48 153.747Z" fill="#8F1318"/>
<path d="M306.519 130.215C306.688 130.428 306.84 130.65 306.968 130.885C308.72 134.103 307.433 148.155 304.25 151.766C303.592 152.512 302.628 153.104 301.481 153.564C301.381 153.112 301.387 152.819 301.387 152.819C301.387 152.819 303.455 149.235 302.824 145.832C302.193 142.428 301.566 139.024 302.641 137.546C302.881 137.216 303.109 137.103 303.33 137.103C303.818 137.103 304.266 137.659 304.706 137.659C304.959 137.659 305.209 137.476 305.463 136.898C306.358 134.859 306.519 130.215 306.519 130.215ZM306.519 129.85C306.481 129.85 306.443 129.855 306.405 129.868C306.26 129.916 306.159 130.049 306.154 130.203C306.152 130.248 305.985 134.799 305.128 136.75C304.979 137.09 304.821 137.293 304.706 137.293C304.594 137.293 304.416 137.185 304.244 137.079C303.981 136.919 303.683 136.737 303.33 136.737H303.329C302.963 136.737 302.632 136.937 302.345 137.331C301.175 138.94 301.801 142.32 302.465 145.898C303.063 149.126 301.09 152.601 301.07 152.636C301.04 152.689 301.023 152.749 301.022 152.811C301.021 152.824 301.015 153.155 301.124 153.643C301.148 153.748 301.216 153.837 301.31 153.887C301.364 153.915 301.422 153.929 301.481 153.929C301.527 153.929 301.573 153.921 301.617 153.903C302.886 153.395 303.864 152.757 304.525 152.007C307.738 148.36 309.183 134.188 307.289 130.709C307.157 130.467 306.999 130.231 306.806 129.988C306.736 129.899 306.629 129.85 306.519 129.85Z" fill="#020001"/>
<path d="M281.435 149.527C281.435 149.527 280.967 150.085 280.967 150.773C280.967 151.462 280.985 152.904 281.435 153.429C281.885 153.954 285.532 157.036 293.036 156.839C300.541 156.642 303.492 154.651 304.541 153.187C305.59 151.724 312.246 137.035 311.623 134.445C310.999 131.854 306.372 128.089 304.243 128.414C304.243 128.414 307.36 131.166 307.163 137.035C306.967 142.904 304.901 148.609 302.967 150.97C301.032 153.33 295.983 153.068 295.622 152.674C295.262 152.281 294.344 149.691 293.786 149.297C293.229 148.904 288.278 148.478 287.655 148.707C287.032 148.936 285.163 151.461 284.573 151.494C283.983 151.526 281.707 150.117 281.435 149.527Z" fill="#FFFEFB" stroke="#020001" stroke-miterlimit="10" stroke-linecap="round" stroke-linejoin="round"/>
<path d="M308.162 131.957C308.062 131.937 309.293 136.08 308.574 140.52C308.524 140.829 308.95 140.965 309.084 140.682C309.781 139.218 310.605 136.932 310.531 134.423C310.531 134.393 310.526 134.365 310.516 134.337C310.399 134.01 309.595 132.246 308.162 131.957Z" fill="#8F1318" stroke="#020001" stroke-miterlimit="10" stroke-linecap="round" stroke-linejoin="round"/>
<path d="M294.751 137.922C291.413 137.922 286.756 135.93 283.874 131.479C280.083 125.623 280.278 119.652 281.597 116.318C282.778 113.334 289.915 112.696 290.218 112.67C290.223 112.669 290.228 112.669 290.233 112.669C290.285 112.669 290.336 112.691 290.371 112.731C290.409 112.774 290.424 112.834 290.412 112.891C290.392 112.985 288.416 122.35 290.788 126.187C292.191 128.459 294.005 129.564 296.331 129.564C296.654 129.564 296.944 129.544 297.177 129.528L297.404 129.513L297.468 129.512C298.291 129.512 299.215 130.366 299.716 131.59C300.442 133.361 300.06 135.22 298.695 136.564C297.804 137.44 296.404 137.922 294.751 137.922Z" fill="#600D10"/>
<path d="M290.234 112.851C290.234 112.851 288.195 122.337 290.633 126.282C292.518 129.332 294.83 129.746 296.333 129.746C296.774 129.746 297.145 129.71 297.415 129.695C297.433 129.694 297.451 129.694 297.469 129.694C299.099 129.694 301.373 133.671 298.567 136.432C297.683 137.303 296.323 137.739 294.751 137.739C291.282 137.739 286.774 135.619 284.028 131.379C280.039 125.218 280.615 119.297 281.768 116.384C282.92 113.472 290.234 112.851 290.234 112.851ZM290.234 112.485C290.224 112.485 290.214 112.486 290.203 112.487C289.895 112.513 282.65 113.162 281.428 116.25C280.092 119.625 279.892 125.664 283.721 131.578C286.64 136.087 291.364 138.105 294.751 138.105C296.477 138.105 297.885 137.617 298.823 136.694C300.243 135.296 300.641 133.362 299.886 131.52C299.358 130.229 298.364 129.328 297.469 129.328C297.444 129.328 297.419 129.329 297.394 129.33C297.324 129.334 297.247 129.339 297.165 129.345C296.935 129.361 296.648 129.38 296.332 129.38C294.074 129.38 292.312 128.304 290.944 126.09C288.611 122.316 290.571 113.022 290.591 112.928C290.616 112.815 290.585 112.697 290.508 112.61C290.439 112.53 290.338 112.485 290.234 112.485Z" fill="#020001"/>
<path d="M261.764 130.726C260.069 130.726 257.751 130.325 256.334 128.413C253.515 124.609 253.086 116.044 261.121 109.744C263.017 108.257 264.687 107.503 266.082 107.503C269.997 107.503 270.454 113.367 270.458 113.426C270.464 113.496 270.427 113.564 270.366 113.599C270.315 113.627 265.217 116.562 264.111 122.044C263.005 127.527 264.5 130.127 264.515 130.152C264.544 130.202 264.549 130.262 264.527 130.315C264.505 130.368 264.46 130.408 264.405 130.423C264.358 130.435 263.235 130.726 261.764 130.726Z" fill="#600D10"/>
<path d="M266.083 107.685C269.872 107.684 270.277 113.438 270.277 113.438C270.277 113.438 265.069 116.374 263.933 122.008C262.796 127.641 264.359 130.245 264.359 130.245C264.359 130.245 263.229 130.543 261.765 130.543C260.033 130.543 257.832 130.126 256.482 128.304C253.991 124.942 252.902 116.421 261.234 109.888C263.273 108.289 264.856 107.686 266.083 107.685ZM266.084 107.319C266.083 107.319 266.083 107.319 266.083 107.319C264.645 107.32 262.938 108.087 261.009 109.599C252.879 115.974 253.326 124.659 256.188 128.521C257.65 130.494 260.028 130.908 261.765 130.908C263.259 130.908 264.404 130.611 264.452 130.598C264.563 130.569 264.655 130.489 264.698 130.382C264.741 130.276 264.732 130.155 264.672 130.056C264.659 130.033 263.203 127.476 264.291 122.079C265.38 116.682 270.406 113.785 270.456 113.756C270.579 113.687 270.651 113.553 270.641 113.412C270.624 113.164 270.166 107.319 266.084 107.319Z" fill="#020001"/>
<path d="M261.239 109.889C260.013 110.85 258.996 111.855 258.152 112.879C260.492 114.728 263.154 116.206 266.108 117.257C267.984 114.736 270.281 113.44 270.281 113.44C270.281 113.44 269.571 103.356 261.239 109.889Z" fill="#020001" stroke="#020001" stroke-miterlimit="10" stroke-linecap="round" stroke-linejoin="round"/>
<path d="M290.227 112.853C290.227 112.853 282.914 113.473 281.761 116.386C281.23 117.728 280.823 119.71 280.926 122.059C284.065 121.329 286.923 120.129 289.482 118.564C289.661 115.491 290.227 112.853 290.227 112.853Z" fill="#020001" stroke="#020001" stroke-miterlimit="10" stroke-linecap="round" stroke-linejoin="round"/>
<path d="M241.306 118.466C237.545 118.466 232.896 117.173 231.127 113.544C228.559 108.279 232.249 103.116 232.287 103.064C232.322 103.016 232.377 102.989 232.434 102.989C232.458 102.989 232.481 102.993 232.504 103.003C234.405 103.785 240.569 106.439 240.088 107.744C239.898 108.261 239.959 108.861 240.246 109.272C240.51 109.65 240.952 109.851 241.524 109.851C242.075 109.851 242.74 109.67 243.498 109.312C246.805 107.756 250.108 100.657 250.137 100.587C250.159 100.534 250.205 100.494 250.261 100.479C250.277 100.475 250.292 100.474 250.307 100.474C250.349 100.474 250.389 100.487 250.422 100.514C251.101 101.064 257.036 105.948 256.295 108.004C255.487 110.244 252.312 114.519 247.781 117.007C246.068 117.948 243.768 118.466 241.306 118.466Z" fill="#600D10"/>
<path d="M250.305 100.656C250.305 100.656 256.84 105.949 256.121 107.942C255.403 109.935 252.364 114.281 247.692 116.847C245.983 117.785 243.674 118.283 241.304 118.283C237.193 118.283 232.906 116.78 231.289 113.464C228.74 108.236 232.433 103.172 232.433 103.172C232.433 103.172 240.373 106.439 239.915 107.68C239.572 108.61 239.926 110.033 241.522 110.033C242.059 110.033 242.736 109.872 243.575 109.478C246.907 107.909 250.24 100.819 250.305 100.656ZM250.305 100.29C250.275 100.29 250.244 100.294 250.213 100.302C250.102 100.331 250.01 100.411 249.967 100.517C249.923 100.617 246.627 107.637 243.419 109.147C242.684 109.492 242.046 109.667 241.522 109.667C241.006 109.667 240.626 109.499 240.395 109.167C240.107 108.753 240.119 108.186 240.258 107.807C240.466 107.245 240.155 106.472 236.51 104.634C234.592 103.667 232.592 102.842 232.572 102.834C232.527 102.815 232.48 102.806 232.433 102.806C232.319 102.806 232.208 102.86 232.137 102.957C231.981 103.171 228.346 108.261 230.961 113.625C232.767 117.33 237.489 118.65 241.305 118.65C243.797 118.65 246.128 118.124 247.868 117.168C252.44 114.657 255.648 110.335 256.466 108.067C257.234 105.937 251.661 101.284 250.536 100.372C250.47 100.318 250.388 100.29 250.305 100.29Z" fill="#020001"/>
<path d="M292.028 143.84C291.633 143.84 291.253 143.81 290.899 143.751C289.246 143.475 288.387 142.716 288.134 142.097C288 141.769 288.018 141.449 288.184 141.221C288.554 140.713 289.55 140.373 289.847 140.281C290.018 139.901 290.802 138.141 291.616 136.118C291.644 136.049 291.711 136.004 291.786 136.004C291.791 136.004 291.795 136.004 291.8 136.005C293.697 136.153 297.003 136.569 297.827 137.686C298.006 137.928 298.065 138.192 298.002 138.469C297.999 138.484 297.994 138.498 297.988 138.511L296.695 141.116C296.757 141.475 296.91 142.639 296.351 142.897C296.331 142.906 294.281 143.84 292.029 143.84L292.028 143.84Z" fill="#8F1318"/>
<path d="M291.786 136.186C293.452 136.316 298.184 136.829 297.825 138.429L296.505 141.088C296.505 141.088 296.772 142.501 296.276 142.73C295.858 142.923 293.98 143.657 292.029 143.657C291.662 143.657 291.293 143.631 290.93 143.57C288.638 143.188 287.937 141.872 288.333 141.329C288.728 140.785 289.981 140.432 289.981 140.432C289.981 140.432 290.859 138.493 291.786 136.186ZM291.786 135.82C291.638 135.82 291.503 135.91 291.447 136.05C290.68 137.958 289.938 139.632 289.715 140.13C289.327 140.256 288.414 140.596 288.037 141.113C287.833 141.394 287.807 141.778 287.966 142.166C288.318 143.027 289.404 143.687 290.87 143.931C291.234 143.992 291.624 144.023 292.03 144.023C294.323 144.023 296.409 143.072 296.43 143.062C297.07 142.767 296.966 141.639 296.887 141.143L298.153 138.591C298.166 138.565 298.176 138.538 298.182 138.509C298.256 138.182 298.184 137.859 297.976 137.577C297.108 136.402 293.744 135.973 291.815 135.822C291.805 135.821 291.796 135.82 291.786 135.82Z" fill="#020001"/>
<path d="M290.808 138.071C290.79 138.07 290.772 138.065 290.755 138.059C290.687 138.033 289.071 137.392 289.137 136.252C289.198 135.197 294.014 135.185 294.219 135.185C295.179 135.185 298.368 135.254 299.082 136.149C299.386 136.529 299.488 136.912 299.383 137.286C299.149 138.127 297.942 138.582 297.89 138.601C297.87 138.609 297.849 138.613 297.827 138.613C297.822 138.613 290.808 138.071 290.808 138.071Z" fill="#8F1318"/>
<path d="M294.22 135.368C296.333 135.368 298.437 135.632 298.94 136.263C300.023 137.618 297.828 138.43 297.828 138.43L290.822 137.889C290.822 137.889 289.261 137.283 289.32 136.263C289.352 135.718 291.792 135.368 294.22 135.368ZM294.22 135.002H294.22C293.001 135.002 289.022 135.092 288.955 136.242C288.882 137.513 290.616 138.201 290.69 138.23C290.724 138.243 290.759 138.251 290.795 138.254L297.8 138.795C297.81 138.796 297.819 138.796 297.828 138.796C297.871 138.796 297.915 138.788 297.955 138.773C298.093 138.722 299.306 138.25 299.561 137.336C299.644 137.037 299.653 136.569 299.227 136.035C298.482 135.103 295.477 135.002 294.22 135.002Z" fill="#020001"/>
<path d="M250.306 100.656C250.275 100.734 249.505 102.378 248.348 104.249C249.923 106.915 251.867 109.269 254.148 111.249C255.154 109.945 255.831 108.75 256.122 107.943C256.841 105.95 250.306 100.656 250.306 100.656Z" fill="#020001" stroke="#020001" stroke-miterlimit="10" stroke-linecap="round" stroke-linejoin="round"/>
<path d="M276.997 117.028C275.412 117.028 273.778 116.917 272.138 116.697C263.012 115.473 255.491 110.603 250.958 102.983C244.79 92.6147 244.501 78.1475 250.164 63.2903C260.375 36.505 279.09 21.1846 279.278 21.0331C280.776 19.712 281.993 19.4336 282.749 19.4336C283.296 19.4336 283.784 19.5774 284.161 19.8496C285.048 20.4906 285.722 21.707 283.987 25.8713C282.819 28.6745 282.985 30.1789 283.33 30.9476C283.55 31.4389 283.919 31.7857 284.396 31.95C284.477 31.9778 284.559 31.9914 284.647 31.9914C285.051 31.9914 285.504 31.6917 285.983 31.3745C286.557 30.9948 287.208 30.5638 287.932 30.5638C288.396 30.5638 288.831 30.7339 289.264 31.0844C290.849 32.3675 290.137 34.6073 289.383 36.9784C289.137 37.7522 288.883 38.5523 288.699 39.3433C288.007 42.3167 288.536 44.7211 293.347 49.6101C297.633 53.9645 308.627 68.9538 308.047 85.7951C307.778 93.5981 304.668 101.367 299.515 107.111C295.455 111.635 288.253 117.028 276.997 117.028Z" fill="#BF1920"/>
<path d="M282.751 19.6168C283.291 19.6168 283.735 19.7672 284.055 19.9981C284.904 20.6112 285.47 21.838 283.819 25.801C282.168 29.764 282.97 31.6511 284.338 32.123C284.441 32.1585 284.544 32.1746 284.648 32.1746C285.629 32.1746 286.674 30.747 287.933 30.747C288.317 30.747 288.722 30.8798 289.15 31.2267C291.132 32.8306 289.267 36.0966 288.522 39.3023C287.776 42.5079 288.596 45.0423 293.218 49.7388C297.84 54.4353 308.429 69.4275 307.865 85.7891C307.344 100.912 296.047 116.847 276.998 116.847C275.438 116.847 273.825 116.739 272.163 116.517C250.203 113.571 240.026 90.4052 250.336 63.3561C260.647 36.3074 279.394 21.1761 279.394 21.1761C280.693 20.0299 281.854 19.6168 282.751 19.6168ZM282.751 19.251C281.962 19.251 280.698 19.5374 279.152 20.9014C279.117 20.9292 274.38 24.7788 268.451 31.8881C262.981 38.4458 255.338 49.2057 249.994 63.2255C244.311 78.135 244.605 92.6604 250.802 103.077C253.053 106.862 256 109.968 259.562 112.309C263.222 114.715 267.445 116.252 272.114 116.879C273.762 117.1 275.406 117.212 276.998 117.212C288.321 117.212 295.567 111.785 299.652 107.233C304.833 101.458 307.96 93.6467 308.23 85.8012C308.813 68.8956 297.78 53.8518 293.479 49.4816C288.728 44.6533 288.202 42.2932 288.878 39.3846C289.061 38.6006 289.314 37.8041 289.559 37.0336C290.332 34.601 291.063 32.3038 289.381 30.9417C288.921 30.5692 288.434 30.3804 287.934 30.3804C287.154 30.3804 286.479 30.8271 285.884 31.2215C285.428 31.523 284.998 31.808 284.648 31.808C284.581 31.808 284.519 31.7978 284.457 31.7765C284.023 31.6265 283.7 31.3225 283.498 30.8721C283.168 30.1368 283.014 28.6839 284.157 25.9411C285.576 22.5349 285.61 20.6687 284.269 19.7006C283.861 19.4065 283.336 19.251 282.751 19.251Z" fill="#020001"/>
<path d="M293.221 49.7384C292.59 49.0978 292.033 48.4985 291.538 47.9307C296.383 54.9292 302.019 66.2328 301.603 78.2849C301.039 94.6462 287.861 111.958 265.901 109.012C260.015 108.223 254.977 105.979 250.951 102.599C255.332 110.153 262.639 115.238 272.166 116.516C294.126 119.462 307.303 102.15 307.868 85.7884C308.432 69.4271 297.843 54.4349 293.221 49.7384Z" fill="#8F1318"/>
<path d="M291.104 99.875C291.104 99.875 291.293 102.662 288.181 104.592C285.07 106.522 282.352 104.69 282.352 104.69C282.352 104.69 287.532 103.756 291.104 99.875Z" fill="#020001" stroke="#020001" stroke-miterlimit="10" stroke-linecap="round" stroke-linejoin="round"/>
<path d="M299.33 95.3242C299.33 95.3242 299.379 101.964 300.609 103.341C301.838 104.718 303.928 100.66 304.998 98.2379C306.068 95.8163 299.33 95.3242 299.33 95.3242Z" fill="#020001" stroke="#020001" stroke-miterlimit="10" stroke-linecap="round" stroke-linejoin="round"/>
<path d="M292.732 25.1625C291.969 25.1625 291.204 24.8245 290.635 24.2351C290.102 23.6848 289.48 22.6509 289.539 20.852C289.685 16.4247 293.397 14.5673 293.434 14.549C294.29 14.133 295.106 13.9219 295.861 13.9219C297.853 13.9219 299.065 15.3915 299.381 16.8477C299.648 18.0762 299.269 19.157 298.439 19.5364C296.354 20.488 295.312 22.3154 294.498 24.1484C294.22 24.7744 293.543 25.1625 292.732 25.1625Z" fill="#BF1920"/>
<path d="M295.863 14.1061C299.247 14.1061 300.201 18.5323 298.364 19.3708C296.156 20.3788 295.1 22.3471 294.331 24.075C294.072 24.6593 293.445 24.9802 292.733 24.9802C291.341 24.9802 289.628 23.7502 289.723 20.8588C289.867 16.4904 293.515 14.7142 293.515 14.7142C294.395 14.2868 295.178 14.1061 295.863 14.1061ZM295.863 13.7402C295.08 13.7402 294.236 13.9572 293.356 14.3856C293.198 14.4621 289.507 16.3104 289.358 20.8471C289.296 22.71 289.947 23.7875 290.505 24.3633C291.109 24.9879 291.921 25.3464 292.733 25.3464C293.618 25.3464 294.358 24.9165 294.666 24.2239C295.466 22.4239 296.486 20.6305 298.516 19.7037C299.427 19.2878 299.847 18.1247 299.561 16.8098C299.229 15.282 297.956 13.7402 295.863 13.7402Z" fill="#020001"/>
<path d="M298.378 15.2285C298.418 16.0788 298.12 16.8372 297.464 17.1368C295.256 18.1448 294.2 20.1131 293.432 21.8411C292.916 23.0012 290.952 23.1205 289.76 21.7533C290.149 25.2966 293.622 25.6771 294.334 24.0754C295.102 22.347 296.158 20.3791 298.366 19.3711C299.608 18.8041 299.574 16.5987 298.378 15.2285Z" fill="#8F1318"/>
<path d="M296.312 11.7512C295.327 11.7512 294.527 10.9507 294.527 9.96692C294.527 8.98312 295.328 8.18262 296.312 8.18262C297.295 8.18262 298.096 8.98312 298.096 9.96692C298.096 10.9507 297.295 11.7512 296.312 11.7512Z" fill="#BF1920"/>
<path d="M296.313 8.36586C297.197 8.36586 297.914 9.08295 297.914 9.96723C297.914 10.8515 297.197 11.5686 296.313 11.5686C295.429 11.5686 294.712 10.8515 294.712 9.96723C294.712 9.08295 295.429 8.36586 296.313 8.36586ZM296.313 8C295.228 8 294.346 8.88245 294.346 9.96723C294.346 11.052 295.228 11.9345 296.313 11.9345C297.398 11.9345 298.28 11.052 298.28 9.96723C298.28 8.88245 297.398 8 296.313 8Z" fill="#020001"/>
<path d="M290.927 30.167C290.287 30.167 289.768 29.6471 289.768 29.0083C289.768 28.3691 290.287 27.8496 290.927 27.8496C291.565 27.8496 292.085 28.3695 292.085 29.0083C292.085 29.6471 291.565 30.167 290.927 30.167Z" fill="#BF1920"/>
<path d="M290.928 28.0329C291.466 28.0329 291.903 28.4697 291.903 29.0086C291.903 29.5475 291.466 29.9843 290.928 29.9843C290.389 29.9843 289.952 29.5475 289.952 29.0086C289.951 28.4697 290.388 28.0329 290.928 28.0329ZM290.928 27.667C290.188 27.667 289.586 28.2688 289.586 29.0086C289.586 29.7484 290.188 30.3502 290.928 30.3502C291.667 30.3502 292.269 29.7484 292.269 29.0086C292.269 28.2688 291.667 27.667 290.928 27.667Z" fill="#020001"/>
<path d="M287.355 17.1467C287.699 16.3182 287.305 15.3684 286.477 15.0253C285.649 14.6822 284.699 15.0757 284.356 15.9042C284.013 16.7327 284.406 17.6824 285.234 18.0255C286.062 18.3686 287.012 17.9752 287.355 17.1467Z" fill="#BF1920"/>
<path d="M285.853 15.0875C286.649 15.0875 287.294 15.7326 287.294 16.5283C287.294 17.324 286.649 17.9691 285.853 17.9691C285.058 17.9691 284.413 17.324 284.413 16.5283C284.413 15.7326 285.058 15.0875 285.853 15.0875ZM285.853 14.7217C284.857 14.7217 284.047 15.5321 284.047 16.5283C284.047 17.5242 284.857 18.3349 285.853 18.3349C286.85 18.3349 287.66 17.5245 287.66 16.5283C287.66 15.5321 286.85 14.7217 285.853 14.7217Z" fill="#020001"/>
<path d="M251.699 89.7987C251.81 89.7149 253.823 89.2115 255.025 90.4697C256.228 91.7279 255.165 94.4952 255.025 95.6137C254.886 96.7317 254.455 99.1083 251.978 99.3315C249.501 99.5547 249.602 98.1297 249.63 97.3471C249.658 96.5638 251.699 89.7987 251.699 89.7987Z" fill="#FFFEFB" stroke="#020001" stroke-miterlimit="10" stroke-linecap="round" stroke-linejoin="round"/>
<path d="M239.809 108.599C239.809 108.599 240.403 111.894 245.053 110.996" stroke="#020001" stroke-miterlimit="10" stroke-linecap="round" stroke-linejoin="round"/>
<path d="M234.673 97.8584C234.673 97.8584 232.256 97.2979 231.556 100.274C230.856 103.251 232.256 106.543 235.723 107.629C239.19 108.715 242.033 107.734 242.433 104.932C242.832 102.131 240.941 101.36 240.346 100.94C239.751 100.52 234.673 97.8584 234.673 97.8584Z" fill="#FFFEFB" stroke="#020001" stroke-miterlimit="10" stroke-linecap="round" stroke-linejoin="round"/>
<path d="M241.206 103.855C241.206 103.855 241.649 105.341 243.006 105.524C244.362 105.707 245.17 105.107 245.744 103.855C246.318 102.603 248.613 102.029 248.718 100.36C248.718 100.36 251.274 98.2467 251.196 95.1428C251.196 95.1428 252.839 92.1171 252.213 89.5089C251.587 86.9007 250.413 84.3704 246.501 84.6836C242.588 84.9964 238.415 90.5264 238.415 90.5264C238.415 90.5264 234.973 94.1319 234.672 97.8589C234.372 101.586 236.041 106.489 241.206 103.855Z" fill="#FFFEFB" stroke="#020001" stroke-miterlimit="10" stroke-linecap="round" stroke-linejoin="round"/>
<path d="M241.059 103.93C241.059 103.93 245.177 101.403 245.877 99.3311" stroke="#020001" stroke-miterlimit="10" stroke-linecap="round" stroke-linejoin="round"/>
<path d="M241.059 94.3047C241.059 94.3047 244.046 92.3151 246.477 93.739C249.581 95.5563 248.719 100.359 248.719 100.359" stroke="#020001" stroke-miterlimit="10" stroke-linecap="round" stroke-linejoin="round"/>
<path d="M242.953 88.679C242.953 88.679 245.944 87.337 248.46 89.0705C250.976 90.8039 251.323 93.8007 251.195 95.1426" stroke="#020001" stroke-miterlimit="10" stroke-linecap="round" stroke-linejoin="round"/>
<path d="M304.751 114.839C304.751 114.839 302.71 115.363 301.828 117.265C300.946 119.168 301.47 122.09 303.703 123.055C305.936 124.02 306.625 125.068 308.142 125.205C309.658 125.343 310.844 123.882 310.706 122.752C310.568 121.622 304.751 114.839 304.751 114.839Z" fill="#FFFEFB" stroke="#020001" stroke-miterlimit="10" stroke-linecap="round" stroke-linejoin="round"/>
<path d="M323.406 117.252C322.394 117.252 316.146 111.541 314.904 110.396C314.857 110.353 314.836 110.288 314.849 110.225C314.859 110.177 315.769 105.333 310.783 100.96C307.532 98.1081 305.54 98.0064 303.782 97.9168C302.808 97.867 301.887 97.8202 300.909 97.2838C299.954 96.7603 299.38 95.8361 299.202 94.5366C298.895 92.2877 299.877 89.9816 301.703 88.6613C302.753 87.9025 303.939 87.5176 305.228 87.5176C305.421 87.5176 305.62 87.5264 305.818 87.5439C310.225 87.9328 320.702 94.1429 323.916 102.714C326.218 108.853 325.574 113.856 324.322 116.276C324.155 116.599 323.825 117.154 323.493 117.242C323.466 117.249 323.437 117.252 323.406 117.252Z" fill="#600D10"/>
<path d="M305.229 87.7008C305.416 87.7008 305.606 87.7092 305.803 87.7264C310.14 88.1091 320.557 94.2746 323.746 102.779C326.935 111.283 324.257 116.853 323.448 117.065C323.436 117.069 323.423 117.07 323.408 117.07C322.416 117.07 315.03 110.262 315.03 110.262C315.03 110.262 316.038 105.325 310.905 100.823C305.773 96.3201 303.634 98.569 300.998 97.1235C299.955 96.5517 299.525 95.5335 299.385 94.512C299.086 92.322 300.02 90.1045 301.812 88.8097C302.67 88.1889 303.8 87.7008 305.229 87.7008ZM305.23 87.335C303.901 87.335 302.679 87.7316 301.597 88.5134C299.717 89.8726 298.706 92.2466 299.022 94.5614C299.208 95.921 299.814 96.8909 300.822 97.444C301.838 98.0009 302.778 98.0488 303.774 98.0997C305.502 98.1878 307.461 98.2877 310.664 101.098C315.562 105.395 314.68 110.142 314.671 110.189C314.646 110.315 314.688 110.444 314.781 110.531C317.034 112.607 322.383 117.436 323.408 117.436C323.454 117.436 323.499 117.43 323.541 117.419C323.846 117.339 324.164 116.982 324.486 116.36C325.754 113.907 326.412 108.845 324.089 102.65C320.85 94.013 310.281 87.7542 305.835 87.3617C305.632 87.3437 305.428 87.335 305.23 87.335Z" fill="#020001"/>
<path d="M313.25 110.737C313.25 110.737 313.912 108.825 317.343 109.83C320.774 110.835 324.033 114.266 324.474 116.177C324.915 118.089 323.861 119.191 322.268 119.314C320.675 119.436 313.25 110.737 313.25 110.737Z" fill="#FFFEFB" stroke="#020001" stroke-miterlimit="10" stroke-linecap="round" stroke-linejoin="round"/>
<path d="M315.04 111.694C315.04 111.694 314.373 109.809 312.881 109.417C311.389 109.024 308.209 109.26 305.578 112.165C302.948 115.07 304.597 119.939 307.698 119.389C307.698 119.389 307.463 121.392 308.916 122.766C310.368 124.14 312.301 123.669 312.301 123.669C312.301 123.669 311.664 125.671 313.863 126.614C316.062 127.556 319.399 125.75 321.48 123.63C323.561 121.51 323.6 118.832 322.854 118.07C322.108 117.308 320.694 116.848 320.694 116.848C320.694 116.848 319.988 113.775 318.889 112.951C317.789 112.126 315.04 111.694 315.04 111.694Z" fill="#FFFEFB" stroke="#020001" stroke-miterlimit="10" stroke-linecap="round" stroke-linejoin="round"/>
<path d="M312.16 123.695C312.16 123.695 315.214 122.832 316.693 121.086" stroke="#020001" stroke-miterlimit="10" stroke-linecap="round" stroke-linejoin="round"/>
<path d="M307.689 119.484C307.689 119.484 308.72 116.745 312.161 114.466" stroke="#020001" stroke-miterlimit="10" stroke-linecap="round" stroke-linejoin="round"/>
<path d="M260.813 142.607C258.35 142.607 256.86 142.554 256.384 142.448C255.275 142.201 248.716 139.31 245.352 136.295C242.005 133.295 231.173 125.168 229.178 125.051C228.637 125.019 228.309 124.732 228.254 124.243C228.099 122.865 230.314 119.957 233.232 119.109C233.638 118.991 234.091 118.932 234.578 118.932C237.704 118.932 241.706 121.347 243.63 122.508C243.964 122.71 244.232 122.871 244.414 122.971L244.687 123.121C245.793 123.733 247.852 124.873 249.49 124.873C250.09 124.873 250.579 124.714 250.946 124.402C250.768 124.096 250.393 123.325 250.608 122.546C250.764 121.981 251.192 121.538 251.882 121.227C252.548 120.927 253.41 120.768 254.375 120.768C256.242 120.768 258.608 121.423 259.312 122.636C260.234 124.227 259.088 126.615 258.278 127.231C258.353 127.58 258.975 128.878 260.442 129.283C260.795 129.381 261.172 129.43 261.563 129.43C262.81 129.43 263.821 128.928 263.831 128.923C263.857 128.91 263.885 128.904 263.913 128.904C263.942 128.904 263.97 128.91 263.996 128.924C264.086 128.97 266.212 130.098 266.871 133.958C267.527 137.799 264.641 142.304 264.517 142.494C264.484 142.545 264.428 142.576 264.367 142.577C264.351 142.576 262.639 142.607 260.813 142.607Z" fill="#A62828"/>
<path d="M234.578 119.114C238.204 119.114 243.114 122.469 244.327 123.131C245.333 123.68 247.656 125.055 249.49 125.055C250.143 125.055 250.734 124.881 251.182 124.434C251.182 124.434 249.755 122.386 251.958 121.394C252.634 121.089 253.489 120.951 254.375 120.951C256.374 120.951 258.531 121.653 259.154 122.727C260.053 124.278 258.844 126.667 258.099 127.132C257.994 127.198 258.595 128.962 260.394 129.459C260.794 129.569 261.19 129.612 261.564 129.612C262.873 129.612 263.914 129.086 263.914 129.086C263.914 129.086 266.04 130.174 266.691 133.989C267.343 137.803 264.365 142.394 264.365 142.394C264.365 142.394 262.659 142.425 260.813 142.425C258.967 142.425 256.982 142.394 256.424 142.27C255.307 142.021 248.762 139.106 245.474 136.159C242.186 133.212 231.299 124.992 229.19 124.868C227.08 124.744 229.655 120.34 233.284 119.285C233.689 119.167 234.123 119.114 234.578 119.114ZM234.578 118.748C234.074 118.748 233.604 118.81 233.182 118.933C230.184 119.804 227.911 122.826 228.073 124.263C228.137 124.833 228.546 125.196 229.168 125.233C231.03 125.342 241.482 133.072 245.23 136.431C248.617 139.466 255.227 142.378 256.345 142.627C256.527 142.667 257.082 142.791 260.813 142.791C262.641 142.791 264.354 142.76 264.372 142.759C264.493 142.757 264.606 142.695 264.672 142.593C264.797 142.4 267.72 137.837 267.052 133.927C266.378 129.977 264.174 128.808 264.081 128.76C264.028 128.733 263.971 128.72 263.914 128.72C263.858 128.72 263.801 128.733 263.749 128.759C263.74 128.763 262.764 129.246 261.564 129.246C261.189 129.246 260.829 129.198 260.492 129.106C259.213 128.752 258.637 127.685 258.491 127.291C259.353 126.521 260.42 124.18 259.471 122.543C258.725 121.257 256.343 120.584 254.376 120.584C253.386 120.584 252.497 120.749 251.808 121.06C251.066 121.394 250.604 121.877 250.433 122.496C250.229 123.236 250.511 123.963 250.713 124.353C250.394 124.578 249.991 124.689 249.491 124.689C247.901 124.689 245.869 123.564 244.777 122.96C244.677 122.905 244.586 122.854 244.503 122.809C244.325 122.712 244.061 122.552 243.725 122.35C241.786 121.181 237.755 118.748 234.578 118.748Z" fill="#020001"/>
<path d="M236.136 128.106C236.136 128.106 244.681 127.634 247.608 128.37C250.535 129.107 249.093 132.729 252.774 135.614C256.454 138.5 264.552 140.373 264.317 141.386C264.082 142.399 258.133 142.446 254.54 141.386C250.948 140.326 243.262 134.967 241.642 133.612C240.023 132.257 235.988 128.076 235.988 128.076" fill="#8F1318"/>
<path d="M236.136 128.106C236.136 128.106 244.681 127.634 247.608 128.37C250.535 129.107 249.093 132.729 252.774 135.614C256.454 138.5 264.552 140.373 264.317 141.386C264.082 142.399 258.133 142.446 254.54 141.386C250.948 140.326 243.262 134.967 241.642 133.612C240.023 132.257 235.988 128.076 235.988 128.076" stroke="#020001" stroke-miterlimit="10" stroke-linecap="round" stroke-linejoin="round"/>
<path d="M260.502 148.676C255.526 148.676 227.725 127.88 226.544 126.994C226.498 126.96 226.471 126.906 226.471 126.848C226.471 126.791 226.482 125.447 227.49 123.859C227.604 123.486 228.78 119.837 231.216 119.735C231.322 119.731 231.425 119.729 231.524 119.729C233.128 119.729 233.694 120.287 233.889 120.62C234.047 120.889 234.068 121.193 233.944 121.414L233.897 121.495C232.775 123.428 232.712 124.828 233.715 125.544C233.924 125.694 234.159 125.865 234.414 126.051C236.248 127.389 239.316 129.628 242.092 130.367C245.281 131.216 246.292 134.209 246.723 135.486L246.762 135.602C247.176 136.82 248.964 137.885 251.109 138.191C252.051 138.326 254.453 138.878 256.996 139.463C260.302 140.223 264.049 141.085 264.871 141.085C264.934 141.085 264.954 141.079 264.955 141.079C264.987 141.066 265.024 141.058 265.06 141.058C265.112 141.058 265.284 141.078 265.34 141.33C265.553 142.288 264.035 147.166 261.002 148.581C260.868 148.644 260.7 148.676 260.502 148.676Z" fill="#FFFEFB"/>
<path d="M231.525 119.911C233.667 119.911 234.002 120.939 233.786 121.323C233.559 121.725 231.852 124.437 233.61 125.692C235.368 126.947 238.857 129.694 242.046 130.543C245.235 131.392 246.164 134.405 246.591 135.66C247.018 136.916 248.8 138.046 251.085 138.372C253.267 138.684 263.398 141.267 264.873 141.267C264.943 141.267 264.993 141.262 265.022 141.25C265.036 141.244 265.05 141.241 265.062 141.241C265.612 141.241 264.242 146.869 260.927 148.416C260.815 148.468 260.673 148.493 260.504 148.493C255.532 148.493 226.655 126.848 226.655 126.848C226.655 126.772 226.681 125.467 227.66 123.935C227.66 123.935 228.815 120.018 231.225 119.918C231.328 119.913 231.429 119.911 231.525 119.911ZM231.525 119.545C231.424 119.545 231.319 119.547 231.209 119.551C228.695 119.656 227.478 123.283 227.324 123.78C226.301 125.404 226.289 126.788 226.289 126.847C226.289 126.962 226.343 127.07 226.435 127.139C227.619 128.026 255.467 148.858 260.503 148.858C260.728 148.858 260.923 148.82 261.082 148.746C264.253 147.265 265.746 142.309 265.52 141.289C265.453 140.983 265.239 140.874 265.062 140.874C265.011 140.874 264.96 140.883 264.91 140.899C264.899 140.9 264.887 140.901 264.872 140.901C264.07 140.901 260.333 140.041 257.036 139.283C254.49 138.698 252.085 138.144 251.136 138.009C249.056 137.712 247.329 136.698 246.936 135.542L246.897 135.426C246.456 134.12 245.423 131.063 242.139 130.189C239.396 129.458 236.345 127.232 234.522 125.902C234.266 125.715 234.032 125.544 233.822 125.394C232.667 124.569 233.312 122.868 234.056 121.586L234.104 121.502C234.259 121.226 234.238 120.852 234.047 120.526C233.833 120.16 233.221 119.545 231.525 119.545Z" fill="#020001"/>
<path d="M226.651 126.848C226.651 126.848 229.254 125.587 231.881 127.257C234.509 128.927 244.567 138.025 249.118 140.271C253.669 142.517 261.766 147.424 260.643 148.487C259.52 149.55 250.655 147.718 239.426 140.744C228.197 133.77 225.518 128.141 226.651 126.848Z" fill="#020001" stroke="#020001" stroke-miterlimit="10" stroke-linecap="round" stroke-linejoin="round"/>
<path d="M263.157 134.64C262.147 134.64 260.207 134.429 258.559 133.014C255.817 130.66 255.94 127.727 255.992 127.169C255.886 127.049 255.695 126.787 255.684 126.448C255.675 126.165 255.791 125.897 256.028 125.651C256.16 125.514 256.496 125.332 257.873 125.332C258.254 125.332 258.691 125.346 259.174 125.374C259.233 125.377 259.286 125.408 259.317 125.457C259.349 125.506 259.356 125.567 259.335 125.622C259.065 126.322 258.651 126.949 258.281 127.23C258.356 127.58 258.978 128.877 260.445 129.282C260.798 129.38 261.175 129.429 261.566 129.429C262.817 129.428 263.823 128.927 263.834 128.922C263.86 128.909 263.888 128.902 263.916 128.902C263.945 128.902 263.974 128.909 264 128.923C264.077 128.962 265.888 129.928 266.691 133.105C266.699 133.137 266.698 133.17 266.689 133.202C266.446 134.022 264.928 134.64 263.158 134.64C263.157 134.64 263.157 134.64 263.157 134.64Z" fill="#8F1318"/>
<path d="M257.874 125.515C258.264 125.515 258.7 125.53 259.165 125.557C258.876 126.307 258.442 126.92 258.102 127.132C257.997 127.198 258.598 128.962 260.398 129.459C260.797 129.569 261.193 129.612 261.567 129.612C262.876 129.612 263.917 129.086 263.917 129.086C263.917 129.086 265.722 130.017 266.514 133.15C266.304 133.858 264.883 134.458 263.158 134.458C261.699 134.458 260.023 134.029 258.679 132.875C255.742 130.354 256.183 127.105 256.183 127.105C256.183 127.105 255.488 126.473 256.16 125.779C256.341 125.592 256.986 125.515 257.874 125.515ZM257.874 125.149C256.452 125.149 256.077 125.339 255.897 125.524C255.557 125.876 255.495 126.224 255.503 126.454C255.514 126.8 255.68 127.073 255.805 127.23C255.753 127.967 255.745 130.839 258.441 133.153C260.134 134.606 262.123 134.823 263.158 134.823C265.036 134.823 266.596 134.163 266.865 133.254C266.884 133.191 266.885 133.124 266.869 133.06C266.046 129.804 264.164 128.802 264.085 128.76C264.032 128.733 263.975 128.72 263.917 128.72C263.861 128.72 263.804 128.733 263.752 128.759C263.743 128.764 262.767 129.246 261.567 129.246C261.193 129.246 260.832 129.198 260.495 129.105C259.217 128.753 258.641 127.686 258.495 127.292C258.865 126.962 259.246 126.364 259.507 125.688C259.549 125.579 259.536 125.456 259.473 125.358C259.41 125.26 259.303 125.197 259.186 125.191C258.7 125.164 258.259 125.149 257.874 125.149Z" fill="#020001"/>
<path d="M253.228 140.245C253.228 140.245 262.077 141.947 262.632 142.425C263.186 142.902 261.314 145.005 260.748 144.982C260.183 144.958 251.75 140.337 253.228 140.245Z" fill="#8F1318" stroke="#020001" stroke-miterlimit="10" stroke-linecap="round" stroke-linejoin="round"/>
<path d="M254.073 128.612C253.286 128.612 252.444 128.51 251.571 128.309C247.058 127.269 240.181 121.104 239.891 120.842C239.823 120.781 239.81 120.679 239.861 120.604C239.896 120.551 239.954 120.522 240.013 120.522C240.04 120.522 240.067 120.529 240.092 120.541C241.515 121.233 242.787 122 243.629 122.508C243.964 122.71 244.231 122.871 244.414 122.971L244.687 123.122C245.793 123.734 247.852 124.874 249.489 124.874H249.489C250.089 124.874 250.579 124.715 250.946 124.403C250.768 124.097 250.393 123.325 250.608 122.546C250.764 121.982 251.192 121.539 251.881 121.228C252.548 120.928 253.41 120.769 254.374 120.769C256.242 120.769 258.607 121.424 259.311 122.637C260.258 124.27 259.026 126.742 258.214 127.277C258.05 127.44 256.774 128.613 254.073 128.613L254.073 128.612Z" fill="#8F1318"/>
<path d="M240.014 120.705C241.997 121.669 243.684 122.78 244.328 123.131C245.334 123.68 247.657 125.056 249.492 125.056C250.144 125.056 250.736 124.882 251.183 124.434C251.183 124.434 249.756 122.387 251.959 121.394C252.635 121.089 253.49 120.951 254.377 120.951C256.375 120.951 258.532 121.653 259.155 122.728C260.055 124.279 258.845 126.667 258.1 127.133C258.1 127.133 256.87 128.429 254.074 128.429C253.359 128.429 252.54 128.344 251.614 128.13C247.073 127.084 240.026 120.716 240.014 120.705ZM240.014 120.339C239.896 120.339 239.781 120.396 239.711 120.5C239.609 120.651 239.634 120.854 239.769 120.977C240.061 121.24 246.955 127.432 251.532 128.487C252.418 128.691 253.274 128.795 254.075 128.795C256.774 128.795 258.104 127.638 258.332 127.419C259.211 126.82 260.481 124.285 259.472 122.545C258.726 121.258 256.344 120.585 254.377 120.585C253.387 120.585 252.498 120.75 251.808 121.061C251.067 121.395 250.605 121.878 250.434 122.497C250.23 123.237 250.512 123.965 250.713 124.354C250.394 124.58 249.992 124.69 249.492 124.69C247.902 124.69 245.869 123.565 244.778 122.961C244.678 122.906 244.586 122.855 244.504 122.81C244.326 122.713 244.061 122.553 243.726 122.351C242.881 121.841 241.605 121.072 240.174 120.376C240.123 120.351 240.068 120.339 240.014 120.339Z" fill="#020001"/>
<path d="M265.336 86.8288C265.445 86.9122 263.667 89.2548 265.604 90.0758C267.541 90.8964 269.814 87.84 270.269 87.0973C270.724 86.3547 265.336 86.8288 265.336 86.8288Z" fill="#020001" stroke="#020001" stroke-miterlimit="10" stroke-linecap="round" stroke-linejoin="round"/>
<path d="M244.716 125.658C244.465 125.658 244.245 125.481 244.193 125.235C243.785 123.321 242.357 122.37 242.342 122.361C242.095 122.201 242.023 121.87 242.182 121.622C242.282 121.468 242.45 121.376 242.633 121.376C242.736 121.376 242.836 121.406 242.923 121.462C242.996 121.509 244.736 122.652 245.239 125.012C245.269 125.152 245.243 125.295 245.165 125.414C245.087 125.534 244.967 125.617 244.828 125.647C244.792 125.655 244.754 125.658 244.716 125.658Z" fill="#FFFEFB"/>
<path d="M242.634 121.559C242.699 121.559 242.765 121.578 242.824 121.616C242.895 121.661 244.574 122.763 245.062 125.051C245.102 125.241 244.981 125.428 244.791 125.468C244.766 125.474 244.741 125.476 244.717 125.476C244.554 125.476 244.408 125.363 244.373 125.198C243.945 123.194 242.458 122.217 242.443 122.208C242.279 122.103 242.232 121.885 242.337 121.721C242.405 121.617 242.518 121.559 242.634 121.559ZM242.634 121.193C242.389 121.193 242.163 121.317 242.03 121.523C241.816 121.856 241.913 122.301 242.245 122.515C242.257 122.523 243.625 123.442 244.015 125.274C244.086 125.603 244.38 125.842 244.717 125.842C244.769 125.842 244.821 125.836 244.87 125.826C245.054 125.787 245.215 125.676 245.319 125.515C245.424 125.354 245.459 125.162 245.419 124.974C244.9 122.539 243.098 121.357 243.022 121.308C242.906 121.233 242.772 121.193 242.634 121.193Z" fill="#020001"/>
<path d="M249.229 128.352C248.957 128.352 248.729 128.148 248.698 127.878C248.466 125.879 246.947 124.662 246.932 124.65C246.699 124.467 246.658 124.131 246.84 123.899C246.942 123.768 247.095 123.693 247.261 123.693C247.381 123.693 247.494 123.732 247.589 123.806C247.665 123.865 249.475 125.288 249.76 127.755C249.776 127.898 249.736 128.038 249.648 128.15C249.559 128.261 249.432 128.332 249.29 128.349C249.271 128.351 249.25 128.352 249.229 128.352Z" fill="#FFFEFB"/>
<path d="M247.262 123.877C247.338 123.877 247.414 123.901 247.478 123.951C247.553 124.008 249.305 125.397 249.58 127.777C249.602 127.97 249.464 128.144 249.271 128.167C249.257 128.169 249.243 128.17 249.23 128.17C249.053 128.17 248.901 128.037 248.881 127.858C248.64 125.779 247.062 124.518 247.045 124.506C246.893 124.386 246.865 124.165 246.985 124.012C247.054 123.923 247.158 123.877 247.262 123.877ZM247.262 123.511C247.04 123.511 246.834 123.611 246.697 123.787C246.454 124.098 246.508 124.549 246.819 124.794C246.833 124.805 248.296 125.991 248.517 127.9C248.559 128.263 248.865 128.536 249.23 128.536C249.258 128.536 249.287 128.534 249.316 128.531C249.706 128.486 249.989 128.129 249.943 127.735C249.65 125.2 247.782 123.724 247.703 123.662C247.577 123.564 247.42 123.511 247.262 123.511Z" fill="#020001"/>
<path d="M247.005 126.927C246.747 126.927 246.526 126.743 246.479 126.489C246.108 124.483 245.134 123.879 245.092 123.855C244.84 123.713 244.747 123.388 244.888 123.132C244.982 122.96 245.162 122.854 245.357 122.854C245.444 122.854 245.531 122.876 245.609 122.918C245.667 122.949 247.056 123.724 247.531 126.295C247.585 126.585 247.392 126.864 247.102 126.918C247.069 126.924 247.037 126.927 247.005 126.927Z" fill="#FFFEFB"/>
<path d="M245.358 123.037C245.413 123.037 245.47 123.05 245.523 123.079C245.578 123.109 246.893 123.84 247.353 126.329C247.388 126.52 247.261 126.703 247.07 126.739C247.049 126.743 247.027 126.745 247.006 126.745C246.839 126.745 246.691 126.626 246.66 126.457C246.267 124.329 245.198 123.704 245.187 123.698C245.019 123.603 244.957 123.39 245.05 123.221C245.113 123.104 245.233 123.037 245.358 123.037ZM245.358 122.671C245.096 122.671 244.855 122.814 244.729 123.044C244.54 123.388 244.665 123.824 245.008 124.017C245.01 124.018 245.946 124.605 246.3 126.523C246.363 126.863 246.66 127.11 247.006 127.11C247.051 127.11 247.096 127.106 247.139 127.098C247.526 127.026 247.784 126.651 247.713 126.262C247.23 123.648 245.852 122.84 245.696 122.757C245.593 122.701 245.476 122.671 245.358 122.671Z" fill="#020001"/>
<path d="M255.654 129.393C255.468 129.393 255.298 129.299 255.2 129.141C253.254 126.023 250.089 125.416 250.057 125.41C249.767 125.359 249.573 125.081 249.623 124.791C249.668 124.535 249.89 124.349 250.151 124.349C250.181 124.349 250.21 124.351 250.24 124.356C250.39 124.382 253.897 125.034 256.107 128.575C256.263 128.826 256.186 129.156 255.936 129.313C255.851 129.365 255.754 129.393 255.654 129.393Z" fill="#FFFEFB"/>
<path d="M250.152 124.532C250.172 124.532 250.191 124.533 250.212 124.537C250.356 124.562 253.782 125.192 255.953 128.672C256.056 128.837 256.006 129.054 255.841 129.157C255.783 129.193 255.719 129.21 255.655 129.21C255.538 129.21 255.423 129.152 255.356 129.045C253.357 125.842 250.123 125.236 250.09 125.231C249.9 125.197 249.771 125.014 249.805 124.823C249.835 124.652 249.984 124.532 250.152 124.532ZM250.152 124.166C249.803 124.166 249.505 124.416 249.444 124.76C249.376 125.149 249.637 125.522 250.026 125.591C250.057 125.597 253.147 126.197 255.045 129.239C255.178 129.45 255.405 129.577 255.655 129.577C255.789 129.577 255.92 129.539 256.034 129.468C256.37 129.258 256.473 128.815 256.264 128.479C254.006 124.861 250.425 124.203 250.274 124.177C250.232 124.169 250.192 124.166 250.152 124.166Z" fill="#020001"/>
<path d="M252.615 129.393C252.399 129.393 252.205 129.264 252.121 129.065C251.223 126.925 249.603 125.624 249.189 125.422C249.033 125.407 248.895 125.334 248.806 125.218C248.718 125.105 248.68 124.965 248.698 124.823C248.715 124.681 248.788 124.555 248.9 124.467C249 124.389 249.122 124.349 249.252 124.349C249.309 124.349 249.369 124.357 249.428 124.372C250.031 124.531 252.011 126.036 253.108 128.651C253.222 128.924 253.093 129.238 252.821 129.351C252.757 129.379 252.687 129.393 252.615 129.393Z" fill="#FFFEFB"/>
<path d="M249.253 124.532C249.293 124.532 249.336 124.537 249.383 124.549C249.942 124.696 251.883 126.202 252.94 128.722C253.015 128.902 252.931 129.108 252.752 129.183C252.707 129.202 252.661 129.21 252.616 129.21C252.478 129.21 252.347 129.129 252.291 128.995C251.33 126.703 249.609 125.401 249.236 125.242C249.133 125.239 249.022 125.197 248.952 125.106C248.832 124.953 248.86 124.732 249.014 124.612C249.065 124.572 249.144 124.532 249.253 124.532ZM249.445 125.169C249.445 125.169 249.445 125.168 249.445 125.168C249.445 125.168 249.445 125.169 249.445 125.169ZM249.253 124.166C249.082 124.166 248.921 124.22 248.789 124.323C248.638 124.441 248.541 124.61 248.517 124.8C248.494 124.991 248.545 125.179 248.663 125.33C248.775 125.476 248.944 125.572 249.133 125.599C249.465 125.786 251.043 126.965 251.954 129.136C252.066 129.403 252.326 129.576 252.616 129.576C252.713 129.576 252.807 129.557 252.895 129.519C253.07 129.446 253.208 129.307 253.28 129.13C253.353 128.953 253.352 128.758 253.278 128.58C252.23 126.081 250.246 124.397 249.476 124.195C249.401 124.176 249.326 124.166 249.253 124.166Z" fill="#020001"/>
<path d="M283.186 86.541C288.383 86.541 292.597 81.2908 292.597 74.8144C292.597 68.338 288.383 63.0879 283.186 63.0879C277.989 63.0879 273.775 68.338 273.775 74.8144C273.775 81.2908 277.989 86.541 283.186 86.541Z" fill="#FFFEFB" stroke="#020001" stroke-miterlimit="10" stroke-linecap="round" stroke-linejoin="round"/>
<path d="M292.55 73.6643C292.247 69.781 290.422 66.455 287.829 64.6176C287.458 64.5148 287.076 64.46 286.685 64.46C283.442 64.46 280.773 68.1654 280.773 72.6688C280.773 73.7184 280.918 74.7589 281.201 75.7328L285.524 74.4066L283.518 79.6C284.465 80.4345 285.564 80.8779 286.685 80.8779C289.685 80.8775 292.192 77.7048 292.55 73.6643Z" fill="#020001" stroke="#020001" stroke-miterlimit="10" stroke-linecap="round" stroke-linejoin="round"/>
<path d="M269.724 75.8188C270.062 69.3515 266.582 63.9129 261.953 63.6714C257.324 63.4298 253.298 68.4769 252.961 74.9442C252.623 81.4115 256.102 86.8501 260.731 87.0916C265.361 87.3331 269.387 82.2861 269.724 75.8188Z" fill="#FFFEFB" stroke="#020001" stroke-miterlimit="10" stroke-linecap="round" stroke-linejoin="round"/>
<path d="M269.746 74.6624C269.678 70.77 268.226 67.3642 266.012 65.4087C265.687 65.289 265.35 65.2162 265.001 65.198C262.113 65.0472 259.543 68.6239 259.308 73.121C259.254 74.1696 259.329 75.2148 259.529 76.2008L263.449 75.0773L261.391 80.1704C262.191 81.0477 263.147 81.5416 264.146 81.5936C266.818 81.733 269.216 78.681 269.746 74.6624Z" fill="#020001" stroke="#020001" stroke-miterlimit="10" stroke-linecap="round" stroke-linejoin="round"/>
<path d="M270.452 86.707C270.452 86.707 269.065 88.3577 266.556 87.4994C264.047 86.6411 262.133 82.9057 263.914 81.0424C265.696 79.179 267.283 80.1562 268.987 81.9764C270.691 83.7962 272.124 82.8669 272.124 82.8669" fill="#BF1920"/>
<path d="M270.452 86.707C270.452 86.707 269.065 88.3577 266.556 87.4994C264.047 86.6411 262.133 82.9057 263.914 81.0424C265.696 79.179 267.283 80.1562 268.987 81.9764C270.691 83.7962 272.124 82.8669 272.124 82.8669" stroke="#020001" stroke-miterlimit="10" stroke-linecap="round" stroke-linejoin="round"/>
<path d="M281.531 88.3918C281.531 88.3918 285.952 79.0038 294.838 81.8751Z" fill="#BF1920"/>
<path d="M281.531 88.3918C281.531 88.3918 285.952 79.0038 294.838 81.8751" stroke="#020001" stroke-miterlimit="10" stroke-linecap="round" stroke-linejoin="round"/>
<path d="M268.835 99.0174C268.835 99.0174 266.368 96.3938 268.336 94.3011C270.303 92.2084 275.457 96.0188 279.736 92.4271C284.015 88.8355 285.921 84.0563 290.45 86.3989C294.979 88.7415 292.73 97.206 285.015 100.329C277.3 103.453 270.74 100.767 268.835 99.0174Z" fill="#FFFEFB" stroke="#020001" stroke-miterlimit="10" stroke-linecap="round" stroke-linejoin="round"/>
<path d="M270.832 93.6514C270.832 93.6514 270.107 98.2671 270.832 100.282" stroke="#020001" stroke-miterlimit="10" stroke-linecap="round" stroke-linejoin="round"/>
<path d="M275.369 94.042C275.369 94.042 275.336 99.205 276.523 101.766" stroke="#020001" stroke-miterlimit="10" stroke-linecap="round" stroke-linejoin="round"/>
<path d="M279.352 92.7326C279.397 92.6985 281.141 98.7477 283.533 100.866" stroke="#020001" stroke-miterlimit="10" stroke-linecap="round" stroke-linejoin="round"/>
<path d="M282.592 89.6289C282.592 89.6289 287.842 95.0539 288.585 98.2383" stroke="#020001" stroke-miterlimit="10" stroke-linecap="round" stroke-linejoin="round"/>
<path d="M285.109 87.097C285.148 87.0652 290.713 89.5179 292.33 93.0535" stroke="#020001" stroke-miterlimit="10" stroke-linecap="round" stroke-linejoin="round"/>
<path d="M292.336 83.943C292.336 83.943 293.119 82.669 295.509 82.931C297.9 83.1926 299.296 84.8031 298.301 85.7778C297.307 86.7524 290.34 86.1619 292.336 83.943Z" fill="#F2686E"/>
<path d="M256.533 91.1192C256.533 91.1192 255.994 89.8189 258.083 88.8783C260.172 87.9377 261.569 88.6917 261.347 89.6287C261.126 90.566 259.743 90.5521 259.037 90.8839C258.332 91.2158 256.658 92.0459 256.533 91.1192Z" fill="#F2686E"/>
<path d="M279.179 56.6857C279.179 56.6857 278.195 55.8003 279.277 54.3742C280.36 52.9477 284.122 51.1773 287.073 53.4888C290.024 55.8003 289.827 58.6039 288.475 58.8007C287.122 58.9976 286.06 56.5383 284.095 56.0956C282.13 55.6529 280.064 57.866 279.179 56.6857Z" fill="#020001" stroke="#020001" stroke-miterlimit="10" stroke-linecap="round" stroke-linejoin="round"/>
<path d="M253.7 59.0078C253.7 59.0078 252.38 58.9163 252.354 57.1262C252.327 55.336 254.201 51.6237 257.95 51.627C261.698 51.6302 263.27 53.96 262.326 54.9479C261.381 55.9361 259.03 54.6533 257.209 55.5146C255.389 56.3765 255.124 59.3923 253.7 59.0078Z" fill="#020001" stroke="#020001" stroke-miterlimit="10" stroke-linecap="round" stroke-linejoin="round"/>
<path d="M289.561 140.31C289.561 140.31 296.742 139.792 300.332 143.16" stroke="#020001" stroke-miterlimit="10" stroke-linecap="round" stroke-linejoin="round"/>
<path d="M266.043 39.2886C265.739 40.0145 265.47 40.8161 265.676 41.576C266.039 42.9172 267.805 43.4678 269.101 42.9663C270.397 42.4647 271.268 41.2431 271.902 40.0057C272.535 38.7684 273.02 37.4334 273.906 36.3621C274.484 35.6641 275.209 35.1065 275.874 34.4918C276.539 33.8772 277.165 33.1751 277.455 32.3172C277.943 30.875 277.132 29.2974 275.569 29.0585C274.246 28.8565 273.006 30.2036 272.1 30.9833C269.479 33.2384 267.38 36.0983 266.043 39.2886Z" fill="#E39C9F"/>
<path d="M264.63 47.7528C264.806 48.254 265.287 48.6652 265.818 48.6557C266.525 48.6425 267.025 47.9547 267.271 47.2918C267.607 46.3863 267.505 44.4029 266.059 44.6927C264.988 44.9075 264.311 46.8461 264.63 47.7528Z" fill="#E39C9F"/>
<path d="M280.391 104.948C280.391 104.948 288.996 104.629 292.547 97.6895Z" fill="#BF1920"/>
<path d="M280.391 104.948C280.391 104.948 288.996 104.629 292.547 97.6895" stroke="#020001" stroke-miterlimit="10" stroke-linecap="round" stroke-linejoin="round"/>
<path d="M263.283 58.4959C263.092 59.3008 263.272 60.2509 263.933 60.7474C264.415 61.1088 265.048 61.1703 265.634 61.3119C266.634 61.5541 267.568 62.0696 268.305 62.7881C268.75 63.2213 269.198 63.7624 269.817 63.7946C270.654 63.8378 271.216 62.918 271.344 62.0901C271.541 60.8151 271.179 59.5064 270.588 58.3594C269.995 57.2084 269.112 56.1357 267.902 55.6758C265.823 54.8867 263.758 56.4913 263.283 58.4959Z" fill="#E39C9F"/>
<path d="M297.377 142.961C297.307 142.961 297.238 142.948 297.174 142.922C293.64 141.479 289.423 141.366 288.214 141.366C287.927 141.366 287.761 141.372 287.747 141.372H287.746C287.435 141.372 287.202 141.147 287.19 140.86C287.184 140.717 287.235 140.58 287.332 140.475C287.429 140.37 287.561 140.309 287.704 140.303C287.743 140.302 287.955 140.294 288.302 140.294C289.886 140.294 293.962 140.454 297.579 141.932C297.711 141.985 297.814 142.088 297.87 142.219C297.925 142.351 297.926 142.497 297.872 142.629C297.789 142.83 297.595 142.961 297.377 142.961Z" fill="#FFFEFB"/>
<path d="M288.302 140.475C289.81 140.475 293.904 140.626 297.51 142.099C297.69 142.172 297.777 142.378 297.703 142.558C297.648 142.695 297.516 142.777 297.377 142.777C297.333 142.777 297.288 142.769 297.244 142.751C293.723 141.313 289.593 141.182 288.214 141.182C287.918 141.182 287.748 141.188 287.739 141.188C287.734 141.189 287.728 141.189 287.723 141.189C287.534 141.189 287.381 141.039 287.374 140.851C287.365 140.656 287.517 140.492 287.711 140.485C287.751 140.483 287.961 140.475 288.302 140.475ZM288.303 140.109C287.916 140.109 287.704 140.119 287.695 140.119C287.506 140.127 287.329 140.209 287.198 140.349C287.068 140.49 287.001 140.674 287.008 140.866C287.024 141.252 287.338 141.555 287.723 141.555C287.729 141.555 287.751 141.554 287.757 141.554C287.772 141.553 287.935 141.548 288.214 141.548C289.415 141.548 293.603 141.659 297.106 143.09C297.192 143.125 297.284 143.143 297.378 143.143C297.671 143.143 297.932 142.968 298.042 142.696C298.115 142.519 298.114 142.324 298.039 142.147C297.965 141.971 297.827 141.833 297.649 141.76C294.001 140.27 289.898 140.109 288.303 140.109Z" fill="#020001"/>
<path d="M297.582 141.215C297.528 141.215 297.475 141.207 297.424 141.191C294.801 140.386 290.79 140.345 290.012 140.345L289.923 140.345C289.627 140.345 289.386 140.108 289.383 139.816C289.381 139.673 289.436 139.538 289.536 139.436C289.636 139.334 289.77 139.277 289.913 139.276L290.035 139.275C290.835 139.275 294.969 139.319 297.739 140.169C297.875 140.211 297.987 140.303 298.054 140.429C298.121 140.556 298.135 140.701 298.093 140.838C298.024 141.063 297.818 141.215 297.582 141.215Z" fill="#FFFEFB"/>
<path d="M290.035 139.458C290.803 139.458 294.914 139.492 297.686 140.343C297.871 140.4 297.976 140.597 297.919 140.784C297.872 140.935 297.733 141.032 297.582 141.032C297.548 141.032 297.513 141.027 297.478 141.017C294.814 140.198 290.703 140.162 290.019 140.162C289.959 140.162 289.926 140.162 289.922 140.162C289.921 140.162 289.919 140.162 289.919 140.162C289.726 140.162 289.569 140.007 289.567 139.814C289.565 139.619 289.721 139.46 289.915 139.458C289.93 139.458 289.971 139.458 290.035 139.458ZM290.035 139.092L289.931 139.092C289.93 139.092 289.912 139.092 289.912 139.092C289.516 139.097 289.197 139.422 289.201 139.817C289.205 140.209 289.528 140.528 289.919 140.528L290.019 140.527C290.493 140.527 294.718 140.551 297.372 141.366C297.44 141.387 297.511 141.397 297.583 141.397C297.9 141.397 298.176 141.194 298.269 140.89C298.385 140.512 298.172 140.11 297.794 139.993C295.069 139.157 291.167 139.092 290.035 139.092Z" fill="#020001"/>
<path d="M298.008 140.134C297.966 140.134 297.923 140.129 297.88 140.119C295.197 139.454 292.706 139.355 291.461 139.355C290.923 139.355 290.569 139.373 290.442 139.38C290.424 139.381 290.409 139.382 290.394 139.382C290.117 139.382 289.884 139.163 289.865 138.885C289.855 138.743 289.9 138.604 289.994 138.496C290.087 138.388 290.217 138.323 290.36 138.313C290.404 138.31 290.817 138.281 291.508 138.281C292.78 138.281 295.333 138.385 298.136 139.08C298.275 139.114 298.392 139.201 298.466 139.323C298.539 139.445 298.561 139.589 298.527 139.727C298.468 139.967 298.254 140.134 298.008 140.134Z" fill="#FFFEFB"/>
<path d="M291.51 138.464C292.887 138.464 295.362 138.581 298.093 139.258C298.282 139.305 298.397 139.495 298.35 139.684C298.311 139.844 298.167 139.951 298.009 139.951C297.981 139.951 297.952 139.948 297.924 139.941C295.258 139.281 292.795 139.172 291.462 139.172C290.817 139.172 290.436 139.198 290.424 139.198C290.415 139.199 290.405 139.2 290.395 139.2C290.218 139.2 290.062 139.056 290.048 138.872C290.034 138.679 290.18 138.51 290.374 138.496C290.422 138.492 290.834 138.464 291.51 138.464ZM291.51 138.099C290.814 138.099 290.393 138.128 290.348 138.131C290.157 138.145 289.982 138.232 289.857 138.377C289.731 138.522 289.67 138.707 289.684 138.899C289.71 139.272 290.023 139.565 290.395 139.565C290.416 139.565 290.436 139.565 290.457 139.562C290.548 139.557 290.906 139.538 291.462 139.538C292.699 139.538 295.173 139.636 297.836 140.296C297.894 140.31 297.952 140.317 298.009 140.317C298.339 140.317 298.626 140.093 298.706 139.772C298.801 139.388 298.566 138.998 298.182 138.902C295.359 138.203 292.79 138.099 291.51 138.099Z" fill="#020001"/>
<path d="M291.088 18.9605C291.078 19.2089 291.097 19.4675 291.217 19.6852C291.336 19.9033 291.576 20.0697 291.823 20.039C292.172 19.9955 292.361 19.6172 292.489 19.289C292.753 18.6096 293.017 17.9306 293.282 17.2512C293.343 17.0938 293.405 16.9266 293.376 16.7605C293.316 16.4251 292.903 16.2326 292.589 16.2948C292.312 16.3497 292.096 16.6651 291.919 16.8718C291.423 17.4509 291.12 18.1973 291.088 18.9605Z" fill="#E39C9F"/>
<path d="M293.855 15.2813C293.728 15.4028 293.617 15.5831 293.685 15.7445C293.747 15.8956 293.933 15.9486 294.096 15.9633C294.528 16.0017 294.971 15.896 295.339 15.6666C295.467 15.5872 295.595 15.4756 295.607 15.3259C295.616 15.2085 295.547 15.0958 295.456 15.0219C294.987 14.6436 294.243 14.9078 293.855 15.2813Z" fill="#E39C9F"/>
<path d="M266.42 81.0106C266.976 81.2019 267.4 81.6552 267.744 82.1316C267.848 82.2753 267.949 82.4268 267.992 82.5991C268.034 82.7715 268.009 82.9701 267.886 83.0978C267.726 83.2635 267.456 83.2617 267.24 83.1827C267.024 83.1037 266.836 82.9624 266.622 82.8765C266.311 82.7513 265.966 82.751 265.632 82.7144C265.299 82.6778 264.946 82.5904 264.721 82.3412C263.898 81.4298 265.769 80.7867 266.42 81.0106Z" fill="#E39C9F"/>
</g>
<defs>
<clipPath id="clip0_3676_4830">
<rect width="328" height="149" rx="15" fill="white"/>
</clipPath>
</defs>
</svg>
