<svg width="412" height="917" viewBox="0 0 412 917" fill="none" xmlns="http://www.w3.org/2000/svg">
<g clip-path="url(#clip0_256_698)">
<rect width="412" height="917" fill="#273E71"/>
<path opacity="0.1" fill-rule="evenodd" clip-rule="evenodd" d="M299 622C312.255 622 323 611.255 323 598C323 584.745 312.255 574 299 574C285.745 574 275 584.745 275 598C275 611.255 285.745 622 299 622Z" fill="#16226E"/>
<path opacity="0.1" fill-rule="evenodd" clip-rule="evenodd" d="M97 837C110.255 837 121 826.255 121 813C121 799.745 110.255 789 97 789C83.7452 789 73 799.745 73 813C73 826.255 83.7452 837 97 837Z" fill="#16226E"/>
<path opacity="0.1" fill-rule="evenodd" clip-rule="evenodd" d="M129 153C142.255 153 153 142.255 153 129C153 115.745 142.255 105 129 105C115.745 105 105 115.745 105 129C105 142.255 115.745 153 129 153Z" fill="#16226E"/>
<path opacity="0.1" fill-rule="evenodd" clip-rule="evenodd" d="M-16.2656 640.562C50.4659 640.562 104.562 586.466 104.562 519.734C104.562 453.003 50.4659 398.906 -16.2656 398.906C-82.9972 398.906 -137.094 453.003 -137.094 519.734C-137.094 586.466 -82.9972 640.562 -16.2656 640.562Z" fill="#16226E"/>
<path opacity="0.2" fill-rule="evenodd" clip-rule="evenodd" d="M-13 732C102.428 732 196 638.428 196 523C196 407.572 102.428 314 -13 314C-128.428 314 -222 407.572 -222 523C-222 638.428 -128.428 732 -13 732Z" fill="#16226E" stroke="#0064E5"/>
<path opacity="0.1" fill-rule="evenodd" clip-rule="evenodd" d="M408.734 1041.56C475.466 1041.56 529.562 987.466 529.562 920.734C529.562 854.003 475.466 799.906 408.734 799.906C342.003 799.906 287.906 854.003 287.906 920.734C287.906 987.466 342.003 1041.56 408.734 1041.56Z" fill="#16226E"/>
<path opacity="0.2" fill-rule="evenodd" clip-rule="evenodd" d="M412 1133C527.428 1133 621 1039.43 621 924C621 808.572 527.428 715 412 715C296.572 715 203 808.572 203 924C203 1039.43 296.572 1133 412 1133Z" fill="#16226E" stroke="#0064E5"/>
<path opacity="0.1" fill-rule="evenodd" clip-rule="evenodd" d="M411.734 222.562C478.466 222.562 532.562 168.466 532.562 101.734C532.562 35.0028 478.466 -19.0938 411.734 -19.0938C345.003 -19.0938 290.906 35.0028 290.906 101.734C290.906 168.466 345.003 222.562 411.734 222.562Z" fill="#16226E"/>
<path opacity="0.2" fill-rule="evenodd" clip-rule="evenodd" d="M415 314C530.428 314 624 220.428 624 105C624 -10.4275 530.428 -104 415 -104C299.572 -104 206 -10.4275 206 105C206 220.428 299.572 314 415 314Z" fill="#16226E" stroke="#0064E5"/>
<path opacity="0.1" fill-rule="evenodd" clip-rule="evenodd" d="M196 431C209.255 431 220 420.255 220 407C220 393.745 209.255 383 196 383C182.745 383 172 393.745 172 407C172 420.255 182.745 431 196 431Z" fill="#16226E"/>
<path opacity="0.1" fill-rule="evenodd" clip-rule="evenodd" d="M334 455C347.255 455 358 444.255 358 431C358 417.745 347.255 407 334 407C320.745 407 310 417.745 310 431C310 444.255 320.745 455 334 455Z" fill="#16226E"/>
<path d="M351 380.12L358.88 388L351 395.88L353.12 398L363.12 388L353.12 378L351 380.12Z" fill="#2F4972"/>
</g>
<defs>
<clipPath id="clip0_256_698">
<rect width="412" height="917" fill="white"/>
</clipPath>
</defs>
</svg>
