<svg width="338" height="121" viewBox="0 0 338 121" fill="none" xmlns="http://www.w3.org/2000/svg">
<g filter="url(#filter0_d_3319_18630)">
<g clip-path="url(#clip0_3319_18630)">
<rect width="334" height="113" rx="15" fill="#7D0B0B"/>
<g filter="url(#filter1_d_3319_18630)">
<g opacity="0.99" filter="url(#filter2_d_3319_18630)">
<path fill-rule="evenodd" clip-rule="evenodd" d="M264 217C365.62 217 448 143.575 448 53C448 -37.5747 365.62 -111 264 -111C162.38 -111 80 -37.5747 80 53C80 143.575 162.38 217 264 217Z" fill="#FE4646"/>
<path fill-rule="evenodd" clip-rule="evenodd" d="M264 217C365.62 217 448 143.575 448 53C448 -37.5747 365.62 -111 264 -111C162.38 -111 80 -37.5747 80 53C80 143.575 162.38 217 264 217Z" stroke="#FE4646"/>
</g>
</g>
<path opacity="0.1" fill-rule="evenodd" clip-rule="evenodd" d="M-0.5 236C57.766 236 105 191.005 105 135.5C105 79.9954 57.766 35 -0.5 35C-58.766 35 -106 79.9954 -106 135.5C-106 191.005 -58.766 236 -0.5 236Z" fill="#BC2C23"/>
<path d="M152.488 44.88L150.328 41.976C149.688 42.104 149.064 42.168 148.456 42.168C146.872 42.168 145.416 41.8 144.088 41.064C142.776 40.328 141.728 39.304 140.944 37.992C140.176 36.664 139.792 35.176 139.792 33.528C139.792 31.88 140.176 30.4 140.944 29.088C141.728 27.776 142.776 26.752 144.088 26.016C145.416 25.28 146.872 24.912 148.456 24.912C150.04 24.912 151.488 25.28 152.8 26.016C154.128 26.752 155.168 27.776 155.92 29.088C156.688 30.4 157.072 31.88 157.072 33.528C157.072 34.968 156.776 36.288 156.184 37.488C155.608 38.672 154.8 39.656 153.76 40.44L157.456 44.88H152.488ZM143.992 33.528C143.992 35.016 144.392 36.208 145.192 37.104C146.008 37.984 147.096 38.424 148.456 38.424C149.8 38.424 150.872 37.976 151.672 37.08C152.488 36.184 152.896 35 152.896 33.528C152.896 32.04 152.488 30.856 151.672 29.976C150.872 29.08 149.8 28.632 148.456 28.632C147.096 28.632 146.008 29.072 145.192 29.952C144.392 30.832 143.992 32.024 143.992 33.528ZM163.434 25.152V35.232C163.434 36.24 163.682 37.016 164.178 37.56C164.674 38.104 165.402 38.376 166.362 38.376C167.322 38.376 168.058 38.104 168.57 37.56C169.082 37.016 169.338 36.24 169.338 35.232V25.152H173.442V35.208C173.442 36.712 173.122 37.984 172.482 39.024C171.842 40.064 170.978 40.848 169.89 41.376C168.818 41.904 167.618 42.168 166.29 42.168C164.962 42.168 163.77 41.912 162.714 41.4C161.674 40.872 160.85 40.088 160.242 39.048C159.634 37.992 159.33 36.712 159.33 35.208V25.152H163.434ZM180.428 25.152V42H176.324V25.152H180.428ZM187.77 38.64H195.018V42H183.114V38.88L190.314 28.512H183.114V25.152H195.018V28.272L187.77 38.64ZM209.097 25.152C210.873 25.152 212.425 25.504 213.753 26.208C215.081 26.912 216.105 27.904 216.825 29.184C217.561 30.448 217.929 31.912 217.929 33.576C217.929 35.224 217.561 36.688 216.825 37.968C216.105 39.248 215.073 40.24 213.729 40.944C212.401 41.648 210.857 42 209.097 42H202.785V25.152H209.097ZM208.833 38.448C210.385 38.448 211.593 38.024 212.457 37.176C213.321 36.328 213.753 35.128 213.753 33.576C213.753 32.024 213.321 30.816 212.457 29.952C211.593 29.088 210.385 28.656 208.833 28.656H206.889V38.448H208.833ZM228.19 42.168C226.606 42.168 225.15 41.8 223.822 41.064C222.51 40.328 221.462 39.304 220.678 37.992C219.91 36.664 219.526 35.176 219.526 33.528C219.526 31.88 219.91 30.4 220.678 29.088C221.462 27.776 222.51 26.752 223.822 26.016C225.15 25.28 226.606 24.912 228.19 24.912C229.774 24.912 231.222 25.28 232.534 26.016C233.862 26.752 234.902 27.776 235.654 29.088C236.422 30.4 236.806 31.88 236.806 33.528C236.806 35.176 236.422 36.664 235.654 37.992C234.886 39.304 233.846 40.328 232.534 41.064C231.222 41.8 229.774 42.168 228.19 42.168ZM228.19 38.424C229.534 38.424 230.606 37.976 231.406 37.08C232.222 36.184 232.63 35 232.63 33.528C232.63 32.04 232.222 30.856 231.406 29.976C230.606 29.08 229.534 28.632 228.19 28.632C226.83 28.632 225.742 29.072 224.926 29.952C224.126 30.832 223.726 32.024 223.726 33.528C223.726 35.016 224.126 36.208 224.926 37.104C225.742 37.984 226.83 38.424 228.19 38.424Z" fill="white"/>
<path d="M159.636 61.92C160.775 62.1627 161.689 62.732 162.38 63.628C163.071 64.5053 163.416 65.5133 163.416 66.652C163.416 68.2947 162.837 69.6013 161.68 70.572C160.541 71.524 158.945 72 156.892 72H147.736V52.344H156.584C158.581 52.344 160.14 52.8013 161.26 53.716C162.399 54.6307 162.968 55.872 162.968 57.44C162.968 58.5973 162.66 59.5587 162.044 60.324C161.447 61.0893 160.644 61.6213 159.636 61.92ZM152.524 60.296H155.66C156.444 60.296 157.041 60.128 157.452 59.792C157.881 59.4373 158.096 58.924 158.096 58.252C158.096 57.58 157.881 57.0667 157.452 56.712C157.041 56.3573 156.444 56.18 155.66 56.18H152.524V60.296ZM156.052 68.136C156.855 68.136 157.471 67.9587 157.9 67.604C158.348 67.2307 158.572 66.6987 158.572 66.008C158.572 65.3173 158.339 64.776 157.872 64.384C157.424 63.992 156.799 63.796 155.996 63.796H152.524V68.136H156.052ZM170.981 68.304H177.253V72H166.193V52.344H170.981V68.304ZM188.833 72.196C186.985 72.196 185.286 71.7667 183.737 70.908C182.206 70.0493 180.983 68.8547 180.069 67.324C179.173 65.7747 178.725 64.0387 178.725 62.116C178.725 60.1933 179.173 58.4667 180.069 56.936C180.983 55.4053 182.206 54.2107 183.737 53.352C185.286 52.4933 186.985 52.064 188.833 52.064C190.681 52.064 192.37 52.4933 193.901 53.352C195.45 54.2107 196.663 55.4053 197.541 56.936C198.437 58.4667 198.885 60.1933 198.885 62.116C198.885 64.0387 198.437 65.7747 197.541 67.324C196.645 68.8547 195.431 70.0493 193.901 70.908C192.37 71.7667 190.681 72.196 188.833 72.196ZM188.833 67.828C190.401 67.828 191.651 67.3053 192.585 66.26C193.537 65.2147 194.013 63.8333 194.013 62.116C194.013 60.38 193.537 58.9987 192.585 57.972C191.651 56.9267 190.401 56.404 188.833 56.404C187.246 56.404 185.977 56.9173 185.025 57.944C184.091 58.9707 183.625 60.3613 183.625 62.116C183.625 63.852 184.091 65.2427 185.025 66.288C185.977 67.3147 187.246 67.828 188.833 67.828ZM210.845 72.196C208.997 72.196 207.298 71.7667 205.749 70.908C204.218 70.0493 202.995 68.8547 202.081 67.324C201.184 65.7747 200.736 64.0387 200.736 62.116C200.736 60.1933 201.184 58.4667 202.081 56.936C202.995 55.4053 204.218 54.2107 205.749 53.352C207.298 52.4933 208.997 52.064 210.845 52.064C212.693 52.064 214.382 52.4933 215.913 53.352C217.462 54.2107 218.675 55.4053 219.553 56.936C220.449 58.4667 220.897 60.1933 220.897 62.116C220.897 64.0387 220.449 65.7747 219.553 67.324C218.657 68.8547 217.443 70.0493 215.913 70.908C214.382 71.7667 212.693 72.196 210.845 72.196ZM210.845 67.828C212.413 67.828 213.663 67.3053 214.596 66.26C215.549 65.2147 216.025 63.8333 216.025 62.116C216.025 60.38 215.549 58.9987 214.596 57.972C213.663 56.9267 212.413 56.404 210.845 56.404C209.258 56.404 207.989 56.9173 207.037 57.944C206.103 58.9707 205.637 60.3613 205.637 62.116C205.637 63.852 206.103 65.2427 207.037 66.288C207.989 67.3147 209.258 67.828 210.845 67.828ZM230.924 52.344C232.996 52.344 234.807 52.7547 236.356 53.576C237.906 54.3973 239.1 55.5547 239.94 57.048C240.799 58.5227 241.228 60.2307 241.228 62.172C241.228 64.0947 240.799 65.8027 239.94 67.296C239.1 68.7893 237.896 69.9467 236.328 70.768C234.779 71.5893 232.978 72 230.924 72H223.56V52.344H230.924ZM230.616 67.856C232.427 67.856 233.836 67.3613 234.844 66.372C235.852 65.3827 236.356 63.9827 236.356 62.172C236.356 60.3613 235.852 58.952 234.844 57.944C233.836 56.936 232.427 56.432 230.616 56.432H228.348V67.856H230.616ZM248.692 52.344V72H243.904V52.344H248.692ZM269.746 72H264.958L256.95 59.876V72H252.162V52.344H256.95L264.958 64.524V52.344H269.746V72ZM290.24 52.344V72H285.452V63.908H278.004V72H273.216V52.344H278.004V60.044H285.452V52.344H290.24ZM302.993 72.196C301.145 72.196 299.446 71.7667 297.897 70.908C296.366 70.0493 295.144 68.8547 294.229 67.324C293.333 65.7747 292.885 64.0387 292.885 62.116C292.885 60.1933 293.333 58.4667 294.229 56.936C295.144 55.4053 296.366 54.2107 297.897 53.352C299.446 52.4933 301.145 52.064 302.993 52.064C304.841 52.064 306.53 52.4933 308.061 53.352C309.61 54.2107 310.824 55.4053 311.701 56.936C312.597 58.4667 313.045 60.1933 313.045 62.116C313.045 64.0387 312.597 65.7747 311.701 67.324C310.805 68.8547 309.592 70.0493 308.061 70.908C306.53 71.7667 304.841 72.196 302.993 72.196ZM302.993 67.828C304.561 67.828 305.812 67.3053 306.745 66.26C307.697 65.2147 308.173 63.8333 308.173 62.116C308.173 60.38 307.697 58.9987 306.745 57.972C305.812 56.9267 304.561 56.404 302.993 56.404C301.406 56.404 300.137 56.9173 299.185 57.944C298.252 58.9707 297.785 60.3613 297.785 62.116C297.785 63.852 298.252 65.2427 299.185 66.288C300.137 67.3147 301.406 67.828 302.993 67.828Z" fill="white"/>
<path d="M203.369 81.576C204.257 81.576 205.033 81.752 205.697 82.104C206.361 82.456 206.873 82.952 207.233 83.592C207.601 84.224 207.785 84.956 207.785 85.788C207.785 86.612 207.601 87.344 207.233 87.984C206.873 88.624 206.357 89.12 205.685 89.472C205.021 89.824 204.249 90 203.369 90H200.213V81.576H203.369ZM203.237 88.224C204.013 88.224 204.617 88.012 205.049 87.588C205.481 87.164 205.697 86.564 205.697 85.788C205.697 85.012 205.481 84.408 205.049 83.976C204.617 83.544 204.013 83.328 203.237 83.328H202.265V88.224H203.237ZM209.964 82.608C209.604 82.608 209.308 82.504 209.076 82.296C208.852 82.08 208.74 81.816 208.74 81.504C208.74 81.184 208.852 80.92 209.076 80.712C209.308 80.496 209.604 80.388 209.964 80.388C210.316 80.388 210.604 80.496 210.828 80.712C211.06 80.92 211.176 81.184 211.176 81.504C211.176 81.816 211.06 82.08 210.828 82.296C210.604 82.504 210.316 82.608 209.964 82.608ZM210.984 83.304V90H208.932V83.304H210.984ZM215.483 88.08L216.935 83.304H219.119L216.743 90H214.211L211.835 83.304H214.031L215.483 88.08ZM226.294 86.544C226.294 86.736 226.282 86.936 226.258 87.144H221.614C221.646 87.56 221.778 87.88 222.01 88.104C222.25 88.32 222.542 88.428 222.886 88.428C223.398 88.428 223.754 88.212 223.954 87.78H226.138C226.026 88.22 225.822 88.616 225.526 88.968C225.238 89.32 224.874 89.596 224.434 89.796C223.994 89.996 223.502 90.096 222.958 90.096C222.302 90.096 221.718 89.956 221.206 89.676C220.694 89.396 220.294 88.996 220.006 88.476C219.718 87.956 219.574 87.348 219.574 86.652C219.574 85.956 219.714 85.348 219.994 84.828C220.282 84.308 220.682 83.908 221.194 83.628C221.706 83.348 222.294 83.208 222.958 83.208C223.606 83.208 224.182 83.344 224.686 83.616C225.19 83.888 225.582 84.276 225.862 84.78C226.15 85.284 226.294 85.872 226.294 86.544ZM224.194 86.004C224.194 85.652 224.074 85.372 223.834 85.164C223.594 84.956 223.294 84.852 222.934 84.852C222.59 84.852 222.298 84.952 222.058 85.152C221.826 85.352 221.682 85.636 221.626 86.004H224.194ZM229.429 84.42C229.669 84.052 229.969 83.764 230.329 83.556C230.689 83.34 231.089 83.232 231.529 83.232V85.404H230.965C230.453 85.404 230.069 85.516 229.813 85.74C229.557 85.956 229.429 86.34 229.429 86.892V90H227.377V83.304H229.429V84.42ZM236.242 88.26V90H235.198C234.454 90 233.874 89.82 233.458 89.46C233.042 89.092 232.834 88.496 232.834 87.672V85.008H232.018V83.304H232.834V81.672H234.886V83.304H236.23V85.008H234.886V87.696C234.886 87.896 234.934 88.04 235.03 88.128C235.126 88.216 235.286 88.26 235.51 88.26H236.242ZM236.977 86.64C236.977 85.952 237.105 85.348 237.361 84.828C237.625 84.308 237.981 83.908 238.429 83.628C238.877 83.348 239.377 83.208 239.929 83.208C240.401 83.208 240.813 83.304 241.165 83.496C241.525 83.688 241.801 83.94 241.993 84.252V83.304H244.045V90H241.993V89.052C241.793 89.364 241.513 89.616 241.153 89.808C240.801 90 240.389 90.096 239.917 90.096C239.373 90.096 238.877 89.956 238.429 89.676C237.981 89.388 237.625 88.984 237.361 88.464C237.105 87.936 236.977 87.328 236.977 86.64ZM241.993 86.652C241.993 86.14 241.849 85.736 241.561 85.44C241.281 85.144 240.937 84.996 240.529 84.996C240.121 84.996 239.773 85.144 239.485 85.44C239.205 85.728 239.065 86.128 239.065 86.64C239.065 87.152 239.205 87.56 239.485 87.864C239.773 88.16 240.121 88.308 240.529 88.308C240.937 88.308 241.281 88.16 241.561 87.864C241.849 87.568 241.993 87.164 241.993 86.652ZM250.689 84.936V86.64H245.409V84.936H250.689ZM255.214 90.096C254.63 90.096 254.11 89.996 253.654 89.796C253.198 89.596 252.838 89.324 252.574 88.98C252.31 88.628 252.162 88.236 252.13 87.804H254.158C254.182 88.036 254.29 88.224 254.482 88.368C254.674 88.512 254.91 88.584 255.19 88.584C255.446 88.584 255.642 88.536 255.778 88.44C255.922 88.336 255.994 88.204 255.994 88.044C255.994 87.852 255.894 87.712 255.694 87.624C255.494 87.528 255.17 87.424 254.722 87.312C254.242 87.2 253.842 87.084 253.522 86.964C253.202 86.836 252.926 86.64 252.694 86.376C252.462 86.104 252.346 85.74 252.346 85.284C252.346 84.9 252.45 84.552 252.658 84.24C252.874 83.92 253.186 83.668 253.594 83.484C254.01 83.3 254.502 83.208 255.07 83.208C255.91 83.208 256.57 83.416 257.05 83.832C257.538 84.248 257.818 84.8 257.89 85.488H255.994C255.962 85.256 255.858 85.072 255.682 84.936C255.514 84.8 255.29 84.732 255.01 84.732C254.77 84.732 254.586 84.78 254.458 84.876C254.33 84.964 254.266 85.088 254.266 85.248C254.266 85.44 254.366 85.584 254.566 85.68C254.774 85.776 255.094 85.872 255.526 85.968C256.022 86.096 256.426 86.224 256.738 86.352C257.05 86.472 257.322 86.672 257.554 86.952C257.794 87.224 257.918 87.592 257.926 88.056C257.926 88.448 257.814 88.8 257.59 89.112C257.374 89.416 257.058 89.656 256.642 89.832C256.234 90.008 255.758 90.096 255.214 90.096ZM265.493 86.544C265.493 86.736 265.482 86.936 265.458 87.144H260.814C260.846 87.56 260.978 87.88 261.21 88.104C261.45 88.32 261.742 88.428 262.086 88.428C262.598 88.428 262.954 88.212 263.154 87.78H265.338C265.226 88.22 265.022 88.616 264.726 88.968C264.438 89.32 264.074 89.596 263.634 89.796C263.194 89.996 262.702 90.096 262.158 90.096C261.502 90.096 260.918 89.956 260.406 89.676C259.894 89.396 259.494 88.996 259.206 88.476C258.918 87.956 258.774 87.348 258.774 86.652C258.774 85.956 258.914 85.348 259.194 84.828C259.482 84.308 259.882 83.908 260.394 83.628C260.906 83.348 261.494 83.208 262.158 83.208C262.806 83.208 263.382 83.344 263.886 83.616C264.39 83.888 264.782 84.276 265.062 84.78C265.35 85.284 265.493 85.872 265.493 86.544ZM263.394 86.004C263.394 85.652 263.274 85.372 263.034 85.164C262.794 84.956 262.494 84.852 262.134 84.852C261.79 84.852 261.498 84.952 261.258 85.152C261.026 85.352 260.882 85.636 260.826 86.004H263.394ZM269.276 81.276L269.036 87.024H267.296L267.056 81.276H269.276ZM268.196 90.096C267.836 90.096 267.54 89.992 267.308 89.784C267.084 89.568 266.972 89.304 266.972 88.992C266.972 88.672 267.084 88.404 267.308 88.188C267.54 87.972 267.836 87.864 268.196 87.864C268.548 87.864 268.836 87.972 269.06 88.188C269.292 88.404 269.408 88.672 269.408 88.992C269.408 89.304 269.292 89.568 269.06 89.784C268.836 89.992 268.548 90.096 268.196 90.096Z" fill="white"/>
<path d="M109.065 144.792C103.933 144.792 96.7707 141.728 92.3394 134.883C86.5083 125.878 86.8087 116.694 88.8376 111.568C90.6532 106.979 101.628 105.997 102.095 105.957C102.103 105.957 102.111 105.956 102.118 105.956C102.198 105.956 102.276 105.99 102.329 106.052C102.389 106.118 102.412 106.209 102.394 106.297C102.362 106.442 99.3245 120.843 102.971 126.744C105.13 130.239 107.919 131.937 111.496 131.937C111.993 131.937 112.438 131.907 112.796 131.883L113.145 131.86L113.245 131.857C114.509 131.857 115.931 133.172 116.702 135.054C117.817 137.777 117.23 140.636 115.13 142.703C113.762 144.05 111.607 144.792 109.065 144.792Z" fill="#600D10"/>
<path d="M102.03 106.246C102.03 106.246 98.8944 120.834 102.643 126.9C105.542 131.591 109.097 132.227 111.408 132.227C112.086 132.227 112.657 132.172 113.073 132.149C113.1 132.148 113.128 132.147 113.157 132.147C115.663 132.147 119.16 138.263 114.845 142.51C113.485 143.849 111.394 144.519 108.976 144.519C103.641 144.519 96.7086 141.26 92.4866 134.74C86.3516 125.265 87.2378 116.159 89.0101 111.68C90.7824 107.2 102.03 106.246 102.03 106.246ZM102.03 105.684C102.014 105.684 101.998 105.684 101.982 105.686C101.509 105.726 90.366 106.724 88.4868 111.473C86.4332 116.663 86.1249 125.95 92.014 135.046C96.5032 141.979 103.768 145.082 108.976 145.082C111.631 145.082 113.796 144.332 115.239 142.912C117.422 140.763 118.033 137.788 116.873 134.956C116.06 132.971 114.532 131.585 113.155 131.585C113.117 131.585 113.078 131.586 113.041 131.588C112.933 131.594 112.815 131.602 112.688 131.611C112.335 131.635 111.894 131.665 111.407 131.665C107.935 131.665 105.225 130.01 103.121 126.605C99.5341 120.801 102.548 106.508 102.579 106.365C102.617 106.191 102.569 106.009 102.451 105.875C102.344 105.752 102.19 105.684 102.03 105.684Z" fill="#020001"/>
<path d="M72.7385 141.459C70.4426 142.693 67.0099 143.838 63.6992 142.28C57.1101 139.179 50.2929 127.89 56.5889 113.507C58.075 110.111 59.7873 107.875 61.6774 106.858C66.9799 104.008 71.8694 111.617 71.9183 111.695C71.9764 111.786 71.9763 111.904 71.9184 111.996C71.8701 112.072 67.1018 119.758 69.5965 127.99C72.0906 136.222 76.0078 138.655 76.0465 138.678C76.1223 138.724 76.1727 138.802 76.1814 138.89C76.1905 138.978 76.1586 139.065 76.0939 139.125C76.0393 139.176 74.7307 140.388 72.7385 141.459Z" fill="#600D10"/>
<path d="M61.8114 107.106C66.9439 104.346 71.6811 111.845 71.6811 111.845C71.6811 111.845 66.7646 119.613 69.3276 128.072C71.8906 136.531 75.9031 138.92 75.9031 138.92C75.9031 138.92 74.5897 140.146 72.6064 141.212C70.2599 142.473 66.9754 143.511 63.8201 142.026C57.9981 139.286 50.3184 128.537 56.8478 113.62C58.4447 109.971 60.1495 108 61.8114 107.106ZM61.5459 106.61C61.5455 106.611 61.545 106.611 61.545 106.611C59.5976 107.658 57.844 109.94 56.3321 113.394C49.9614 127.948 56.8915 139.387 63.5804 142.534C66.9971 144.142 70.5193 142.971 72.8723 141.706C74.8962 140.619 76.2307 139.382 76.2866 139.33C76.4159 139.209 76.481 139.035 76.4619 138.859C76.4429 138.683 76.3426 138.526 76.1904 138.436C76.1542 138.414 72.321 136.011 69.8654 127.908C67.4101 119.805 72.1086 112.221 72.156 112.145C72.2719 111.962 72.272 111.728 72.156 111.544C71.9519 111.22 67.0755 103.638 61.5459 106.61Z" fill="#020001"/>
<path d="M56.8466 113.621C55.8858 115.816 55.2404 117.918 54.8435 119.919C59.3586 120.721 64.0403 120.784 68.8071 120.056C69.5124 115.276 71.6802 111.847 71.6802 111.847C71.6802 111.847 63.3756 98.7051 56.8466 113.621Z" fill="#020001" stroke="#020001" stroke-miterlimit="10" stroke-linecap="round" stroke-linejoin="round"/>
<path d="M102.033 106.246C102.033 106.246 90.7863 107.2 89.0135 111.679C88.1965 113.743 87.5703 116.791 87.7301 120.404C92.5564 119.282 96.9516 117.436 100.887 115.029C101.162 110.304 102.033 106.246 102.033 106.246Z" fill="#020001" stroke="#020001" stroke-miterlimit="10" stroke-linecap="round" stroke-linejoin="round"/>
<path d="M24.995 104.834C19.2498 104.166 12.3772 101.366 10.3186 95.5077C7.33165 87.0087 13.8843 79.7768 13.951 79.7047C14.0132 79.6372 14.1029 79.6062 14.1901 79.6164C14.2259 79.6205 14.2609 79.6314 14.2938 79.65C17.0583 81.1822 26.0043 86.3299 25.0377 88.2386C24.6547 88.995 24.6427 89.9219 25.0074 90.6004C25.3437 91.2257 25.9832 91.6099 26.8562 91.7113C27.699 91.8092 28.746 91.6505 29.968 91.2397C35.2964 89.4493 41.6019 79.1918 41.6579 79.0901C41.7014 79.013 41.779 78.9592 41.8671 78.9473C41.8913 78.9439 41.9151 78.9438 41.9385 78.9465C42.0017 78.9539 42.0613 78.9818 42.1064 79.0278C43.046 79.9889 51.2457 88.5027 49.7478 91.5125C48.1162 94.7911 42.507 100.757 35.1443 103.754C32.3606 104.887 28.7556 105.271 24.995 104.834Z" fill="#600D10"/>
<path d="M41.9043 79.2244C41.9043 79.2244 50.9467 88.47 49.4954 91.3866C48.0434 94.3037 42.6306 100.403 35.0379 103.493C32.262 104.622 28.6453 104.974 25.0261 104.554C18.7461 103.824 12.464 100.767 10.5824 95.414C7.61726 86.9759 14.1563 79.8948 14.1563 79.8948C14.1563 79.8948 25.705 86.2954 24.7855 88.1104C24.0975 89.4691 24.3842 91.7058 26.8231 91.9892C27.6429 92.0845 28.706 91.9588 30.0569 91.5052C35.426 89.7014 41.7758 79.4626 41.9043 79.2244ZM41.9692 78.6655C41.9223 78.66 41.8741 78.6606 41.8263 78.667C41.6507 78.6913 41.4973 78.7976 41.4119 78.9525C41.3271 79.0973 35.0457 89.2358 29.8775 90.9723C28.6946 91.3695 27.6888 91.524 26.8879 91.4309C26.0988 91.3392 25.5492 91.0142 25.2544 90.4657C24.8879 89.7836 25.007 88.9195 25.2877 88.3653C25.7038 87.5436 25.3666 86.307 20.1253 82.8529C17.3669 81.0348 14.458 79.4195 14.4292 79.4037C14.3632 79.3672 14.2927 79.3454 14.2217 79.3371C14.0473 79.3169 13.8679 79.3793 13.7435 79.5143C13.4668 79.8136 7.00982 86.9438 10.0526 95.6016C12.1541 101.582 19.132 104.436 24.9616 105.114C28.7686 105.556 32.4226 105.166 35.2502 104.015C42.6795 100.991 48.3475 94.9576 49.9996 91.6389C51.5513 88.5215 43.864 80.424 42.3073 78.8322C42.2157 78.7377 42.0961 78.6802 41.9692 78.6655Z" fill="#020001"/>
<path d="M41.8998 79.2255C41.8386 79.3385 40.3698 81.7128 38.2705 84.366C40.2037 88.7187 42.7553 92.6584 45.8879 96.0878C47.6562 94.2746 48.9033 92.5696 49.4909 91.3884C50.9429 88.4712 41.8998 79.2255 41.8998 79.2255Z" fill="#020001" stroke="#020001" stroke-miterlimit="10" stroke-linecap="round" stroke-linejoin="round"/>
<path d="M81.696 112.67C79.2593 112.67 76.7454 112.498 74.2232 112.16C60.19 110.277 48.6229 102.788 41.6524 91.0708C32.1676 75.1253 31.7226 52.8772 40.4321 30.0293C56.134 -11.1621 84.9148 -34.7223 85.2035 -34.9552C87.5075 -36.9869 89.3793 -37.415 90.5423 -37.415C91.3828 -37.415 92.1334 -37.1939 92.7129 -36.7753C94.0779 -35.7896 95.1137 -33.9188 92.4451 -27.515C90.6486 -23.2041 90.904 -20.8906 91.4346 -19.7085C91.7739 -18.9529 92.341 -18.4195 93.0753 -18.1669C93.1996 -18.1241 93.3251 -18.1033 93.4601 -18.1033C94.0824 -18.1033 94.7789 -18.5641 95.5154 -19.0519C96.3981 -19.6359 97.3991 -20.2987 98.512 -20.2987C99.2254 -20.2987 99.8949 -20.037 100.56 -19.498C102.998 -17.5249 101.903 -14.0805 100.744 -10.4341C100.365 -9.24409 99.9742 -8.01361 99.6918 -6.7972C98.6278 -2.2247 99.4414 1.47291 106.84 8.99136C113.43 15.6878 130.338 38.7388 129.445 64.6378C129.032 76.6376 124.25 88.5857 116.324 97.4179C110.081 104.375 99.0054 112.67 81.696 112.67Z" fill="#BF1920"/>
<path d="M90.5421 -37.1341C91.3737 -37.1341 92.0568 -36.9029 92.5479 -36.5479C93.8538 -35.6049 94.7248 -33.7184 92.185 -27.624C89.6459 -21.5296 90.8792 -18.6275 92.9834 -17.9017C93.1415 -17.8471 93.3002 -17.8224 93.46 -17.8224C94.9695 -17.8224 96.5758 -20.0178 98.5124 -20.0178C99.1031 -20.0178 99.7249 -19.8135 100.384 -19.2802C103.431 -16.8136 100.564 -11.791 99.4171 -6.86121C98.2705 -1.93144 99.5319 1.96591 106.64 9.1884C113.747 16.4109 130.032 39.4664 129.164 64.6278C128.362 87.8848 110.99 112.389 81.6959 112.389C79.2974 112.389 76.8162 112.224 74.2602 111.882C40.4888 107.351 24.8386 71.7265 40.6947 30.1295C56.5508 -11.4669 85.38 -34.7362 85.38 -34.7362C87.3779 -36.4989 89.1637 -37.1341 90.5421 -37.1341ZM90.5421 -37.6968C89.3302 -37.6968 87.3863 -37.2562 85.0075 -35.1587C84.9541 -35.116 77.6703 -29.196 68.5511 -18.2629C60.1392 -8.17833 48.387 8.36866 40.1686 29.9287C31.4287 52.857 31.8811 75.1946 41.4104 91.2144C44.8728 97.0348 49.4048 101.812 54.8814 105.411C60.5106 109.111 67.005 111.475 74.1853 112.439C76.72 112.778 79.2468 112.951 81.6959 112.951C99.1093 112.951 110.252 104.606 116.533 97.6048C124.501 88.7242 129.31 76.7115 129.726 64.6464C130.622 38.6483 113.654 15.5135 107.041 8.79287C99.7339 1.36783 98.9253 -2.2617 99.9657 -6.73462C100.246 -7.94034 100.636 -9.16519 101.012 -10.3501C102.202 -14.091 103.325 -17.6238 100.738 -19.7185C100.031 -20.2912 99.2821 -20.5815 98.5129 -20.5815C97.3145 -20.5815 96.2765 -19.8946 95.3605 -19.288C94.66 -18.8244 93.9984 -18.3862 93.46 -18.3862C93.357 -18.3862 93.2613 -18.4019 93.1668 -18.4345C92.4984 -18.6652 92.0022 -19.1328 91.6916 -19.8254C91.1835 -20.9562 90.9472 -23.1905 92.7049 -27.4085C94.8873 -32.6466 94.9391 -35.5166 92.8776 -37.0053C92.2497 -37.4577 91.4424 -37.6968 90.5421 -37.6968Z" fill="#020001"/>
<path d="M106.64 9.18816C105.67 8.20299 104.813 7.28141 104.053 6.4082C111.504 17.1708 120.17 34.5538 119.531 53.088C118.663 78.2489 98.3983 104.872 64.627 100.342C55.5748 99.1276 47.8274 95.677 41.6367 90.4788C48.3737 102.096 59.6105 109.915 74.2609 111.881C108.032 116.411 128.297 89.7885 129.165 64.627C130.032 39.4662 113.748 16.4107 106.64 9.18816Z" fill="#8F1318"/>
<path d="M45.9558 62.8859C46.1417 62.7778 49.3054 62.366 50.9185 64.5014C52.5316 66.6367 50.4175 70.6754 50.0054 72.3591C49.5935 74.0422 48.5144 77.5962 44.6907 77.4975C40.867 77.3987 41.2741 75.2398 41.4561 74.0494C41.6376 72.8578 45.9558 62.8859 45.9558 62.8859Z" fill="#FFFEFB" stroke="#020001" stroke-miterlimit="10" stroke-linecap="round" stroke-linejoin="round"/>
<path d="M18.5173 72.1767C18.5173 72.1767 14.9255 70.8916 13.3275 75.3143C11.7294 79.737 13.2845 85.0137 18.3877 87.2878C23.4908 89.5619 28.0079 88.5682 29.1154 84.3598C30.2229 80.1515 27.4709 78.6388 26.6362 77.891C25.8015 77.1432 18.5173 72.1767 18.5173 72.1767Z" fill="#FFFEFB" stroke="#020001" stroke-miterlimit="10" stroke-linecap="round" stroke-linejoin="round"/>
<path d="M27.4349 82.4976C27.4349 82.4976 27.8483 84.8476 29.8876 85.3672C31.927 85.8868 33.2686 85.1137 34.3677 83.3032C35.4662 81.4925 39.0744 81.0231 39.53 78.492C39.53 78.492 43.8098 75.7183 44.2412 70.9629C44.2412 70.9629 47.2887 66.6328 46.7948 62.5374C46.3016 58.4421 44.9578 54.3686 38.9257 54.1526C32.8936 53.9359 25.537 61.6425 25.537 61.6425C25.537 61.6425 19.6391 66.5392 18.5188 72.1791C17.3985 77.8185 19.0782 85.6053 27.4349 82.4976Z" fill="#FFFEFB" stroke="#020001" stroke-miterlimit="10" stroke-linecap="round" stroke-linejoin="round"/>
<path d="M27.1935 82.5821C27.1935 82.5821 33.9332 79.4541 35.3695 76.4128" stroke="#020001" stroke-miterlimit="10" stroke-linecap="round" stroke-linejoin="round"/>
<path d="M28.9042 67.8827C28.9042 67.8827 33.8205 65.3738 37.282 67.9805C41.6998 71.3072 39.5306 78.4911 39.5306 78.4911" stroke="#020001" stroke-miterlimit="10" stroke-linecap="round" stroke-linejoin="round"/>
<path d="M32.7988 59.6249C32.7988 59.6249 37.6063 58.1059 41.142 61.2004C44.6777 64.295 44.6756 68.9342 44.2412 70.9614" stroke="#020001" stroke-miterlimit="10" stroke-linecap="round" stroke-linejoin="round"/>
<path d="M72.3448 118.702C72.4622 117.149 81.9451 108.232 83.8452 106.46C83.9169 106.393 84.0186 106.368 84.1136 106.395C84.1865 106.416 91.5078 108.374 98.7933 101.235C103.543 96.5812 103.93 93.5376 104.271 90.8523C104.461 89.364 104.639 87.9579 105.575 86.52C106.489 85.1164 107.973 84.3428 109.986 84.2214C113.47 84.0111 116.893 85.7843 118.706 88.7382C119.747 90.4358 120.2 92.2993 120.05 94.2763C120.028 94.5725 119.991 94.8762 119.942 95.1771C118.834 101.89 108.096 117.236 94.5798 121.17C84.8992 123.989 77.3013 122.42 73.7364 120.22C73.2599 119.926 72.4465 119.356 72.3509 118.837C72.3434 118.794 72.3412 118.749 72.3448 118.702Z" fill="#600D10"/>
<path d="M119.767 94.2554C119.745 94.5409 119.71 94.8323 119.661 95.1315C118.571 101.738 107.908 116.997 94.4979 120.901C81.0875 124.805 72.8566 120.051 72.6243 118.787C72.6207 118.768 72.62 118.747 72.6218 118.724C72.7369 117.203 84.0332 106.667 84.0332 106.667C84.0332 106.667 91.4868 108.785 98.9867 101.437C106.487 94.0892 103.286 90.5486 105.808 86.6741C106.806 85.1409 108.418 84.5987 110 84.5029C113.393 84.298 116.685 85.9886 118.463 88.8856C119.315 90.2744 119.933 92.064 119.767 94.2554ZM120.328 94.2984C120.482 92.2607 120.016 90.3403 118.942 88.5912C117.076 85.5499 113.553 83.7244 109.967 83.9412C107.86 84.0685 106.303 84.8844 105.337 86.3665C104.366 87.8593 104.183 89.2961 103.99 90.8174C103.654 93.4574 103.274 96.4496 98.5935 101.034C91.436 108.047 84.2583 106.145 84.1865 106.125C83.9975 106.072 83.7935 106.121 83.6502 106.254C80.2057 109.467 72.1802 117.11 72.0613 118.681C72.0559 118.753 72.0591 118.822 72.0716 118.889C72.1591 119.365 72.6687 119.894 73.5862 120.46C77.2002 122.69 84.8864 124.285 94.6557 121.441C108.276 117.476 119.099 101.996 120.217 95.2232C120.268 94.9139 120.305 94.603 120.328 94.2984Z" fill="#020001"/>
<path d="M63.7575 66.2264C63.9251 66.3547 61.1908 69.9572 64.1688 71.2197C67.1473 72.4817 70.6435 67.7815 71.3429 66.6394C72.0434 65.4972 63.7575 66.2264 63.7575 66.2264Z" fill="#020001" stroke="#020001" stroke-miterlimit="10" stroke-linecap="round" stroke-linejoin="round"/>
<path d="M91.2005 65.7837C99.1932 65.7837 105.673 57.7099 105.673 47.7503C105.673 37.7907 99.1932 29.7168 91.2005 29.7168C83.2079 29.7168 76.7285 37.7907 76.7285 47.7503C76.7285 57.7099 83.2079 65.7837 91.2005 65.7837Z" fill="#FFFEFB" stroke="#020001" stroke-miterlimit="10" stroke-linecap="round" stroke-linejoin="round"/>
<path d="M105.601 45.9794C105.134 40.0076 102.329 34.8927 98.3406 32.0672C97.7706 31.9091 97.1821 31.8247 96.5807 31.8247C91.5935 31.8247 87.4902 37.523 87.4902 44.4485C87.4902 46.0627 87.713 47.6628 88.1474 49.1605L94.7954 47.121L91.7105 55.1075C93.1666 56.3909 94.8568 57.0728 96.5812 57.0728C101.195 57.0722 105.05 52.1931 105.601 45.9794Z" fill="#020001" stroke="#020001" stroke-miterlimit="10" stroke-linecap="round" stroke-linejoin="round"/>
<path d="M70.4965 49.2938C71.0154 39.3482 65.6651 30.9845 58.5462 30.6131C51.4274 30.2417 45.2358 38.0032 44.7169 47.9488C44.198 57.8945 49.5483 66.2581 56.6672 66.6295C63.786 67.0009 69.9776 59.2395 70.4965 49.2938Z" fill="#FFFEFB" stroke="#020001" stroke-miterlimit="10" stroke-linecap="round" stroke-linejoin="round"/>
<path d="M70.5332 47.5173C70.4285 41.5315 68.1955 36.294 64.791 33.2867C64.2914 33.1027 63.7721 32.9908 63.2364 32.9626C58.7945 32.7308 54.8425 38.2311 54.4819 45.147C54.3975 46.7595 54.5128 48.3669 54.8217 49.8832L60.8492 48.1554L57.6849 55.9878C58.9154 57.3369 60.3844 58.0965 61.921 58.1764C66.0304 58.3908 69.7185 53.6973 70.5332 47.5173Z" fill="#020001" stroke="#020001" stroke-miterlimit="10" stroke-linecap="round" stroke-linejoin="round"/>
<path d="M71.621 66.0373C71.621 66.0373 69.4886 68.5759 65.6301 67.256C61.7715 65.9361 58.829 60.1916 61.5679 57.3261C64.3073 54.4606 66.7486 55.9634 69.3688 58.7625C71.9889 61.561 74.1922 60.132 74.1922 60.132" fill="#BF1920"/>
<path d="M71.621 66.0373C71.621 66.0373 69.4886 68.5759 65.6301 67.256C61.7715 65.9361 58.829 60.1916 61.5679 57.3261C64.3073 54.4606 66.7486 55.9634 69.3688 58.7625C71.9889 61.561 74.1922 60.132 74.1922 60.132" stroke="#020001" stroke-miterlimit="10" stroke-linecap="round" stroke-linejoin="round"/>
<path d="M88.6523 68.6308C88.6523 68.6308 95.4501 54.1937 109.116 58.6092L88.6523 68.6308Z" fill="#BF1920"/>
<path d="M88.6523 68.6308C88.6523 68.6308 95.4501 54.1937 109.116 58.6092" stroke="#020001" stroke-miterlimit="10" stroke-linecap="round" stroke-linejoin="round"/>
<path d="M88.4233 79.1117C88.4233 79.1117 86.2097 76.9387 87.8311 75.0701C89.4524 73.2014 94.0188 76.3035 97.5779 73.0654C101.137 69.8274 102.613 65.6489 106.591 67.5092C110.569 69.3696 108.924 76.7314 102.392 79.6846C95.8603 82.6377 90.1229 80.5515 88.4233 79.1117Z" fill="#FFFEFB" stroke="#020001" stroke-miterlimit="10" stroke-linecap="round" stroke-linejoin="round"/>
<path d="M89.9551 74.4264C89.9551 74.4264 89.4897 78.4236 90.183 80.1329" stroke="#020001" stroke-miterlimit="10" stroke-linecap="round" stroke-linejoin="round"/>
<path d="M93.8751 74.6055C93.8751 74.6055 94.0239 79.0499 95.1337 81.2134" stroke="#020001" stroke-miterlimit="10" stroke-linecap="round" stroke-linejoin="round"/>
<path d="M97.2539 73.3419C97.2915 73.3111 99.0003 78.457 101.132 80.1981" stroke="#020001" stroke-miterlimit="10" stroke-linecap="round" stroke-linejoin="round"/>
<path d="M99.9355 70.5596C99.9355 70.5596 104.64 75.0478 105.389 77.7628" stroke="#020001" stroke-miterlimit="10" stroke-linecap="round" stroke-linejoin="round"/>
<path d="M102.02 68.2952C102.052 68.2665 106.925 70.186 108.439 73.1731" stroke="#020001" stroke-miterlimit="10" stroke-linecap="round" stroke-linejoin="round"/>
<path d="M105.268 61.7886C105.268 61.7886 106.472 59.8295 110.149 60.2323C113.825 60.6346 115.972 63.1113 114.442 64.6102C112.913 66.109 102.2 65.2009 105.268 61.7886Z" fill="#F2686E"/>
<path d="M50.2213 72.8214C50.2213 72.8214 49.3914 70.8218 52.604 69.3753C55.8167 67.9288 57.9648 69.0884 57.6244 70.5293C57.284 71.9707 55.1567 71.9493 54.0719 72.4596C52.9872 72.9699 50.4132 74.2466 50.2213 72.8214Z" fill="#F2686E"/>
<path d="M85.0418 19.8709C85.0418 19.8709 83.5289 18.5094 85.1932 16.3162C86.8574 14.1225 92.6435 11.4 97.1817 14.9547C101.72 18.5094 101.417 22.8208 99.3372 23.1235C97.2571 23.4262 95.6232 19.6442 92.6013 18.9634C89.5795 18.2826 86.4034 21.686 85.0418 19.8709Z" fill="#020001" stroke="#020001" stroke-miterlimit="10" stroke-linecap="round" stroke-linejoin="round"/>
<path d="M45.8639 23.4428C45.8639 23.4428 43.8333 23.3022 43.7934 20.5492C43.7529 17.7962 46.6341 12.0872 52.3988 12.0923C58.1636 12.0974 60.5806 15.6802 59.1285 17.1993C57.6763 18.719 54.0597 16.7464 51.2601 18.0708C48.4604 19.3964 48.0542 24.0341 45.8639 23.4428Z" fill="#020001" stroke="#020001" stroke-miterlimit="10" stroke-linecap="round" stroke-linejoin="round"/>
<path d="M62.6647 6.13514C62.9359 6.90595 63.6746 7.53834 64.4916 7.52371C65.5786 7.50345 66.3483 6.44571 66.7263 5.42622C67.2423 4.03371 67.0853 0.983691 64.8629 1.42929C63.2155 1.75956 62.1747 4.74094 62.6647 6.13514Z" fill="#E39C9F"/>
<path d="M60.5909 22.6537C60.2978 23.8915 60.574 25.3526 61.5912 26.1161C62.3317 26.672 63.3061 26.7665 64.2064 26.9842C65.7452 27.3567 67.1804 28.1494 68.3147 29.2545C68.9983 29.9206 69.6869 30.7527 70.64 30.8022C71.9262 30.8686 72.7904 29.4542 72.9873 28.181C73.2906 26.2202 72.7342 24.2077 71.8255 22.4438C70.9135 20.6738 69.5559 19.0241 67.6947 18.3169C64.4967 17.1033 61.3212 19.571 60.5909 22.6537Z" fill="#E39C9F"/>
<path d="M65.4168 57.2778C66.2714 57.5721 66.9235 58.2692 67.453 59.0017C67.6127 59.2228 67.768 59.4558 67.8339 59.7207C67.8997 59.9857 67.8609 60.2913 67.6713 60.4876C67.426 60.7425 67.0096 60.7397 66.6776 60.6181C66.3457 60.4966 66.0559 60.2794 65.7279 60.1472C65.2491 59.9548 64.7186 59.9542 64.2054 59.898C63.6923 59.8417 63.1505 59.7072 62.8045 59.3241C61.5386 57.9226 64.4159 56.9335 65.4168 57.2778Z" fill="#E39C9F"/>
<path d="M53.393 118.943C53.1719 118.953 50.091 117.818 49.6393 115.102C49.1876 112.385 53.0425 109.712 54.2216 108.374C55.4004 107.036 58.0803 104.31 61.5193 106.225C64.9583 108.14 63.5568 109.914 62.8228 110.912C62.0887 111.912 53.393 118.943 53.393 118.943Z" fill="#FFFEFB" stroke="#020001" stroke-miterlimit="10" stroke-linecap="round" stroke-linejoin="round"/>
<path d="M82.8428 123.567C82.8428 123.567 85.5043 126.453 89.0718 123.183C92.6394 119.914 93.7397 114.361 90.1724 109.852C86.6051 105.344 82.0126 104.094 78.9945 107.402C75.9764 110.71 77.7636 113.403 78.1677 114.483C78.5719 115.563 82.8428 123.567 82.8428 123.567Z" fill="#FFFEFB" stroke="#020001" stroke-miterlimit="10" stroke-linecap="round" stroke-linejoin="round"/>
<path d="M79.8972 109.938C79.8972 109.938 72.2598 109.574 69.4989 111.661" stroke="#020001" stroke-miterlimit="10" stroke-linecap="round" stroke-linejoin="round"/>
<path d="M79.1694 73.9178L80.4886 78.0517C82.6313 84.7655 78.9272 91.9467 72.217 94.0881L70.5157 94.6311L71.7825 92.0806C77.2943 90.2117 80.3215 84.2407 78.5443 78.6721L77.5355 75.511L70.2444 77.8378L69.8667 75.815L77.8869 73.2554C78.4239 73.0839 78.9979 73.3803 79.1694 73.9178Z" fill="#E8A615"/>
<path d="M74.7399 106.189L75.4251 108.336L62.7872 112.369L62.102 110.222C62.0461 110.047 62.0889 109.854 62.2148 109.72L63.0001 108.875C64.3596 107.412 64.8258 105.331 64.2181 103.427L63.4941 101.158L68.3548 99.6072L69.0788 101.876C69.6865 103.78 71.2716 105.206 73.2271 105.611L74.357 105.845C74.5373 105.881 74.684 106.014 74.7399 106.189Z" fill="#E8A615"/>
<path d="M74.7409 106.19L75.4261 108.337L74.2109 108.725L73.5257 106.578C73.4699 106.403 73.3231 106.27 73.1428 106.234L72.0129 106C70.0575 105.595 68.4723 104.169 67.8647 102.265L67.1406 99.9961L68.3559 99.6083L69.0799 101.877C69.6875 103.781 71.2727 105.207 73.2282 105.612L74.358 105.846C74.5382 105.882 74.685 106.015 74.7409 106.19Z" fill="#B7791D"/>
<path d="M69.2089 97.2455L69.659 98.6559C69.8732 99.327 69.5026 100.045 68.8318 100.26L63.485 101.966C62.8142 102.18 62.0959 101.809 61.8817 101.138L61.4316 99.7275L69.2089 97.2455Z" fill="#E8A615"/>
<path d="M68.5892 100.337L63.7285 101.889L63.9567 102.604L68.8174 101.052L68.5892 100.337Z" fill="#B7791D"/>
<path d="M77.2129 107.229L79.9291 115.74L63.4026 121.014L60.6865 112.503C60.6011 112.235 60.75 111.947 61.0173 111.861L76.5717 106.898C76.839 106.812 77.1276 106.961 77.2129 107.229Z" fill="#343B49"/>
<path d="M77.213 107.23L79.9292 115.741L78.957 116.051L76.2409 107.54C76.1555 107.273 75.8669 107.124 75.5996 107.209L76.5718 106.899C76.8391 106.813 77.1277 106.962 77.213 107.23Z" fill="#262D38"/>
<path d="M75.403 109.951L76.4894 113.355C76.5748 113.623 76.4259 113.911 76.1586 113.997L65.465 117.409C65.1976 117.495 64.909 117.346 64.8237 117.078L63.7372 113.674C63.6519 113.406 63.8008 113.118 64.0681 113.032L74.7617 109.62C75.0291 109.534 75.3176 109.683 75.403 109.951Z" fill="#E8A615"/>
<path d="M69.2063 97.2455L69.6563 98.6555C69.8704 99.3264 69.5 100.045 68.8293 100.259L67.8574 100.569C68.528 100.355 68.8985 99.6366 68.6844 98.9656L68.2344 97.5556L69.2063 97.2455Z" fill="#B7791D"/>
<path d="M59.5803 98.1219L57.1499 98.8975C50.4398 101.039 43.2606 97.3311 41.1179 90.6172L39.7987 86.4834C39.6272 85.946 39.9233 85.3719 40.4604 85.2005L48.4807 82.6409L49.1015 84.5863L42.0534 86.8356L43.0622 89.9967C44.8394 95.5653 50.7657 98.6789 56.3412 97.0095L59.5803 98.1219Z" fill="#E8A615"/>
<path d="M70.4602 73.4829L70.7707 74.4556C74.5422 86.2735 72.2675 97.5561 65.6909 99.6549C59.1143 101.754 50.7245 93.8747 46.953 82.0566L46.6426 81.084L70.4602 73.4829Z" fill="#E8A615"/>
<path d="M47.9925 84.9386L47.0206 85.2487C46.7679 84.6249 46.5292 83.9859 46.3027 83.335L47.2746 83.0248C47.5011 83.6757 47.7398 84.3147 47.9925 84.9386Z" fill="#B7791D"/>
<path d="M58.4503 98.4822L57.4784 98.7924C56.7457 98.3672 56.0149 97.8558 55.2988 97.2646C55.6474 97.199 55.992 97.1131 56.3394 97.0102C57.0348 97.5785 57.7408 98.0711 58.4503 98.4822Z" fill="#B7791D"/>
<path d="M69.2088 97.2456L69.364 97.7319C68.3854 98.8775 67.2089 99.7058 65.8479 100.14C64.4869 100.574 63.0482 100.581 61.5868 100.214L61.4316 99.7275C62.893 100.094 64.3317 100.088 65.6927 99.6538C67.0537 99.2194 68.2302 98.3912 69.2088 97.2456Z" fill="#B7791D"/>
<path d="M70.4604 73.4809L70.7708 74.4535C74.4244 85.9019 72.4041 96.8487 66.2951 99.4307C72.2244 96.898 71.5064 86.8278 67.8544 75.3843L67.544 74.4116L70.4604 73.4809Z" fill="#B7791D"/>
<path d="M71.6009 72.8518C71.708 73.1874 71.6689 73.5348 71.5207 73.8259C71.3694 74.1153 71.1091 74.3484 70.7737 74.4555L46.9561 82.0565C46.2853 82.2706 45.567 81.8996 45.3529 81.2285C45.2458 80.8929 45.2848 80.5456 45.433 80.2545C45.5843 79.965 45.8446 79.7319 46.1801 79.6249L69.9977 72.0238C70.6685 71.8097 71.3867 72.1807 71.6009 72.8518Z" fill="#E8A615"/>
<path d="M70.7708 74.4536C70.8748 74.7795 70.9731 75.1045 71.069 75.4302L47.2757 83.0235C47.1652 82.7023 47.0571 82.3805 46.9531 82.0547L70.7708 74.4536Z" fill="#B7791D"/>
<path d="M71.5989 72.8518C71.7061 73.1874 71.667 73.5347 71.5188 73.8258C71.3675 74.1152 71.1072 74.3484 70.7717 74.4554L68.0983 75.3086C68.4337 75.2016 68.694 74.9684 68.8454 74.679C68.9935 74.3879 69.0326 74.0405 68.9255 73.705C68.7113 73.0338 67.9931 72.6629 67.3223 72.877L69.9957 72.0238C70.6666 71.8097 71.3848 72.1806 71.5989 72.8518Z" fill="#B7791D"/>
<path d="M75.4051 109.95L76.4915 113.355C76.5769 113.622 76.4279 113.911 76.1606 113.996L66.5121 117.075C68.4634 116.41 74.7996 113.927 73.5486 110.007L74.7639 109.619C75.0312 109.534 75.3197 109.683 75.4051 109.95Z" fill="#B7791D"/>
<path d="M64.923 115.708L64.2881 113.718C64.253 113.609 64.3136 113.491 64.4234 113.456L68.7816 112.065C68.7816 112.065 65.4347 113.535 64.923 115.708Z" fill="#FFCC66"/>
<path d="M61.9348 114.519L61.2998 112.529C61.2647 112.419 61.3253 112.302 61.4352 112.267L65.7933 110.876C65.7933 110.876 62.4463 112.346 61.9348 114.519Z" fill="#4E5868"/>
<path d="M65.4589 98.9235C62.8195 99.7658 53.7214 96.531 48.6367 83.6611L51.524 82.7397C57.3864 98.6007 65.4589 98.9235 65.4589 98.9235Z" fill="#FFCC66"/>
<path d="M63.3811 110.036C63.3811 110.036 66.0852 106.762 65.0763 103.601L66.7836 108.95L63.3811 110.036Z" fill="#FFCC66"/>
<path d="M46.8184 79.956L47.0512 80.6853L45.8363 81.073C45.7082 80.6719 45.9291 80.2398 46.3325 80.1111L46.8184 79.956Z" fill="#FFCC66"/>
<path d="M71.7976 75.1986C71.99 75.8604 72.1656 76.5195 72.3186 77.1752L70.2437 77.8374L69.8661 75.815L71.7976 75.1986Z" fill="#B7791D"/>
<path d="M72.5288 91.7982C72.2861 92.6818 71.9908 93.51 71.6448 94.2714L70.5174 94.6312L71.0952 93.4718L71.7839 92.0815C72.0375 91.9951 72.2855 91.8999 72.5288 91.7982Z" fill="#B7791D"/>
<path d="M79.6383 109.904C79.6383 109.904 80.3829 107.564 78.7715 106.117C77.1602 104.67 75.5681 104.735 73.702 105.861C71.8364 106.988 68.3227 105.694 66.6995 107.784C66.6995 107.784 61.4738 108.27 58.8112 112.4C58.8112 112.4 53.9663 114.894 52.4621 118.863C50.9575 122.832 50.2387 127.187 55.6351 130.263C61.0313 133.339 71.4162 129.824 71.4162 129.824C71.4162 129.824 79.1301 128.174 82.8431 123.567C86.5557 118.96 88.7403 111.059 79.6383 109.904Z" fill="#FFFEFB" stroke="#020001" stroke-miterlimit="10" stroke-linecap="round" stroke-linejoin="round"/>
<path d="M71.3265 122.525C71.3265 122.525 65.6469 122.466 63.735 118.438C61.2948 113.297 66.7008 107.782 66.7008 107.782" stroke="#020001" stroke-miterlimit="10" stroke-linecap="round" stroke-linejoin="round"/>
<path d="M63.8358 128.194C63.8358 128.194 58.7279 127.284 56.9811 122.776C55.2343 118.267 57.4502 114.039 58.8137 112.398" stroke="#020001" stroke-miterlimit="10" stroke-linecap="round" stroke-linejoin="round"/>
</g>
</g>
<defs>
<filter id="filter0_d_3319_18630" x="-4" y="0" width="342" height="121" filterUnits="userSpaceOnUse" color-interpolation-filters="sRGB">
<feFlood flood-opacity="0" result="BackgroundImageFix"/>
<feColorMatrix in="SourceAlpha" type="matrix" values="0 0 0 0 0 0 0 0 0 0 0 0 0 0 0 0 0 0 127 0" result="hardAlpha"/>
<feOffset dy="4"/>
<feGaussianBlur stdDeviation="2"/>
<feComposite in2="hardAlpha" operator="out"/>
<feColorMatrix type="matrix" values="0 0 0 0 0 0 0 0 0 0 0 0 0 0 0 0 0 0 0.25 0"/>
<feBlend mode="normal" in2="BackgroundImageFix" result="effect1_dropShadow_3319_18630"/>
<feBlend mode="normal" in="SourceGraphic" in2="effect1_dropShadow_3319_18630" result="shape"/>
</filter>
<filter id="filter1_d_3319_18630" x="65.7" y="-121.3" width="396.6" height="356.6" filterUnits="userSpaceOnUse" color-interpolation-filters="sRGB">
<feFlood flood-opacity="0" result="BackgroundImageFix"/>
<feColorMatrix in="SourceAlpha" type="matrix" values="0 0 0 0 0 0 0 0 0 0 0 0 0 0 0 0 0 0 127 0" result="hardAlpha"/>
<feOffset dy="4"/>
<feGaussianBlur stdDeviation="6.9"/>
<feComposite in2="hardAlpha" operator="out"/>
<feColorMatrix type="matrix" values="0 0 0 0 0 0 0 0 0 0 0 0 0 0 0 0 0 0 0.25 0"/>
<feBlend mode="normal" in2="BackgroundImageFix" result="effect1_dropShadow_3319_18630"/>
<feBlend mode="normal" in="SourceGraphic" in2="effect1_dropShadow_3319_18630" result="shape"/>
</filter>
<filter id="filter2_d_3319_18630" x="75.5" y="-111.5" width="377" height="337" filterUnits="userSpaceOnUse" color-interpolation-filters="sRGB">
<feFlood flood-opacity="0" result="BackgroundImageFix"/>
<feColorMatrix in="SourceAlpha" type="matrix" values="0 0 0 0 0 0 0 0 0 0 0 0 0 0 0 0 0 0 127 0" result="hardAlpha"/>
<feOffset dy="4"/>
<feGaussianBlur stdDeviation="2"/>
<feComposite in2="hardAlpha" operator="out"/>
<feColorMatrix type="matrix" values="0 0 0 0 0 0 0 0 0 0 0 0 0 0 0 0 0 0 0.25 0"/>
<feBlend mode="normal" in2="BackgroundImageFix" result="effect1_dropShadow_3319_18630"/>
<feBlend mode="normal" in="SourceGraphic" in2="effect1_dropShadow_3319_18630" result="shape"/>
</filter>
<clipPath id="clip0_3319_18630">
<rect width="334" height="113" rx="15" fill="white"/>
</clipPath>
</defs>
</svg>
