<svg width="338" height="121" viewBox="0 0 338 121" fill="none" xmlns="http://www.w3.org/2000/svg">
<g filter="url(#filter0_d_3319_18650)">
<g clip-path="url(#clip0_3319_18650)">
<rect width="334" height="113" rx="15" fill="#7D0B0B"/>
<path d="M271.315 8.3084C271.224 8.28999 271.158 8.21021 271.157 8.11721C271.137 4.17845 270.677 3.48433 267.057 1.93096C266.972 1.89396 266.924 1.80266 266.942 1.71133C266.961 1.62054 267.041 1.55457 267.134 1.55374C271.072 1.53275 271.767 1.07317 273.32 -2.54645C273.357 -2.63178 273.448 -2.67966 273.539 -2.66114C273.63 -2.64272 273.696 -2.56295 273.697 -2.46995C273.718 1.46892 274.178 2.16304 277.797 3.71631C277.883 3.75331 277.93 3.8446 277.912 3.93593C277.894 4.02672 277.814 4.09269 277.721 4.09352C273.782 4.11397 273.088 4.57366 271.534 8.19371C271.497 8.27904 271.406 8.32681 271.315 8.3084Z" fill="#BF1920"/>
<path d="M273.5 -2.4683C273.521 1.53698 274.038 2.31765 277.719 3.89736C273.713 3.91839 272.933 4.43581 271.353 8.11646C271.332 4.11119 270.815 3.33051 267.134 1.7508C271.139 1.72977 271.92 1.21235 273.5 -2.4683ZM273.578 -2.85308C273.395 -2.89001 273.212 -2.79383 273.139 -2.62305C271.614 0.928622 270.996 1.33791 267.132 1.35823C266.946 1.35935 266.786 1.49064 266.749 1.67276C266.712 1.85489 266.808 2.03812 266.979 2.11158C270.53 3.63579 270.94 4.25331 270.96 8.11843C270.962 8.30433 271.093 8.46431 271.275 8.50124C271.457 8.53817 271.64 8.44199 271.714 8.27121C273.238 4.71943 273.856 4.31015 277.721 4.28993C277.906 4.28881 278.066 4.15752 278.103 3.9754C278.14 3.79328 278.044 3.61004 277.873 3.53658C274.322 2.01237 273.912 1.39474 273.892 -2.47027C273.891 -2.65617 273.76 -2.81614 273.578 -2.85308Z" fill="#020001"/>
<path d="M247.786 23.4803C245.579 23.4918 245.149 23.777 244.278 25.805C244.267 23.5982 243.981 23.1679 241.954 22.2975C244.16 22.2859 244.591 22.0007 245.461 19.9727C245.473 22.1795 245.758 22.6099 247.786 23.4803Z" fill="#020001"/>
<path d="M207.205 69.7962C207.182 69.7916 207.16 69.7837 207.138 69.7725L202.133 67.2479C191.283 61.7752 190.732 56.9754 190.524 55.1688C190.274 52.9839 190.888 50.8321 192.256 49.1098C193.624 47.3875 195.58 46.3011 197.765 46.0504C198.63 45.9512 199.497 45.9876 200.342 46.159C201.91 46.4768 203.38 47.2678 204.518 48.4012C205.845 46.3026 208.072 44.8952 210.545 44.6113C211.409 44.5121 212.276 44.5489 213.122 44.7203C216.626 45.431 219.255 48.2969 219.663 51.8524C220.064 55.3473 218.84 58.9116 211.508 65.8695L207.442 69.7279C207.378 69.789 207.289 69.8132 207.205 69.7962Z" fill="#BF1920"/>
<path d="M213.07 44.9847C216.36 45.652 218.995 48.3688 219.399 51.8851C219.791 55.2983 218.577 58.7965 211.326 65.678L207.259 69.5363L202.255 67.0118C191.533 61.6039 190.994 56.9083 190.791 55.1405C190.289 50.7699 193.426 46.8199 197.797 46.3182C198.651 46.2203 199.49 46.261 200.29 46.4233C201.951 46.7601 203.445 47.619 204.569 48.8395C205.785 46.7162 207.96 45.1795 210.577 44.8792C211.431 44.7812 212.27 44.8224 213.07 44.9847ZM213.176 44.4605C212.303 44.2834 211.408 44.2459 210.515 44.3479C208.071 44.6286 205.858 45.973 204.472 47.9882C203.333 46.939 201.908 46.2061 200.396 45.8995C199.523 45.7225 198.628 45.6844 197.735 45.7869C193.078 46.3212 189.724 50.5451 190.259 55.2015C190.471 57.0477 191.034 61.9517 202.014 67.489L207.019 70.0136C207.062 70.0353 207.107 70.0507 207.153 70.06C207.321 70.0941 207.499 70.0458 207.628 69.9238L211.694 66.0655C219.106 59.0311 220.34 55.4008 219.93 51.8235C219.508 48.1533 216.794 45.1943 213.176 44.4605Z" fill="#020001"/>
<path d="M228.989 56.6765C228.981 56.6731 228.147 56.3329 226.081 55.7779C224.482 55.3477 223.148 54.4037 222.762 53.4281C222.579 52.9656 222.612 52.512 222.857 52.1161C223.662 50.8186 225.041 50.9516 225.1 50.9578C225.108 50.9583 225.116 50.96 225.124 50.9616C225.155 50.9678 225.183 50.9786 225.21 50.9947L229.957 53.8738C230.062 53.9379 230.11 54.0647 230.073 54.1821L229.347 56.5082C229.324 56.5796 229.273 56.639 229.205 56.6708C229.152 56.6955 229.094 56.7018 229.038 56.6904C229.022 56.6881 229.005 56.6831 228.989 56.6765Z" fill="#B27709"/>
<path d="M225.068 51.2253L229.816 54.1044L229.089 56.431C229.089 56.431 228.264 56.0892 226.148 55.5213C224.033 54.9534 222.357 53.4285 223.082 52.2589C223.807 51.0888 225.068 51.2253 225.068 51.2253ZM225.175 50.7006C225.159 50.6973 225.142 50.6945 225.126 50.6929C225.061 50.6859 223.519 50.5376 222.627 51.976C222.335 52.4463 222.295 52.9828 222.511 53.5272C222.926 54.5775 224.332 55.5863 226.01 56.0367C228.051 56.5852 228.876 56.9213 228.885 56.9247C228.916 56.9379 228.949 56.9473 228.982 56.9539C229.094 56.9766 229.21 56.9632 229.316 56.9142C229.451 56.8505 229.554 56.7325 229.599 56.5897L230.326 54.2631C230.399 54.0281 230.303 53.774 230.092 53.6463L225.345 50.7672C225.293 50.7358 225.235 50.7128 225.175 50.7006Z" fill="#020001"/>
<path d="M230.514 55.2955C230.495 55.2916 230.476 55.2861 230.459 55.278C230.443 55.2708 230.036 55.0927 227.712 54.2028C225.365 53.3037 222.117 50.9802 222.386 49.1318C222.601 47.6495 223.717 47.4116 224.276 47.4925C224.281 47.4929 224.286 47.4939 224.291 47.4949C224.317 47.5001 224.343 47.5093 224.366 47.5219L233.109 52.291C233.211 52.3473 233.266 52.4641 233.243 52.5787L232.708 55.2159C232.681 55.3478 232.561 55.4389 232.428 55.4297L230.549 55.2992C230.537 55.2995 230.526 55.2978 230.514 55.2955Z" fill="#B27709"/>
<path d="M224.238 47.7588L232.981 52.5285L232.446 55.1657L230.568 55.0352C230.568 55.0352 230.184 54.8646 227.809 53.9547C225.433 53.0448 222.418 50.7808 222.651 49.1722C222.884 47.563 224.238 47.7588 224.238 47.7588ZM224.345 47.2346C224.335 47.2327 224.325 47.2312 224.315 47.2297C223.791 47.1539 222.376 47.3412 222.121 49.0957C221.83 51.1071 225.125 53.5005 227.617 54.4548C229.919 55.3363 230.334 55.5179 230.351 55.5252C230.386 55.5408 230.423 55.5529 230.461 55.5605C230.484 55.5651 230.507 55.5681 230.53 55.5699L232.408 55.6999C232.676 55.7188 232.916 55.5357 232.969 55.2725L233.504 52.6352C233.551 52.405 233.442 52.1714 233.236 52.0593L224.494 47.2897C224.447 47.2639 224.397 47.2453 224.345 47.2346Z" fill="#020001"/>
<path d="M233.007 55.5504C232.938 55.5363 232.877 55.4953 232.838 55.4361L230.87 52.4675C230.22 52.2597 226.463 51.0252 224.617 49.679C223.268 48.6954 223.091 47.2924 223.351 46.3896C223.534 45.75 223.924 45.3332 224.367 45.3022C224.524 45.2907 224.723 45.3103 224.976 45.3616C226.098 45.589 227.917 46.3765 227.994 46.4102C228.266 46.5661 234.02 49.9083 234.56 50.2799C235.127 50.67 236.516 54.7079 236.928 55.9366C236.959 56.0272 236.939 56.1271 236.875 56.1987C236.812 56.2702 236.715 56.3024 236.622 56.2834L233.007 55.5504Z" fill="#B27709"/>
<path d="M224.923 45.6254C226.03 45.8499 227.887 46.6575 227.887 46.6575C227.887 46.6575 233.871 50.1317 234.408 50.5018C234.945 50.8718 236.675 56.0231 236.675 56.0231L233.06 55.2901L231.041 52.2428C231.041 52.2428 226.744 50.9005 224.774 49.4646C222.804 48.0287 223.526 45.6318 224.386 45.5706C224.525 45.5611 224.71 45.5824 224.923 45.6254ZM225.029 45.1012C224.752 45.0451 224.53 45.0242 224.348 45.0369C223.79 45.0766 223.309 45.5676 223.093 46.3178C222.81 47.3035 222.999 48.8322 224.459 49.8971C226.266 51.2137 229.841 52.417 230.699 52.6951L232.615 55.5857C232.693 55.704 232.816 55.7862 232.954 55.8144L236.569 56.5474C236.756 56.5854 236.95 56.5205 237.076 56.3773C237.202 56.2342 237.243 56.0342 237.182 55.8531C236.367 53.426 235.278 50.4509 234.712 50.0615C234.164 49.6843 228.401 46.3375 228.156 46.195C228.138 46.1845 228.119 46.1752 228.101 46.1669C228.023 46.1331 226.178 45.3342 225.029 45.1012Z" fill="#020001"/>
<path d="M270.06 58.0064C269.971 57.9884 269.895 57.9256 269.862 57.8356C267.14 50.3524 273.738 47.0706 273.806 47.0381C273.859 47.0129 273.918 47.0052 273.975 47.0167C273.984 47.0186 273.993 47.021 274.002 47.0234C274.088 47.0505 276.119 47.7032 276.264 48.9843C276.353 49.7778 275.706 50.5849 274.339 51.3848C270.324 53.7332 270.38 57.6965 270.381 57.7367C270.384 57.8679 270.292 57.982 270.163 58.0064C270.128 58.0135 270.093 58.0132 270.06 58.0064Z" fill="#0C0C0C"/>
<path d="M273.921 47.2803C273.921 47.2803 278.413 48.6931 274.203 51.1557C269.994 53.6184 270.113 57.7458 270.113 57.7458C267.442 50.4029 273.921 47.2803 273.921 47.2803ZM274.027 46.7561C273.913 46.733 273.795 46.7477 273.689 46.7982C273.619 46.8315 266.806 50.2199 269.61 57.9279C269.675 58.1077 269.829 58.2334 270.006 58.2694C270.073 58.2829 270.143 58.2842 270.213 58.2707C270.471 58.2218 270.654 57.9924 270.647 57.7298C270.643 57.5755 270.604 53.88 274.473 51.6172C275.96 50.7473 276.632 49.8765 276.529 48.9558C276.367 47.5283 274.315 46.8431 274.082 46.7699C274.063 46.7645 274.045 46.7597 274.027 46.7561Z" fill="#020001"/>
<path d="M259.132 201.214C254.737 200.322 252.773 198.014 252.692 197.917C252.652 197.87 252.631 197.81 252.63 197.748C252.627 197.542 252.466 176.826 255.909 156.756C259.351 136.687 266.565 116.86 266.637 116.662C266.667 116.58 266.736 116.518 266.821 116.496C267.963 116.199 294.853 109.246 301.547 110.603C302.378 110.771 302.884 111.062 303.096 111.489C304.94 115.22 306.596 149.131 306.665 150.572L299.996 201.453C299.987 201.519 299.953 201.58 299.902 201.623C299.853 201.664 294.924 205.741 288.319 204.751C287.95 204.696 287.595 204.633 287.251 204.563L287.25 204.563C281.445 203.386 279.245 200.347 279.155 200.217C279.122 200.172 279.105 200.116 279.106 200.059L279.737 158.211L272.341 199.325C272.328 199.397 272.286 199.46 272.225 199.5C272.092 199.589 268.875 201.669 262.303 201.551C261.206 201.532 260.139 201.418 259.132 201.214Z" fill="#BF1920"/>
<path d="M301.494 110.867C302.206 111.011 302.679 111.252 302.856 111.61C304.697 115.333 306.398 150.587 306.398 150.587L299.73 201.42C299.73 201.42 294.921 205.472 288.359 204.488C287.994 204.433 287.643 204.371 287.304 204.302C281.536 203.132 279.374 200.065 279.374 200.065L280.055 154.94L272.078 199.279C272.078 199.279 268.873 201.403 262.309 201.286C261.154 201.265 260.115 201.142 259.186 200.954C254.831 200.071 252.897 197.748 252.897 197.748C252.897 197.748 252.694 177.081 256.172 156.803C259.651 136.525 266.888 116.756 266.888 116.756C266.888 116.756 294.783 109.506 301.494 110.867ZM301.6 110.343C294.846 108.973 267.897 115.941 266.753 116.239C266.584 116.283 266.446 116.408 266.386 116.573C266.313 116.771 259.092 136.619 255.645 156.713C252.198 176.806 252.36 197.546 252.362 197.753C252.364 197.877 252.407 197.995 252.486 198.09C252.57 198.191 254.592 200.569 259.079 201.479C260.102 201.686 261.185 201.801 262.3 201.821C268.954 201.941 272.237 199.816 272.374 199.726C272.496 199.645 272.579 199.518 272.605 199.375L279.421 161.486L278.839 200.059C278.837 200.172 278.871 200.282 278.937 200.375C279.03 200.507 281.29 203.63 287.198 204.828C287.551 204.9 287.915 204.964 288.28 205.018C295.004 206.026 299.872 202.002 300.076 201.83C300.178 201.744 300.244 201.623 300.262 201.491L306.93 150.658C306.934 150.626 306.935 150.595 306.934 150.563C306.864 149.119 305.206 115.154 303.337 111.374C303.085 110.865 302.517 110.529 301.6 110.343Z" fill="#020001"/>
<path d="M235.39 90.909C234.327 90.6934 233.422 90.0717 232.7 89.0611C231.504 87.3854 231.584 85.1156 232.939 82.3155C235.651 76.7101 242.588 70.8508 244.515 70.7554C244.759 70.7435 244.993 70.7601 245.21 70.8041C247.37 71.2422 247.387 74.1608 247.386 74.285C247.351 74.6373 246.546 82.2943 246.215 83.7436C245.927 85.0097 239.968 91.8374 235.39 90.909Z" fill="#020001"/>
<path d="M245.157 71.0681C247.127 71.4676 247.12 74.2861 247.12 74.2861C247.12 74.2861 246.286 82.2356 245.956 83.686C245.683 84.8803 239.8 91.5322 235.443 90.6488C234.508 90.4591 233.642 89.9218 232.918 88.9079C228.824 83.1736 241.928 71.1536 244.528 71.025C244.757 71.0135 244.966 71.0294 245.157 71.0681ZM245.263 70.5439C245.024 70.4953 244.768 70.4771 244.502 70.4907C242.316 70.5988 235.292 76.841 232.699 82.201C231.298 85.0959 231.225 87.4573 232.483 89.2185C233.245 90.2862 234.205 90.9435 235.337 91.173C240.049 92.1286 246.18 85.1072 246.477 83.8053C246.811 82.3398 247.618 74.6679 247.652 74.3417L247.655 74.2872C247.654 74.1549 247.636 71.025 245.263 70.5439Z" fill="#020001"/>
<path d="M223.487 61.4352C223.342 61.4059 223.2 61.3669 223.059 61.3181L222.886 61.0062L225.82 48.075L226.233 47.914C226.421 48.0439 230.861 51.1285 231.681 53.3694C232.132 54.6024 230.973 56.7383 229.623 58.3079C227.619 60.6388 225.325 61.808 223.487 61.4352Z" fill="#020001"/>
<path d="M226.08 48.1342C226.08 48.1342 230.629 51.2747 231.429 53.4614C232.203 55.574 227.31 61.9372 223.54 61.1727C223.407 61.1458 223.276 61.1102 223.147 61.0654L226.08 48.1342ZM226.384 47.6939L225.558 48.016L222.625 60.9473L222.972 61.5712C223.121 61.6229 223.277 61.6658 223.434 61.6975C225.369 62.09 227.759 60.8884 229.826 58.4826C231.124 56.9729 232.454 54.7039 231.932 53.2781C231.082 50.9576 226.575 47.8261 226.384 47.6939Z" fill="#020001"/>
<path d="M223.098 61.3248C221.38 60.9764 220.636 57.735 221.405 53.9455C222.173 50.156 224.121 47.4604 225.839 47.8088C227.557 48.1572 228.301 51.3987 227.532 55.1881C226.764 58.9781 224.816 61.6732 223.098 61.3248Z" fill="#ADADAB"/>
<path d="M225.786 48.0727C227.333 48.3865 227.998 51.5489 227.27 55.1367C226.542 58.7246 224.698 61.3783 223.151 61.0645C221.604 60.7507 220.939 57.5878 221.667 54.0004C222.394 50.4131 224.239 47.7589 225.786 48.0727ZM225.892 47.5485C223.996 47.164 221.954 49.8923 221.143 53.8941C220.331 57.8965 221.149 61.2042 223.045 61.5887C224.941 61.9732 226.983 59.2449 227.794 55.2431C228.606 51.2412 227.789 47.9331 225.892 47.5485Z" fill="#020001"/>
<path d="M241.144 89.7632C240.714 89.676 240.271 89.4804 239.828 89.1817C234.99 85.9236 235.227 72.93 235.282 71.1705C230.87 68.9962 230.517 60.6615 230.489 59.3482C228.114 58.0762 227.486 56.5152 227.381 55.4203C227.268 54.2462 227.723 53.2052 228.208 52.8221C228.391 52.6779 228.738 52.5632 229.93 52.805C231.342 53.0914 233.315 53.752 234.451 54.1517L232.982 52.3206C232.341 52.0111 227.038 49.4119 226.163 47.6365C225.615 46.525 225.864 45.3856 226.354 44.7496C226.722 44.2727 227.234 44.0469 227.725 44.1465C227.879 44.1777 228.03 44.2397 228.171 44.331C228.753 44.7043 230.945 45.5158 233.066 46.3002C235.115 47.0585 237.051 47.7752 237.763 48.1716C238.864 48.7849 240.749 52.0985 242.584 55.4404C242.957 56.1192 243.252 56.6549 243.419 56.9268C244.273 58.3177 244.816 62.2752 244.916 63.5592C245.034 65.0532 245.728 72.4472 245.778 72.9693L246.889 76.4772C247.36 79.2486 246.329 86.3618 243.702 88.9018C242.92 89.6586 242.059 89.9481 241.144 89.7626C241.145 89.7633 241.144 89.7632 241.144 89.7632Z" fill="#B27709"/>
<path d="M227.673 44.4111C227.791 44.4351 227.911 44.4835 228.027 44.559C229.192 45.3072 236.187 47.6036 237.634 48.4089C239.08 49.2141 242.422 55.8167 243.192 57.07C243.962 58.3233 244.528 62.0222 244.65 63.5836C244.773 65.1444 245.515 73.0263 245.515 73.0263L246.634 76.5618C247.208 79.9566 245.358 90.3484 241.196 89.5044C240.81 89.426 240.402 89.25 239.976 88.9625C234.959 85.5844 235.555 71.0065 235.555 71.0065C230.803 68.8782 230.753 59.1887 230.753 59.1887C226.426 56.9563 227.619 53.6304 228.373 53.0351C228.572 52.8785 229.142 52.9216 229.876 53.0704C231.928 53.4866 235.254 54.7294 235.254 54.7294L233.152 52.1088C233.152 52.1088 227.283 49.3094 226.403 47.5216C225.611 45.9133 226.615 44.1966 227.673 44.4111ZM227.779 43.8869C227.186 43.7666 226.575 44.0292 226.143 44.5888C225.603 45.2905 225.324 46.5428 225.923 47.7574C226.817 49.5721 231.827 52.0623 232.812 52.5382L233.664 53.6011C232.537 53.2219 231.091 52.7705 229.983 52.5457C228.935 52.3333 228.373 52.3532 228.042 52.6151C227.501 53.0422 226.992 54.1808 227.114 55.449C227.224 56.5875 227.859 58.1979 230.225 59.512C230.278 61.2287 230.753 69.0565 235.01 71.3336C234.95 73.6481 234.858 86.1597 239.678 89.4057C240.151 89.7245 240.626 89.9334 241.091 90.0276C242.084 90.2291 243.052 89.9071 243.89 89.0958C246.574 86.4988 247.632 79.2539 247.162 76.4714C247.158 76.4469 247.153 76.4227 247.145 76.3992L246.043 72.9184C245.975 72.2025 245.299 65.0103 245.184 63.541C245.082 62.2403 244.529 58.2233 243.648 56.7894C243.484 56.5227 243.191 55.9883 242.819 55.3119C240.964 51.937 239.056 48.5877 237.894 47.9406C237.164 47.5343 235.219 46.8141 233.16 46.0523C231.151 45.3083 228.873 44.4656 228.316 44.1078C228.146 43.999 227.965 43.9247 227.779 43.8869Z" fill="#020001"/>
<path d="M250.987 101.361C250.656 101.294 250.322 101.22 249.987 101.139C238.367 98.3409 232.743 89.1382 232.688 89.0454L232.985 88.6493C233.138 88.6893 233.288 88.7236 233.436 88.7537C236.196 89.3134 238.175 88.1551 242.257 83.5889C246.488 78.8569 246.849 74.313 246.852 74.2675L247.386 74.2678C247.393 74.3716 248.196 84.6582 256.243 86.2901C256.243 86.2902 256.356 86.3125 256.356 86.3125C262.967 87.5772 266.17 82.6829 268.995 78.3642C269.705 77.2788 270.376 76.2536 271.077 75.3571C274.587 70.8705 278.929 68.2886 278.973 68.263L279.372 68.5387C279.22 69.4295 275.623 90.4003 273.405 94.3065C271.344 97.9341 262.653 103.727 250.987 101.361Z" fill="#FFFEFB"/>
<path d="M279.107 68.4944C279.107 68.4944 275.391 90.2649 273.17 94.175C271.013 97.9742 262.216 103.366 251.039 101.099C250.711 101.033 250.381 100.959 250.049 100.879C238.404 98.0754 232.917 88.9083 232.917 88.9083C233.075 88.9493 233.229 88.9851 233.382 89.0162C236.244 89.5965 238.327 88.3861 242.456 83.7675C246.806 78.9022 247.118 74.2865 247.118 74.2865C247.118 74.2865 247.843 84.8598 256.189 86.5525C256.227 86.5602 256.267 86.5682 256.305 86.5754C264.759 88.1932 267.768 80.0204 271.286 75.522C274.805 71.0237 279.107 68.4944 279.107 68.4944ZM278.836 68.0332C278.656 68.1385 274.406 70.6665 270.865 75.193C270.157 76.0988 269.484 77.1285 268.77 78.2183C265.991 82.467 262.84 87.2818 256.405 86.0506L256.296 86.029C248.452 84.4383 247.659 74.3518 247.652 74.2502L246.585 74.2509C246.582 74.2947 246.219 78.7572 242.057 83.4115C238.054 87.8886 236.132 89.0281 233.489 88.492C233.345 88.4628 233.2 88.4289 233.052 88.3904L232.458 89.1827C232.687 89.565 238.196 98.575 249.925 101.399C250.259 101.48 250.599 101.555 250.934 101.623C262.735 104.016 271.543 98.1246 273.636 94.4388C275.877 90.4923 279.482 69.4763 279.634 68.5839L278.836 68.0332Z" fill="#020001"/>
<path d="M233.895 53.9053C233.895 53.9053 238.824 55.9964 239.843 56.4244C240.863 56.8522 242.544 58.167 243.43 60.7802" stroke="#020001" stroke-width="0.9702" stroke-miterlimit="10" stroke-linecap="round" stroke-linejoin="round"/>
<path d="M230.279 59.2109L235.977 61.5277C235.977 61.5277 234.901 69.4521 238.997 70.6368" stroke="#020001" stroke-width="0.9702" stroke-miterlimit="10" stroke-linecap="round" stroke-linejoin="round"/>
<path d="M317.53 61.5657C312.659 60.5778 309.953 56.562 310.47 51.0865C311.523 39.9182 308.533 17.4285 308.312 15.7886C307.836 15.3169 305.537 12.6292 308.185 7.05141C310.279 2.64283 315.911 -1.41678 323.329 0.0877707C325.265 0.480347 327.211 1.23956 329.114 2.34396C338.954 8.05759 338.681 16.4969 337.382 26.13C336.529 32.4546 332.387 36.8674 329.059 40.413C326.89 42.7229 325.018 44.7176 324.907 46.4748C324.839 47.5643 325.27 48.2345 326.154 48.4139C327.275 48.6411 328.892 48.0588 330.088 46.9976C330.702 46.4526 331.714 45.3137 331.593 43.8098C331.541 43.1772 331.651 42.7362 331.917 42.4999C332.085 42.3507 332.311 42.295 332.55 42.3437C333.284 42.4924 334.091 43.5316 334.559 44.9295C335.112 46.5852 335.901 50.9983 331.283 56.2092C327.565 60.4025 322.167 62.5059 317.53 61.5657Z" fill="#0C0C0C"/>
<path d="M323.275 0.349973C325.108 0.721617 327.022 1.43954 328.978 2.57555C338.303 7.98986 338.533 15.5716 337.115 26.0947C335.696 36.6178 324.925 41.9055 324.638 46.4583C324.554 47.8061 325.182 48.4905 326.099 48.6764C328.28 49.1188 332.096 46.747 331.857 43.7889C331.783 42.88 332.074 42.5208 332.495 42.6062C334.021 42.9156 337.259 49.0616 331.081 56.0324C327.154 60.4635 321.814 62.1634 317.582 61.3053C313.32 60.441 310.181 56.9844 310.735 51.1129C311.839 39.4114 308.562 15.6608 308.562 15.6608C308.562 15.6608 305.606 13.1039 308.425 7.16733C310.652 2.47523 316.372 -1.04937 323.275 0.349973ZM323.383 -0.174022L323.381 -0.174239C315.821 -1.70696 310.078 2.43767 307.942 6.9372C305.332 12.4349 307.434 15.2463 308.057 15.9116C308.353 18.1211 311.238 40.0879 310.203 51.0624C309.673 56.6861 312.46 60.8117 317.476 61.8291C322.205 62.7879 327.702 60.6518 331.482 56.3872C336.193 51.0718 335.379 46.5451 334.811 44.8454C334.314 43.3594 333.426 42.2493 332.602 42.0821C332.277 42.0163 331.97 42.0936 331.737 42.3001C331.405 42.5955 331.266 43.1109 331.324 43.8321C331.436 45.2205 330.485 46.2863 329.908 46.7983C328.789 47.7912 327.231 48.3609 326.205 48.1528C325.449 47.9994 325.111 47.4566 325.172 46.4928C325.277 44.8318 327.119 42.8697 329.252 40.5976C332.606 37.0243 336.781 32.5768 337.645 26.1674C338.957 16.4368 339.23 7.91071 329.247 2.11418C327.319 0.99338 325.346 0.224144 323.383 -0.174022Z" fill="#020001"/>
<path d="M331.862 43.7891C332.202 47.9918 324.357 51.0111 324.644 46.459C324.734 45.0335 325.852 43.5357 327.389 41.828C324.566 41.8284 321.738 40.4204 321.887 37.8669C322.441 27.0621 319.947 17.8224 318.609 8.27179C317.787 5.22836 319.427 1.73713 322.11 0.162195C315.736 -0.638663 310.531 2.74446 308.43 7.16795C305.611 13.1045 308.567 15.6614 308.567 15.6614C308.567 15.6614 311.844 39.4125 310.74 51.1135C309.636 62.8151 323.203 64.9273 331.086 56.033C338.968 47.1387 331.522 39.5869 331.862 43.7891Z" fill="#020001"/>
<path d="M313.453 25.6825C313.425 25.6769 313.398 25.6669 313.374 25.653C312.967 25.4214 303.448 19.9407 305.271 16.1957C305.286 16.1661 305.306 16.1392 305.33 16.1165C305.365 16.0837 306.228 15.3038 308.925 14.4188C308.963 14.4068 309.004 14.4028 309.043 14.408C309.043 14.408 309.081 14.4127 309.152 14.4272C309.641 14.5263 312.192 15.1962 314.414 18.6621C316.879 22.5051 316.197 24.2305 316.167 24.302C316.143 24.3601 316.098 24.4078 316.041 24.4368L313.626 25.6597C313.572 25.687 313.51 25.6942 313.453 25.6825Z" fill="#BF1920"/>
<path d="M309.097 14.6901C309.592 14.7905 312.028 15.4404 314.187 18.8073C316.603 22.5759 315.919 24.1987 315.919 24.1987L313.503 25.4216C313.503 25.4216 303.775 19.8764 305.509 16.3137C305.509 16.3137 306.333 15.5513 309.006 14.6745C309.006 14.6745 309.038 14.6781 309.097 14.6901ZM309.204 14.1659C309.121 14.1491 309.076 14.1435 309.076 14.1435C308.999 14.1338 308.914 14.141 308.84 14.1658C306.133 15.0534 305.239 15.8347 305.145 15.9209C305.097 15.9662 305.057 16.02 305.028 16.0794C303.129 19.9805 312.198 25.2935 313.238 25.886C313.288 25.9147 313.342 25.9346 313.397 25.9457C313.513 25.9692 313.636 25.9537 313.745 25.8987L316.16 24.6758C316.273 24.6188 316.362 24.5232 316.411 24.4066C316.492 24.2137 317.133 22.4121 314.637 18.5187C312.357 14.9624 309.711 14.2688 309.204 14.1659Z" fill="#020001"/>
<path d="M270.629 44.6198C269.369 44.3643 268.222 43.7231 267.218 42.7149C266.073 41.5639 265.484 39.2637 265.603 36.4037C265.817 31.2548 268.515 23.1587 275.418 17.284C281.591 12.031 290.319 9.59811 297.655 11.0858C302.569 12.0825 306.366 14.7272 308.638 18.7366C309.465 19.2081 317.215 23.8844 317.898 33.6607C318.437 41.3809 316.037 46.8713 313.612 49.4352C312.384 50.7319 311.063 51.4081 309.791 51.3898C308.616 51.3731 304.926 50.7374 298.826 49.5002C288.897 47.4867 275.669 44.5047 274.456 44.2306C274.072 44.4008 272.524 45.004 270.629 44.6198Z" fill="#0C0C0C"/>
<path d="M297.6 11.3481C302.124 12.265 306.069 14.7036 308.441 18.9335C308.441 18.9335 316.914 23.4324 317.63 33.6794C318.346 43.9259 313.723 51.1788 309.794 51.1225C308.484 51.1039 304.117 50.3005 298.878 49.2379C288.398 47.1126 274.425 43.9497 274.425 43.9497C274.425 43.9497 272.76 44.7795 270.68 44.3578C269.64 44.1469 268.497 43.6236 267.406 42.5264C264.133 39.2361 265.664 25.9345 275.59 17.4878C281.691 12.2951 290.381 9.88468 297.6 11.3481ZM297.707 10.8241L297.706 10.8239C290.293 9.32112 281.476 11.777 275.243 17.0808C268.282 23.0044 265.56 30.9406 265.334 36.3929C265.21 39.3702 265.811 41.683 267.026 42.9039C268.067 43.9505 269.26 44.6162 270.574 44.8826C272.423 45.2577 273.963 44.7264 274.479 44.5111C276.121 44.8818 289.032 47.7876 298.771 49.7627C304.974 51.0206 308.577 51.6405 309.786 51.6577C311.135 51.677 312.525 50.9719 313.805 49.6189C316.269 47.0135 318.709 41.4484 318.163 33.6419C317.487 23.9587 309.967 19.2042 308.834 18.5417C306.517 14.4979 302.673 11.8312 297.707 10.8241Z" fill="#020001"/>
<path d="M289.635 74.7383C288.786 74.566 287.935 74.2522 287.106 73.8062C285.075 72.7124 283.907 71.3502 283.634 69.7583C283.218 67.3304 285.039 65.2921 285.116 65.2066C285.14 65.1805 285.168 65.1597 285.2 65.1447L288.474 63.5901L289.443 58.8111C289.466 58.696 289.562 58.6097 289.678 58.5984L300.309 57.5381C300.336 57.5351 300.363 57.5373 300.389 57.5425C300.439 57.5527 300.486 57.5768 300.523 57.6136C300.579 57.6689 300.608 57.7463 300.602 57.8256L300.094 64.3965C300.23 64.8051 300.968 67.2392 299.991 69.3225C299.164 71.0802 295.013 75.8288 289.635 74.7383Z" fill="#B27709"/>
<path d="M300.335 57.8069L299.822 64.4333C299.822 64.4333 300.761 67.052 299.748 69.2109C298.87 71.081 294.835 75.5233 289.689 74.4797C288.894 74.3186 288.073 74.0266 287.233 73.5744C280.954 70.1922 285.315 65.3898 285.315 65.3898L288.709 63.778L289.704 58.8677L300.335 57.8069ZM300.442 57.2827C300.39 57.2722 300.336 57.2693 300.282 57.2746L289.652 58.3349C289.418 58.3584 289.227 58.5313 289.181 58.761L288.238 63.4086L285.086 64.9057C285.023 64.9357 284.966 64.9776 284.919 65.0294C284.838 65.1187 282.933 67.2514 283.371 69.8064C283.659 71.4835 284.873 72.9096 286.98 74.0446C287.832 74.5032 288.707 74.8259 289.582 75.0034C295.183 76.1392 299.348 71.3214 300.232 69.438C301.214 67.3438 300.541 64.9224 300.364 64.3665L300.869 57.8482C300.881 57.6903 300.823 57.535 300.709 57.4243C300.635 57.3512 300.542 57.303 300.442 57.2827Z" fill="#020001"/>
<path d="M301.854 34.35C292.601 30.3552 284.251 21.9178 287.239 11.6539C283.025 12.6526 278.92 14.6537 275.588 17.4895C265.662 25.9362 264.131 39.2379 267.404 42.5281C270.677 45.8183 274.422 43.9514 274.422 43.9514C274.422 43.9514 305.862 51.0679 309.791 51.1242C313.696 51.1801 318.284 44.0152 317.637 33.8677C312.964 36.234 307.276 36.423 301.854 34.35Z" fill="#020001"/>
<path d="M288.739 63.6384C289.225 63.6729 289.714 63.6994 290.204 63.7128C293.726 63.8098 297.035 63.4389 299.973 62.4959L300.336 57.8072L289.706 58.8674L288.738 63.6382L288.739 63.6384Z" fill="#020001"/>
<path d="M276.718 122.677C272.598 121.841 269.221 119.906 266.682 116.925C266.623 116.855 266.604 116.76 266.63 116.673C269.755 106.439 279.997 73.0071 280.593 72.469C281.003 72.0988 284.041 67.3291 285.983 64.2131C286.041 64.1192 286.152 64.0707 286.26 64.0921C286.261 64.0923 286.262 64.0924 286.263 64.0926C286.37 64.1143 286.453 64.1993 286.473 64.3069L288.295 74.3488L300.934 66.2025C300.994 66.164 301.065 66.1515 301.132 66.1651C301.165 66.1716 301.195 66.1841 301.224 66.2023C301.313 66.2591 301.359 66.3625 301.344 66.4668L293.201 120.93C293.187 121.026 293.123 121.106 293.033 121.14C292.952 121.173 284.731 124.302 276.718 122.677Z" fill="#BF1920"/>
<path d="M301.08 66.4291L292.937 120.893C292.937 120.893 284.799 124.044 276.771 122.416C273.216 121.695 269.682 120.037 266.886 116.752C266.886 116.752 280.185 73.1989 280.772 72.6692C281.36 72.1396 286.211 64.3561 286.211 64.3561L288.104 74.7924L301.08 66.4291ZM301.186 65.9049C301.051 65.8776 300.909 65.9028 300.79 65.9799L288.487 73.9091L286.737 64.2614C286.698 64.0459 286.531 63.876 286.317 63.8325C286.315 63.832 286.313 63.8317 286.311 63.8313C286.094 63.7895 285.873 63.886 285.756 64.0739C283.917 67.0245 280.84 71.8598 280.411 72.2747C280.213 72.4539 279.938 72.7019 273.098 94.7515C269.738 105.582 266.408 116.488 266.374 116.597C266.321 116.771 266.36 116.961 266.479 117.1C269.057 120.127 272.484 122.093 276.665 122.941C284.753 124.581 292.792 121.523 293.13 121.392C293.309 121.323 293.437 121.163 293.466 120.973L301.609 66.5088C301.64 66.3013 301.547 66.0945 301.37 65.9805C301.313 65.943 301.25 65.9179 301.186 65.9049Z" fill="#020001"/>
<path d="M286.006 59.5635C278.123 57.9648 272.935 53.8721 272.788 49.1374C272.609 43.3813 276.6 39.9909 277.359 39.3989C276.942 33.1291 280.026 26.3427 280.057 26.2748C282.373 21.3503 290.231 14.9661 299.744 16.8953C301.228 17.1962 302.711 17.695 304.153 18.3779C315.488 23.7447 316.048 39.3717 312.857 48.2435C309.933 56.3761 302.642 60.5162 291.773 60.2165C289.816 60.1623 287.876 59.9433 286.007 59.5642L286.006 59.5635Z" fill="#B27709"/>
<path d="M299.689 17.1583C301.108 17.4461 302.563 17.923 304.037 18.6207C315.115 23.8663 315.791 39.2911 312.604 48.1541C309.417 57.0171 301.38 60.2149 291.778 59.95C289.82 59.8961 287.89 59.6741 286.056 59.3021C278.898 57.8505 273.207 54.1104 273.053 49.13C272.859 42.8729 277.634 39.5257 277.634 39.5257C277.159 33.212 280.298 26.3874 280.298 26.3874C282.64 21.4085 290.436 15.2819 299.689 17.1583ZM299.795 16.6341C290.141 14.6763 282.165 21.1609 279.814 26.1598C279.683 26.4433 276.713 32.9832 277.081 39.2734C276.065 40.0796 272.341 43.4334 272.518 49.1465C272.669 54.0096 277.941 58.2022 285.95 59.8263C287.835 60.2086 289.791 60.4303 291.764 60.4843C302.759 60.7877 310.14 56.5865 313.107 48.3349C316.33 39.3712 315.749 23.5745 304.265 18.137C302.804 17.4445 301.3 16.9392 299.795 16.6341Z" fill="#020001"/>
<path d="M304.583 56.9402C304.565 56.9366 304.548 56.9313 304.53 56.9238C304.496 56.909 301.112 55.3894 301.845 50.3346C302.576 45.2869 307.698 44.4318 307.751 44.4238C307.782 44.4189 307.813 44.4196 307.845 44.426C307.857 44.4284 307.868 44.4313 307.879 44.4352L309.66 45.0519C309.736 45.0786 309.796 45.1373 309.824 45.2128C309.851 45.2881 309.844 45.3721 309.803 45.4414L309.355 46.1981C309.309 46.276 309.227 46.3252 309.136 46.3292C309.124 46.3302 307.597 46.4632 305.404 49.3431C303.202 52.2348 304.868 56.5377 304.885 56.5805C304.925 56.6814 304.9 56.7957 304.823 56.8712C304.758 56.9323 304.669 56.9575 304.583 56.9402Z" fill="#0C0C0C"/>
<path d="M307.792 44.6905L309.573 45.3072L309.125 46.0637C309.125 46.0637 307.514 46.1325 305.192 49.1826C302.869 52.2333 304.637 56.681 304.637 56.681C304.637 56.681 301.398 55.2861 302.11 50.3756C302.822 45.4646 307.792 44.6905 307.792 44.6905ZM307.898 44.1658C307.836 44.1532 307.772 44.1515 307.709 44.1613C307.656 44.1696 302.34 45.0569 301.58 50.2979C300.818 55.5538 304.276 57.1082 304.425 57.1714C304.459 57.1862 304.494 57.1973 304.53 57.2046C304.701 57.2392 304.881 57.1886 305.009 57.0638C305.164 56.9129 305.213 56.6838 305.133 56.4824C305.117 56.4414 303.509 52.274 305.617 49.5057C307.708 46.7582 309.146 46.598 309.16 46.5963C309.332 46.581 309.498 46.483 309.585 46.3348L310.033 45.5782C310.115 45.4401 310.13 45.2721 310.075 45.1214C310.019 44.9707 309.899 44.8529 309.747 44.8001L307.967 44.1836C307.944 44.1768 307.921 44.1705 307.898 44.1658Z" fill="#020001"/>
<path d="M309.427 45.5449C309.427 45.5449 306.845 44.821 302.865 40.0675C298.886 35.3141 300.621 24.2869 300.621 24.2869C298.091 27.9291 293.35 29.4033 283.56 29.2808C273.77 29.1584 271.966 34.1653 271.698 36.905C271.429 39.6445 274.195 40.1341 274.195 40.1341C274.195 40.1341 272.164 41.8867 270.205 39.9242C268.247 37.9617 270.583 27.3496 274.372 23.4914C278.162 19.6332 290.105 10.8821 301.33 15.2539C312.556 19.6252 315.617 28.5158 316.08 36.0524C316.543 43.589 309.427 45.5449 309.427 45.5449Z" fill="#0C0C0C"/>
<path d="M301.859 34.3496C301.403 34.1525 300.951 33.942 300.5 33.7241C300.825 36.1097 301.516 38.4499 302.869 40.065C306.848 44.8184 309.43 45.5424 309.43 45.5424C309.43 45.5424 316.546 43.5864 316.083 36.0498C316.053 35.5729 316.014 35.0911 315.962 34.6052C311.641 36.2439 306.647 36.1803 301.859 34.3496Z" fill="#020001"/>
<path d="M283.562 29.2782C287.412 29.3263 290.477 29.1265 292.938 28.6466C289.136 25.1387 286.555 20.6869 286.633 15.6529C281.055 17.7328 276.468 21.3567 274.375 23.4888C270.585 27.347 268.249 37.9592 270.208 39.9216C272.166 41.8847 274.197 40.1314 274.197 40.1314C274.197 40.1314 271.431 39.6419 271.7 36.9024C271.968 34.1627 273.772 29.1557 283.562 29.2782Z" fill="#020001"/>
<path d="M274.197 40.1321C274.197 40.1321 271.43 39.6426 271.699 36.903C271.969 34.1635 273.772 29.1564 283.562 29.2789C293.352 29.4013 298.093 27.9271 300.622 24.2849C300.622 24.2849 298.888 35.3121 302.867 40.0656C306.846 44.819 309.428 45.543 309.428 45.543" stroke="#020001" stroke-width="0.9702" stroke-miterlimit="10" stroke-linecap="round" stroke-linejoin="round"/>
<path d="M308.724 46.9022C308.724 46.9022 310.414 42.6834 313.482 42.4122C316.551 42.141 318.084 44.6965 317.234 49.2048C316.384 53.7131 311.581 56.843 308.756 53.3849" fill="#B27709"/>
<path d="M308.724 46.9022C308.724 46.9022 310.414 42.6834 313.482 42.4122C316.551 42.141 318.084 44.6965 317.234 49.2048C316.384 53.7131 311.581 56.843 308.756 53.3849" stroke="#020001" stroke-width="0.9702" stroke-miterlimit="10" stroke-linecap="round" stroke-linejoin="round"/>
<path d="M315.854 47.4941C315.854 47.4941 316.202 45.5559 314.29 45.0765C312.379 44.5977 310.901 48.9552 310.901 48.9552C310.901 48.9552 312.219 48.5376 313.138 49.4087C314.056 50.2798 312.182 52.3196 310.737 51.1134" stroke="#020001" stroke-width="0.9702" stroke-miterlimit="10" stroke-linecap="round" stroke-linejoin="round"/>
<path d="M263.376 159.6C263.02 159.512 254.654 157.404 253.133 154.854C251.557 152.212 268.545 98.9956 270.356 95.5705C271.087 94.1856 270.958 91.3506 270.821 88.3493C270.665 84.9255 270.487 81.0449 271.493 78.1778C273.463 72.5575 278.45 68.2519 281.131 66.8589C283.958 65.3893 288.931 61.4336 288.982 61.3943L289.388 61.723C289.271 61.9564 277.629 85.2862 273.061 103.947C268.489 122.624 263.753 159.009 263.705 159.375L263.376 159.6Z" fill="#FFFEFB"/>
<path d="M289.149 61.6048C289.149 61.6048 277.43 84.9779 272.802 103.886C268.174 122.793 263.441 159.343 263.441 159.343C263.441 159.343 254.845 157.203 253.364 154.719C251.883 152.236 268.983 98.745 270.592 95.6978C272.203 92.6507 269.862 83.6417 271.745 78.2683C273.629 72.895 278.371 68.5969 281.255 67.0983C284.139 65.5985 289.149 61.6048 289.149 61.6048ZM288.816 61.1861C288.766 61.2255 283.813 65.165 281.008 66.6229C278.291 68.035 273.237 72.3973 271.241 78.0906C270.218 81.0071 270.397 84.9149 270.554 88.3626C270.689 91.3271 270.817 94.1269 270.12 95.4466C269.25 97.0926 264.481 111.583 260.307 125.263C251.801 153.142 252.631 154.535 252.904 154.992C254.454 157.592 262.409 159.637 263.311 159.861L263.971 159.411C264.018 159.046 268.753 122.674 273.322 104.012C277.882 85.3807 289.511 62.077 289.627 61.8435L288.816 61.1861Z" fill="#020001"/>
<path d="M287.748 77.0592C287.656 77.0405 287.572 77.0066 287.499 76.9592C285.911 75.9175 285.29 68.7285 285.224 67.9123C285.218 67.781 285.096 64.8947 286.303 63.859C286.692 63.5258 287.167 63.4129 287.716 63.5243C287.819 63.5451 287.926 63.5741 288.037 63.6125C288.142 63.6483 288.213 63.7438 288.218 63.8545C288.382 67.7347 288.755 71.9732 289.106 72.5959C289.723 72.4054 292.697 69.7056 294.882 67.721C296.939 65.8528 298.883 64.0881 299.728 63.5556C300.009 63.379 300.227 63.3147 300.414 63.3526C300.561 63.3823 300.679 63.4755 300.747 63.6148C301.136 64.4116 299.654 67.5072 299.191 68.4367C299.177 68.4637 299.159 68.4888 299.137 68.5097C298.183 69.4274 289.764 77.468 287.748 77.0592Z" fill="#BF1920"/>
<path d="M300.363 63.6113C301.211 63.7834 298.952 68.3143 298.952 68.3143C298.952 68.3143 289.739 77.1874 287.803 76.7948C287.744 76.7828 287.692 76.7622 287.647 76.7328C286.122 75.7326 285.492 67.8876 285.492 67.8876C285.492 67.8876 285.275 63.299 287.664 63.7835C287.756 63.8021 287.852 63.8283 287.952 63.8627C287.952 63.8627 288.314 72.4368 288.979 72.8522C288.988 72.8579 288.999 72.8619 289.011 72.8644C289.871 73.0389 297.944 64.9927 299.872 63.7786C300.094 63.6389 300.253 63.5892 300.363 63.6113ZM300.469 63.0871C300.128 63.0181 299.802 63.1904 299.586 63.3262C298.721 63.8714 296.769 65.6439 294.702 67.521C292.773 69.2723 290.208 71.6015 289.251 72.2018C288.943 71.0608 288.631 67.2654 288.486 63.8404C288.476 63.6202 288.333 63.4285 288.125 63.357C288.005 63.3158 287.885 63.2832 287.77 63.2598C287.145 63.133 286.578 63.2696 286.13 63.6536C284.846 64.7548 284.942 67.5938 284.957 67.9136C285.067 69.2845 285.694 76.092 287.353 77.1807C287.454 77.2474 287.57 77.2939 287.696 77.3194C289.748 77.7355 297.113 70.8267 299.322 68.6999C299.366 68.6576 299.403 68.6082 299.429 68.5535C300.358 66.6914 301.381 64.3029 300.987 63.4949C300.883 63.2785 300.699 63.1337 300.469 63.0871Z" fill="#020001"/>
<path d="M289.148 61.6041C289.148 61.6041 279.103 64.1019 275.854 66.7081L281.463 69.2737C281.463 69.2737 272.69 81.3009 272.661 82.4512C272.632 83.6016 273.514 101.138 273.514 101.138C273.514 101.138 279.786 80.0194 289.206 61.3216" fill="#FFFEFB"/>
<path d="M289.148 61.6041C289.148 61.6041 279.103 64.1019 275.854 66.7081L281.463 69.2737C281.463 69.2737 272.69 81.3009 272.661 82.4512C272.632 83.6016 273.514 101.138 273.514 101.138C273.514 101.138 279.786 80.0194 289.206 61.3216" stroke="#020001" stroke-width="0.9702" stroke-miterlimit="10" stroke-linecap="round" stroke-linejoin="bevel"/>
<path d="M295.037 167.949C290.631 167.056 286.963 165.658 284.135 163.795L284.015 163.57C284.016 163.079 284.181 114.237 287.679 97.8942C291.176 81.5519 299.669 62.2182 299.754 62.025L300.148 61.9113C300.714 62.2922 314.011 71.2719 314.951 74.5481C315.464 76.3356 313.783 86.3755 312.003 97.0054C310.572 105.549 309.093 114.384 309.141 117.078C309.164 118.406 309.345 121.295 309.574 124.953C310.349 137.356 311.792 160.442 309.957 168.783L309.714 168.993C309.644 168.996 302.515 169.466 295.037 167.949Z" fill="#FFFEFB"/>
<path d="M299.999 62.132C299.999 62.132 313.769 71.4002 314.693 74.6203C315.617 77.8409 308.768 111.208 308.873 117.081C308.978 122.955 312.06 157.979 309.696 168.724C309.696 168.724 302.619 169.214 295.089 167.687C291.324 166.923 287.446 165.656 284.282 163.57C284.282 163.57 284.408 114.454 287.94 97.949C291.472 81.4443 299.999 62.132 299.999 62.132ZM300.297 61.6879L299.509 61.9157C299.424 62.1094 290.92 81.4679 287.417 97.8373C283.914 114.207 283.748 163.078 283.747 163.569L283.987 164.017C286.844 165.9 290.543 167.311 294.983 168.211C302.496 169.735 309.661 169.263 309.733 169.258L310.218 168.839C312.062 160.461 310.617 137.351 309.84 124.935C309.612 121.281 309.432 118.394 309.408 117.072C309.36 114.402 310.837 105.579 312.266 97.0465C314.362 84.5256 315.7 76.19 315.207 74.473C314.257 71.1604 301.723 62.6477 300.297 61.6879Z" fill="#020001"/>
<path d="M309.002 119.989C308.931 118.716 308.883 117.723 308.872 117.079C308.827 114.593 310.028 107.184 311.359 99.2191L305.573 89.4107C305.573 89.4107 300.165 111.716 305.037 118.511C306.245 120.196 307.62 120.494 309.002 119.989Z" fill="#020001"/>
<path d="M300.002 62.1291C300.002 62.1291 307.603 69.1683 308.263 70.8951C308.924 72.6224 301.136 71.043 301.136 71.043C301.136 71.043 303.207 83.7902 302.843 85.5849C302.479 87.3797 287.036 103.389 287.036 103.389C287.036 103.389 287.933 90.6465 300.002 62.1291ZM300.108 61.6044C300.037 61.5899 299.963 61.59 299.89 61.6056C299.719 61.6419 299.577 61.7594 299.509 61.92C287.544 90.1924 286.512 103.222 286.502 103.35C286.487 103.575 286.613 103.785 286.818 103.877C286.854 103.893 286.892 103.905 286.93 103.912C287.106 103.948 287.292 103.893 287.421 103.759C290.018 101.068 302.991 87.5448 303.367 85.6906C303.699 84.0509 302.252 74.6521 301.785 71.7132C304.005 72.1245 307.794 72.6548 308.621 71.6782C308.85 71.4084 308.9 71.0625 308.763 70.7038C308.078 68.9119 301.153 62.4655 300.366 61.7359C300.292 61.6687 300.203 61.6235 300.108 61.6044Z" fill="#020001"/>
<path d="M318.178 77.1666C321.296 82.3609 321.506 95.1357 318.767 100.973C316.028 106.809 312.104 109.124 309.731 109.329C307.359 109.534 303.857 107.192 304.288 97.5399C304.719 87.8879 307.953 76.1205 307.953 76.1205C307.953 76.1205 309.687 81.4223 313.409 86.7959C317.131 92.1696 319.726 90.2825 319.726 90.2825C317.674 93.5811 314.697 101.875 314.826 102.161" fill="#FFFEFB"/>
<path d="M318.178 77.1666C321.296 82.3609 321.506 95.1357 318.767 100.973C316.028 106.809 312.104 109.124 309.731 109.329C307.359 109.534 303.857 107.192 304.288 97.5399C304.719 87.8879 307.953 76.1205 307.953 76.1205C307.953 76.1205 309.687 81.4223 313.409 86.7959C317.131 92.1696 319.726 90.2825 319.726 90.2825C317.674 93.5811 314.697 101.875 314.826 102.161" stroke="#020001" stroke-width="0.9702" stroke-miterlimit="10" stroke-linecap="round" stroke-linejoin="bevel"/>
<path d="M317.58 90.6778C311.789 89.5018 308.067 76.6821 307.912 76.1368L308.011 75.8475C308.13 75.7602 310.964 73.7147 313.842 74.2984C315.807 74.6968 317.284 76.2111 318.233 78.7983C321.128 86.6898 320.028 90.2185 319.98 90.3644L319.81 90.5348C319.071 90.78 318.321 90.8287 317.58 90.6785L317.58 90.6778Z" fill="#020001"/>
<path d="M313.79 74.5614C315.368 74.8815 316.937 76.0431 317.982 78.8916C320.878 86.7866 319.726 90.2816 319.726 90.2816C319.003 90.5215 318.305 90.5526 317.632 90.4163C311.935 89.2608 308.168 76.0642 308.168 76.0642C308.168 76.0642 310.994 73.9944 313.79 74.5614ZM313.896 74.0372C310.903 73.4302 307.976 75.543 307.853 75.6327L307.654 76.2108C307.812 76.7627 311.578 89.7343 317.526 90.9405C318.314 91.1003 319.11 91.0491 319.894 90.789L320.234 90.4488C320.284 90.2991 321.412 86.6849 318.484 78.7071C317.501 76.0264 315.958 74.4553 313.896 74.0372Z" fill="#020001"/>
<path d="M295.903 34.9958C295.971 35.0367 297.915 35.3218 298.899 34.2627" stroke="#020001" stroke-width="0.9702" stroke-miterlimit="10" stroke-linecap="round" stroke-linejoin="round"/>
<path d="M297.047 35.9278C297.073 35.9586 298.857 36.7731 299.893 36.3729" stroke="#020001" stroke-width="0.9702" stroke-miterlimit="10" stroke-linecap="round" stroke-linejoin="round"/>
<path d="M297.691 36.8535C297.716 36.903 298.605 38.1185 300.196 38.0911" stroke="#020001" stroke-width="0.9702" stroke-miterlimit="10" stroke-linecap="round" stroke-linejoin="round"/>
<path d="M317.044 90.2444C317.019 90.2394 316.994 90.2303 316.971 90.2184C311.653 87.426 308.146 76.7413 307.999 76.2877C307.984 76.2414 307.982 76.1921 307.992 76.1447C308.008 76.0765 309.591 69.3091 310.597 65.6961C311.661 61.8722 314.873 55.3672 317.482 53.8775C318.734 53.163 319.738 51.7709 320.623 50.5422C321.52 49.2988 322.294 48.2247 323.181 48.0203C323.451 47.958 323.712 47.952 323.959 48.0021C324.811 48.1747 325.289 48.9581 325.515 49.4681C325.673 49.2616 325.843 49.0097 326.02 48.749C326.829 47.5532 327.836 46.0649 329.237 46.3109C329.24 46.3114 329.289 46.3209 329.292 46.3215C330.363 46.5386 330.76 47.4614 330.901 48.2334C331.315 47.5267 332.024 46.7309 333.095 46.8272C333.181 46.8349 333.261 46.8468 333.338 46.8624C334.467 47.0912 334.82 48.1498 334.868 48.8837C334.999 48.8781 335.132 48.8887 335.262 48.9152C336.184 49.1022 337.021 50.0579 336.835 51.522C336.63 53.1374 334.272 56.394 333.935 56.8533C333.789 57.5992 332.464 64.0806 329.904 66.0893C328.525 67.1713 325.69 69.0855 323.188 70.7742C321.189 72.1248 319.121 73.5205 318.93 73.7446C318.757 74.1506 318.349 79.2168 318.052 82.9161C317.48 90.0324 317.438 90.0633 317.264 90.1939C317.203 90.24 317.119 90.259 317.044 90.2439L317.044 90.2444Z" fill="#B27709"/>
<path d="M333.285 47.1262C334.714 47.4161 334.603 49.1952 334.603 49.1952C334.798 49.1419 335.005 49.1377 335.209 49.1791C335.996 49.3386 336.736 50.1774 336.57 51.4902C336.36 53.1435 333.683 56.745 333.683 56.745C333.683 56.745 332.351 63.8315 329.738 65.8809C327.126 67.9302 319.107 73.0857 318.72 73.5806C318.334 74.074 317.349 90.0351 317.097 89.9841L317.095 89.9837C311.812 87.2104 308.253 76.2072 308.253 76.2072C308.253 76.2072 309.838 69.4195 310.854 65.7692C311.871 62.1191 315.076 55.5614 317.615 54.1117C320.155 52.6619 321.622 48.6562 323.241 48.283C323.487 48.2265 323.707 48.2262 323.906 48.2665C325.018 48.492 325.422 49.9884 325.422 49.9884C326.296 49.1366 327.474 46.2754 329.191 46.5768C329.207 46.5795 329.223 46.5827 329.238 46.5858C330.904 46.9236 330.699 49.3375 330.699 49.3375C330.699 49.3375 331.418 46.9474 333.072 47.096C333.145 47.1019 333.217 47.1124 333.285 47.1262ZM333.391 46.602C333.304 46.5844 333.214 46.5712 333.119 46.5625C332.171 46.4778 331.482 46.9987 331.012 47.5987C330.754 46.8819 330.25 46.2447 329.344 46.061L329.283 46.0491C327.711 45.773 326.605 47.4072 325.798 48.6006C325.714 48.7243 325.632 48.846 325.552 48.9609C325.254 48.4555 324.765 47.8937 324.012 47.7411C323.728 47.6834 323.428 47.6901 323.121 47.7607C322.136 47.988 321.334 49.0993 320.407 50.3869C319.537 51.5935 318.551 52.9606 317.35 53.6466C314.482 55.2845 311.261 62.3155 310.339 65.6253C309.331 69.2441 307.747 76.0169 307.732 76.0852C307.71 76.1798 307.714 76.2791 307.744 76.3712C307.892 76.8288 311.432 87.6143 316.846 90.4565C316.891 90.4802 316.941 90.4977 316.991 90.5077C317.14 90.5381 317.303 90.5012 317.425 90.409C317.719 90.1873 317.737 90.1741 318.318 82.942C318.601 79.4254 318.985 74.6482 319.181 73.8738C319.548 73.556 321.557 72.1996 323.338 70.9966C325.843 69.3057 328.682 67.3889 330.068 66.3012C332.645 64.28 333.988 57.9564 334.185 56.965C334.682 56.2871 336.893 53.1953 337.101 51.5568C337.307 49.9309 336.359 48.8659 335.316 48.6539C335.247 48.64 335.178 48.6299 335.109 48.6238C334.994 47.8307 334.554 46.8378 333.391 46.602Z" fill="#020001"/>
<path d="M320.473 56.7193C320.473 56.7193 319.475 61.8277 317.422 66.0656" stroke="#020001" stroke-width="0.9702" stroke-miterlimit="10" stroke-linecap="round" stroke-linejoin="round"/>
<path d="M333.893 56.7806C333.893 56.7806 334.52 54.5013 333.639 53.962C332.757 53.4231 330.922 54.0395 330.072 57.5593C329.223 61.0793 327.185 62.6921 327.185 62.6921" stroke="#020001" stroke-width="0.9702" stroke-miterlimit="10" stroke-linecap="round" stroke-linejoin="round"/>
<path d="M334.902 48.8172C334.902 48.8172 333.075 50.1999 331.899 52.4962C330.619 54.9958 326.147 59.905 326.147 59.905" stroke="#020001" stroke-width="0.9702" stroke-miterlimit="10" stroke-linecap="round" stroke-linejoin="round"/>
<path d="M330.938 48.155C330.938 48.155 328.319 53.9123 323.846 57.7646" stroke="#020001" stroke-width="0.9702" stroke-miterlimit="10" stroke-linecap="round" stroke-linejoin="round"/>
<path d="M280.235 34.7039C280.177 34.7439 279.062 34.8954 278.252 34.3018" stroke="#020001" stroke-width="0.9702" stroke-miterlimit="10" stroke-linecap="round" stroke-linejoin="round"/>
<path d="M279.347 35.4894C279.347 35.4894 278.147 36.0629 276.843 35.547" stroke="#020001" stroke-width="0.9702" stroke-miterlimit="10" stroke-linecap="round" stroke-linejoin="round"/>
<path d="M278.863 36.3856C278.863 36.3856 277.82 37.3061 276.38 36.8381" stroke="#020001" stroke-width="0.9702" stroke-miterlimit="10" stroke-linecap="round" stroke-linejoin="round"/>
<path d="M325.673 49.2647C325.673 49.2647 321.591 55.7588 320.475 56.7197" stroke="#020001" stroke-width="0.9702" stroke-miterlimit="10" stroke-linecap="round" stroke-linejoin="round"/>
<path d="M320.57 56.7409C321.098 56.8479 327.033 57.8766 327.245 63.2653" stroke="#020001" stroke-width="0.9702" stroke-miterlimit="10" stroke-linecap="round" stroke-linejoin="round"/>
<path d="M292.506 44.0058C289.795 43.4562 288.038 40.8041 288.587 38.0939C289.137 35.3836 291.789 33.6259 294.499 34.1755C297.209 34.7251 298.967 37.3772 298.418 40.0874C297.868 42.7977 295.216 44.5556 292.506 44.0058Z" fill="#FFFEFB"/>
<path d="M294.446 34.4394C297.016 34.9605 298.677 37.4663 298.155 40.0361C297.634 42.6058 295.128 44.2666 292.559 43.7455C289.989 43.2244 288.328 40.7185 288.849 38.1488C289.37 35.579 291.876 33.9181 294.446 34.4394ZM294.552 33.9152C291.697 33.3362 288.904 35.188 288.325 38.0425C287.746 40.8976 289.598 43.6908 292.452 44.2697C295.307 44.8487 298.101 42.9969 298.68 40.1424C299.258 37.2879 297.407 34.4941 294.552 33.9152Z" fill="#020001"/>
<path d="M295.128 39.4226L292.095 38.8075C292.491 36.8566 294.185 35.5286 295.849 35.866C297.513 36.2034 298.557 38.0867 298.161 40.0376C297.765 41.9886 296.071 43.3166 294.407 42.9791C293.46 42.7871 292.671 42.0853 292.277 41.0849L295.128 39.4226Z" fill="#020001"/>
<path d="M280.632 43.755C278.535 43.3296 277.276 40.7787 277.825 38.0685C278.375 35.3583 280.528 33.4993 282.626 33.9247C284.723 34.35 285.983 36.9011 285.433 39.6113C284.883 42.3215 282.73 44.1803 280.632 43.755Z" fill="#FFFEFB"/>
<path d="M282.573 34.1887C284.529 34.5854 285.693 36.9903 285.171 39.56C284.65 42.1297 282.642 43.8915 280.686 43.4948C278.73 43.098 277.566 40.6931 278.088 38.1234C278.609 35.5537 280.617 33.7919 282.573 34.1887ZM282.679 33.6645C280.437 33.2097 278.142 35.1626 277.563 38.0171C276.984 40.8722 278.337 43.5643 280.58 44.019C282.822 44.4737 285.117 42.5209 285.696 39.6663C286.275 36.8118 284.922 34.1192 282.679 33.6645Z" fill="#020001"/>
<path d="M282.861 39.0911L280.552 38.6229C280.948 36.672 282.315 35.2777 283.582 35.5346C284.849 35.7915 285.565 37.6084 285.17 39.5593C284.774 41.5103 283.406 42.9046 282.14 42.6477C281.419 42.5015 280.843 41.8429 280.586 40.8709L282.861 39.0911Z" fill="#020001"/>
<path d="M291.526 44.8883C291.526 44.8883 294.322 41.5956 298.691 43.7082L291.526 44.8883Z" fill="#B27709"/>
<path d="M291.526 44.8883C291.526 44.8883 294.322 41.5956 298.691 43.7082" stroke="#020001" stroke-width="0.9702" stroke-miterlimit="10" stroke-linecap="round" stroke-linejoin="round"/>
<path d="M286.555 42.0988C286.555 42.0988 283.291 41.0715 282.542 41.8238C281.793 42.5761 282.711 44.4464 283.883 45.2455" fill="#B27709"/>
<path d="M286.555 42.0988C286.555 42.0988 283.291 41.0715 282.542 41.8238C281.793 42.5761 282.711 44.4464 283.883 45.2455" stroke="#020001" stroke-width="0.9702" stroke-miterlimit="10" stroke-linecap="round" stroke-linejoin="round"/>
<path d="M286.027 54.2326C282.654 53.5487 280.823 52.0684 281.002 50.1713C281.003 50.1503 281.231 47.6003 284.133 47.7989C286.966 47.993 289.45 47.3896 291.727 45.9547C292.813 45.2701 294.06 45.0042 295.148 45.2248C296.763 45.5524 297.673 46.8465 297.521 48.6021C297.234 51.9356 293.246 54.412 289.846 54.5497C288.633 54.5985 287.277 54.4861 286.027 54.2326Z" fill="#FFFEFB"/>
<path d="M295.092 45.4882C296.427 45.759 297.405 46.8092 297.253 48.581C296.988 51.6573 293.319 54.143 289.833 54.2838C288.694 54.3297 287.354 54.2307 286.077 53.9717C283.444 53.4378 281.075 52.2236 281.266 50.1975C281.266 50.1975 281.441 47.8845 284.112 48.0671C286.782 48.2497 289.361 47.7616 291.867 46.1817C292.93 45.5122 294.108 45.2893 295.092 45.4882ZM295.198 44.964C294.043 44.7298 292.725 45.0088 291.581 45.7294C289.354 47.1334 286.923 47.7234 284.148 47.5337C281.616 47.3607 280.807 49.1743 280.732 50.1572C280.539 52.1966 282.448 53.7816 285.97 54.4959C287.241 54.7535 288.62 54.8677 289.854 54.8181C293.439 54.6731 297.481 52.1501 297.785 48.6265C297.95 46.7244 296.958 45.321 295.198 44.964Z" fill="#020001"/>
<path d="M284.287 48.0782C284.303 48.0792 283.294 51.1176 284.826 53.6581" stroke="#020001" stroke-width="0.9702" stroke-miterlimit="10" stroke-linecap="round" stroke-linejoin="round"/>
<path d="M286.98 47.9775C286.98 47.9775 286.6 52.0133 288.254 54.2573" stroke="#020001" stroke-width="0.9702" stroke-miterlimit="10" stroke-linecap="round" stroke-linejoin="round"/>
<path d="M290.074 47.126C290.074 47.126 292.101 51.0974 292.101 53.8752" stroke="#020001" stroke-width="0.9702" stroke-miterlimit="10" stroke-linecap="round" stroke-linejoin="round"/>
<path d="M292.566 45.8135C292.566 45.8135 295.749 48.2544 295.819 51.5798" stroke="#020001" stroke-width="0.9702" stroke-miterlimit="10" stroke-linecap="round" stroke-linejoin="round"/>
<path d="M297.347 33.4868C297.15 33.4467 296.939 33.369 296.753 33.2684C296.22 32.9779 294.297 32.1614 292.99 31.8965C292.628 31.8231 292.346 31.798 292.153 31.8217C292.124 31.8254 292.095 31.8235 292.067 31.8179C292.01 31.8063 291.957 31.7759 291.918 31.7302C291.86 31.6627 291.839 31.5707 291.863 31.4845C291.977 31.0737 292.388 29.7105 292.921 29.4219C292.988 29.385 293.195 29.2733 293.887 29.4136C294.959 29.6311 296.893 30.4193 297.82 31.6978C298.331 32.4011 298.475 32.9041 298.262 33.2351C298.101 33.4838 297.776 33.5737 297.347 33.4868Z" fill="#0C0C0C"/>
<path d="M293.829 29.677C294.912 29.8965 296.744 30.6766 297.6 31.856C298.491 33.0845 297.995 33.3479 297.398 33.2268C297.222 33.1911 297.038 33.1223 296.878 33.0352C296.323 32.7331 294.384 31.9084 293.041 31.6359C292.676 31.5619 292.355 31.5289 292.117 31.5577C292.117 31.5577 292.57 29.9161 293.044 29.659C293.167 29.5921 293.453 29.6006 293.829 29.677ZM293.936 29.1528C293.231 29.0097 292.944 29.1046 292.789 29.1881C292.203 29.5063 291.793 30.7196 291.601 31.4149C291.554 31.587 291.595 31.7715 291.712 31.9066C291.79 31.9973 291.896 32.0582 292.011 32.0814C292.066 32.0927 292.124 32.0953 292.182 32.088C292.275 32.0765 292.497 32.0708 292.934 32.1596C294.215 32.4192 296.1 33.2201 296.622 33.5044C296.83 33.6176 297.068 33.7052 297.291 33.7504C297.827 33.8592 298.262 33.7245 298.483 33.3805C298.856 32.8017 298.405 32.0536 298.032 31.5415C297.06 30.2016 295.05 29.3787 293.936 29.1528Z" fill="#020001"/>
<path d="M278.486 34.2703C278.448 34.2626 278.411 34.2467 278.379 34.2221C278.274 34.1441 277.965 33.8084 278.384 32.7783C278.797 31.7626 281.646 30.0785 282.241 30.1992C282.258 30.2027 282.295 30.2135 282.311 30.2201C282.393 30.2543 282.453 30.3277 282.47 30.4145C282.812 32.1325 282.616 32.2626 282.486 32.3487C282.422 32.391 282.328 32.4248 282.039 32.5253C281.292 32.7851 279.737 33.325 278.714 34.2102C278.65 34.2659 278.565 34.2864 278.486 34.2703Z" fill="#0C0C0C"/>
<path d="M282.188 30.4587C282.195 30.4602 282.202 30.4622 282.208 30.4645C282.208 30.4645 282.515 32.0059 282.338 32.1231C282.161 32.2403 279.899 32.8276 278.539 34.005C278.539 34.005 278.258 33.795 278.632 32.876C278.999 31.9731 281.753 30.3706 282.188 30.4587ZM282.294 29.9345C281.53 29.7796 278.574 31.5978 278.135 32.6752C277.658 33.8499 278.034 34.2965 278.218 34.4345C278.283 34.4831 278.356 34.5148 278.432 34.5302C278.59 34.5623 278.76 34.5218 278.888 34.4106C279.873 33.5587 281.395 33.0296 282.127 32.7757C282.426 32.6715 282.538 32.6329 282.633 32.5701C282.867 32.415 283.109 32.2547 282.732 30.3609C282.697 30.1861 282.578 30.0398 282.412 29.9715C282.382 29.9573 282.328 29.9414 282.294 29.9345Z" fill="#020001"/>
<path d="M312.711 47.8327C312.743 47.7406 316.005 50.2068 308.391 57.4415C300.777 64.6764 283.343 78.1691 274.453 76.3661C265.562 74.5631 270.347 60.7633 275.745 55.7764" stroke="#020001" stroke-width="2.9105" stroke-miterlimit="10" stroke-linecap="round" stroke-linejoin="round"/>
<path d="M270.816 64.876C270.816 64.876 275.281 72.4438 285.856 73.7009" stroke="#020001" stroke-width="2.9105" stroke-miterlimit="10" stroke-linecap="round" stroke-linejoin="round"/>
<path d="M272.076 75.3811C272.076 75.3811 259.293 103.488 245.754 104.28C232.215 105.073 225.473 89.3009 231.162 60.1357" stroke="#020001" stroke-width="2.9105" stroke-miterlimit="10" stroke-linecap="round" stroke-linejoin="round"/>
<path d="M302.396 46.449C302.266 47.091 301.089 47.3948 299.767 47.1267C298.446 46.8587 297.48 46.121 297.61 45.4784C297.74 44.8359 298.917 44.5327 300.239 44.8007C301.56 45.0692 302.526 45.807 302.396 46.449Z" fill="#BF1920"/>
<path d="M280.39 45.1619C280.26 45.8039 279.083 46.1077 277.761 45.8396C276.44 45.5716 275.474 44.8339 275.604 44.1913C275.734 43.5493 276.911 43.2455 278.233 43.5136C279.555 43.7822 280.52 44.5199 280.39 45.1619Z" fill="#BF1920"/>
<path d="M315.76 68.2838C315.76 68.2838 318.845 65.3788 323.316 64.9464" stroke="#020001" stroke-width="0.9702" stroke-miterlimit="10" stroke-linecap="round" stroke-linejoin="round"/>
<path d="M303.961 28.572C303.854 29.2968 303.847 30.1 304.285 30.6863C304.724 31.2728 305.756 31.4256 306.153 30.8103C306.447 30.3561 306.341 29.6286 306.821 29.3781C307.218 29.1705 307.685 29.4824 307.991 29.8096C308.496 30.3475 308.906 30.9779 309.47 31.4525C310.035 31.9271 310.829 32.2289 311.515 31.9568C312.201 31.6845 312.543 30.6607 311.992 30.1698C312.129 29.7664 312.695 29.6826 313.08 29.8648C313.465 30.047 313.738 30.3978 314.073 30.6604C314.408 30.923 314.894 31.0941 315.252 30.8622C315.563 30.6604 315.642 30.242 315.652 29.8711C315.682 28.8211 315.386 27.764 314.815 26.8824C314.506 26.4045 314.087 25.9577 313.538 25.8064C312.989 25.6546 312.305 25.9007 312.128 26.4421C311.97 26.926 312.243 27.4315 312.339 27.9315C312.434 28.4314 312.154 29.1155 311.652 29.0306C311.409 28.9892 311.238 28.776 311.102 28.5701C310.78 28.0828 310.523 27.5504 310.157 27.0962C309.79 26.642 309.278 26.2598 308.696 26.226C308.113 26.1922 307.487 26.6132 307.452 27.1959C307.427 27.6185 307.658 28.1497 307.317 28.4002C307.091 28.5664 306.75 28.446 306.578 28.2248C306.405 28.0035 306.352 27.715 306.289 27.4416C306.162 26.8926 305.941 26.3205 305.471 26.0076C303.826 24.9097 304.083 27.7538 303.961 28.572Z" fill="#F7F7F7"/>
<path d="M292.58 12.3505C291.862 12.4969 291.105 12.7647 290.703 13.3777C290.302 13.9906 290.511 15.0125 291.225 15.1753C291.753 15.2958 292.4 14.9482 292.799 15.3128C293.13 15.6151 292.996 16.1607 292.794 16.5602C292.46 17.2185 292.008 17.8182 291.755 18.5113C291.502 19.2043 291.489 20.0542 291.979 20.6054C292.47 21.1567 293.548 21.1284 293.822 20.4434C294.247 20.4335 294.52 20.9372 294.48 21.3613C294.44 21.7853 294.204 22.1622 294.071 22.5668C293.939 22.9716 293.944 23.4868 294.284 23.7431C294.58 23.9669 295 23.898 295.353 23.7809C296.35 23.4503 297.242 22.8109 297.876 21.9734C298.22 21.5193 298.496 20.9732 298.451 20.4055C298.406 19.8377 297.941 19.2785 297.372 19.2977C296.863 19.3149 296.482 19.7438 296.044 20.0046C295.607 20.2653 294.868 20.2353 294.777 19.7346C294.733 19.4921 294.875 19.2576 295.021 19.0595C295.37 18.5905 295.782 18.1684 296.083 17.6679C296.385 17.1681 296.569 16.5567 296.402 15.9968C296.235 15.4373 295.625 14.993 295.066 15.1597C294.66 15.2806 294.24 15.6786 293.887 15.444C293.654 15.2886 293.65 14.9267 293.799 14.6885C293.948 14.4503 294.201 14.3025 294.436 14.1499C294.909 13.8423 295.371 13.4397 295.505 12.8919C295.976 10.9714 293.39 12.1845 292.58 12.3505Z" fill="#F7F7F7"/>
<g filter="url(#filter1_d_3319_18650)">
<path opacity="0.1" fill-rule="evenodd" clip-rule="evenodd" d="M34.6406 148.25C82.8534 148.25 121.938 105.801 121.938 53.4375C121.938 1.074 82.8534 -41.375 34.6406 -41.375C-13.5721 -41.375 -52.6562 1.074 -52.6562 53.4375C-52.6562 105.801 -13.5721 148.25 34.6406 148.25Z" fill="#BC2C23"/>
<g opacity="0.99" filter="url(#filter2_d_3319_18650)">
<path fill-rule="evenodd" clip-rule="evenodd" d="M35 220C117.29 220 184 146.575 184 56C184 -34.5747 117.29 -108 35 -108C-47.2904 -108 -114 -34.5747 -114 56C-114 146.575 -47.2904 220 35 220Z" fill="#FE4646"/>
<path fill-rule="evenodd" clip-rule="evenodd" d="M35 220C117.29 220 184 146.575 184 56C184 -34.5747 117.29 -108 35 -108C-47.2904 -108 -114 -34.5747 -114 56C-114 146.575 -47.2904 220 35 220Z" stroke="#FE4646"/>
</g>
</g>
<path d="M18.5761 32.14C17.6428 32.14 16.8028 31.98 16.0561 31.66C15.3094 31.3267 14.7228 30.86 14.2961 30.26C13.8694 29.66 13.6561 28.96 13.6561 28.16H16.0961C16.1494 28.76 16.3828 29.2533 16.7961 29.64C17.2228 30.0267 17.8161 30.22 18.5761 30.22C19.3628 30.22 19.9761 30.0333 20.4161 29.66C20.8561 29.2733 21.0761 28.78 21.0761 28.18C21.0761 27.7133 20.9361 27.3333 20.6561 27.04C20.3894 26.7467 20.0494 26.52 19.6361 26.36C19.2361 26.2 18.6761 26.0267 17.9561 25.84C17.0494 25.6 16.3094 25.36 15.7361 25.12C15.1761 24.8667 14.6961 24.48 14.2961 23.96C13.8961 23.44 13.6961 22.7467 13.6961 21.88C13.6961 21.08 13.8961 20.38 14.2961 19.78C14.6961 19.18 15.2561 18.72 15.9761 18.4C16.6961 18.08 17.5294 17.92 18.4761 17.92C19.8228 17.92 20.9228 18.26 21.7761 18.94C22.6428 19.6067 23.1228 20.5267 23.2161 21.7H20.6961C20.6561 21.1933 20.4161 20.76 19.9761 20.4C19.5361 20.04 18.9561 19.86 18.2361 19.86C17.5828 19.86 17.0494 20.0267 16.6361 20.36C16.2228 20.6933 16.0161 21.1733 16.0161 21.8C16.0161 22.2267 16.1428 22.58 16.3961 22.86C16.6628 23.1267 16.9961 23.34 17.3961 23.5C17.7961 23.66 18.3428 23.8333 19.0361 24.02C19.9561 24.2733 20.7028 24.5267 21.2761 24.78C21.8628 25.0333 22.3561 25.4267 22.7561 25.96C23.1694 26.48 23.3761 27.18 23.3761 28.06C23.3761 28.7667 23.1828 29.4333 22.7961 30.06C22.4228 30.6867 21.8694 31.1933 21.1361 31.58C20.4161 31.9533 19.5628 32.14 18.5761 32.14ZM25.3064 26.44C25.3064 25.3333 25.5331 24.3533 25.9864 23.5C26.4531 22.6467 27.0797 21.9867 27.8664 21.52C28.6664 21.04 29.5464 20.8 30.5064 20.8C31.3731 20.8 32.1264 20.9733 32.7664 21.32C33.4197 21.6533 33.9397 22.0733 34.3264 22.58V20.98H36.6264V32H34.3264V30.36C33.9397 30.88 33.4131 31.3133 32.7464 31.66C32.0797 32.0067 31.3197 32.18 30.4664 32.18C29.5197 32.18 28.6531 31.94 27.8664 31.46C27.0797 30.9667 26.4531 30.2867 25.9864 29.42C25.5331 28.54 25.3064 27.5467 25.3064 26.44ZM34.3264 26.48C34.3264 25.72 34.1664 25.06 33.8464 24.5C33.5397 23.94 33.1331 23.5133 32.6264 23.22C32.1197 22.9267 31.5731 22.78 30.9864 22.78C30.3997 22.78 29.8531 22.9267 29.3464 23.22C28.8397 23.5 28.4264 23.92 28.1064 24.48C27.7997 25.0267 27.6464 25.68 27.6464 26.44C27.6464 27.2 27.7997 27.8667 28.1064 28.44C28.4264 29.0133 28.8397 29.4533 29.3464 29.76C29.8664 30.0533 30.4131 30.2 30.9864 30.2C31.5731 30.2 32.1197 30.0533 32.6264 29.76C33.1331 29.4667 33.5397 29.04 33.8464 28.48C34.1664 27.9067 34.3264 27.24 34.3264 26.48ZM40.7811 19.52C40.3678 19.52 40.0211 19.38 39.7411 19.1C39.4611 18.82 39.3211 18.4733 39.3211 18.06C39.3211 17.6467 39.4611 17.3 39.7411 17.02C40.0211 16.74 40.3678 16.6 40.7811 16.6C41.1811 16.6 41.5211 16.74 41.8011 17.02C42.0811 17.3 42.2211 17.6467 42.2211 18.06C42.2211 18.4733 42.0811 18.82 41.8011 19.1C41.5211 19.38 41.1811 19.52 40.7811 19.52ZM41.9011 20.98V32H39.6211V20.98H41.9011ZM47.1745 22.62C47.5612 22.0867 48.0879 21.6533 48.7545 21.32C49.4345 20.9733 50.1879 20.8 51.0145 20.8C51.9879 20.8 52.8679 21.0333 53.6545 21.5C54.4412 21.9667 55.0612 22.6333 55.5145 23.5C55.9679 24.3533 56.1945 25.3333 56.1945 26.44C56.1945 27.5467 55.9679 28.54 55.5145 29.42C55.0612 30.2867 54.4345 30.9667 53.6345 31.46C52.8479 31.94 51.9745 32.18 51.0145 32.18C50.1612 32.18 49.4012 32.0133 48.7345 31.68C48.0812 31.3467 47.5612 30.92 47.1745 30.4V32H44.8945V17.2H47.1745V22.62ZM53.8745 26.44C53.8745 25.68 53.7145 25.0267 53.3945 24.48C53.0879 23.92 52.6745 23.5 52.1545 23.22C51.6479 22.9267 51.1012 22.78 50.5145 22.78C49.9412 22.78 49.3945 22.9267 48.8745 23.22C48.3679 23.5133 47.9545 23.94 47.6345 24.5C47.3279 25.06 47.1745 25.72 47.1745 26.48C47.1745 27.24 47.3279 27.9067 47.6345 28.48C47.9545 29.04 48.3679 29.4667 48.8745 29.76C49.3945 30.0533 49.9412 30.2 50.5145 30.2C51.1012 30.2 51.6479 30.0533 52.1545 29.76C52.6745 29.4533 53.0879 29.0133 53.3945 28.44C53.7145 27.8667 53.8745 27.2 53.8745 26.44ZM57.6892 26.44C57.6892 25.3333 57.9159 24.3533 58.3692 23.5C58.8359 22.6467 59.4626 21.9867 60.2492 21.52C61.0492 21.04 61.9292 20.8 62.8892 20.8C63.7559 20.8 64.5092 20.9733 65.1492 21.32C65.8026 21.6533 66.3226 22.0733 66.7092 22.58V20.98H69.0092V32H66.7092V30.36C66.3226 30.88 65.7959 31.3133 65.1292 31.66C64.4626 32.0067 63.7026 32.18 62.8492 32.18C61.9026 32.18 61.0359 31.94 60.2492 31.46C59.4626 30.9667 58.8359 30.2867 58.3692 29.42C57.9159 28.54 57.6892 27.5467 57.6892 26.44ZM66.7092 26.48C66.7092 25.72 66.5492 25.06 66.2292 24.5C65.9226 23.94 65.5159 23.5133 65.0092 23.22C64.5026 22.9267 63.9559 22.78 63.3692 22.78C62.7826 22.78 62.2359 22.9267 61.7292 23.22C61.2226 23.5 60.8092 23.92 60.4892 24.48C60.1826 25.0267 60.0292 25.68 60.0292 26.44C60.0292 27.2 60.1826 27.8667 60.4892 28.44C60.8092 29.0133 61.2226 29.4533 61.7292 29.76C62.2492 30.0533 62.7959 30.2 63.3692 30.2C63.9559 30.2 64.5026 30.0533 65.0092 29.76C65.5159 29.4667 65.9226 29.04 66.2292 28.48C66.5492 27.9067 66.7092 27.24 66.7092 26.48Z" fill="white"/>
<path d="M66.1579 38.64V72H60.6859V49.152L50.5099 72H46.7179L36.4939 49.152V72H31.0219V38.64H36.9259L48.6379 64.8L60.3019 38.64H66.1579ZM71.526 58.656C71.526 56 72.07 53.648 73.158 51.6C74.278 49.552 75.782 47.968 77.67 46.848C79.59 45.696 81.702 45.12 84.006 45.12C86.086 45.12 87.894 45.536 89.43 46.368C90.998 47.168 92.246 48.176 93.174 49.392V45.552H98.694V72H93.174V68.064C92.246 69.312 90.982 70.352 89.382 71.184C87.782 72.016 85.958 72.432 83.91 72.432C81.638 72.432 79.558 71.856 77.67 70.704C75.782 69.52 74.278 67.888 73.158 65.808C72.07 63.696 71.526 61.312 71.526 58.656ZM93.174 58.752C93.174 56.928 92.79 55.344 92.022 54C91.286 52.656 90.31 51.632 89.094 50.928C87.878 50.224 86.566 49.872 85.158 49.872C83.75 49.872 82.438 50.224 81.222 50.928C80.006 51.6 79.014 52.608 78.246 53.952C77.51 55.264 77.142 56.832 77.142 58.656C77.142 60.48 77.51 62.08 78.246 63.456C79.014 64.832 80.006 65.888 81.222 66.624C82.47 67.328 83.782 67.68 85.158 67.68C86.566 67.68 87.878 67.328 89.094 66.624C90.31 65.92 91.286 64.896 92.022 63.552C92.79 62.176 93.174 60.576 93.174 58.752ZM108.665 42.048C107.673 42.048 106.841 41.712 106.169 41.04C105.497 40.368 105.161 39.536 105.161 38.544C105.161 37.552 105.497 36.72 106.169 36.048C106.841 35.376 107.673 35.04 108.665 35.04C109.625 35.04 110.441 35.376 111.113 36.048C111.785 36.72 112.121 37.552 112.121 38.544C112.121 39.536 111.785 40.368 111.113 41.04C110.441 41.712 109.625 42.048 108.665 42.048ZM111.353 45.552V72H105.881V45.552H111.353ZM128.138 72.432C126.058 72.432 124.186 72.064 122.522 71.328C120.89 70.56 119.594 69.536 118.634 68.256C117.674 66.944 117.162 65.488 117.098 63.888H122.762C122.858 65.008 123.386 65.952 124.346 66.72C125.338 67.456 126.57 67.824 128.042 67.824C129.578 67.824 130.762 67.536 131.594 66.96C132.458 66.352 132.89 65.584 132.89 64.656C132.89 63.664 132.41 62.928 131.45 62.448C130.522 61.968 129.034 61.44 126.986 60.864C125.002 60.32 123.386 59.792 122.138 59.28C120.89 58.768 119.802 57.984 118.874 56.928C117.978 55.872 117.53 54.48 117.53 52.752C117.53 51.344 117.946 50.064 118.778 48.912C119.61 47.728 120.794 46.8 122.33 46.128C123.898 45.456 125.69 45.12 127.706 45.12C130.714 45.12 133.13 45.888 134.954 47.424C136.81 48.928 137.802 50.992 137.93 53.616H132.458C132.362 52.432 131.882 51.488 131.018 50.784C130.154 50.08 128.986 49.728 127.514 49.728C126.074 49.728 124.97 50 124.202 50.544C123.434 51.088 123.05 51.808 123.05 52.704C123.05 53.408 123.306 54 123.818 54.48C124.33 54.96 124.954 55.344 125.69 55.632C126.426 55.888 127.514 56.224 128.954 56.64C130.874 57.152 132.442 57.68 133.658 58.224C134.906 58.736 135.978 59.504 136.874 60.528C137.77 61.552 138.234 62.912 138.266 64.608C138.266 66.112 137.85 67.456 137.018 68.64C136.186 69.824 135.002 70.752 133.466 71.424C131.962 72.096 130.186 72.432 128.138 72.432Z" fill="white"/>
<path d="M32.268 81.764V84.212H35.148V85.328H32.268V87.884H35.508V89H30.9V80.648H35.508V81.764H32.268ZM45.197 82.28C45.717 82.28 46.181 82.388 46.589 82.604C47.005 82.82 47.329 83.14 47.561 83.564C47.801 83.988 47.921 84.5 47.921 85.1V89H46.565V85.304C46.565 84.712 46.417 84.26 46.121 83.948C45.825 83.628 45.421 83.468 44.909 83.468C44.397 83.468 43.989 83.628 43.685 83.948C43.389 84.26 43.241 84.712 43.241 85.304V89H41.885V85.304C41.885 84.712 41.737 84.26 41.441 83.948C41.145 83.628 40.741 83.468 40.229 83.468C39.717 83.468 39.309 83.628 39.005 83.948C38.709 84.26 38.561 84.712 38.561 85.304V89H37.193V82.388H38.561V83.144C38.785 82.872 39.069 82.66 39.413 82.508C39.757 82.356 40.125 82.28 40.517 82.28C41.045 82.28 41.517 82.392 41.933 82.616C42.349 82.84 42.669 83.164 42.893 83.588C43.093 83.188 43.405 82.872 43.829 82.64C44.253 82.4 44.709 82.28 45.197 82.28ZM51.0297 83.36C51.2617 83.056 51.5777 82.8 51.9777 82.592C52.3777 82.384 52.8297 82.28 53.3337 82.28C53.9097 82.28 54.4337 82.424 54.9057 82.712C55.3857 82.992 55.7617 83.388 56.0337 83.9C56.3057 84.412 56.4417 85 56.4417 85.664C56.4417 86.328 56.3057 86.924 56.0337 87.452C55.7617 87.972 55.3857 88.38 54.9057 88.676C54.4337 88.964 53.9097 89.108 53.3337 89.108C52.8297 89.108 52.3817 89.008 51.9897 88.808C51.5977 88.6 51.2777 88.344 51.0297 88.04V92.144H49.6617V82.388H51.0297V83.36ZM55.0497 85.664C55.0497 85.208 54.9537 84.816 54.7617 84.488C54.5777 84.152 54.3297 83.9 54.0177 83.732C53.7137 83.556 53.3857 83.468 53.0337 83.468C52.6897 83.468 52.3617 83.556 52.0497 83.732C51.7457 83.908 51.4977 84.164 51.3057 84.5C51.1217 84.836 51.0297 85.232 51.0297 85.688C51.0297 86.144 51.1217 86.544 51.3057 86.888C51.4977 87.224 51.7457 87.48 52.0497 87.656C52.3617 87.832 52.6897 87.92 53.0337 87.92C53.3857 87.92 53.7137 87.832 54.0177 87.656C54.3297 87.472 54.5777 87.208 54.7617 86.864C54.9537 86.52 55.0497 86.12 55.0497 85.664ZM59.1625 83.348C59.3625 83.012 59.6265 82.752 59.9545 82.568C60.2905 82.376 60.6865 82.28 61.1425 82.28V83.696H60.7945C60.2585 83.696 59.8505 83.832 59.5705 84.104C59.2985 84.376 59.1625 84.848 59.1625 85.52V89H57.7945V82.388H59.1625V83.348ZM68.46 85.532C68.46 85.78 68.444 86.004 68.412 86.204H63.36C63.4 86.732 63.596 87.156 63.948 87.476C64.3 87.796 64.732 87.956 65.244 87.956C65.98 87.956 66.5 87.648 66.804 87.032H68.28C68.08 87.64 67.716 88.14 67.188 88.532C66.668 88.916 66.02 89.108 65.244 89.108C64.612 89.108 64.044 88.968 63.54 88.688C63.044 88.4 62.652 88 62.364 87.488C62.084 86.968 61.944 86.368 61.944 85.688C61.944 85.008 62.08 84.412 62.352 83.9C62.632 83.38 63.02 82.98 63.516 82.7C64.02 82.42 64.596 82.28 65.244 82.28C65.868 82.28 66.424 82.416 66.912 82.688C67.4 82.96 67.78 83.344 68.052 83.84C68.324 84.328 68.46 84.892 68.46 85.532ZM67.032 85.1C67.024 84.596 66.844 84.192 66.492 83.888C66.14 83.584 65.704 83.432 65.184 83.432C64.712 83.432 64.308 83.584 63.972 83.888C63.636 84.184 63.436 84.588 63.372 85.1H67.032ZM72.2063 89.108C71.6863 89.108 71.2183 89.016 70.8023 88.832C70.3943 88.64 70.0703 88.384 69.8303 88.064C69.5903 87.736 69.4623 87.372 69.4463 86.972H70.8623C70.8863 87.252 71.0183 87.488 71.2583 87.68C71.5063 87.864 71.8143 87.956 72.1823 87.956C72.5663 87.956 72.8623 87.884 73.0703 87.74C73.2863 87.588 73.3943 87.396 73.3943 87.164C73.3943 86.916 73.2743 86.732 73.0343 86.612C72.8023 86.492 72.4303 86.36 71.9183 86.216C71.4223 86.08 71.0183 85.948 70.7063 85.82C70.3943 85.692 70.1223 85.496 69.8903 85.232C69.6663 84.968 69.5543 84.62 69.5543 84.188C69.5543 83.836 69.6583 83.516 69.8663 83.228C70.0743 82.932 70.3703 82.7 70.7543 82.532C71.1463 82.364 71.5943 82.28 72.0983 82.28C72.8503 82.28 73.4543 82.472 73.9103 82.856C74.3743 83.232 74.6223 83.748 74.6543 84.404H73.2863C73.2623 84.108 73.1423 83.872 72.9263 83.696C72.7103 83.52 72.4183 83.432 72.0503 83.432C71.6903 83.432 71.4143 83.5 71.2223 83.636C71.0303 83.772 70.9343 83.952 70.9343 84.176C70.9343 84.352 70.9983 84.5 71.1263 84.62C71.2543 84.74 71.4103 84.836 71.5943 84.908C71.7783 84.972 72.0503 85.056 72.4103 85.16C72.8903 85.288 73.2823 85.42 73.5863 85.556C73.8983 85.684 74.1663 85.876 74.3903 86.132C74.6143 86.388 74.7303 86.728 74.7383 87.152C74.7383 87.528 74.6343 87.864 74.4263 88.16C74.2183 88.456 73.9223 88.688 73.5383 88.856C73.1623 89.024 72.7183 89.108 72.2063 89.108ZM75.7604 85.664C75.7604 85 75.8964 84.412 76.1684 83.9C76.4484 83.388 76.8244 82.992 77.2964 82.712C77.7764 82.424 78.3044 82.28 78.8804 82.28C79.4004 82.28 79.8524 82.384 80.2364 82.592C80.6284 82.792 80.9404 83.044 81.1724 83.348V82.388H82.5524V89H81.1724V88.016C80.9404 88.328 80.6244 88.588 80.2244 88.796C79.8244 89.004 79.3684 89.108 78.8564 89.108C78.2884 89.108 77.7684 88.964 77.2964 88.676C76.8244 88.38 76.4484 87.972 76.1684 87.452C75.8964 86.924 75.7604 86.328 75.7604 85.664ZM81.1724 85.688C81.1724 85.232 81.0764 84.836 80.8844 84.5C80.7004 84.164 80.4564 83.908 80.1524 83.732C79.8484 83.556 79.5204 83.468 79.1684 83.468C78.8164 83.468 78.4884 83.556 78.1844 83.732C77.8804 83.9 77.6324 84.152 77.4404 84.488C77.2564 84.816 77.1644 85.208 77.1644 85.664C77.1644 86.12 77.2564 86.52 77.4404 86.864C77.6324 87.208 77.8804 87.472 78.1844 87.656C78.4964 87.832 78.8244 87.92 79.1684 87.92C79.5204 87.92 79.8484 87.832 80.1524 87.656C80.4564 87.48 80.7004 87.224 80.8844 86.888C81.0764 86.544 81.1724 86.144 81.1724 85.688ZM86.7492 89.108C86.2292 89.108 85.7612 89.016 85.3452 88.832C84.9372 88.64 84.6132 88.384 84.3732 88.064C84.1332 87.736 84.0052 87.372 83.9892 86.972H85.4052C85.4292 87.252 85.5612 87.488 85.8012 87.68C86.0492 87.864 86.3572 87.956 86.7252 87.956C87.1092 87.956 87.4052 87.884 87.6132 87.74C87.8292 87.588 87.9372 87.396 87.9372 87.164C87.9372 86.916 87.8172 86.732 87.5772 86.612C87.3452 86.492 86.9732 86.36 86.4612 86.216C85.9652 86.08 85.5612 85.948 85.2492 85.82C84.9372 85.692 84.6652 85.496 84.4332 85.232C84.2092 84.968 84.0972 84.62 84.0972 84.188C84.0972 83.836 84.2012 83.516 84.4092 83.228C84.6172 82.932 84.9132 82.7 85.2972 82.532C85.6892 82.364 86.1372 82.28 86.6412 82.28C87.3932 82.28 87.9972 82.472 88.4532 82.856C88.9172 83.232 89.1652 83.748 89.1972 84.404H87.8292C87.8052 84.108 87.6852 83.872 87.4692 83.696C87.2532 83.52 86.9612 83.432 86.5932 83.432C86.2332 83.432 85.9572 83.5 85.7652 83.636C85.5732 83.772 85.4772 83.952 85.4772 84.176C85.4772 84.352 85.5412 84.5 85.6692 84.62C85.7972 84.74 85.9532 84.836 86.1372 84.908C86.3212 84.972 86.5932 85.056 86.9532 85.16C87.4332 85.288 87.8252 85.42 88.1292 85.556C88.4412 85.684 88.7092 85.876 88.9332 86.132C89.1572 86.388 89.2732 86.728 89.2812 87.152C89.2812 87.528 89.1772 87.864 88.9692 88.16C88.7612 88.456 88.4652 88.688 88.0812 88.856C87.7052 89.024 87.2612 89.108 86.7492 89.108ZM99.9366 85.532C99.9366 85.78 99.9206 86.004 99.8886 86.204H94.8366C94.8766 86.732 95.0726 87.156 95.4246 87.476C95.7766 87.796 96.2086 87.956 96.7206 87.956C97.4566 87.956 97.9766 87.648 98.2806 87.032H99.7566C99.5566 87.64 99.1926 88.14 98.6646 88.532C98.1446 88.916 97.4966 89.108 96.7206 89.108C96.0886 89.108 95.5206 88.968 95.0166 88.688C94.5206 88.4 94.1286 88 93.8406 87.488C93.5606 86.968 93.4206 86.368 93.4206 85.688C93.4206 85.008 93.5566 84.412 93.8286 83.9C94.1086 83.38 94.4966 82.98 94.9926 82.7C95.4966 82.42 96.0726 82.28 96.7206 82.28C97.3446 82.28 97.9006 82.416 98.3886 82.688C98.8766 82.96 99.2566 83.344 99.5286 83.84C99.8006 84.328 99.9366 84.892 99.9366 85.532ZM98.5086 85.1C98.5006 84.596 98.3206 84.192 97.9686 83.888C97.6166 83.584 97.1806 83.432 96.6606 83.432C96.1886 83.432 95.7846 83.584 95.4486 83.888C95.1126 84.184 94.9126 84.588 94.8486 85.1H98.5086ZM107.736 82.28C108.256 82.28 108.72 82.388 109.128 82.604C109.544 82.82 109.868 83.14 110.1 83.564C110.332 83.988 110.448 84.5 110.448 85.1V89H109.092V85.304C109.092 84.712 108.944 84.26 108.648 83.948C108.352 83.628 107.948 83.468 107.436 83.468C106.924 83.468 106.516 83.628 106.212 83.948C105.916 84.26 105.768 84.712 105.768 85.304V89H104.4V82.388H105.768V83.144C105.992 82.872 106.276 82.66 106.62 82.508C106.972 82.356 107.344 82.28 107.736 82.28ZM118.253 85.532C118.253 85.78 118.237 86.004 118.205 86.204H113.153C113.193 86.732 113.389 87.156 113.741 87.476C114.093 87.796 114.525 87.956 115.037 87.956C115.773 87.956 116.293 87.648 116.597 87.032H118.073C117.873 87.64 117.509 88.14 116.981 88.532C116.461 88.916 115.813 89.108 115.037 89.108C114.405 89.108 113.837 88.968 113.333 88.688C112.837 88.4 112.445 88 112.157 87.488C111.877 86.968 111.737 86.368 111.737 85.688C111.737 85.008 111.873 84.412 112.145 83.9C112.425 83.38 112.813 82.98 113.309 82.7C113.813 82.42 114.389 82.28 115.037 82.28C115.661 82.28 116.217 82.416 116.705 82.688C117.193 82.96 117.573 83.344 117.845 83.84C118.117 84.328 118.253 84.892 118.253 85.532ZM116.825 85.1C116.817 84.596 116.637 84.192 116.285 83.888C115.933 83.584 115.497 83.432 114.977 83.432C114.505 83.432 114.101 83.584 113.765 83.888C113.429 84.184 113.229 84.588 113.165 85.1H116.825ZM121.195 83.504V87.164C121.195 87.412 121.251 87.592 121.363 87.704C121.483 87.808 121.683 87.86 121.963 87.86H122.803V89H121.723C121.107 89 120.635 88.856 120.307 88.568C119.979 88.28 119.815 87.812 119.815 87.164V83.504H119.035V82.388H119.815V80.744H121.195V82.388H122.803V83.504H121.195ZM132.944 82.388L130.892 89H129.452L128.12 84.116L126.788 89H125.348L123.284 82.388H124.676L126.056 87.704L127.46 82.388H128.888L130.232 87.68L131.6 82.388H132.944ZM136.834 89.108C136.21 89.108 135.646 88.968 135.142 88.688C134.638 88.4 134.242 88 133.954 87.488C133.666 86.968 133.522 86.368 133.522 85.688C133.522 85.016 133.67 84.42 133.966 83.9C134.262 83.38 134.666 82.98 135.178 82.7C135.69 82.42 136.262 82.28 136.894 82.28C137.526 82.28 138.098 82.42 138.61 82.7C139.122 82.98 139.526 83.38 139.822 83.9C140.118 84.42 140.266 85.016 140.266 85.688C140.266 86.36 140.114 86.956 139.81 87.476C139.506 87.996 139.09 88.4 138.562 88.688C138.042 88.968 137.466 89.108 136.834 89.108ZM136.834 87.92C137.186 87.92 137.514 87.836 137.818 87.668C138.13 87.5 138.382 87.248 138.574 86.912C138.766 86.576 138.862 86.168 138.862 85.688C138.862 85.208 138.77 84.804 138.586 84.476C138.402 84.14 138.158 83.888 137.854 83.72C137.55 83.552 137.222 83.468 136.87 83.468C136.518 83.468 136.19 83.552 135.886 83.72C135.59 83.888 135.354 84.14 135.178 84.476C135.002 84.804 134.914 85.208 134.914 85.688C134.914 86.4 135.094 86.952 135.454 87.344C135.822 87.728 136.282 87.92 136.834 87.92ZM142.987 83.348C143.187 83.012 143.451 82.752 143.779 82.568C144.115 82.376 144.511 82.28 144.967 82.28V83.696H144.619C144.083 83.696 143.675 83.832 143.395 84.104C143.123 84.376 142.987 84.848 142.987 85.52V89H141.619V82.388H142.987V83.348ZM148.84 85.7L151.888 89H150.04L147.592 86.156V89H146.224V80.12H147.592V85.28L149.992 82.388H151.888L148.84 85.7ZM153.565 81.512C153.317 81.512 153.109 81.428 152.941 81.26C152.773 81.092 152.689 80.884 152.689 80.636C152.689 80.388 152.773 80.18 152.941 80.012C153.109 79.844 153.317 79.76 153.565 79.76C153.805 79.76 154.009 79.844 154.177 80.012C154.345 80.18 154.429 80.388 154.429 80.636C154.429 80.884 154.345 81.092 154.177 81.26C154.009 81.428 153.805 81.512 153.565 81.512ZM154.237 82.388V89H152.869V82.388H154.237ZM159.369 82.28C159.889 82.28 160.353 82.388 160.761 82.604C161.177 82.82 161.501 83.14 161.733 83.564C161.965 83.988 162.081 84.5 162.081 85.1V89H160.725V85.304C160.725 84.712 160.577 84.26 160.281 83.948C159.985 83.628 159.581 83.468 159.069 83.468C158.557 83.468 158.149 83.628 157.845 83.948C157.549 84.26 157.401 84.712 157.401 85.304V89H156.033V82.388H157.401V83.144C157.625 82.872 157.909 82.66 158.253 82.508C158.605 82.356 158.977 82.28 159.369 82.28ZM166.49 82.28C167.002 82.28 167.454 82.384 167.846 82.592C168.246 82.792 168.558 83.044 168.782 83.348V82.388H170.162V89.108C170.162 89.716 170.034 90.256 169.778 90.728C169.522 91.208 169.15 91.584 168.662 91.856C168.182 92.128 167.606 92.264 166.934 92.264C166.038 92.264 165.294 92.052 164.702 91.628C164.11 91.212 163.774 90.644 163.694 89.924H165.05C165.154 90.268 165.374 90.544 165.71 90.752C166.054 90.968 166.462 91.076 166.934 91.076C167.486 91.076 167.93 90.908 168.266 90.572C168.61 90.236 168.782 89.748 168.782 89.108V88.004C168.55 88.316 168.234 88.58 167.834 88.796C167.442 89.004 166.994 89.108 166.49 89.108C165.914 89.108 165.386 88.964 164.906 88.676C164.434 88.38 164.058 87.972 163.778 87.452C163.506 86.924 163.37 86.328 163.37 85.664C163.37 85 163.506 84.412 163.778 83.9C164.058 83.388 164.434 82.992 164.906 82.712C165.386 82.424 165.914 82.28 166.49 82.28ZM168.782 85.688C168.782 85.232 168.686 84.836 168.494 84.5C168.31 84.164 168.066 83.908 167.762 83.732C167.458 83.556 167.13 83.468 166.778 83.468C166.426 83.468 166.098 83.556 165.794 83.732C165.49 83.9 165.242 84.152 165.05 84.488C164.866 84.816 164.774 85.208 164.774 85.664C164.774 86.12 164.866 86.52 165.05 86.864C165.242 87.208 165.49 87.472 165.794 87.656C166.106 87.832 166.434 87.92 166.778 87.92C167.13 87.92 167.458 87.832 167.762 87.656C168.066 87.48 168.31 87.224 168.494 86.888C168.686 86.544 168.782 86.144 168.782 85.688Z" fill="white"/>
</g>
</g>
<defs>
<filter id="filter0_d_3319_18650" x="-4" y="0" width="342" height="121" filterUnits="userSpaceOnUse" color-interpolation-filters="sRGB">
<feFlood flood-opacity="0" result="BackgroundImageFix"/>
<feColorMatrix in="SourceAlpha" type="matrix" values="0 0 0 0 0 0 0 0 0 0 0 0 0 0 0 0 0 0 127 0" result="hardAlpha"/>
<feOffset dy="4"/>
<feGaussianBlur stdDeviation="2"/>
<feComposite in2="hardAlpha" operator="out"/>
<feColorMatrix type="matrix" values="0 0 0 0 0 0 0 0 0 0 0 0 0 0 0 0 0 0 0.25 0"/>
<feBlend mode="normal" in2="BackgroundImageFix" result="effect1_dropShadow_3319_18650"/>
<feBlend mode="normal" in="SourceGraphic" in2="effect1_dropShadow_3319_18650" result="shape"/>
</filter>
<filter id="filter1_d_3319_18650" x="-128.3" y="-118.3" width="326.6" height="356.6" filterUnits="userSpaceOnUse" color-interpolation-filters="sRGB">
<feFlood flood-opacity="0" result="BackgroundImageFix"/>
<feColorMatrix in="SourceAlpha" type="matrix" values="0 0 0 0 0 0 0 0 0 0 0 0 0 0 0 0 0 0 127 0" result="hardAlpha"/>
<feOffset dy="4"/>
<feGaussianBlur stdDeviation="6.9"/>
<feComposite in2="hardAlpha" operator="out"/>
<feColorMatrix type="matrix" values="0 0 0 0 0 0 0 0 0 0 0 0 0 0 0 0 0 0 0.25 0"/>
<feBlend mode="normal" in2="BackgroundImageFix" result="effect1_dropShadow_3319_18650"/>
<feBlend mode="normal" in="SourceGraphic" in2="effect1_dropShadow_3319_18650" result="shape"/>
</filter>
<filter id="filter2_d_3319_18650" x="-118.5" y="-108.5" width="307" height="337" filterUnits="userSpaceOnUse" color-interpolation-filters="sRGB">
<feFlood flood-opacity="0" result="BackgroundImageFix"/>
<feColorMatrix in="SourceAlpha" type="matrix" values="0 0 0 0 0 0 0 0 0 0 0 0 0 0 0 0 0 0 127 0" result="hardAlpha"/>
<feOffset dy="4"/>
<feGaussianBlur stdDeviation="2"/>
<feComposite in2="hardAlpha" operator="out"/>
<feColorMatrix type="matrix" values="0 0 0 0 0 0 0 0 0 0 0 0 0 0 0 0 0 0 0.25 0"/>
<feBlend mode="normal" in2="BackgroundImageFix" result="effect1_dropShadow_3319_18650"/>
<feBlend mode="normal" in="SourceGraphic" in2="effect1_dropShadow_3319_18650" result="shape"/>
</filter>
<clipPath id="clip0_3319_18650">
<rect width="334" height="113" rx="15" fill="white"/>
</clipPath>
</defs>
</svg>
