<svg width="22" height="23" viewBox="0 0 22 23" fill="none" xmlns="http://www.w3.org/2000/svg">
<path d="M14.377 10.2649L13.387 11.2769C12.595 12.0689 12.1 12.7399 12.1 14.3899H9.9V13.8399C9.9 12.6189 10.395 11.5189 11.187 10.7269L12.551 9.34091C12.958 8.9449 13.2 8.39491 13.2 7.78991C13.2 6.5689 12.21 5.5899 11 5.5899C10.4165 5.5899 9.85695 5.82169 9.44437 6.23427C9.03179 6.64685 8.8 7.20643 8.8 7.78991H6.6C6.6 6.62295 7.06357 5.50379 7.88873 4.67863C8.71389 3.85347 9.83305 3.3899 11 3.3899C12.167 3.3899 13.2861 3.85347 14.1113 4.67863C14.9364 5.50379 15.4 6.62295 15.4 7.78991C15.4 8.75791 15.004 9.62691 14.377 10.2649ZM12.1 18.7899H9.9V16.5899H12.1V18.7899ZM11 0.0899048C9.55546 0.0899048 8.12506 0.374428 6.79048 0.92723C5.4559 1.48003 4.24327 2.29029 3.22183 3.31173C1.15893 5.37463 0 8.17252 0 11.0899C0 14.0073 1.15893 16.8052 3.22183 18.8681C4.24327 19.8895 5.4559 20.6998 6.79048 21.2526C8.12506 21.8054 9.55546 22.0899 11 22.0899C13.9174 22.0899 16.7153 20.931 18.7782 18.8681C20.8411 16.8052 22 14.0073 22 11.0899C22 5.0069 17.05 0.0899048 11 0.0899048Z" fill="#484C52"/>
</svg>
