<svg width="41" height="22" viewBox="0 0 41 22" fill="none" xmlns="http://www.w3.org/2000/svg">
<path d="M20.875 2C22.0685 2 23.2131 2.47411 24.057 3.31802C24.9009 4.16193 25.375 5.30653 25.375 6.5C25.375 7.69347 24.9009 8.83807 24.057 9.68198C23.2131 10.5259 22.0685 11 20.875 11C19.6815 11 18.5369 10.5259 17.693 9.68198C16.8491 8.83807 16.375 7.69347 16.375 6.5C16.375 5.30653 16.8491 4.16193 17.693 3.31802C18.5369 2.47411 19.6815 2 20.875 2ZM20.875 13.25C25.8475 13.25 29.875 15.2638 29.875 17.75V20H11.875V17.75C11.875 15.2638 15.9025 13.25 20.875 13.25Z" fill="#686B6F"/>
</svg>
